<svg width="144" height="48" viewBox="0 0 144 48" fill="none" xmlns="http://www.w3.org/2000/svg">
    <g clip-path="url(#clip0_18876_40579)">
        <g clip-path="url(#clip1_18876_40579)">
            <path d="M8.00392 15.6761L14.3727 12L20.7415 15.6761L18.4 17.0342L14.3727 14.7161L10.3454 17.0342L8.00392 15.6761ZM20.7415 20.3122L18.4 18.9542L14.3727 21.2722L10.3454 18.9542L8.00392 20.3122V23.0283L12.0312 25.3463V29.9824L14.3727 31.3405L16.7142 29.9824V25.3463L20.7415 23.0283V20.3122ZM20.7415 27.6644V24.9483L18.4 26.3063V29.0224L20.7415 27.6644ZM22.4039 28.6244L18.3766 30.9424V33.6585L24.7454 29.9824V22.6302L22.4039 23.9883V28.6244ZM20.0625 17.9942L22.4039 19.3522V22.0683L24.7454 20.7102V17.9942L22.4039 16.6361L20.0625 17.9942ZM12.0312 31.9259V34.642L14.3727 36L16.7142 34.642V31.9259L14.3727 33.2839L12.0312 31.9259ZM8.00392 27.6644L10.3454 29.0224V26.3063L8.00392 24.9483V27.6644ZM12.0312 17.9942L14.3727 19.3522L16.7142 17.9942L14.3727 16.6361L12.0312 17.9942ZM6.34146 19.3522L8.68293 17.9942L6.34146 16.6361L4 17.9942V20.7102L6.34146 22.0683V19.3522ZM6.34146 23.9883L4 22.6302V29.9824L10.3688 33.6585V30.9424L6.34146 28.6244V23.9883Z" fill="#F0B90B"/>
            <path d="M43.2048 27.0613V27.0231C43.2048 25.2295 42.2507 24.3327 40.7052 23.7412C41.6592 23.207 42.4606 22.3674 42.4606 20.86V20.8218C42.4606 18.7229 40.7815 17.3682 38.0529 17.3682H31.8516V30.7249H38.2056C41.2204 30.7249 43.2048 29.5037 43.2048 27.0613ZM39.5412 21.3561C39.5412 22.3483 38.7208 22.7681 37.4233 22.7681H34.7138V19.9441H37.6141C38.8543 19.9441 39.5412 20.4402 39.5412 21.3179V21.3561ZM40.2854 26.6988C40.2854 27.691 39.5031 28.1489 38.2056 28.1489H34.7138V25.2105H38.1102C39.6176 25.2105 40.2854 25.7638 40.2854 26.6606V26.6988Z" fill="#F0B90B"/>
            <path d="M57.6814 30.7249V17.3682H54.781V25.5921L48.5225 17.3682H45.813V30.7249H48.7133V22.2338L55.1817 30.7249H57.6814Z" fill="#F0B90B"/>
            <path d="M72.4318 27.0613V27.0231C72.4318 25.2295 71.4777 24.3327 69.9322 23.7412C70.8862 23.207 71.6876 22.3674 71.6876 20.86V20.8218C71.6876 18.7229 70.0085 17.3682 67.2799 17.3682H61.0786V30.7249H67.4326C70.4474 30.7249 72.4318 29.5037 72.4318 27.0613ZM68.7683 21.3561C68.7683 22.3483 67.9478 22.7681 66.6503 22.7681H63.9408V19.9441H66.8411C68.0813 19.9441 68.7683 20.4402 68.7683 21.3179V21.3561ZM69.5124 26.6988C69.5124 27.691 68.7301 28.1489 67.4326 28.1489H63.9408V25.2105H67.3372C68.8446 25.2105 69.5124 25.7638 69.5124 26.6606V26.6988Z" fill="#F0B90B"/>
            <path d="M90.1411 28.3655L88.6337 26.8391C87.4888 27.9076 86.4394 28.5754 84.7984 28.5754C82.2415 28.5754 80.3907 26.4384 80.3907 23.8052C80.3907 21.1721 82.2415 19.0731 84.7984 19.0731C86.3249 19.0731 87.4697 19.741 88.5383 20.7332L90.0457 18.9968C88.7672 17.7756 87.2789 16.917 84.8175 16.917C80.7723 16.917 77.9292 20.0272 77.9292 23.8434C77.9292 27.6977 80.8296 30.7316 84.7221 30.7316C87.2217 30.7316 88.7482 29.8157 90.1411 28.3655Z" fill="#F0B90B"/>
            <path d="M101.519 24.8743V30.5032H103.866V17.1465H101.519V22.6991H95.1458V17.1465H92.7988V30.5032H95.1458V24.8743H101.519Z" fill="#F0B90B"/>
            <path d="M114.394 17.0508H112.219L106.342 30.5029H108.746L110.12 27.2782H116.436L117.791 30.5029H120.271L114.394 17.0508ZM115.577 25.1984H110.979L113.268 19.8557L115.577 25.1984Z" fill="#F0B90B"/>
            <path d="M122.886 17.1465V30.5032H125.233V17.1465H122.886Z" fill="#F0B90B"/>
            <path d="M138.33 26.3817L131.174 17.1465H128.999V30.5032H131.308V21.0008L138.673 30.5032H140.639V17.1465H138.33V26.3817Z" fill="#F0B90B"/>
        </g>
    </g>
    <defs>
        <clipPath id="clip0_18876_40579">
            <rect width="144" height="48" fill="white"/>
        </clipPath>
        <clipPath id="clip1_18876_40579">
            <rect width="137" height="24" fill="white" transform="translate(4 12)"/>
        </clipPath>
    </defs>
</svg>
