<svg width="144" height="48" viewBox="0 0 144 48" fill="none" xmlns="http://www.w3.org/2000/svg">
    <g clip-path="url(#clip0_21123_87174)">
        <g clip-path="url(#clip1_21123_87174)">
            <path d="M24.4506 24.5L22.1038 26.8581L19.7344 24.5L22.1029 22.1209L24.4506 24.5ZM30.1877 18.7372L34.2297 22.7972L36.5991 20.419L30.1877 14L23.7763 20.44L26.1458 22.8182L30.1877 18.7372ZM38.2725 22.1209L35.9248 24.5L38.2934 26.8791L40.6611 24.5L38.2725 22.1209ZM30.1877 30.2628L26.1458 26.1817L23.7763 28.5609L30.1877 35L36.5991 28.56L34.2297 26.1817L30.1877 30.2628ZM30.1877 26.859L32.5563 24.479L30.1877 22.1217L27.8192 24.5L30.1877 26.8581V26.859ZM55.0963 27.104V27.0637C55.0963 25.5255 54.2792 24.7459 52.9525 24.2331C53.7687 23.7825 54.463 23.0431 54.463 21.7516V21.7114C54.463 19.9062 53.0134 18.7372 50.6858 18.7372H45.3572V30.2426H50.8087C53.4011 30.2628 55.0963 29.1961 55.0963 27.1049V27.104ZM51.9515 22.183C51.9515 23.044 51.2573 23.3923 50.1344 23.3923H47.8077V20.9519H50.2982C51.3601 20.9519 51.9515 21.3824 51.9515 22.1419V22.183ZM52.5848 26.7768C52.5848 27.6378 51.9115 28.028 50.8078 28.028H47.8077V25.5045H50.7268C52.0134 25.5045 52.5848 25.977 52.5848 26.7558V26.7768ZM60.3839 30.2628V18.7372H57.8525V30.2426H60.3839V30.2628ZM73.941 30.2628V18.7372H71.4496V25.8335L66.0801 18.7372H63.7525V30.2426H66.2439V22.9416L71.7972 30.2628H73.9401H73.941ZM87.9049 30.2628L82.9857 18.676H80.659L75.7381 30.2628H78.3314L79.3724 27.6789H84.2114L85.2524 30.2628H87.9067H87.9049ZM83.3115 25.4433H80.2696L81.801 21.7114L83.3115 25.4433ZM99.9315 30.2628V18.7372H97.4401V25.8335L92.0706 18.7372H89.743V30.2426H92.2343V22.9416L97.7877 30.2628H99.9306H99.9315ZM112.936 28.3964L111.324 26.7768C110.425 27.5966 109.629 28.1295 108.302 28.1295C106.342 28.1295 104.974 26.4889 104.974 24.5201V24.4589C104.974 22.4901 106.362 20.8705 108.302 20.8705C109.445 20.8705 110.344 21.3622 111.242 22.162L112.854 20.2956C111.793 19.25 110.507 18.5115 108.343 18.5115C104.831 18.5115 102.361 21.1978 102.361 24.4589V24.5C102.361 27.8014 104.872 30.4264 108.241 30.4264C110.446 30.4474 111.752 29.6678 112.936 28.3964ZM123.696 30.2628V28.007H117.469V25.5868H122.879V23.331H117.469V20.993H123.614V18.7372H114.978V30.2426H123.696V30.2628Z" fill="#F9F9F9" fill-opacity="0.8"/>
        </g>
    </g>
    <defs>
        <clipPath id="clip0_21123_87174">
            <rect width="144" height="48" fill="white"/>
        </clipPath>
        <clipPath id="clip1_21123_87174">
            <rect width="104.533" height="21" fill="white" transform="translate(19.7344 14)"/>
        </clipPath>
    </defs>
</svg>
