<svg width="144" height="48" viewBox="0 0 144 48" fill="none" xmlns="http://www.w3.org/2000/svg">
    <g clip-path="url(#clip0_21123_87219)">
        <path fill-rule="evenodd" clip-rule="evenodd" d="M43.7467 15.6782L43.8667 16.4414C43.9617 17.1522 44.0056 17.8688 43.9981 18.5858C43.9975 20.169 43.8151 21.747 43.4545 23.2886C42.9719 25.3688 42.124 27.3469 40.9501 29.1308C39.3808 31.4746 37.273 33.4085 34.8032 34.7708L34.4551 34.9676L34.1072 34.7708C31.6374 33.4083 29.5297 31.4744 27.9601 29.1308C26.7863 27.3469 25.9384 25.3688 25.4557 23.2886C25.0952 21.7472 24.9128 20.1694 24.9121 18.5864C24.9049 17.8694 24.949 17.1527 25.0441 16.442L25.1641 15.6788C25.1744 15.6165 25.1728 15.5527 25.1593 15.491C25.1462 15.4296 25.1213 15.3714 25.0861 15.3194C25.0517 15.2682 25.0074 15.2244 24.9559 15.1904C24.9053 15.157 24.8483 15.1344 24.7885 15.1238C24.7288 15.1133 24.6675 15.1153 24.6085 15.1298C24.5494 15.1444 24.4939 15.171 24.4453 15.2078C24.3968 15.2453 24.356 15.292 24.3253 15.3452C24.2943 15.3997 24.274 15.4595 24.2653 15.5216L24.1453 16.2848C24.0416 17.0471 23.9933 17.8159 24.0007 18.5852C24.0012 20.2462 24.1924 21.9017 24.5707 23.519C25.0796 25.7129 25.9739 27.7991 27.2119 29.6804C28.8619 32.1485 31.0792 34.1854 33.6782 35.6204L34.2433 35.939C34.3093 35.9766 34.384 35.9964 34.4599 35.9964C34.5359 35.9964 34.6106 35.9766 34.6765 35.939L35.2411 35.6204C37.8388 34.1836 40.0557 32.1471 41.7073 29.6804C42.9448 27.7998 43.8386 25.7144 44.3473 23.5214C44.7257 21.9041 44.9169 20.2486 44.9173 18.5876C44.9248 17.8183 44.8765 17.0495 44.7728 16.2872L44.6528 15.524C44.6441 15.4619 44.6238 15.4021 44.5927 15.3476C44.5621 15.2944 44.5213 15.2477 44.4728 15.2102C44.4242 15.1734 44.3687 15.1468 44.3095 15.1322C44.2506 15.1177 44.1893 15.1157 44.1295 15.1262C44.0698 15.1368 44.0128 15.1594 43.9622 15.1928C43.9106 15.2268 43.8664 15.2706 43.832 15.3218C43.7968 15.3738 43.7719 15.432 43.7587 15.4934C43.7453 15.5551 43.7437 15.6189 43.754 15.6812H43.7491L43.7467 15.6782Z" fill="#F9F9F9" fill-opacity="0.8"/>
        <path fill-rule="evenodd" clip-rule="evenodd" d="M27.6644 15.1577L34.4582 12.9833L41.4032 15.2033C41.4607 15.2213 41.5214 15.2272 41.5813 15.2208C41.6413 15.2144 41.6993 15.1958 41.7518 15.1661C41.8601 15.1042 41.9398 15.0023 41.9738 14.8823C42.0092 14.7606 41.9972 14.63 41.9402 14.5169C41.9128 14.462 41.8749 14.413 41.8286 14.3729C41.7822 14.3327 41.7284 14.3021 41.6702 14.2829L34.5914 12.0209C34.5047 11.993 34.4116 11.993 34.325 12.0209L27.3974 14.2361C27.3392 14.2545 27.2853 14.2845 27.239 14.3243C27.1919 14.3648 27.1532 14.4141 27.125 14.4695C27.0671 14.583 27.0547 14.7143 27.0902 14.8367C27.1075 14.8968 27.1362 14.953 27.1748 15.0023C27.2127 15.0511 27.26 15.092 27.314 15.1223C27.3671 15.1519 27.4257 15.1702 27.4862 15.1763C27.5469 15.1824 27.6082 15.1759 27.6662 15.1571L27.6644 15.1577Z" fill="#F9F9F9" fill-opacity="0.8"/>
        <path fill-rule="evenodd" clip-rule="evenodd" d="M24.3122 15.8191L34.052 35.7319C34.0894 35.8089 34.1471 35.8742 34.2188 35.9209C34.2891 35.9667 34.371 35.9915 34.4549 35.9922C34.5388 35.993 34.6212 35.9697 34.6922 35.9251C34.7647 35.8797 34.8234 35.8154 34.862 35.7391L40.802 24.1027L40.811 24.0841L44.6126 15.8041C44.6642 15.6893 44.6707 15.5592 44.6306 15.4399C44.5919 15.3224 44.5085 15.2248 44.3984 15.1681C44.3451 15.1409 44.2868 15.1249 44.227 15.121C44.1673 15.1172 44.1074 15.1257 44.051 15.1459C43.9353 15.188 43.841 15.2743 43.7888 15.3859L39.992 23.6599L34.472 34.4809L25.1258 15.3811C25.0989 15.3254 25.0614 15.2755 25.0154 15.2341C24.9703 15.1928 24.9172 15.1612 24.8594 15.1411C24.8021 15.1213 24.7413 15.1137 24.6809 15.1187C24.6205 15.1236 24.5618 15.1411 24.5084 15.1699C24.454 15.2 24.4063 15.2408 24.368 15.2899C24.3286 15.3372 24.2984 15.3915 24.2792 15.4501C24.2423 15.5722 24.2534 15.7038 24.3104 15.8179L24.3122 15.8191Z" fill="#F9F9F9" fill-opacity="0.8"/>
        <path fill-rule="evenodd" clip-rule="evenodd" d="M28.9728 24.6857H39.804C39.8646 24.6855 39.9245 24.673 39.9801 24.6488C40.0357 24.6247 40.0858 24.5895 40.1274 24.5453C40.2133 24.4536 40.2611 24.3326 40.2611 24.2069C40.2611 24.0812 40.2133 23.9603 40.1274 23.8685C40.0858 23.8244 40.0357 23.7892 39.9801 23.7651C39.9245 23.741 39.8646 23.7284 39.804 23.7281H28.9728C28.9122 23.7284 28.8522 23.741 28.7966 23.7651C28.741 23.7892 28.6909 23.8244 28.6494 23.8685C28.5634 23.9603 28.5156 24.0812 28.5156 24.2069C28.5156 24.3326 28.5634 24.4536 28.6494 24.5453C28.6909 24.5895 28.741 24.6247 28.7966 24.6488C28.8522 24.673 28.9121 24.6855 28.9728 24.6857ZM59.1828 20.5547H52.137C52.0761 20.5553 52.016 20.5681 51.9602 20.5924C51.9044 20.6167 51.8541 20.6521 51.8124 20.6963C51.7256 20.7881 51.6771 20.9096 51.6768 21.0359V26.9597C51.6771 27.0861 51.7256 27.2075 51.8124 27.2993C51.8541 27.3436 51.9042 27.3789 51.9599 27.4034C52.0156 27.4278 52.0756 27.4408 52.1364 27.4415H59.1828V28.4447H52.137C51.9513 28.4452 51.7674 28.4074 51.597 28.3337C51.4231 28.2589 51.2662 28.1497 51.1356 28.0127C51.0033 27.8741 50.8992 27.7111 50.829 27.5327C50.7582 27.3519 50.7224 27.1593 50.7234 26.9651V21.0407C50.7224 20.8466 50.7582 20.654 50.829 20.4731C50.8992 20.2948 51.0033 20.1318 51.1356 19.9931C51.2656 19.8563 51.4219 19.7472 51.5952 19.6721C51.7656 19.5984 51.9494 19.5606 52.1352 19.5611H59.1828V20.5547ZM72.4134 19.5527V20.5565H65.6274V23.4893H71.0814V24.5027H65.6268V27.4427H72.4122V28.4465H64.6686V19.5527H72.4134Z" fill="#F9F9F9" fill-opacity="0.8"/>
        <path d="M86.3824 21.0492V23.6532C86.3835 23.8474 86.3475 24.0401 86.2762 24.2208C86.206 24.3991 86.1019 24.5621 85.9696 24.7008C85.8396 24.8376 85.6833 24.9468 85.51 25.0218C85.3395 25.0954 85.1557 25.1332 84.97 25.1328H83.6746L86.3368 28.44H85.0768L82.4236 25.134H79.3102C79.1563 25.1258 79.0028 25.1094 78.8506 25.0848V28.4412H77.8906V19.5684H84.9592C85.1449 19.5679 85.3288 19.6056 85.4992 19.6794C85.6726 19.7543 85.8292 19.8635 85.9594 20.0004C86.0915 20.1391 86.1954 20.3021 86.2654 20.4804C86.3366 20.6611 86.3728 20.8537 86.3722 21.048L86.3824 21.0492ZM79.3132 24.1224H84.9658C85.025 24.123 85.0836 24.1114 85.138 24.0882C85.193 24.0645 85.2425 24.03 85.2838 23.9868C85.3257 23.9426 85.3585 23.8906 85.3804 23.8338C85.4025 23.7764 85.4135 23.7153 85.4128 23.6538V21.0498C85.4136 20.9871 85.4028 20.9249 85.381 20.8662C85.359 20.8084 85.326 20.7554 85.2838 20.7102C85.2436 20.6646 85.1941 20.6282 85.1386 20.6034C85.0839 20.579 85.0245 20.5669 84.9646 20.568H79.3126C79.2518 20.5685 79.1917 20.5814 79.1359 20.6057C79.0801 20.63 79.0298 20.6653 78.988 20.7096C78.9012 20.8014 78.8527 20.9228 78.8524 21.0492V23.6532C78.8515 23.7148 78.8629 23.776 78.886 23.8332C78.9091 23.8903 78.9439 23.942 78.988 23.985C79.0305 24.0285 79.0813 24.063 79.1374 24.0864C79.1929 24.1094 79.2526 24.1206 79.3126 24.1194L79.3132 24.1224Z" fill="#F9F9F9" fill-opacity="0.8"/>
        <path fill-rule="evenodd" clip-rule="evenodd" d="M91.4549 19.5527H99.9347V20.5565H96.1829V28.4447H95.2229V20.5583H91.4531L91.4549 19.5527ZM105.075 28.4387V19.5527H106.035V28.4387H105.075ZM118.765 19.5527H119.99L116.444 23.9927L120.002 28.4327H118.765L115.607 24.4955H112.874V28.4327H111.909V19.5527H112.875V23.4887H115.609L118.765 19.5527Z" fill="#F9F9F9" fill-opacity="0.8"/>
    </g>
    <defs>
        <clipPath id="clip0_21123_87219">
            <rect width="144" height="48" fill="white"/>
        </clipPath>
    </defs>
</svg>
