<svg width="144" height="48" viewBox="0 0 144 48" fill="none" xmlns="http://www.w3.org/2000/svg">
    <g clip-path="url(#clip0_20371_109091)">
        <path fill-rule="evenodd" clip-rule="evenodd" d="M43.7487 15.6782L43.8687 16.4414C43.9637 17.1522 44.0076 17.8688 44.0001 18.5858C43.9995 20.169 43.8171 21.747 43.4565 23.2886C42.9739 25.3688 42.1259 27.3469 40.9521 29.1308C39.3827 31.4746 37.275 33.4085 34.8051 34.7708L34.4571 34.9676L34.1091 34.7708C31.6394 33.4083 29.5317 31.4744 27.9621 29.1308C26.7883 27.3469 25.9403 25.3688 25.4577 23.2886C25.0972 21.7472 24.9148 20.1694 24.9141 18.5864C24.9068 17.8694 24.9509 17.1527 25.0461 16.442L25.1661 15.6788C25.1763 15.6165 25.1747 15.5527 25.1613 15.491C25.1481 15.4296 25.1233 15.3714 25.0881 15.3194C25.0537 15.2682 25.0094 15.2244 24.9579 15.1904C24.9072 15.157 24.8503 15.1344 24.7905 15.1238C24.7307 15.1133 24.6694 15.1153 24.6105 15.1298C24.5514 15.1444 24.4958 15.171 24.4473 15.2078C24.3987 15.2453 24.358 15.292 24.3273 15.3452C24.2963 15.3997 24.2759 15.4595 24.2673 15.5216L24.1473 16.2848C24.0436 17.0471 23.9952 17.8159 24.0027 18.5852C24.0031 20.2462 24.1944 21.9017 24.5727 23.519C25.0815 25.7129 25.9758 27.7991 27.2139 29.6804C28.8638 32.1485 31.0811 34.1854 33.6801 35.6204L34.2453 35.939C34.3113 35.9766 34.3859 35.9964 34.4619 35.9964C34.5379 35.9964 34.6125 35.9766 34.6785 35.939L35.2431 35.6204C37.8408 34.1836 40.0577 32.1471 41.7093 29.6804C42.9467 27.7998 43.8406 25.7144 44.3493 23.5214C44.7276 21.9041 44.9189 20.2486 44.9193 18.5876C44.9267 17.8183 44.8784 17.0495 44.7747 16.2872L44.6547 15.524C44.6461 15.4619 44.6257 15.4021 44.5947 15.3476C44.5641 15.2944 44.5233 15.2477 44.4747 15.2102C44.4262 15.1734 44.3706 15.1468 44.3115 15.1322C44.2526 15.1177 44.1913 15.1157 44.1315 15.1262C44.0717 15.1368 44.0148 15.1594 43.9641 15.1928C43.9126 15.2268 43.8683 15.2706 43.8339 15.3218C43.7987 15.3738 43.7739 15.432 43.7607 15.4934C43.7473 15.5551 43.7456 15.6189 43.7559 15.6812H43.7511L43.7487 15.6782Z" fill="#030308" fill-opacity="0.8"/>
        <path fill-rule="evenodd" clip-rule="evenodd" d="M27.6663 15.1577L34.4601 12.9833L41.4051 15.2033C41.4627 15.2213 41.5233 15.2272 41.5833 15.2208C41.6432 15.2144 41.7013 15.1958 41.7537 15.1661C41.862 15.1042 41.9417 15.0023 41.9757 14.8823C42.0111 14.7606 41.9991 14.63 41.9421 14.5169C41.9148 14.462 41.8769 14.413 41.8305 14.3729C41.7842 14.3327 41.7304 14.3021 41.6721 14.2829L34.5933 12.0209C34.5067 11.993 34.4135 11.993 34.3269 12.0209L27.3993 14.2361C27.3411 14.2545 27.2872 14.2845 27.2409 14.3243C27.1939 14.3648 27.1552 14.4141 27.1269 14.4695C27.069 14.583 27.0566 14.7143 27.0921 14.8367C27.1095 14.8968 27.1382 14.953 27.1767 15.0023C27.2147 15.0511 27.262 15.092 27.3159 15.1223C27.369 15.1519 27.4276 15.1702 27.4881 15.1763C27.5488 15.1824 27.6101 15.1759 27.6681 15.1571L27.6663 15.1577Z" fill="#030308" fill-opacity="0.8"/>
        <path fill-rule="evenodd" clip-rule="evenodd" d="M24.3122 15.8181L34.052 35.7309C34.0894 35.8079 34.1471 35.8733 34.2188 35.9199C34.2891 35.9658 34.371 35.9905 34.4549 35.9913C34.5388 35.992 34.6212 35.9687 34.6922 35.9241C34.7647 35.8787 34.8234 35.8144 34.862 35.7381L40.802 24.1017L40.811 24.0831L44.6126 15.8031C44.6642 15.6883 44.6707 15.5583 44.6306 15.4389C44.5919 15.3214 44.5085 15.2238 44.3984 15.1671C44.3451 15.1399 44.2868 15.1239 44.227 15.1201C44.1673 15.1163 44.1074 15.1247 44.051 15.1449C43.9353 15.187 43.841 15.2733 43.7888 15.3849L39.992 23.6589L34.472 34.4799L25.1258 15.3801C25.0989 15.3244 25.0614 15.2745 25.0154 15.2331C24.9703 15.1919 24.9172 15.1602 24.8594 15.1401C24.8021 15.1204 24.7413 15.1127 24.6809 15.1177C24.6205 15.1226 24.5618 15.1401 24.5084 15.1689C24.454 15.199 24.4063 15.2399 24.368 15.2889C24.3286 15.3362 24.2984 15.3906 24.2792 15.4491C24.2423 15.5712 24.2534 15.7028 24.3104 15.8169L24.3122 15.8181Z" fill="#030308" fill-opacity="0.8"/>
        <path fill-rule="evenodd" clip-rule="evenodd" d="M28.9728 24.6867H39.804C39.8646 24.6865 39.9245 24.6739 39.9801 24.6498C40.0357 24.6257 40.0858 24.5904 40.1274 24.5463C40.2133 24.4546 40.2611 24.3336 40.2611 24.2079C40.2611 24.0822 40.2133 23.9612 40.1274 23.8695C40.0858 23.8254 40.0357 23.7902 39.9801 23.7661C39.9245 23.7419 39.8646 23.7294 39.804 23.7291H28.9728C28.9122 23.7294 28.8522 23.7419 28.7966 23.7661C28.741 23.7902 28.6909 23.8254 28.6494 23.8695C28.5634 23.9612 28.5156 24.0822 28.5156 24.2079C28.5156 24.3336 28.5634 24.4546 28.6494 24.5463C28.6909 24.5904 28.741 24.6257 28.7966 24.6498C28.8522 24.6739 28.9121 24.6865 28.9728 24.6867ZM59.1828 20.5557H52.137C52.0761 20.5562 52.016 20.569 51.9602 20.5934C51.9044 20.6177 51.8541 20.6531 51.8124 20.6973C51.7256 20.7891 51.6771 20.9106 51.6768 21.0369V26.9607C51.6771 27.087 51.7256 27.2085 51.8124 27.3003C51.8541 27.3445 51.9042 27.3799 51.9599 27.4044C52.0156 27.4288 52.0756 27.4418 52.1364 27.4425H59.1828V28.4457H52.137C51.9513 28.4462 51.7674 28.4084 51.597 28.3347C51.4231 28.2599 51.2662 28.1507 51.1356 28.0137C51.0033 27.875 50.8992 27.712 50.829 27.5337C50.7582 27.3529 50.7224 27.1603 50.7234 26.9661V21.0417C50.7224 20.8475 50.7582 20.6549 50.829 20.4741C50.8992 20.2958 51.0033 20.1328 51.1356 19.9941C51.2656 19.8573 51.4219 19.7481 51.5952 19.6731C51.7656 19.5994 51.9494 19.5616 52.1352 19.5621H59.1828V20.5557ZM72.4134 19.5537V20.5575H65.6274V23.4903H71.0814V24.5037H65.6268V27.4437H72.4122V28.4475H64.6686V19.5537H72.4134Z" fill="#030308" fill-opacity="0.8"/>
        <path d="M86.3863 21.0482V23.6522C86.3874 23.8464 86.3514 24.0391 86.2801 24.2198C86.21 24.3981 86.1058 24.5611 85.9735 24.6998C85.8435 24.8366 85.6872 24.9458 85.5139 25.0208C85.3435 25.0945 85.1596 25.1322 84.9739 25.1318H83.6785L86.3407 28.439H85.0807L82.4275 25.133H79.3141C79.1602 25.1248 79.0067 25.1084 78.8545 25.0838V28.4402H77.8945V19.5674H84.9631C85.1488 19.5669 85.3327 19.6047 85.5031 19.6784C85.6765 19.7534 85.8331 19.8625 85.9633 19.9994C86.0954 20.1381 86.1993 20.3011 86.2693 20.4794C86.3405 20.6601 86.3768 20.8527 86.3761 21.047L86.3863 21.0482ZM79.3171 24.1214H84.9697C85.0289 24.1221 85.0875 24.1104 85.1419 24.0872C85.1969 24.0636 85.2465 24.0291 85.2877 23.9858C85.3296 23.9416 85.3624 23.8896 85.3843 23.8328C85.4065 23.7754 85.4174 23.7143 85.4167 23.6528V21.0488C85.4175 20.9862 85.4067 20.9239 85.3849 20.8652C85.3629 20.8074 85.3299 20.7544 85.2877 20.7092C85.2475 20.6636 85.198 20.6272 85.1425 20.6024C85.0878 20.578 85.0284 20.5659 84.9685 20.567H79.3165C79.2557 20.5675 79.1956 20.5804 79.1398 20.6047C79.084 20.629 79.0337 20.6644 78.9919 20.7086C78.9051 20.8004 78.8566 20.9219 78.8563 21.0482V23.6522C78.8554 23.7138 78.8668 23.775 78.8899 23.8322C78.913 23.8893 78.9478 23.941 78.9919 23.984C79.0344 24.0275 79.0852 24.062 79.1413 24.0854C79.1968 24.1084 79.2565 24.1197 79.3165 24.1184L79.3171 24.1214Z" fill="#030308" fill-opacity="0.8"/>
        <path fill-rule="evenodd" clip-rule="evenodd" d="M91.453 19.5537H99.9328V20.5575H96.181V28.4457H95.221V20.5593H91.4512L91.453 19.5537ZM105.073 28.4397V19.5537H106.033V28.4397H105.073ZM118.763 19.5537H119.988L116.442 23.9937L120 28.4337H118.763L115.605 24.4965H112.872V28.4337H111.907V19.5537H112.873V23.4897H115.607L118.763 19.5537Z" fill="#030308" fill-opacity="0.8"/>
    </g>
    <defs>
        <clipPath id="clip0_20371_109091">
            <rect width="144" height="48" fill="white"/>
        </clipPath>
    </defs>
</svg>
