<svg width="144" height="48" viewBox="0 0 144 48" fill="none" xmlns="http://www.w3.org/2000/svg">
    <g clip-path="url(#clip0_21123_87215)">
        <path d="M33.4027 27.2184L37.3626 28.5642L45.3192 36.48L33.4027 27.2184ZM29.1186 28.5642L33.0787 27.2184L21.1632 36.48L29.1186 28.5642ZM37.5649 28.3608L36.2178 24.4008L45.4794 36.3144L37.5649 28.3608ZM30.2622 24.4008L28.9153 28.3608L21 36.3174L30.2622 24.4008ZM56.4961 28.3176V23.874L60.249 20.16H70.3668V21.8568H60.9835L58.2091 24.6036V26.6232H70.3668V28.32L56.4961 28.3176ZM72.2856 28.2768V23.874L76.0399 20.1576H87.0144V28.2768H72.2856ZM73.9591 24.6006V26.661H85.3422V21.8538H76.7335L73.9591 24.6006ZM115.738 25.005L116.105 24.2376L115.738 23.469L122.265 20.2374L123.001 21.7734L117.982 24.2376L123.001 26.7018L122.265 28.2366L115.738 25.005ZM107.945 26.7018L112.964 24.2376L107.945 21.7734L108.679 20.2374L115.208 23.469L114.841 24.2376L115.208 25.005L108.679 28.2366L107.945 26.7018ZM33.2814 26.9298L35.9335 24.2784L37.2384 28.2384L33.2814 26.9298ZM30.5479 24.2784L33.2004 26.9298L29.2405 28.236L30.5479 24.2784ZM104.639 28.2V20.28H106.312V28.2H104.639ZM88.8498 28.2V23.88L92.6035 20.1636H102.722V21.8604H93.339L91.7467 23.3952H102.722V25.092H90.5634V28.2H88.8498ZM33.2808 21.5478L37.2409 20.2428L35.9358 24.2028L33.2808 21.5478ZM29.2411 20.2428L33.201 21.5478L30.5484 24.1998L29.2411 20.2428ZM37.5649 20.1228L45.4794 12.1662L36.2178 24.0798L37.5649 20.1228ZM21 12.1662L28.9153 20.1228L30.2622 24.0828L21 12.1662ZM45.3168 12.003L37.3603 19.9176L33.4002 21.2646L45.3168 12.003ZM29.1168 19.9176L21.1632 12L33.0756 21.2616L29.1168 19.9176Z" fill="#F9F9F9" fill-opacity="0.8"/>
    </g>
    <defs>
        <clipPath id="clip0_21123_87215">
            <rect width="144" height="48" fill="white"/>
        </clipPath>
    </defs>
</svg>
