<svg width="144" height="48" viewBox="0 0 144 48" fill="none" xmlns="http://www.w3.org/2000/svg">
    <g clip-path="url(#clip0_18875_40370)">
        <path d="M70.5961 27.7834C70.0825 27.578 69.6375 27.2698 69.2266 26.859C68.85 26.4824 68.5419 26.0031 68.3022 25.4895C67.3778 23.3326 68.4049 20.8333 70.5619 19.9089C71.1096 19.6693 71.6574 19.5666 72.2395 19.5666C72.8215 19.5666 73.3693 19.6693 73.9171 19.9089C74.4306 20.1144 74.8757 20.4225 75.2523 20.8333C75.6289 21.2099 75.937 21.6892 76.1425 22.1686C76.5875 23.2299 76.5875 24.4282 76.1425 25.4895C75.937 26.0031 75.6289 26.4482 75.2181 26.859C74.8415 27.2356 74.3621 27.5437 73.8486 27.7834C73.335 27.9888 72.753 28.1258 72.171 28.1258C71.6917 28.1258 71.1439 28.0231 70.5961 27.7834ZM70.0141 18.471C68.6104 19.053 67.4805 20.1828 66.8985 21.5865C66.2823 23.0587 66.2823 24.6678 66.8985 26.14C67.4805 27.5437 68.6104 28.6736 70.0141 29.2556C71.452 29.8718 73.0954 29.8718 74.5676 29.2556C75.9713 28.6736 77.1011 27.5437 77.6831 26.14C78.2994 24.7021 78.2994 23.0587 77.6831 21.5865C77.1011 20.1828 75.9713 19.053 74.5676 18.471C73.0954 17.8547 71.452 17.8547 70.0141 18.471ZM57.5519 18.471C56.8671 18.7791 56.2166 19.19 55.7031 19.7377C55.1553 20.2513 54.7444 20.9018 54.4363 21.5865C53.8201 23.0587 53.8201 24.6678 54.4363 26.14C54.7444 26.8248 55.1553 27.4753 55.6688 27.9888C56.2166 28.5366 56.8329 28.9474 57.5176 29.2556C58.2366 29.5637 59.024 29.7007 59.7773 29.7007C61.3179 29.7007 62.8243 29.0844 63.9199 27.9888C64.4677 27.441 64.8785 26.8248 65.1867 26.1058C65.2551 25.9688 65.3236 25.7977 65.3579 25.6265H63.646C63.4406 26.0716 63.1325 26.4824 62.7901 26.859C62.0027 27.6807 60.9071 28.1258 59.7773 28.0915C58.6474 28.0915 57.5519 27.6465 56.7644 26.859C56.3878 26.4824 56.0797 26.0031 55.84 25.4895C55.3949 24.4282 55.3949 23.2299 55.84 22.1686C56.4905 20.5937 58.0654 19.5666 59.7773 19.5666C60.3593 19.5666 60.9071 19.6693 61.4549 19.9089C61.9684 20.1144 62.4135 20.4225 62.8243 20.8333C63.1667 21.1757 63.4748 21.5865 63.6803 22.0659H65.3921C65.3579 21.8947 65.2894 21.7577 65.2209 21.5865C64.6389 20.1828 63.5091 19.053 62.1054 18.471C60.6674 17.8547 59.024 17.8547 57.5519 18.471ZM79.8743 29.7007H81.4492V18.0259H79.8743V29.7007ZM99.3892 22.1343C99.3892 20.5937 100.622 19.3611 102.162 19.3269C103.703 19.3269 104.936 20.5594 104.97 22.1001C104.936 23.6407 103.669 24.8733 102.128 24.839C100.622 24.839 99.3892 23.6407 99.3892 22.1343ZM97.9513 22.1686C97.9513 24.4624 99.8343 26.2427 102.231 26.2427H103.19L101.341 29.7691H102.916L105.826 24.2228C106.202 23.5723 106.374 22.8533 106.408 22.1343C106.339 19.8062 104.422 17.9574 102.094 18.0259C99.8001 18.0601 97.9855 19.9089 97.9513 22.1686ZM109.112 26.2427C109.147 24.9075 110.242 23.8119 111.578 23.8462C112.879 23.8804 113.94 24.9417 113.974 26.2427C113.974 27.578 112.879 28.6736 111.543 28.6736C110.208 28.6736 109.112 27.578 109.112 26.2427ZM109.934 20.9018C109.934 20.0116 110.653 19.2927 111.543 19.2584C112.468 19.2584 113.187 19.9774 113.187 20.9018C113.187 21.8262 112.468 22.5452 111.543 22.5452C110.619 22.5109 109.934 21.792 109.934 20.9018ZM108.599 20.9018C108.599 21.5523 108.804 22.1686 109.181 22.6821L109.489 23.1272L109.078 23.4696C108.257 24.1543 107.777 25.1814 107.777 26.2427C107.811 28.2969 109.489 29.9746 111.543 29.9403C113.598 29.9061 115.241 28.2627 115.241 26.2427C115.241 25.1472 114.762 24.1201 113.94 23.4353L113.529 23.093L113.871 22.6479C114.248 22.1343 114.453 21.5523 114.453 20.9018C114.419 19.2927 113.084 17.9917 111.475 18.0259C109.9 18.0259 108.633 19.3269 108.599 20.9018ZM94.151 18.0259V27.0987C94.2195 27.5095 93.9114 27.9203 93.4663 27.9546C93.432 27.9546 93.3978 27.9546 93.3978 27.9546C93.0212 27.9203 92.6788 27.7149 92.5419 27.3726L88.947 19.6008C88.5704 18.6422 87.6118 18.0259 86.5847 18.0259C86.0027 18.0259 85.4206 18.2313 84.9755 18.5737C84.9413 18.5737 84.9413 18.6079 84.9071 18.6079C84.4278 19.0188 84.1539 19.6008 84.1539 20.2513V29.7007H85.8315V20.491C85.7972 20.0801 86.1396 19.7035 86.5504 19.6693H86.5847C86.9613 19.6693 87.3037 19.9089 87.4406 20.2855L87.4748 20.354C88.3308 22.237 90.2138 26.3455 91.3436 28.5366C91.7202 29.2556 92.3707 29.5979 93.3978 29.5979C93.9798 29.5979 94.5961 29.4268 95.0412 29.0502C95.5547 28.7078 95.8629 28.1258 95.8286 27.4753V18.0259H94.151Z" fill="#030308" fill-opacity="0.8"/>
        <path d="M39.9202 24.0176C38.6877 24.0176 37.6948 25.0104 37.6948 26.2087C37.6948 27.4413 38.6877 28.4341 39.886 28.4341C41.1185 28.4341 42.0771 27.4413 42.1114 26.243C42.1114 25.0104 41.1527 24.0176 39.9202 24.0176Z" fill="#030308" fill-opacity="0.8"/>
        <path d="M32.0799 19.5322C30.8474 19.5322 29.8545 20.5251 29.8545 21.7576C29.8545 22.9901 30.8474 23.983 32.0799 23.983C33.3124 23.983 34.271 22.9901 34.3053 21.7576C34.271 20.5251 33.3124 19.5322 32.0799 19.5322Z" fill="#030308" fill-opacity="0.8"/>
        <path d="M43.6177 12H28.3823C25.9515 12 24 13.9515 24 16.3823V31.6177C24 34.0485 25.9515 36 28.3823 36H43.6177C46.0485 36 48 34.0485 48 31.6177V16.3823C48 13.9515 46.0143 12 43.6177 12ZM38.3795 18.368C38.8588 18.0942 39.3723 17.9572 39.9201 17.9572C41.7004 17.9572 43.1384 19.3952 43.1384 21.1755C43.1384 21.7233 43.0014 22.2368 42.7618 22.7161C42.3509 22.3738 41.9058 22.1341 41.4265 21.9629C41.5635 21.7233 41.632 21.4494 41.632 21.1755C41.632 20.2511 40.8787 19.4979 39.9544 19.4979C39.03 19.4979 38.2767 20.2511 38.2767 21.1755C38.2767 21.4494 38.3452 21.7233 38.4822 21.9629C38.0029 22.1341 37.5235 22.3738 37.1469 22.7161C36.2568 21.1755 36.8046 19.224 38.3795 18.368ZM32.0799 29.9743C30.2996 29.9743 28.8616 28.5364 28.8616 26.7561H30.4023C30.4023 27.6805 31.1555 28.4337 32.0799 28.4337C33.0043 28.4337 33.7575 27.6805 33.7575 26.7561H35.2981C35.2639 28.5364 33.8602 29.9743 32.0799 29.9743ZM32.0799 25.4893C30.0257 25.4893 28.3481 23.8117 28.3138 21.7575C28.3138 19.7033 29.9914 18.0257 32.0456 17.9914C34.0999 17.9914 35.7775 19.669 35.7775 21.7575C35.8117 23.8117 34.1341 25.4893 32.0799 25.4893ZM39.9201 29.9743C37.8659 29.9743 36.1883 28.2967 36.1883 26.2425C36.1883 24.1883 37.8659 22.5107 39.9201 22.5107C41.9743 22.5107 43.6519 24.1883 43.6519 26.2425C43.6519 28.2967 41.9743 29.9743 39.9201 29.9743Z" fill="#030308" fill-opacity="0.8"/>
    </g>
    <defs>
        <clipPath id="clip0_18875_40370">
            <rect width="91.3096" height="24" fill="white" transform="translate(24 12)"/>
        </clipPath>
    </defs>
</svg>
