<svg width="144" height="48" viewBox="0 0 144 48" fill="none" xmlns="http://www.w3.org/2000/svg">
    <g clip-path="url(#clip0_20371_109062)">
        <path d="M35.8338 29.2308L31.569 31.0638V30.8802C30.7179 31.088 29.8482 31.2109 28.9728 31.2468C24.96 31.2084 21.78 29.133 21.7416 26.664V25.7472C23.0616 27.6408 25.7406 28.9098 28.9728 28.8636C30.0355 28.8926 31.0969 28.7692 32.1246 28.497L32.4954 27.5802C31.3537 27.9327 30.167 28.1181 28.9722 28.1304C24.96 28.14 21.78 26.0634 21.7416 23.5482V22.815C23.0616 24.5652 25.7346 25.8348 28.9728 25.7478C30.3712 25.822 31.7677 25.571 33.0528 25.0146L33.2382 24.0978C31.9158 24.7558 30.4494 25.0711 28.9734 25.0146C24.96 25.0626 21.78 22.9872 21.7416 20.4318V19.6986C23.0616 21.4896 25.7406 22.7586 28.9728 22.815C30.7165 22.7664 32.4272 22.3278 33.9792 21.5316L34.1646 20.4318C32.6267 21.4654 30.8253 22.0379 28.9728 22.0818C24.96 21.993 21.78 19.92 21.7416 17.316C21.78 14.841 24.96 12.7662 28.9728 12.7332C31.3638 12.7662 33.5844 13.5948 34.9068 14.9328L35.0358 15.1446L35.9706 15.1482L35.8338 14.9322C34.5186 13.1658 31.8888 12 28.9728 12C24.5352 12 21 14.418 21 17.316V26.847C21.156 29.676 24.6102 31.98 28.9728 31.98C31.8528 31.98 34.4442 30.8598 35.8338 29.2308Z" fill="#030308" fill-opacity="0.8"/>
        <path d="M34.0992 35.6799L35.5992 29.3901L31.2954 31.2399L33.9132 20.3247H28.8594L30.1692 14.9595H46.2624L44.9532 20.3247H39.7134L38.5932 23.2827L44.394 20.8779L34.0992 35.6799ZM36.7194 28.0947L35.9706 31.7949L42.1458 22.5447L37.0932 24.7647L39.339 19.5843H44.391L45.327 15.6993H30.7332L29.7972 19.5843H34.8498L32.4132 29.9427L36.7176 28.0929L36.7194 28.0947ZM57.3492 18.5031C57.3407 18.7782 57.2761 19.0487 57.1593 19.2978C57.0425 19.547 56.876 19.7697 56.67 19.9521C56.2145 20.3207 55.6394 20.5089 55.0542 20.4807C54.7295 20.4965 54.4055 20.4383 54.1067 20.3104C53.8078 20.1826 53.542 19.9885 53.3292 19.7427C52.8818 19.1652 52.6585 18.4453 52.7004 17.7159V17.3673C52.6911 16.8686 52.791 16.3738 52.9932 15.9177C53.1677 15.5226 53.4559 15.1884 53.8212 14.9577C54.2619 14.7086 54.766 14.5941 55.271 14.6285C55.7761 14.663 56.26 14.8448 56.6628 15.1515C57.0804 15.5361 57.3307 16.069 57.36 16.6359H56.1828C56.1831 16.3393 56.0727 16.0533 55.8732 15.8337C55.6465 15.6513 55.3587 15.5624 55.0686 15.5853C54.8984 15.5744 54.7282 15.6073 54.5743 15.6808C54.4205 15.7543 54.288 15.8661 54.1896 16.0053C53.9654 16.4026 53.8612 16.8563 53.8896 17.3115V17.7423C53.8559 18.2098 53.9529 18.6774 54.1698 19.0929C54.2665 19.2354 54.3991 19.3499 54.5541 19.4249C54.7092 19.4999 54.8812 19.5327 55.053 19.5201C55.3455 19.5431 55.6358 19.4544 55.8654 19.2717C56.0623 19.0638 56.1722 18.7884 56.1726 18.5019H57.3492V18.5031ZM63.4158 17.6805C63.4261 18.1887 63.3237 18.6928 63.1158 19.1565C62.9347 19.5599 62.6382 19.9006 62.2638 20.1357C61.8792 20.3604 61.4419 20.4791 60.9965 20.4797C60.5511 20.4803 60.1134 20.3629 59.7282 20.1393C59.3521 19.9061 59.0526 19.5677 58.8666 19.1661C58.6555 18.7105 58.5497 18.2132 58.557 17.7111V17.4291C58.5463 16.9187 58.65 16.4123 58.8606 15.9471C59.0437 15.5421 59.3421 15.2001 59.7186 14.9637C60.1031 14.7393 60.5403 14.6211 60.9855 14.6211C61.4307 14.6211 61.8679 14.7393 62.2524 14.9637C62.6285 15.2001 62.9267 15.5419 63.1098 15.9465C63.32 16.4105 63.4237 16.9157 63.4134 17.4249L63.4158 17.6805ZM62.2254 17.4219C62.2563 16.9457 62.1445 16.4711 61.9044 16.0587C61.7994 15.9149 61.662 15.7978 61.5034 15.7168C61.3447 15.6359 61.1693 15.5934 60.9912 15.5929C60.8131 15.5923 60.6374 15.6336 60.4782 15.7135C60.319 15.7934 60.1809 15.9096 60.075 16.0527C59.8346 16.4601 59.7216 16.93 59.7504 17.4021V17.6799C59.7229 18.1532 59.8345 18.6241 60.0714 19.0347C60.174 19.1819 60.3102 19.3024 60.4689 19.3862C60.6275 19.47 60.8039 19.5146 60.9832 19.5164C61.1626 19.5181 61.3398 19.477 61.5001 19.3963C61.6603 19.3157 61.7989 19.1979 61.9044 19.0527C62.1409 18.6438 62.2525 18.1744 62.2254 17.7027V17.4249V17.4219ZM66.1296 20.4027H64.9548V14.7027H66.1296V20.4027ZM72.4668 20.4027H71.2932L69.006 16.6509V20.4027H67.8294V14.7027H69.0042L71.2932 18.4599V14.7027H72.4644L72.4668 20.4027ZM78.2826 15.6525H76.536V20.4027H75.3612V15.6519H73.638V14.7027H78.2826V15.6525ZM82.9944 17.9325H80.7384V19.4601H83.3856V20.4027H79.563V14.7027H83.3778V15.6519H80.7378V17.0109H82.9938V17.9313L82.9944 17.9325ZM85.8612 19.4601H88.356V20.4027H84.6864V14.7027H85.8612V19.4613V19.4601ZM93.0732 17.9307H90.8172V19.4583H93.4644V20.4027H89.6424V14.7027H93.4566V15.6519H90.8166V17.0109H93.0726V17.9313L93.0732 17.9307ZM99.2772 19.6815C99.0353 19.9549 98.7245 20.1584 98.3772 20.2707C97.9645 20.4151 97.5297 20.4862 97.0926 20.4807C96.6387 20.4907 96.1904 20.3791 95.7942 20.1573C95.419 19.9387 95.1187 19.6118 94.9326 19.2195C94.7209 18.7677 94.6144 18.2737 94.6212 17.7747V17.3865C94.6089 16.8789 94.7071 16.3746 94.9092 15.9087C95.0825 15.5134 95.3719 15.18 95.739 14.9529C96.1829 14.7119 96.6848 14.5987 97.1892 14.6257C97.6936 14.6527 98.1806 14.8189 98.5962 15.1059C98.9974 15.4685 99.2405 15.9738 99.2736 16.5135H98.1312C98.106 16.2406 97.9831 15.986 97.785 15.7965C97.5741 15.6349 97.3122 15.5544 97.047 15.5697C96.8691 15.5606 96.6918 15.5971 96.5321 15.6759C96.3723 15.7547 96.2354 15.873 96.1344 16.0197C95.8987 16.425 95.7885 16.891 95.8176 17.3589V17.7231C95.7849 18.1996 95.9042 18.6742 96.1584 19.0785C96.2744 19.2311 96.4263 19.3528 96.6005 19.4327C96.7748 19.5127 96.966 19.5485 97.1574 19.5369C97.4968 19.5701 97.8356 19.4689 98.1012 19.2549V18.2721H97.0332V17.4063H99.2772V19.6827V19.6815ZM102.95 18.3147H102.013V20.4027H100.837V14.7027H102.956C103.513 14.6664 104.065 14.8258 104.516 15.1533C104.7 15.3085 104.845 15.5042 104.94 15.7251C105.036 15.9459 105.078 16.1858 105.065 16.4259C105.077 16.7681 104.99 17.1064 104.812 17.3991C104.623 17.676 104.357 17.8916 104.047 18.0195L105.28 20.3499V20.4027H104.02L102.951 18.3153L102.95 18.3147ZM102.014 17.3631H102.962C103.211 17.3789 103.456 17.2981 103.648 17.1375C103.73 17.0572 103.793 16.9603 103.835 16.8533C103.876 16.7463 103.894 16.6317 103.888 16.5171C103.894 16.4015 103.877 16.2856 103.838 16.1767C103.798 16.0677 103.737 15.9678 103.658 15.8829C103.563 15.7995 103.451 15.7361 103.33 15.6964C103.21 15.6568 103.082 15.6416 102.956 15.6519H102.013V17.3631H102.014ZM109.788 19.2267H107.728L107.335 20.4027H106.086L108.208 14.7027H109.297L111.431 20.4027H110.182L109.786 19.2279L109.788 19.2267ZM108.048 18.2757H109.474L108.752 16.1427L108.044 18.2775L108.048 18.2757ZM113.754 18.3957V20.4027H112.573V14.7027H114.797C115.187 14.6944 115.573 14.7749 115.927 14.9379C116.238 15.0814 116.499 15.3138 116.677 15.6057C116.855 15.9033 116.945 16.2445 116.939 16.5909C116.951 16.8401 116.905 17.0886 116.806 17.3174C116.706 17.5462 116.556 17.7492 116.366 17.9109C115.911 18.2571 115.348 18.4289 114.778 18.3951H113.747L113.754 18.3957ZM113.754 17.4441H114.803C115.059 17.4612 115.312 17.3823 115.513 17.2227C115.597 17.1425 115.663 17.0448 115.705 16.9366C115.747 16.8284 115.765 16.7123 115.758 16.5963C115.764 16.4727 115.745 16.3491 115.702 16.2328C115.66 16.1164 115.595 16.0096 115.511 15.9183C115.422 15.8298 115.315 15.7606 115.198 15.7147C115.081 15.6689 114.956 15.6476 114.83 15.6519H113.75V17.4417L113.754 17.4441ZM123.001 20.4027H121.826V17.9589H119.533V20.4027H118.358V14.7027H119.533V17.0133H121.824V14.7027H122.999L123.001 20.4027Z" fill="#030308" fill-opacity="0.8"/>
        <path d="M55.9322 25.6844H54.662V29.1866H53.9612V25.6844H52.7012V25.1138H55.9322V25.6844ZM57.2996 26.4902C57.4015 26.3667 57.53 26.2678 57.6754 26.2009C57.8208 26.134 57.9795 26.1008 58.1396 26.1038C58.7852 26.1038 59.1124 26.4722 59.1212 27.209V29.189H58.4438V27.2336C58.4517 27.1544 58.4438 27.0744 58.4205 26.9982C58.3973 26.9221 58.3591 26.8514 58.3082 26.7902C58.1973 26.6964 58.054 26.6499 57.9092 26.6606C57.7833 26.656 57.6589 26.6879 57.5506 26.7523C57.4424 26.8166 57.355 26.9108 57.299 27.0236V29.1836H56.6198V24.89H57.2996V26.4902ZM61.3724 29.2424C61.1792 29.2502 60.9864 29.2181 60.8062 29.1481C60.6259 29.0781 60.4621 28.9717 60.3248 28.8356C60.1884 28.6911 60.0826 28.5206 60.0136 28.3344C59.9447 28.1481 59.914 27.9498 59.9234 27.7514V27.6674C59.9186 27.3875 59.9785 27.1103 60.0986 26.8574C60.2062 26.6294 60.3765 26.4368 60.5894 26.3018C60.8004 26.1693 61.0452 26.1003 61.2944 26.1032C61.473 26.0927 61.6517 26.1227 61.8171 26.191C61.9825 26.2592 62.1303 26.364 62.2496 26.4974C62.4925 26.8169 62.6122 27.2133 62.5868 27.614V27.8882H60.6068C60.6153 28.1097 60.7045 28.3205 60.8576 28.481C60.9299 28.553 61.0162 28.6095 61.1111 28.647C61.206 28.6846 61.3076 28.7024 61.4096 28.6994C61.5575 28.7022 61.704 28.6693 61.8365 28.6035C61.9691 28.5377 62.0838 28.4409 62.171 28.3214L62.5412 28.6736C62.4195 28.8544 62.2517 28.9994 62.0552 29.0936C61.8427 29.1953 61.6097 29.2464 61.3742 29.243L61.3724 29.2424ZM61.2914 26.6492C61.2062 26.6462 61.1215 26.6622 61.0433 26.6962C60.9651 26.7301 60.8955 26.7811 60.8396 26.8454C60.7141 27.0015 60.6377 27.1913 60.62 27.3908H61.9148V27.3404C61.9152 27.1529 61.8517 26.9709 61.7348 26.8244C61.6781 26.7651 61.6094 26.7187 61.5331 26.6885C61.4569 26.6582 61.3751 26.6448 61.2932 26.6492H61.2914ZM65.2382 29.1866V26.6636H64.7762V26.1596H65.2382V25.8824C65.2288 25.7401 65.2488 25.5975 65.2969 25.4633C65.345 25.3291 65.4202 25.2063 65.5178 25.1024C65.6236 25.0068 65.7474 24.9334 65.8819 24.8863C66.0165 24.8392 66.1591 24.8195 66.3014 24.8282C66.4298 24.8293 66.5575 24.8463 66.6818 24.8786L66.665 25.4102C66.5791 25.3941 66.4919 25.3865 66.4046 25.3874C66.3373 25.3787 66.269 25.3858 66.205 25.4082C66.141 25.4305 66.0831 25.4675 66.0359 25.5161C65.9886 25.5647 65.9534 25.6237 65.9329 25.6883C65.9125 25.7529 65.9073 25.8214 65.918 25.8884V26.1572H66.533V26.6612H65.918V29.1842L65.2382 29.1866ZM69.0926 28.8902C68.9866 29.0094 68.855 29.1031 68.7077 29.1641C68.5603 29.2251 68.401 29.2519 68.2418 29.2424C68.104 29.2522 67.9658 29.2314 67.837 29.1816C67.7082 29.1319 67.5919 29.0543 67.4966 28.9544C67.3128 28.7168 67.2227 28.42 67.2434 28.1204V26.1602H67.9232V28.1126C67.9232 28.497 68.0832 28.6892 68.4032 28.6892C68.5374 28.7041 68.673 28.6781 68.7922 28.6147C68.9114 28.5514 69.0088 28.4535 69.0716 28.334V26.1602H69.7514V29.1872H69.1106L69.0926 28.8902ZM71.5232 25.424V26.1596H72.0578V26.6636H71.5232V28.3526C71.5152 28.4418 71.5397 28.5308 71.5922 28.6034C71.6253 28.6324 71.6642 28.6542 71.7062 28.6674C71.7482 28.6807 71.7926 28.685 71.8364 28.6802C71.9172 28.6803 71.9977 28.671 72.0764 28.6526V29.1788C71.9308 29.2203 71.7802 29.2419 71.6288 29.243C71.1068 29.243 70.8468 28.9548 70.8488 28.3784V26.6636H70.3508V26.1602H70.8482V25.4246H71.528L71.5232 25.424ZM74.6396 28.8902C74.5336 29.0094 74.402 29.103 74.2546 29.164C74.1073 29.225 73.948 29.2518 73.7888 29.2424C73.6509 29.2522 73.5126 29.2315 73.3837 29.1817C73.2548 29.1319 73.1384 29.0543 73.043 28.9544C72.8592 28.7168 72.7691 28.42 72.7898 28.1204V26.1602H73.4696V28.1126C73.4696 28.497 73.6296 28.6892 73.9496 28.6892C74.0838 28.704 74.2193 28.678 74.3385 28.6146C74.4578 28.5513 74.5551 28.4535 74.618 28.334V26.1602H75.2978V29.1872H74.657L74.6396 28.8902ZM77.8034 26.7806C77.7117 26.7655 77.619 26.7581 77.5262 26.7584C77.3968 26.7453 77.2666 26.7729 77.1537 26.8375C77.0409 26.902 76.951 27.0002 76.8968 27.1184V29.1884H76.217V26.1602H76.8662L76.8824 26.4986C76.9498 26.3772 77.0489 26.2763 77.1692 26.2069C77.2894 26.1375 77.4263 26.102 77.5652 26.1044C77.6469 26.1019 77.7284 26.1151 77.8052 26.1434L77.8034 26.7806ZM79.742 29.2406C79.5488 29.2484 79.356 29.2163 79.1758 29.1463C78.9955 29.0763 78.8317 28.9699 78.6944 28.8338C78.558 28.6893 78.4522 28.5188 78.3832 28.3326C78.3143 28.1463 78.2836 27.948 78.293 27.7496V27.6656C78.2883 27.3859 78.3482 27.1089 78.4682 26.8562C78.5758 26.6282 78.746 26.4355 78.959 26.3006C79.17 26.1681 79.4148 26.0991 79.664 26.102C79.8426 26.0915 80.0213 26.1215 80.1867 26.1898C80.3521 26.258 80.4999 26.3628 80.6192 26.4962C80.8621 26.8157 80.9818 27.2121 80.9564 27.6128V27.887H78.9764C78.9849 28.1085 79.0741 28.3193 79.2272 28.4798C79.2995 28.5518 79.3858 28.6083 79.4807 28.6458C79.5756 28.6834 79.6772 28.7012 79.7792 28.6982C79.9271 28.701 80.0736 28.6681 80.2061 28.6023C80.3387 28.5365 80.4534 28.4397 80.5406 28.3202L80.9072 28.67C80.7854 28.8507 80.6177 28.9957 80.4212 29.09C80.2087 29.1917 79.9757 29.2428 79.7402 29.2394L79.742 29.2406ZM79.661 26.6474C79.5758 26.6444 79.4911 26.6604 79.4129 26.6944C79.3347 26.7283 79.2651 26.7793 79.2092 26.8436C79.0837 26.9997 79.0073 27.1895 78.9896 27.389H80.2844V27.3386C80.2848 27.1511 80.2213 26.9691 80.1044 26.8226C80.0477 26.7633 79.979 26.7169 79.9027 26.6867C79.8265 26.6564 79.7447 26.643 79.6628 26.6474H79.661ZM83.2406 27.6434C83.2363 27.3663 83.2967 27.092 83.417 26.8424C83.5248 26.6151 83.6969 26.4245 83.912 26.294C84.1341 26.1639 84.3878 26.0976 84.6452 26.1026C84.8292 26.0955 85.0127 26.1269 85.1839 26.1947C85.3551 26.2626 85.5102 26.3655 85.6394 26.4968C85.9028 26.7818 86.0499 27.1551 86.0516 27.5432L86.0546 27.7022C86.0596 27.9786 86.0009 28.2525 85.883 28.5026C85.776 28.7289 85.6047 28.9186 85.3904 29.048C85.1663 29.1793 84.9102 29.246 84.6506 29.2406C84.4589 29.2487 84.2678 29.2147 84.0907 29.1412C83.9135 29.0676 83.7547 28.9561 83.6252 28.8146C83.3569 28.4972 83.2195 28.0896 83.2406 27.6746V27.6434ZM83.9204 27.7034C83.9055 27.9615 83.9732 28.2177 84.1136 28.4348C84.1766 28.5173 84.2579 28.5841 84.3511 28.63C84.4443 28.6758 84.5469 28.6995 84.6507 28.6991C84.7546 28.6987 84.8569 28.6742 84.9498 28.6276C85.0426 28.5811 85.1234 28.5136 85.1858 28.4306C85.329 28.1945 85.396 27.9201 85.3778 27.6446C85.3916 27.3874 85.3226 27.1325 85.181 26.9174C85.1194 26.8344 85.0393 26.767 84.9471 26.7204C84.8549 26.6738 84.7531 26.6493 84.6498 26.6489C84.5465 26.6485 84.4445 26.6721 84.352 26.718C84.2594 26.7639 84.1788 26.8307 84.1166 26.9132C83.9694 27.1495 83.9007 27.4257 83.9204 27.7034ZM87.1004 29.186V26.6636H86.6384V26.1596H87.1004V25.8824C87.091 25.7401 87.111 25.5975 87.1591 25.4633C87.2072 25.3291 87.2824 25.2063 87.38 25.1024C87.4859 25.0081 87.6095 24.9358 87.7436 24.8897C87.8777 24.8435 88.0196 24.8245 88.1612 24.8336C88.2896 24.8347 88.4173 24.8517 88.5416 24.884L88.5248 25.4156C88.4391 25.3995 88.3521 25.3919 88.265 25.3928C88.1977 25.3841 88.1294 25.3913 88.0654 25.4136C88.0013 25.4359 87.9434 25.4729 87.8961 25.5215C87.8489 25.5701 87.8136 25.629 87.793 25.6937C87.7725 25.7583 87.7673 25.8268 87.7778 25.8938V26.1626H88.3928V26.6666H87.7778V29.1896L87.1004 29.186ZM91.4162 26.159L91.4354 26.4752C91.5434 26.3513 91.678 26.2535 91.8292 26.1891C91.9804 26.1247 92.1442 26.0953 92.3084 26.1032C92.4776 26.0874 92.6476 26.1234 92.796 26.2063C92.9444 26.2892 93.0641 26.4152 93.1394 26.5676C93.2422 26.418 93.3812 26.2969 93.5436 26.2157C93.7059 26.1344 93.8862 26.0957 94.0676 26.1032C94.2046 26.0922 94.3423 26.1113 94.4712 26.1592C94.6 26.2071 94.7168 26.2826 94.8134 26.3804C94.9927 26.6134 95.0817 26.9034 95.0642 27.197V29.186H94.3844V27.2174C94.3969 27.0665 94.3519 26.9165 94.2584 26.7974C94.2019 26.7477 94.1357 26.7101 94.0641 26.687C93.9925 26.6638 93.9169 26.6557 93.842 26.663C93.7046 26.6572 93.5698 26.7015 93.4628 26.7878C93.3631 26.8733 93.2914 26.9868 93.257 27.1136L93.26 29.1896H92.5802V27.1976C92.5884 27.1244 92.5798 27.0504 92.5551 26.981C92.5305 26.9117 92.4903 26.8489 92.4377 26.7974C92.3852 26.7458 92.3216 26.707 92.2518 26.6837C92.1819 26.6604 92.1077 26.6533 92.0348 26.663C91.9161 26.6549 91.7977 26.6822 91.6947 26.7415C91.5916 26.8008 91.5084 26.8893 91.4558 26.996V29.189H90.776V26.1602L91.4162 26.159ZM95.864 27.6446C95.8597 27.3674 95.9198 27.0929 96.0398 26.843C96.1478 26.6156 96.3201 26.425 96.5354 26.2946C96.7574 26.1644 97.0112 26.0981 97.2686 26.1032C97.4526 26.0959 97.6362 26.1272 97.8074 26.1951C97.9786 26.263 98.1337 26.3659 98.2628 26.4974C98.5263 26.7823 98.6734 27.1557 98.675 27.5438L98.678 27.7028C98.683 27.9792 98.6243 28.2531 98.5064 28.5032C98.3994 28.7295 98.2281 28.9192 98.0138 29.0486C97.7897 29.18 97.5336 29.2466 97.274 29.2412C97.0823 29.2494 96.8912 29.2155 96.714 29.1419C96.5369 29.0683 96.378 28.9568 96.2486 28.8152C95.9802 28.4978 95.8427 28.0902 95.864 27.6752V27.6416V27.6446ZM96.5438 27.7046C96.5287 27.9626 96.5962 28.2188 96.7364 28.436C96.7994 28.5186 96.8807 28.5855 96.974 28.6315C97.0672 28.6774 97.1699 28.7011 97.2738 28.7007C97.3778 28.7003 97.4802 28.6758 97.5731 28.6291C97.666 28.5825 97.7468 28.5149 97.8092 28.4318C97.9522 28.1956 98.0192 27.9213 98.0012 27.6458C98.0148 27.3885 97.9456 27.1336 97.8038 26.9186C97.7422 26.8356 97.6621 26.7682 97.5699 26.7216C97.4777 26.675 97.3759 26.6505 97.2726 26.6501C97.1693 26.6497 97.0673 26.6733 96.9748 26.7192C96.8822 26.7651 96.8016 26.8319 96.7394 26.9144C96.5927 27.1509 96.5243 27.4276 96.5438 27.7052V27.7046ZM100.113 26.1602L100.132 26.51C100.238 26.3788 100.372 26.2739 100.525 26.2035C100.678 26.1331 100.845 26.0992 101.014 26.1044C101.644 26.1044 101.964 26.4644 101.974 27.1844V29.1848H101.294V27.2258C101.306 27.0731 101.262 26.9212 101.169 26.7992C101.115 26.7485 101.051 26.7099 100.98 26.6861C100.91 26.6622 100.836 26.6535 100.762 26.6606C100.635 26.6565 100.509 26.6894 100.4 26.7555C100.291 26.8215 100.204 26.9178 100.149 27.0326V29.1866H99.4694V26.1602H100.113ZM104.23 29.243C104.037 29.2507 103.845 29.2186 103.664 29.1486C103.484 29.0786 103.321 28.9723 103.183 28.8362C103.047 28.6918 102.941 28.5213 102.872 28.335C102.803 28.1487 102.772 27.9504 102.782 27.752V27.668C102.777 27.3883 102.837 27.1113 102.957 26.8586C103.064 26.6305 103.235 26.4379 103.448 26.303C103.659 26.1706 103.903 26.1016 104.152 26.1044C104.331 26.0939 104.51 26.1238 104.675 26.1921C104.841 26.2604 104.989 26.3651 105.108 26.4986C105.351 26.8182 105.47 27.2146 105.445 27.6152V27.8894H103.465C103.473 28.1109 103.562 28.3217 103.715 28.4822C103.787 28.5542 103.874 28.6107 103.969 28.6482C104.064 28.6858 104.165 28.7036 104.268 28.7006C104.415 28.7034 104.562 28.6705 104.694 28.6047C104.827 28.5389 104.941 28.4421 105.028 28.3226L105.395 28.6724C105.273 28.8531 105.106 28.9981 104.91 29.0924C104.697 29.1942 104.464 29.2453 104.228 29.2418L104.23 29.243ZM104.149 26.6498C104.064 26.6468 103.979 26.6629 103.901 26.6969C103.823 26.7308 103.754 26.7817 103.698 26.846C103.572 27.0021 103.496 27.1919 103.478 27.3914H104.773V27.341C104.774 27.1535 104.71 26.9715 104.593 26.825C104.537 26.7656 104.468 26.7193 104.392 26.689C104.316 26.6588 104.234 26.6454 104.152 26.6498H104.149ZM107.224 28.214L107.839 26.1608H108.561L107.358 29.6462C107.31 29.8606 107.191 30.0525 107.021 30.1911C106.85 30.3297 106.638 30.4068 106.419 30.41C106.308 30.4082 106.197 30.3913 106.091 30.3596V29.8334L106.22 29.8418C106.356 29.8512 106.491 29.8185 106.607 29.7482C106.706 29.6669 106.778 29.5569 106.812 29.4332L106.911 29.1728L105.847 26.1602H106.581L107.224 28.214Z" fill="#030308" fill-opacity="0.8"/>
    </g>
    <defs>
        <clipPath id="clip0_20371_109062">
            <rect width="144" height="48" fill="white"/>
        </clipPath>
    </defs>
</svg>
