<svg width="144" height="48" viewBox="0 0 144 48" fill="none" xmlns="http://www.w3.org/2000/svg">
    <g clip-path="url(#clip0_21123_87199)">
        <g clip-path="url(#clip1_21123_87199)">
            <path d="M70.5985 27.7824C70.085 27.577 69.6399 27.2689 69.2291 26.858C68.8525 26.4814 68.5443 26.0021 68.3047 25.4886C67.3803 23.3316 68.4074 20.8323 70.5643 19.908C71.1121 19.6683 71.6599 19.5656 72.2419 19.5656C72.8239 19.5656 73.3717 19.6683 73.9195 19.908C74.4331 20.1134 74.8781 20.4215 75.2547 20.8323C75.6313 21.209 75.9395 21.6883 76.1449 22.1676C76.59 23.2289 76.59 24.4272 76.1449 25.4886C75.9395 26.0021 75.6313 26.4472 75.2205 26.858C74.8439 27.2346 74.3646 27.5428 73.851 27.7824C73.3375 27.9878 72.7554 28.1248 72.1734 28.1248C71.6941 28.1248 71.1463 28.0221 70.5985 27.7824ZM70.0165 18.47C68.6128 19.052 67.483 20.1818 66.901 21.5856C66.2847 23.0577 66.2847 24.6669 66.901 26.1391C67.483 27.5428 68.6128 28.6726 70.0165 29.2546C71.4544 29.8709 73.0978 29.8709 74.57 29.2546C75.9737 28.6726 77.1035 27.5428 77.6856 26.1391C78.3018 24.7011 78.3018 23.0577 77.6856 21.5856C77.1035 20.1818 75.9737 19.052 74.57 18.47C73.0978 17.8537 71.4544 17.8537 70.0165 18.47ZM57.5543 18.47C56.8696 18.7781 56.2191 19.189 55.7055 19.7368C55.1577 20.2503 54.7469 20.9008 54.4388 21.5856C53.8225 23.0577 53.8225 24.6669 54.4388 26.1391C54.7469 26.8238 55.1577 27.4743 55.6713 27.9878C56.2191 28.5356 56.8353 28.9465 57.5201 29.2546C58.239 29.5627 59.0265 29.6997 59.7797 29.6997C61.3204 29.6997 62.8268 29.0834 63.9224 27.9878C64.4701 27.4401 64.881 26.8238 65.1891 26.1048C65.2576 25.9679 65.3261 25.7967 65.3603 25.6255H63.6485C63.443 26.0706 63.1349 26.4814 62.7925 26.858C62.0051 27.6797 60.9095 28.1248 59.7797 28.0906C58.6499 28.0906 57.5543 27.6455 56.7669 26.858C56.3903 26.4814 56.0821 26.0021 55.8425 25.4886C55.3974 24.4272 55.3974 23.2289 55.8425 22.1676C56.493 20.5927 58.0679 19.5656 59.7797 19.5656C60.3617 19.5656 60.9095 19.6683 61.4573 19.908C61.9709 20.1134 62.4159 20.4215 62.8268 20.8323C63.1691 21.1747 63.4773 21.5856 63.6827 22.0649H65.3945C65.3603 21.8937 65.2918 21.7567 65.2234 21.5856C64.6413 20.1818 63.5115 19.052 62.1078 18.47C60.6699 17.8537 59.0265 17.8537 57.5543 18.47ZM79.8767 29.6997H81.4516V18.0249H79.8767V29.6997ZM99.3917 22.1333C99.3917 20.5927 100.624 19.3602 102.165 19.3259C103.706 19.3259 104.938 20.5585 104.972 22.0991C104.938 23.6398 103.671 24.8723 102.131 24.8381C100.624 24.8381 99.3917 23.6398 99.3917 22.1333ZM97.9537 22.1676C97.9537 24.4615 99.8368 26.2418 102.233 26.2418H103.192L101.343 29.7682H102.918L105.828 24.2218C106.205 23.5713 106.376 22.8523 106.41 22.1333C106.342 19.8052 104.424 17.9565 102.096 18.0249C99.8025 18.0592 97.988 19.908 97.9537 22.1676ZM109.115 26.2418C109.149 24.9065 110.245 23.811 111.58 23.8452C112.881 23.8794 113.942 24.9408 113.977 26.2418C113.977 27.577 112.881 28.6726 111.546 28.6726C110.211 28.6726 109.115 27.577 109.115 26.2418ZM109.937 20.9008C109.937 20.0107 110.656 19.2917 111.546 19.2575C112.47 19.2575 113.189 19.9764 113.189 20.9008C113.189 21.8252 112.47 22.5442 111.546 22.5442C110.621 22.51 109.937 21.791 109.937 20.9008ZM108.601 20.9008C108.601 21.5513 108.807 22.1676 109.183 22.6811L109.492 23.1262L109.081 23.4686C108.259 24.1533 107.78 25.1804 107.78 26.2418C107.814 28.296 109.492 29.9736 111.546 29.9393C113.6 29.9051 115.243 28.2617 115.243 26.2418C115.243 25.1462 114.764 24.1191 113.942 23.4343L113.531 23.092L113.874 22.6469C114.25 22.1333 114.456 21.5513 114.456 20.9008C114.422 19.2917 113.086 17.9907 111.477 18.0249C109.902 18.0249 108.636 19.3259 108.601 20.9008ZM94.1535 18.0249V27.0977C94.2219 27.5085 93.9138 27.9194 93.4687 27.9536C93.4345 27.9536 93.4002 27.9536 93.4002 27.9536C93.0236 27.9194 92.6813 27.7139 92.5443 27.3716L88.9495 19.5998C88.5729 18.6412 87.6142 18.0249 86.5871 18.0249C86.0051 18.0249 85.4231 18.2304 84.978 18.5727C84.9438 18.5727 84.9438 18.607 84.9095 18.607C84.4302 19.0178 84.1563 19.5998 84.1563 20.2503V29.6997H85.8339V20.49C85.7997 20.0791 86.142 19.7025 86.5529 19.6683H86.5871C86.9637 19.6683 87.3061 19.908 87.443 20.2846L87.4773 20.353C88.3332 22.2361 90.2162 26.3445 91.346 28.5356C91.7226 29.2546 92.3731 29.597 93.4002 29.597C93.9823 29.597 94.5985 29.4258 95.0436 29.0492C95.5572 28.7068 95.8653 28.1248 95.8311 27.4743V18.0249H94.1535Z" fill="#F9F9F9" fill-opacity="0.8"/>
            <path d="M39.9207 24.0176C38.6882 24.0176 37.6953 25.0104 37.6953 26.2087C37.6953 27.4413 38.6882 28.4341 39.8865 28.4341C41.119 28.4341 42.0776 27.4413 42.1119 26.243C42.1119 25.0104 41.1532 24.0176 39.9207 24.0176Z" fill="#F9F9F9" fill-opacity="0.8"/>
            <path d="M32.077 19.5312C30.8444 19.5312 29.8516 20.5241 29.8516 21.7566C29.8516 22.9892 30.8444 23.982 32.077 23.982C33.3095 23.982 34.2681 22.9892 34.3023 21.7566C34.2681 20.5241 33.3095 19.5312 32.077 19.5312Z" fill="#F9F9F9" fill-opacity="0.8"/>
            <path d="M43.6177 12H28.3823C25.9515 12 24 13.9515 24 16.3823V31.6177C24 34.0485 25.9515 36 28.3823 36H43.6177C46.0485 36 48 34.0485 48 31.6177V16.3823C48 13.9515 46.0143 12 43.6177 12ZM38.3795 18.368C38.8588 18.0942 39.3723 17.9572 39.9201 17.9572C41.7004 17.9572 43.1384 19.3952 43.1384 21.1755C43.1384 21.7233 43.0014 22.2368 42.7618 22.7161C42.3509 22.3738 41.9058 22.1341 41.4265 21.9629C41.5635 21.7233 41.632 21.4494 41.632 21.1755C41.632 20.2511 40.8787 19.4979 39.9544 19.4979C39.03 19.4979 38.2767 20.2511 38.2767 21.1755C38.2767 21.4494 38.3452 21.7233 38.4822 21.9629C38.0029 22.1341 37.5235 22.3738 37.1469 22.7161C36.2568 21.1755 36.8046 19.224 38.3795 18.368ZM32.0799 29.9743C30.2996 29.9743 28.8616 28.5364 28.8616 26.7561H30.4023C30.4023 27.6805 31.1555 28.4337 32.0799 28.4337C33.0043 28.4337 33.7575 27.6805 33.7575 26.7561H35.2981C35.2639 28.5364 33.8602 29.9743 32.0799 29.9743ZM32.0799 25.4893C30.0257 25.4893 28.3481 23.8117 28.3138 21.7575C28.3138 19.7033 29.9914 18.0257 32.0456 17.9914C34.0999 17.9914 35.7775 19.669 35.7775 21.7575C35.8117 23.8117 34.1341 25.4893 32.0799 25.4893ZM39.9201 29.9743C37.8659 29.9743 36.1883 28.2967 36.1883 26.2425C36.1883 24.1883 37.8659 22.5107 39.9201 22.5107C41.9743 22.5107 43.6519 24.1883 43.6519 26.2425C43.6519 28.2967 41.9743 29.9743 39.9201 29.9743Z" fill="#F9F9F9" fill-opacity="0.8"/>
        </g>
    </g>
    <defs>
        <clipPath id="clip0_21123_87199">
            <rect width="144" height="48" fill="white"/>
        </clipPath>
        <clipPath id="clip1_21123_87199">
            <rect width="91.3096" height="24" fill="white" transform="translate(24 12)"/>
        </clipPath>
    </defs>
</svg>
