<svg width="144" height="48" viewBox="0 0 144 48" fill="none" xmlns="http://www.w3.org/2000/svg">
    <g clip-path="url(#clip0_20371_109055)">
        <path d="M45.1606 20.096C44.3933 20.081 43.6308 20.2207 42.9186 20.5067C42.2065 20.7926 41.5592 21.2191 41.0153 21.7606C40.4715 22.3021 40.0422 22.9475 39.7532 23.6585C39.4641 24.3694 39.3211 25.1312 39.3328 25.8986C39.3153 26.6664 39.4545 27.4297 39.7418 28.1419C40.0291 28.854 40.4586 29.5002 41.004 30.0409C41.5494 30.5815 42.1992 31.0054 42.9139 31.2865C43.6286 31.5677 44.393 31.7002 45.1606 31.676C45.9318 31.6964 46.6992 31.5609 47.4167 31.2775C48.1342 30.9941 48.7871 30.5687 49.3362 30.0268C49.8854 29.485 50.3194 28.8378 50.6122 28.124C50.9051 27.4103 51.0508 26.6448 51.0406 25.8734C51.0545 25.1021 50.9112 24.3361 50.6193 23.6221C50.3274 22.9081 49.8931 22.261 49.3429 21.7204C48.7926 21.1797 48.138 20.7569 47.419 20.4776C46.6999 20.1983 45.9315 20.0685 45.1606 20.096ZM45.1858 29.2892C44.7484 29.2895 44.3156 29.2007 43.9137 29.0281C43.5119 28.8555 43.1494 28.6028 42.8485 28.2854C42.5476 27.968 42.3145 27.5926 42.1635 27.1822C42.0125 26.7717 41.9468 26.3347 41.9704 25.898C41.9457 25.4589 42.0109 25.0193 42.1619 24.6063C42.313 24.1932 42.5467 23.8153 42.8489 23.4957C43.151 23.176 43.5152 22.9214 43.9191 22.7474C44.3231 22.5734 44.7583 22.4837 45.1981 22.4837C45.6379 22.4837 46.0731 22.5734 46.4771 22.7474C46.881 22.9214 47.2452 23.176 47.5473 23.4957C47.8495 23.8153 48.0832 24.1932 48.2343 24.6063C48.3853 25.0193 48.4505 25.4589 48.4258 25.898C48.4487 26.3366 48.3817 26.7753 48.229 27.1871C48.0762 27.5989 47.8409 27.9751 47.5375 28.2927C47.2341 28.6102 46.869 28.8625 46.4646 29.0338C46.0602 29.2052 45.625 29.2921 45.1858 29.2892ZM51.7414 22.6076H53.374V31.4492H55.9618V20.297H51.7414V22.6076ZM32.8024 22.4822C33.4404 22.476 34.0634 22.6755 34.5792 23.051C35.095 23.4265 35.4761 23.9582 35.6662 24.5672H38.404C38.1737 23.2709 37.4822 22.1017 36.4573 21.2753C35.4324 20.4489 34.1432 20.0211 32.8276 20.0708C32.059 20.0587 31.2958 20.2011 30.5832 20.4896C29.8707 20.7781 29.2235 21.2069 28.6799 21.7504C28.1363 22.294 27.7074 22.9412 27.4188 23.6537C27.1302 24.3662 26.9877 25.1294 26.9998 25.898C26.9806 26.6662 27.1187 27.4302 27.4054 28.1432C27.6922 28.8561 28.1216 29.503 28.6673 30.044C29.2131 30.585 29.8636 31.0088 30.579 31.2893C31.2944 31.5698 32.0596 31.7012 32.8276 31.6754C34.1451 31.7167 35.4335 31.2826 36.4573 30.4524C37.4812 29.6222 38.1721 28.4514 38.404 27.1538H35.6656C35.4855 27.7659 35.1112 28.3029 34.5991 28.6835C34.0871 29.0642 33.465 29.2679 32.827 29.264C32.389 29.2664 31.9552 29.179 31.5524 29.0071C31.1496 28.8352 30.7862 28.5826 30.4849 28.2647C30.1835 27.9469 29.9506 27.5707 29.8004 27.1593C29.6502 26.7479 29.5859 26.31 29.6116 25.8728C29.6122 23.9396 30.9184 22.4822 32.8024 22.4822ZM101.1 24.818L99.1906 24.5414C98.2864 24.416 97.6306 24.1142 97.6306 23.3858C97.6306 22.6058 98.4844 22.2302 99.6148 22.2302C100.871 22.2302 101.675 22.7576 101.85 23.6618H104.362C104.085 21.4262 102.353 20.0948 99.6898 20.0948C96.952 20.0948 95.1184 21.5012 95.1184 23.486C95.1184 25.3952 96.2992 26.4752 98.7106 26.8268L100.62 27.1034C101.549 27.2288 102.077 27.6056 102.077 28.2842C102.077 29.1632 101.172 29.54 99.9166 29.54C98.3842 29.54 97.5052 28.9118 97.3798 27.9578H94.8178C95.0692 30.143 96.7768 31.6778 99.892 31.6778C102.731 31.6778 104.614 30.3716 104.614 28.1612C104.616 26.1746 103.235 25.1444 101.1 24.818ZM54.6556 15.6998C54.4375 15.6904 54.2198 15.726 54.016 15.8045C53.8123 15.8829 53.6268 16.0024 53.4713 16.1557C53.3158 16.3089 53.1935 16.4925 53.112 16.6951C53.0305 16.8976 52.9917 17.1148 52.9978 17.333C52.9978 17.7727 53.1725 18.1944 53.4834 18.5053C53.7943 18.8161 54.2159 18.9908 54.6556 18.9908C55.0953 18.9908 55.5169 18.8161 55.8278 18.5053C56.1387 18.1944 56.3134 17.7727 56.3134 17.333C56.3195 17.1148 56.2807 16.8976 56.1992 16.6951C56.1177 16.4925 55.9954 16.3089 55.8399 16.1557C55.6844 16.0024 55.4989 15.8829 55.2952 15.8045C55.0914 15.726 54.8737 15.6904 54.6556 15.6998ZM92.7856 24.1148C92.7856 21.7034 91.3036 20.0708 88.189 20.0708C85.249 20.0708 83.5924 21.5528 83.266 23.8388H85.8532C85.9786 22.9598 86.6824 22.2314 88.1392 22.2314C89.4706 22.2314 90.0982 22.8092 90.0982 23.5376C90.0982 24.467 88.9174 24.6932 87.4354 24.8438C85.4512 25.07 82.9642 25.748 82.9642 28.3352C82.9642 30.3446 84.4462 31.6256 86.8324 31.6256C88.6924 31.6256 89.872 30.8456 90.4492 29.6162C90.4622 29.8714 90.5262 30.1214 90.6375 30.3515C90.7488 30.5815 90.9051 30.7869 91.0971 30.9555C91.2892 31.1241 91.5131 31.2525 91.7556 31.333C91.9981 31.4136 92.2543 31.4448 92.509 31.4246H94.0162V29.1638H92.7352L92.7856 24.1148ZM90.2236 26.9282C90.2062 27.2885 90.1173 27.6418 89.9623 27.9675C89.8072 28.2933 89.589 28.5849 89.3202 28.8256C89.0515 29.0663 88.7377 29.2512 88.3969 29.3696C88.0562 29.4881 87.6953 29.5376 87.3352 29.5154C86.3554 29.5154 85.5268 29.1134 85.5268 28.2344C85.5268 27.1292 86.8582 26.828 88.0636 26.702C89.2444 26.6018 89.872 26.3252 90.1984 25.8482V26.9282H90.2236ZM76.4332 20.096C75.7644 20.0855 75.1016 20.2243 74.4933 20.5024C73.8849 20.7804 73.3463 21.1908 72.9166 21.7034V15.5996H70.3294V31.4492H72.8914V29.9924C73.3197 30.5245 73.8634 30.9522 74.4814 31.2433C75.0994 31.5343 75.7754 31.6811 76.4584 31.6724C79.573 31.6724 81.934 29.2124 81.934 25.895C81.934 22.5776 79.5226 20.096 76.4332 20.096ZM76.0564 29.2892C75.6189 29.2897 75.186 29.2009 74.784 29.0284C74.382 28.8559 74.0193 28.6032 73.7183 28.2858C73.4172 27.9685 73.1841 27.593 73.033 27.1824C72.882 26.7719 72.8162 26.3348 72.8398 25.898C72.8186 25.4586 72.8865 25.0194 73.0396 24.6069C73.1926 24.1945 73.4276 23.8173 73.7304 23.498C74.0331 23.1788 74.3973 22.9242 74.8011 22.7495C75.2049 22.5748 75.6399 22.4837 76.0798 22.4816C76.5197 22.48 76.9553 22.5689 77.3594 22.7427C77.7636 22.9164 78.1277 23.1714 78.4292 23.4918C78.7307 23.8121 78.9631 24.191 79.1121 24.6049C79.2611 25.0189 79.3234 25.459 79.2952 25.898C79.3138 26.3355 79.2439 26.7722 79.0896 27.182C78.9354 27.5918 78.7 27.9663 78.3975 28.2829C78.0951 28.5996 77.7319 28.8519 77.3296 29.0248C76.9273 29.1977 76.4943 29.2877 76.0564 29.2892ZM64.1002 20.096C63.4324 20.0519 62.7646 20.1814 62.1617 20.4719C61.5588 20.7624 61.0414 21.204 60.6598 21.7538V20.297H58.0714V31.4492H60.6598V25.3958C60.6598 23.6876 61.7398 22.4822 63.3472 22.4822C64.8292 22.4822 65.7838 23.537 65.7838 25.0694V31.4492H68.371V24.8684C68.395 22.0796 66.9382 20.096 64.1002 20.096ZM117 25.5212C117.023 24.7983 116.896 24.0784 116.628 23.4065C116.361 22.7346 115.957 22.1251 115.443 21.616C114.93 21.1069 114.317 20.7091 113.642 20.4475C112.968 20.1859 112.247 20.066 111.524 20.0954C110.758 20.0772 109.997 20.215 109.286 20.5005C108.575 20.786 107.93 21.2132 107.389 21.756C106.849 22.2989 106.425 22.946 106.142 23.6581C105.86 24.3702 105.725 25.1323 105.747 25.898C105.727 26.6664 105.864 27.4307 106.151 28.144C106.438 28.8573 106.867 29.5044 107.413 30.0455C107.959 30.5867 108.609 31.0104 109.325 31.2907C110.041 31.571 110.806 31.7019 111.575 31.6754C114.287 31.6754 116.397 30.068 116.95 27.8072H114.237C114.023 28.3099 113.654 28.7316 113.185 29.0118C112.715 29.2921 112.169 29.4165 111.625 29.3672C110.829 29.3896 110.054 29.1089 109.458 28.582C108.861 28.0551 108.486 27.3211 108.41 26.5286H117V25.5212ZM108.56 24.6674C108.697 24.0015 109.064 23.4051 109.597 22.9825C110.13 22.56 110.794 22.3383 111.474 22.3562C112.154 22.3127 112.826 22.5261 113.356 22.9541C113.886 23.3821 114.236 23.9935 114.338 24.6674H108.56Z" fill="#030308" fill-opacity="0.8"/>
    </g>
    <defs>
        <clipPath id="clip0_20371_109055">
            <rect width="144" height="48" fill="white"/>
        </clipPath>
    </defs>
</svg>
