<svg width="144" height="48" viewBox="0 0 144 48" fill="none" xmlns="http://www.w3.org/2000/svg">
    <g clip-path="url(#clip0_21123_87180)">
        <path d="M45.1626 20.096C44.3952 20.081 43.6328 20.2207 42.9206 20.5067C42.2084 20.7926 41.5611 21.2191 41.0173 21.7606C40.4734 22.3021 40.0442 22.9475 39.7551 23.6585C39.466 24.3694 39.3231 25.1312 39.3348 25.8986C39.3173 26.6664 39.4564 27.4297 39.7437 28.1419C40.0311 28.854 40.4605 29.5002 41.0059 30.0409C41.5513 30.5815 42.2012 31.0054 42.9158 31.2865C43.6305 31.5677 44.395 31.7002 45.1626 31.676C45.9337 31.6964 46.7011 31.5609 47.4187 31.2775C48.1362 30.9941 48.7891 30.5687 49.3382 30.0268C49.8873 29.485 50.3213 28.8378 50.6142 28.124C50.9071 27.4103 51.0528 26.6448 51.0426 25.8734C51.0565 25.1021 50.9131 24.3361 50.6213 23.6221C50.3294 22.9081 49.8951 22.261 49.3448 21.7204C48.7946 21.1797 48.14 20.7569 47.4209 20.4776C46.7019 20.1983 45.9334 20.0685 45.1626 20.096ZM45.1878 29.2892C44.7504 29.2895 44.3176 29.2007 43.9157 29.0281C43.5138 28.8555 43.1514 28.6028 42.8504 28.2854C42.5495 27.968 42.3164 27.5926 42.1655 27.1822C42.0145 26.7717 41.9488 26.3347 41.9724 25.898C41.9477 25.4589 42.0128 25.0193 42.1639 24.6063C42.3149 24.1932 42.5487 23.8153 42.8508 23.4957C43.153 23.176 43.5172 22.9214 43.9211 22.7474C44.325 22.5734 44.7602 22.4837 45.2001 22.4837C45.6399 22.4837 46.0751 22.5734 46.479 22.7474C46.883 22.9214 47.2471 23.176 47.5493 23.4957C47.8514 23.8153 48.0852 24.1932 48.2362 24.6063C48.3873 25.0193 48.4524 25.4589 48.4278 25.898C48.4507 26.3366 48.3837 26.7753 48.2309 27.1871C48.0782 27.5989 47.8429 27.9751 47.5394 28.2927C47.236 28.6102 46.8709 28.8625 46.4665 29.0338C46.0621 29.2052 45.627 29.2921 45.1878 29.2892ZM51.7434 22.6076H53.376V31.4492H55.9638V20.297H51.7434V22.6076ZM32.8044 22.4822C33.4423 22.476 34.0653 22.6755 34.5811 23.051C35.0969 23.4265 35.4781 23.9582 35.6682 24.5672H38.406C38.1756 23.2709 37.4842 22.1017 36.4593 21.2753C35.4344 20.4489 34.1452 20.0211 32.8296 20.0708C32.0609 20.0587 31.2977 20.2011 30.5852 20.4896C29.8727 20.7781 29.2254 21.2069 28.6818 21.7504C28.1382 22.294 27.7094 22.9412 27.4208 23.6537C27.1322 24.3662 26.9897 25.1294 27.0018 25.898C26.9826 26.6662 27.1206 27.4302 27.4074 28.1432C27.6941 28.8561 28.1235 29.503 28.6693 30.044C29.215 30.585 29.8655 31.0088 30.5809 31.2893C31.2963 31.5698 32.0615 31.7012 32.8296 31.6754C34.147 31.7167 35.4354 31.2826 36.4593 30.4524C37.4831 29.6222 38.1741 28.4514 38.406 27.1538H35.6676C35.4875 27.7659 35.1131 28.3029 34.6011 28.6835C34.089 29.0642 33.467 29.2679 32.829 29.264C32.391 29.2664 31.9572 29.179 31.5543 29.0071C31.1515 28.8352 30.7882 28.5826 30.4868 28.2647C30.1855 27.9469 29.9525 27.5707 29.8023 27.1593C29.6521 26.7479 29.5879 26.31 29.6136 25.8728C29.6142 23.9396 30.9204 22.4822 32.8044 22.4822ZM101.102 24.818L99.1926 24.5414C98.2884 24.416 97.6326 24.1142 97.6326 23.3858C97.6326 22.6058 98.4864 22.2302 99.6168 22.2302C100.873 22.2302 101.677 22.7576 101.852 23.6618H104.364C104.087 21.4262 102.355 20.0948 99.6918 20.0948C96.954 20.0948 95.1204 21.5012 95.1204 23.486C95.1204 25.3952 96.3012 26.4752 98.7126 26.8268L100.622 27.1034C101.551 27.2288 102.079 27.6056 102.079 28.2842C102.079 29.1632 101.174 29.54 99.9186 29.54C98.3862 29.54 97.5072 28.9118 97.3818 27.9578H94.8198C95.0712 30.143 96.7788 31.6778 99.894 31.6778C102.733 31.6778 104.616 30.3716 104.616 28.1612C104.618 26.1746 103.237 25.1444 101.102 24.818ZM54.6576 15.6998C54.4394 15.6904 54.2217 15.726 54.018 15.8045C53.8142 15.8829 53.6288 16.0024 53.4733 16.1557C53.3177 16.3089 53.1954 16.4925 53.114 16.6951C53.0325 16.8976 52.9936 17.1148 52.9998 17.333C52.9998 17.7727 53.1744 18.1944 53.4853 18.5053C53.7962 18.8161 54.2179 18.9908 54.6576 18.9908C55.0972 18.9908 55.5189 18.8161 55.8298 18.5053C56.1407 18.1944 56.3154 17.7727 56.3154 17.333C56.3215 17.1148 56.2826 16.8976 56.2011 16.6951C56.1197 16.4925 55.9974 16.3089 55.8418 16.1557C55.6863 16.0024 55.5009 15.8829 55.2971 15.8045C55.0934 15.726 54.8757 15.6904 54.6576 15.6998ZM92.7876 24.1148C92.7876 21.7034 91.3056 20.0708 88.191 20.0708C85.251 20.0708 83.5944 21.5528 83.268 23.8388H85.8552C85.9806 22.9598 86.6844 22.2314 88.1412 22.2314C89.4726 22.2314 90.1002 22.8092 90.1002 23.5376C90.1002 24.467 88.9194 24.6932 87.4374 24.8438C85.4532 25.07 82.9662 25.748 82.9662 28.3352C82.9662 30.3446 84.4482 31.6256 86.8344 31.6256C88.6944 31.6256 89.874 30.8456 90.4512 29.6162C90.4642 29.8714 90.5282 30.1214 90.6395 30.3515C90.7508 30.5815 90.9071 30.7869 91.0991 30.9555C91.2911 31.1241 91.515 31.2525 91.7575 31.333C92 31.4136 92.2562 31.4448 92.511 31.4246H94.0182V29.1638H92.7372L92.7876 24.1148ZM90.2256 26.9282C90.2081 27.2885 90.1193 27.6418 89.9642 27.9675C89.8091 28.2933 89.5909 28.5849 89.3222 28.8256C89.0535 29.0663 88.7396 29.2512 88.3989 29.3696C88.0581 29.4881 87.6972 29.5376 87.3372 29.5154C86.3574 29.5154 85.5288 29.1134 85.5288 28.2344C85.5288 27.1292 86.8602 26.828 88.0656 26.702C89.2464 26.6018 89.874 26.3252 90.2004 25.8482V26.9282H90.2256ZM76.4352 20.096C75.7663 20.0855 75.1036 20.2243 74.4952 20.5024C73.8869 20.7804 73.3482 21.1908 72.9186 21.7034V15.5996H70.3314V31.4492H72.8934V29.9924C73.3217 30.5245 73.8654 30.9522 74.4834 31.2433C75.1013 31.5343 75.7773 31.6811 76.4604 31.6724C79.575 31.6724 81.936 29.2124 81.936 25.895C81.936 22.5776 79.5246 20.096 76.4352 20.096ZM76.0584 29.2892C75.6209 29.2897 75.1879 29.2009 74.7859 29.0284C74.3839 28.8559 74.0213 28.6032 73.7202 28.2858C73.4192 27.9685 73.186 27.593 73.035 27.1824C72.8839 26.7719 72.8182 26.3348 72.8418 25.898C72.8205 25.4586 72.8885 25.0194 73.0415 24.6069C73.1946 24.1945 73.4296 23.8173 73.7323 23.498C74.035 23.1788 74.3993 22.9242 74.8031 22.7495C75.2068 22.5748 75.6418 22.4837 76.0818 22.4816C76.5217 22.48 76.9572 22.5689 77.3614 22.7427C77.7655 22.9164 78.1296 23.1714 78.4311 23.4918C78.7326 23.8121 78.9651 24.191 79.1141 24.6049C79.263 25.0189 79.3254 25.459 79.2972 25.898C79.3157 26.3355 79.2458 26.7722 79.0916 27.182C78.9373 27.5918 78.7019 27.9663 78.3995 28.2829C78.0971 28.5996 77.7338 28.8519 77.3316 29.0248C76.9293 29.1977 76.4962 29.2877 76.0584 29.2892ZM64.1022 20.096C63.4344 20.0519 62.7665 20.1814 62.1637 20.4719C61.5608 20.7624 61.0433 21.204 60.6618 21.7538V20.297H58.0734V31.4492H60.6618V25.3958C60.6618 23.6876 61.7418 22.4822 63.3492 22.4822C64.8312 22.4822 65.7858 23.537 65.7858 25.0694V31.4492H68.373V24.8684C68.397 22.0796 66.9402 20.096 64.1022 20.096ZM117.002 25.5212C117.025 24.7983 116.898 24.0784 116.63 23.4065C116.363 22.7346 115.959 22.1251 115.445 21.616C114.932 21.1069 114.318 20.7091 113.644 20.4475C112.97 20.1859 112.249 20.066 111.526 20.0954C110.76 20.0772 109.999 20.215 109.288 20.5005C108.577 20.786 107.932 21.2132 107.391 21.756C106.851 22.2989 106.426 22.946 106.144 23.6581C105.862 24.3702 105.727 25.1323 105.749 25.898C105.729 26.6664 105.866 27.4307 106.153 28.144C106.439 28.8573 106.869 29.5044 107.415 30.0455C107.961 30.5867 108.611 31.0104 109.327 31.2907C110.043 31.571 110.808 31.7019 111.577 31.6754C114.289 31.6754 116.399 30.068 116.952 27.8072H114.239C114.025 28.3099 113.656 28.7316 113.187 29.0118C112.717 29.2921 112.171 29.4165 111.627 29.3672C110.831 29.3896 110.056 29.1089 109.459 28.582C108.863 28.0551 108.488 27.3211 108.412 26.5286H117.002V25.5212ZM108.562 24.6674C108.699 24.0015 109.066 23.4051 109.599 22.9825C110.132 22.56 110.796 22.3383 111.476 22.3562C112.156 22.3127 112.827 22.5261 113.358 22.9541C113.888 23.3821 114.238 23.9935 114.34 24.6674H108.562Z" fill="#F9F9F9" fill-opacity="0.8"/>
    </g>
    <defs>
        <clipPath id="clip0_21123_87180">
            <rect width="144" height="48" fill="white"/>
        </clipPath>
    </defs>
</svg>
