<svg width="144" height="48" viewBox="0 0 144 48" fill="none" xmlns="http://www.w3.org/2000/svg">
    <g clip-path="url(#clip0_21123_87225)">
        <path d="M42.1236 19.1147C42.0984 19.0391 42.0648 18.9636 42.0312 18.8965C42.0816 18.972 42.1068 19.0475 42.1236 19.1147Z" fill="#F9F9F9" fill-opacity="0.8"/>
        <path d="M64.4902 21.5074C64.2468 20.5508 63.6258 19.8459 62.409 19.8459C60.6216 19.8459 59.8748 21.4235 59.8748 23.0263C59.8748 24.6291 60.6216 26.2067 62.409 26.2067C63.7097 26.2067 64.423 25.2333 64.5405 24.0165H65.9671C65.8496 26.0137 64.4314 27.3984 62.409 27.3984C59.9083 27.3984 58.4062 25.4095 58.4062 23.0263C58.4062 20.6431 59.9 18.6543 62.409 18.6543C64.2888 18.6627 65.7741 19.7032 65.9503 21.5074H64.4902Z" fill="#F9F9F9" fill-opacity="0.8"/>
        <path d="M66.8281 24.1667C66.8281 22.3206 67.9358 20.9863 69.8827 20.9863C71.8211 20.9863 72.9372 22.3206 72.9372 24.1667C72.9372 26.0297 71.8295 27.3556 69.8827 27.3556C67.9358 27.364 66.8281 26.0297 66.8281 24.1667ZM71.5946 24.1667C71.5946 23.1262 71.0659 22.0353 69.8743 22.0353C68.6827 22.0353 68.154 23.1262 68.154 24.1667C68.154 25.2157 68.6827 26.3066 69.8743 26.3066C71.0743 26.3066 71.5946 25.2241 71.5946 24.1667Z" fill="#F9F9F9" fill-opacity="0.8"/>
        <path d="M74.0781 18.8477H75.4124V20.1148H74.0781V18.8477ZM74.0781 21.1553H75.4124V27.2057H74.0781V21.1553Z" fill="#F9F9F9" fill-opacity="0.8"/>
        <path d="M76.8672 21.1555H78.1343V22.045L78.1595 22.0702C78.5539 21.4073 79.2504 20.9961 80.0392 20.9961C81.3483 20.9961 82.1791 21.701 82.1791 23.052V27.2059H80.8448V23.4045C80.8196 22.4562 80.4504 22.045 79.6616 22.045C78.7721 22.045 78.2015 22.7499 78.2015 23.6395V27.2059H76.8672V21.1555Z" fill="#F9F9F9" fill-opacity="0.8"/>
        <path d="M91.0527 27.197H90.1213L89.9031 26.2151C89.1227 27.1046 88.4094 27.3984 87.3856 27.3984C84.8849 27.3984 83.3828 25.4095 83.3828 23.0263C83.3828 20.6431 84.8765 18.6543 87.3856 18.6543C89.2066 18.6543 90.7423 19.6277 90.9604 21.5074H89.5339C89.3912 20.4081 88.4346 19.8459 87.3856 19.8459C85.5982 19.8459 84.8513 21.4235 84.8513 23.0263C84.8513 24.6291 85.5982 26.2067 87.3856 26.2067C88.8793 26.2319 89.7017 25.3256 89.7269 23.9158H87.5031V22.8081H91.0611V27.197H91.0527Z" fill="#F9F9F9" fill-opacity="0.8"/>
        <path d="M93.4899 24.5192C93.4899 25.4674 94.0018 26.3066 95.1179 26.3066C95.8899 26.3066 96.3599 25.9709 96.5948 25.2996H97.862C97.5683 26.6171 96.4438 27.3556 95.1263 27.3556C93.2298 27.3556 92.1641 26.0381 92.1641 24.1751C92.1641 22.4549 93.2885 20.9863 95.0843 20.9863C96.9892 20.9863 98.1641 22.7066 97.9375 24.5192H93.4899ZM96.6032 23.6465C96.5529 22.8073 95.9822 22.0437 95.0843 22.0437C94.1613 22.0437 93.5319 22.7486 93.4899 23.6465H96.6032Z" fill="#F9F9F9" fill-opacity="0.8"/>
        <path d="M103.044 23.1773C102.935 22.4389 102.398 22.0445 101.668 22.0445C100.98 22.0445 100.007 22.4053 100.007 24.2431C100.007 25.2501 100.451 26.3158 101.61 26.3158C102.382 26.3158 102.919 25.8039 103.044 24.9396H104.37C104.127 26.5088 103.154 27.3731 101.601 27.3731C99.7046 27.3731 98.6641 26.0305 98.6641 24.2515C98.6641 22.4305 99.6543 21.0039 101.643 21.0039C103.044 21.0039 104.236 21.7088 104.37 23.1941H103.044V23.1773Z" fill="#F9F9F9" fill-opacity="0.8"/>
        <path d="M105.493 18.8477H106.827V23.5973L109.235 21.1553H110.872L108.556 23.3791L111.09 27.2057H109.462L107.616 24.2686L106.819 25.0407V27.2057H105.484V18.8477H105.493Z" fill="#F9F9F9" fill-opacity="0.8"/>
        <path d="M111.461 24.1667C111.461 22.3206 112.569 20.9863 114.515 20.9863C116.454 20.9863 117.57 22.3206 117.57 24.1667C117.57 26.0297 116.462 27.3556 114.515 27.3556C112.569 27.364 111.461 26.0297 111.461 24.1667ZM116.236 24.1667C116.236 23.1262 115.707 22.0353 114.515 22.0353C113.324 22.0353 112.795 23.1262 112.795 24.1667C112.795 25.2157 113.324 26.3066 114.515 26.3066C115.707 26.3066 116.236 25.2241 116.236 24.1667Z" fill="#F9F9F9" fill-opacity="0.8"/>
        <path d="M38.9209 11.9571C32.2747 11.9907 26.9041 17.4033 26.9377 24.0494C26.9712 30.6956 32.3838 36.0662 39.03 36.0326C45.6761 35.9991 51.0468 30.5865 51.0132 23.9403C50.988 17.2942 45.5754 11.9319 38.9209 11.9571ZM37.3936 23.4117C36.202 23.4117 35.237 22.4466 35.237 21.255C35.237 20.0634 36.202 19.0984 37.3936 19.0984C38.5852 19.0984 39.5502 20.0634 39.5502 21.255C39.5502 22.4466 38.5852 23.4117 37.3936 23.4117ZM39.1139 25.7361L39.1223 25.7194L39.1307 25.7026C39.7433 26.097 40.4481 26.2396 41.1447 26.2564C41.8495 26.2732 42.5628 26.2229 43.2677 26.0802C43.9726 25.9375 44.6607 25.7194 45.3321 25.4424C45.7097 25.2914 46.0789 25.1236 46.4314 24.9222C46.4314 24.9222 46.4398 24.9222 46.4398 24.9138C46.6579 24.7795 46.8761 24.6368 47.0859 24.4942C47.1279 24.4606 47.1782 24.427 47.2202 24.3935L47.2286 24.4019L47.2453 24.427C46.7083 24.9222 46.0621 25.283 45.3992 25.6103C44.7363 25.9208 44.0481 26.1809 43.3349 26.3655C42.6216 26.5501 41.8831 26.6844 41.1279 26.6173C40.3894 26.5585 39.609 26.2984 39.1139 25.7361ZM44.6356 23.4117C44.6356 23.1515 44.8454 22.9417 45.0971 22.9417C45.3572 22.9417 45.567 23.1515 45.567 23.4033C45.567 23.6634 45.3572 23.8732 45.1055 23.8732C44.8537 23.8732 44.644 23.6634 44.6356 23.4117ZM40.9516 34.9585C40.4901 31.7026 43.3349 28.5054 44.9377 26.8774C45.2985 26.5082 45.8607 25.9963 46.3894 25.4508C48.4705 23.504 48.8901 21.1795 44.6272 20.0131C43.8216 19.7781 42.9824 19.4508 42.1349 19.1152C42.1097 19.0396 42.0761 18.9641 42.0426 18.897C41.9419 18.7291 41.774 18.5361 41.5139 18.318C40.96 17.8396 39.9195 17.848 39.0216 18.0662C38.0314 17.8312 37.0495 17.7473 36.1097 17.9739C31.9894 19.1068 31.3265 21.1208 31.167 23.5459C30.9488 26.1641 30.823 28.111 29.8328 30.3431C28.5992 28.5557 27.8691 26.3991 27.8607 24.0578C27.8104 17.8984 32.7782 12.8886 38.9293 12.8634C45.0803 12.8382 50.0901 17.7977 50.1153 23.9487C50.1321 29.4452 46.1796 34.027 40.9516 34.9585Z" fill="#F9F9F9" fill-opacity="0.8"/>
        <path d="M38.9122 21.2722C38.9122 22.1114 38.2325 22.7827 37.4017 22.7827C36.5625 22.7827 35.8828 22.103 35.8828 21.2722C35.8828 20.4414 36.5625 19.7617 37.4017 19.7617C38.2325 19.7617 38.9122 20.4414 38.9122 21.2722Z" fill="#F9F9F9" fill-opacity="0.8"/>
    </g>
    <defs>
        <clipPath id="clip0_21123_87225">
            <rect width="90.6294" height="24" fill="white" transform="translate(27 12)"/>
        </clipPath>
    </defs>
</svg>
