<svg width="144" height="48" viewBox="0 0 144 48" fill="none" xmlns="http://www.w3.org/2000/svg">
    <g clip-path="url(#clip0_21123_87187)">
        <path d="M35.8338 29.2308L31.569 31.0638V30.8802C30.7179 31.088 29.8482 31.2109 28.9728 31.2468C24.96 31.2084 21.78 29.133 21.7416 26.664V25.7472C23.0616 27.6408 25.7406 28.9098 28.9728 28.8636C30.0355 28.8926 31.0969 28.7692 32.1246 28.497L32.4954 27.5802C31.3537 27.9327 30.167 28.1181 28.9722 28.1304C24.96 28.14 21.78 26.0634 21.7416 23.5482V22.815C23.0616 24.5652 25.7346 25.8348 28.9728 25.7478C30.3712 25.822 31.7677 25.571 33.0528 25.0146L33.2382 24.0978C31.9158 24.7558 30.4494 25.0711 28.9734 25.0146C24.96 25.0626 21.78 22.9872 21.7416 20.4318V19.6986C23.0616 21.4896 25.7406 22.7586 28.9728 22.815C30.7165 22.7664 32.4272 22.3278 33.9792 21.5316L34.1646 20.4318C32.6267 21.4654 30.8253 22.0379 28.9728 22.0818C24.96 21.993 21.78 19.92 21.7416 17.316C21.78 14.841 24.96 12.7662 28.9728 12.7332C31.3638 12.7662 33.5844 13.5948 34.9068 14.9328L35.0358 15.1446L35.9706 15.1482L35.8338 14.9322C34.5186 13.1658 31.8888 12 28.9728 12C24.5352 12 21 14.418 21 17.316V26.847C21.156 29.676 24.6102 31.98 28.9728 31.98C31.8528 31.98 34.4442 30.8598 35.8338 29.2308Z" fill="#F9F9F9" fill-opacity="0.8"/>
        <path d="M34.0992 35.6799L35.5992 29.3901L31.2954 31.2399L33.9132 20.3247H28.8594L30.1692 14.9595H46.2624L44.9532 20.3247H39.7134L38.5932 23.2827L44.394 20.8779L34.0992 35.6799ZM36.7194 28.0947L35.9706 31.7949L42.1458 22.5447L37.0932 24.7647L39.339 19.5843H44.391L45.327 15.6993H30.7332L29.7972 19.5843H34.8498L32.4132 29.9427L36.7176 28.0929L36.7194 28.0947ZM57.3492 18.5031C57.3407 18.7782 57.2761 19.0487 57.1593 19.2978C57.0425 19.547 56.876 19.7697 56.67 19.9521C56.2145 20.3207 55.6394 20.5089 55.0542 20.4807C54.7295 20.4965 54.4055 20.4383 54.1067 20.3104C53.8078 20.1826 53.542 19.9885 53.3292 19.7427C52.8818 19.1652 52.6585 18.4453 52.7004 17.7159V17.3673C52.6911 16.8686 52.791 16.3738 52.9932 15.9177C53.1677 15.5226 53.4559 15.1884 53.8212 14.9577C54.2619 14.7086 54.766 14.5941 55.271 14.6285C55.7761 14.663 56.26 14.8448 56.6628 15.1515C57.0804 15.5361 57.3307 16.069 57.36 16.6359H56.1828C56.1831 16.3393 56.0727 16.0533 55.8732 15.8337C55.6465 15.6513 55.3587 15.5624 55.0686 15.5853C54.8984 15.5744 54.7282 15.6073 54.5743 15.6808C54.4205 15.7543 54.288 15.8661 54.1896 16.0053C53.9654 16.4026 53.8612 16.8563 53.8896 17.3115V17.7423C53.8559 18.2098 53.9529 18.6774 54.1698 19.0929C54.2665 19.2354 54.3991 19.3499 54.5541 19.4249C54.7092 19.4999 54.8812 19.5327 55.053 19.5201C55.3455 19.5431 55.6358 19.4544 55.8654 19.2717C56.0623 19.0638 56.1722 18.7884 56.1726 18.5019H57.3492V18.5031ZM63.4158 17.6805C63.4261 18.1887 63.3237 18.6928 63.1158 19.1565C62.9347 19.5599 62.6382 19.9006 62.2638 20.1357C61.8792 20.3604 61.4419 20.4791 60.9965 20.4797C60.5511 20.4803 60.1134 20.3629 59.7282 20.1393C59.3521 19.9061 59.0526 19.5677 58.8666 19.1661C58.6555 18.7105 58.5497 18.2132 58.557 17.7111V17.4291C58.5463 16.9187 58.65 16.4123 58.8606 15.9471C59.0437 15.5421 59.3421 15.2001 59.7186 14.9637C60.1031 14.7393 60.5403 14.6211 60.9855 14.6211C61.4307 14.6211 61.8679 14.7393 62.2524 14.9637C62.6285 15.2001 62.9267 15.5419 63.1098 15.9465C63.32 16.4105 63.4237 16.9157 63.4134 17.4249L63.4158 17.6805ZM62.2254 17.4219C62.2563 16.9457 62.1445 16.4711 61.9044 16.0587C61.7994 15.9149 61.662 15.7978 61.5034 15.7168C61.3447 15.6359 61.1693 15.5934 60.9912 15.5929C60.8131 15.5923 60.6374 15.6336 60.4782 15.7135C60.319 15.7934 60.1809 15.9096 60.075 16.0527C59.8346 16.4601 59.7216 16.93 59.7504 17.4021V17.6799C59.7229 18.1532 59.8345 18.6241 60.0714 19.0347C60.174 19.1819 60.3102 19.3024 60.4689 19.3862C60.6275 19.47 60.8039 19.5146 60.9832 19.5164C61.1626 19.5181 61.3398 19.477 61.5001 19.3963C61.6603 19.3157 61.7989 19.1979 61.9044 19.0527C62.1409 18.6438 62.2525 18.1744 62.2254 17.7027V17.4249V17.4219ZM66.1296 20.4027H64.9548V14.7027H66.1296V20.4027ZM72.4668 20.4027H71.2932L69.006 16.6509V20.4027H67.8294V14.7027H69.0042L71.2932 18.4599V14.7027H72.4644L72.4668 20.4027ZM78.2826 15.6525H76.536V20.4027H75.3612V15.6519H73.638V14.7027H78.2826V15.6525ZM82.9944 17.9325H80.7384V19.4601H83.3856V20.4027H79.563V14.7027H83.3778V15.6519H80.7378V17.0109H82.9938V17.9313L82.9944 17.9325ZM85.8612 19.4601H88.356V20.4027H84.6864V14.7027H85.8612V19.4613V19.4601ZM93.0732 17.9307H90.8172V19.4583H93.4644V20.4027H89.6424V14.7027H93.4566V15.6519H90.8166V17.0109H93.0726V17.9313L93.0732 17.9307ZM99.2772 19.6815C99.0353 19.9549 98.7245 20.1584 98.3772 20.2707C97.9645 20.4151 97.5297 20.4862 97.0926 20.4807C96.6387 20.4907 96.1904 20.3791 95.7942 20.1573C95.419 19.9387 95.1187 19.6118 94.9326 19.2195C94.7209 18.7677 94.6144 18.2737 94.6212 17.7747V17.3865C94.6089 16.8789 94.7071 16.3746 94.9092 15.9087C95.0825 15.5134 95.3719 15.18 95.739 14.9529C96.1829 14.7119 96.6848 14.5987 97.1892 14.6257C97.6936 14.6527 98.1806 14.8189 98.5962 15.1059C98.9974 15.4685 99.2405 15.9738 99.2736 16.5135H98.1312C98.106 16.2406 97.9831 15.986 97.785 15.7965C97.5741 15.6349 97.3122 15.5544 97.047 15.5697C96.8691 15.5606 96.6918 15.5971 96.5321 15.6759C96.3723 15.7547 96.2354 15.873 96.1344 16.0197C95.8987 16.425 95.7885 16.891 95.8176 17.3589V17.7231C95.7849 18.1996 95.9042 18.6742 96.1584 19.0785C96.2744 19.2311 96.4263 19.3528 96.6005 19.4327C96.7748 19.5127 96.966 19.5485 97.1574 19.5369C97.4968 19.5701 97.8356 19.4689 98.1012 19.2549V18.2721H97.0332V17.4063H99.2772V19.6827V19.6815ZM102.95 18.3147H102.013V20.4027H100.837V14.7027H102.956C103.513 14.6664 104.065 14.8258 104.516 15.1533C104.7 15.3085 104.845 15.5042 104.94 15.7251C105.036 15.9459 105.078 16.1858 105.065 16.4259C105.077 16.7681 104.99 17.1064 104.812 17.3991C104.623 17.676 104.357 17.8916 104.047 18.0195L105.28 20.3499V20.4027H104.02L102.951 18.3153L102.95 18.3147ZM102.014 17.3631H102.962C103.211 17.3789 103.456 17.2981 103.648 17.1375C103.73 17.0572 103.793 16.9603 103.835 16.8533C103.876 16.7463 103.894 16.6317 103.888 16.5171C103.894 16.4015 103.877 16.2856 103.838 16.1767C103.798 16.0677 103.737 15.9678 103.658 15.8829C103.563 15.7995 103.451 15.7361 103.33 15.6964C103.21 15.6568 103.082 15.6416 102.956 15.6519H102.013V17.3631H102.014ZM109.788 19.2267H107.728L107.335 20.4027H106.086L108.208 14.7027H109.297L111.431 20.4027H110.182L109.786 19.2279L109.788 19.2267ZM108.048 18.2757H109.474L108.752 16.1427L108.044 18.2775L108.048 18.2757ZM113.754 18.3957V20.4027H112.573V14.7027H114.797C115.187 14.6944 115.573 14.7749 115.927 14.9379C116.238 15.0814 116.499 15.3138 116.677 15.6057C116.855 15.9033 116.945 16.2445 116.939 16.5909C116.951 16.8401 116.905 17.0886 116.806 17.3174C116.706 17.5462 116.556 17.7492 116.366 17.9109C115.911 18.2571 115.348 18.4289 114.778 18.3951H113.747L113.754 18.3957ZM113.754 17.4441H114.803C115.059 17.4612 115.312 17.3823 115.513 17.2227C115.597 17.1425 115.663 17.0448 115.705 16.9366C115.747 16.8284 115.765 16.7123 115.758 16.5963C115.764 16.4727 115.745 16.3491 115.702 16.2328C115.66 16.1164 115.595 16.0096 115.511 15.9183C115.422 15.8298 115.315 15.7606 115.198 15.7147C115.081 15.6689 114.956 15.6476 114.83 15.6519H113.75V17.4417L113.754 17.4441ZM123.001 20.4027H121.826V17.9589H119.533V20.4027H118.358V14.7027H119.533V17.0133H121.824V14.7027H122.999L123.001 20.4027Z" fill="#F9F9F9" fill-opacity="0.8"/>
        <path d="M55.9341 25.6844H54.6639V29.1866H53.9631V25.6844H52.7031V25.1138H55.9341V25.6844ZM57.3015 26.4902C57.4034 26.3667 57.5319 26.2678 57.6773 26.2009C57.8228 26.134 57.9815 26.1008 58.1415 26.1038C58.7871 26.1038 59.1143 26.4722 59.1231 27.209V29.189H58.4457V27.2336C58.4537 27.1544 58.4458 27.0744 58.4225 26.9982C58.3992 26.9221 58.361 26.8514 58.3101 26.7902C58.1992 26.6964 58.056 26.6499 57.9111 26.6606C57.7853 26.656 57.6608 26.6879 57.5526 26.7523C57.4444 26.8166 57.357 26.9108 57.3009 27.0236V29.1836H56.6217V24.89H57.3015V26.4902ZM61.3743 29.2424C61.1811 29.2502 60.9884 29.2181 60.8081 29.1481C60.6279 29.0781 60.464 28.9717 60.3267 28.8356C60.1904 28.6911 60.0846 28.5206 60.0156 28.3344C59.9466 28.1481 59.9159 27.9498 59.9253 27.7514V27.6674C59.9205 27.3875 59.9805 27.1103 60.1005 26.8574C60.2082 26.6294 60.3784 26.4368 60.5913 26.3018C60.8024 26.1693 61.0471 26.1003 61.2963 26.1032C61.4749 26.0927 61.6536 26.1227 61.819 26.191C61.9844 26.2592 62.1323 26.364 62.2515 26.4974C62.4945 26.8169 62.6142 27.2133 62.5887 27.614V27.8882H60.6087C60.6173 28.1097 60.7065 28.3205 60.8595 28.481C60.9319 28.553 61.0181 28.6095 61.113 28.647C61.2079 28.6846 61.3095 28.7024 61.4115 28.6994C61.5595 28.7022 61.7059 28.6693 61.8385 28.6035C61.971 28.5377 62.0857 28.4409 62.1729 28.3214L62.5431 28.6736C62.4214 28.8544 62.2536 28.9994 62.0571 29.0936C61.8447 29.1953 61.6116 29.2464 61.3761 29.243L61.3743 29.2424ZM61.2933 26.6492C61.2082 26.6462 61.1234 26.6622 61.0452 26.6962C60.9671 26.7301 60.8975 26.7811 60.8415 26.8454C60.716 27.0015 60.6396 27.1913 60.6219 27.3908H61.9167V27.3404C61.9172 27.1529 61.8537 26.9709 61.7367 26.8244C61.6801 26.7651 61.6113 26.7187 61.5351 26.6885C61.4589 26.6582 61.377 26.6448 61.2951 26.6492H61.2933ZM65.2401 29.1866V26.6636H64.7781V26.1596H65.2401V25.8824C65.2307 25.7401 65.2507 25.5975 65.2988 25.4633C65.3469 25.3291 65.4221 25.2063 65.5197 25.1024C65.6255 25.0068 65.7493 24.9334 65.8839 24.8863C66.0184 24.8392 66.161 24.8195 66.3033 24.8282C66.4317 24.8293 66.5595 24.8463 66.6837 24.8786L66.6669 25.4102C66.5811 25.3941 66.4939 25.3865 66.4065 25.3874C66.3393 25.3787 66.271 25.3858 66.207 25.4082C66.143 25.4305 66.0851 25.4675 66.0378 25.5161C65.9906 25.5647 65.9553 25.6237 65.9349 25.6883C65.9144 25.7529 65.9093 25.8214 65.9199 25.8884V26.1572H66.5349V26.6612H65.9199V29.1842L65.2401 29.1866ZM69.0945 28.8902C68.9886 29.0094 68.857 29.1031 68.7096 29.1641C68.5622 29.2251 68.4029 29.2519 68.2437 29.2424C68.106 29.2522 67.9678 29.2314 67.8389 29.1816C67.7101 29.1319 67.5939 29.0543 67.4985 28.9544C67.3147 28.7168 67.2246 28.42 67.2453 28.1204V26.1602H67.9251V28.1126C67.9251 28.497 68.0851 28.6892 68.4051 28.6892C68.5393 28.7041 68.6749 28.6781 68.7941 28.6147C68.9134 28.5514 69.0107 28.4535 69.0735 28.334V26.1602H69.7533V29.1872H69.1125L69.0945 28.8902ZM71.5251 25.424V26.1596H72.0597V26.6636H71.5251V28.3526C71.5171 28.4418 71.5416 28.5308 71.5941 28.6034C71.6273 28.6324 71.6661 28.6542 71.7082 28.6674C71.7502 28.6807 71.7945 28.685 71.8383 28.6802C71.9191 28.6803 71.9997 28.671 72.0783 28.6526V29.1788C71.9327 29.2203 71.7821 29.2419 71.6307 29.243C71.1087 29.243 70.8487 28.9548 70.8507 28.3784V26.6636H70.3527V26.1602H70.8501V25.4246H71.5299L71.5251 25.424ZM74.6415 28.8902C74.5356 29.0094 74.404 29.103 74.2566 29.164C74.1092 29.225 73.9499 29.2518 73.7907 29.2424C73.6529 29.2522 73.5146 29.2315 73.3856 29.1817C73.2567 29.1319 73.1404 29.0543 73.0449 28.9544C72.8612 28.7168 72.771 28.42 72.7917 28.1204V26.1602H73.4715V28.1126C73.4715 28.497 73.6315 28.6892 73.9515 28.6892C74.0857 28.704 74.2213 28.678 74.3405 28.6146C74.4597 28.5513 74.5571 28.4535 74.6199 28.334V26.1602H75.2997V29.1872H74.6589L74.6415 28.8902ZM77.8053 26.7806C77.7137 26.7655 77.621 26.7581 77.5281 26.7584C77.3988 26.7453 77.2686 26.7729 77.1557 26.8375C77.0428 26.902 76.953 27.0002 76.8987 27.1184V29.1884H76.2189V26.1602H76.8681L76.8843 26.4986C76.9517 26.3772 77.0509 26.2763 77.1711 26.2069C77.2914 26.1375 77.4283 26.102 77.5671 26.1044C77.6489 26.1019 77.7304 26.1151 77.8071 26.1434L77.8053 26.7806ZM79.7439 29.2406C79.5507 29.2484 79.358 29.2163 79.1777 29.1463C78.9975 29.0763 78.8336 28.9699 78.6963 28.8338C78.56 28.6893 78.4542 28.5188 78.3852 28.3326C78.3162 28.1463 78.2855 27.948 78.2949 27.7496V27.6656C78.2902 27.3859 78.3502 27.1089 78.4701 26.8562C78.5778 26.6282 78.748 26.4355 78.9609 26.3006C79.172 26.1681 79.4167 26.0991 79.6659 26.102C79.8445 26.0915 80.0232 26.1215 80.1886 26.1898C80.354 26.258 80.5019 26.3628 80.6211 26.4962C80.8641 26.8157 80.9838 27.2121 80.9583 27.6128V27.887H78.9783C78.9869 28.1085 79.0761 28.3193 79.2291 28.4798C79.3015 28.5518 79.3877 28.6083 79.4826 28.6458C79.5775 28.6834 79.6791 28.7012 79.7811 28.6982C79.9291 28.701 80.0755 28.6681 80.2081 28.6023C80.3406 28.5365 80.4553 28.4397 80.5425 28.3202L80.9091 28.67C80.7874 28.8507 80.6196 28.9957 80.4231 29.09C80.2107 29.1917 79.9776 29.2428 79.7421 29.2394L79.7439 29.2406ZM79.6629 26.6474C79.5778 26.6444 79.493 26.6604 79.4148 26.6944C79.3367 26.7283 79.2671 26.7793 79.2111 26.8436C79.0856 26.9997 79.0092 27.1895 78.9915 27.389H80.2863V27.3386C80.2868 27.1511 80.2233 26.9691 80.1063 26.8226C80.0497 26.7633 79.9809 26.7169 79.9047 26.6867C79.8285 26.6564 79.7466 26.643 79.6647 26.6474H79.6629ZM83.2425 27.6434C83.2383 27.3663 83.2987 27.092 83.4189 26.8424C83.5268 26.6151 83.6989 26.4245 83.9139 26.294C84.136 26.1639 84.3898 26.0976 84.6471 26.1026C84.8312 26.0955 85.0146 26.1269 85.1858 26.1947C85.357 26.2626 85.5122 26.3655 85.6413 26.4968C85.9048 26.7818 86.0518 27.1551 86.0535 27.5432L86.0565 27.7022C86.0616 27.9786 86.0028 28.2525 85.8849 28.5026C85.778 28.7289 85.6066 28.9186 85.3923 29.048C85.1683 29.1793 84.9122 29.246 84.6525 29.2406C84.4609 29.2487 84.2698 29.2147 84.0926 29.1412C83.9155 29.0676 83.7566 28.9561 83.6271 28.8146C83.3589 28.4972 83.2214 28.0896 83.2425 27.6746V27.6434ZM83.9223 27.7034C83.9075 27.9615 83.9751 28.2177 84.1155 28.4348C84.1786 28.5173 84.2599 28.5841 84.3531 28.63C84.4463 28.6758 84.5488 28.6995 84.6527 28.6991C84.7565 28.6987 84.8589 28.6742 84.9517 28.6276C85.0445 28.5811 85.1253 28.5136 85.1877 28.4306C85.3309 28.1945 85.398 27.9201 85.3797 27.6446C85.3935 27.3874 85.3246 27.1325 85.1829 26.9174C85.1213 26.8344 85.0413 26.767 84.9491 26.7204C84.8569 26.6738 84.7551 26.6493 84.6518 26.6489C84.5485 26.6485 84.4465 26.6721 84.3539 26.718C84.2614 26.7639 84.1808 26.8307 84.1185 26.9132C83.9714 27.1495 83.9027 27.4257 83.9223 27.7034ZM87.1023 29.186V26.6636H86.6403V26.1596H87.1023V25.8824C87.0929 25.7401 87.1129 25.5975 87.161 25.4633C87.2091 25.3291 87.2843 25.2063 87.3819 25.1024C87.4879 25.0081 87.6115 24.9358 87.7456 24.8897C87.8797 24.8435 88.0216 24.8245 88.1631 24.8336C88.2915 24.8347 88.4193 24.8517 88.5435 24.884L88.5267 25.4156C88.4411 25.3995 88.3541 25.3919 88.2669 25.3928C88.1997 25.3841 88.1313 25.3913 88.0673 25.4136C88.0033 25.4359 87.9454 25.4729 87.8981 25.5215C87.8508 25.5701 87.8155 25.629 87.795 25.6937C87.7744 25.7583 87.7692 25.8268 87.7797 25.8938V26.1626H88.3947V26.6666H87.7797V29.1896L87.1023 29.186ZM91.4181 26.159L91.4373 26.4752C91.5453 26.3513 91.68 26.2535 91.8312 26.1891C91.9824 26.1247 92.1462 26.0953 92.3103 26.1032C92.4796 26.0874 92.6496 26.1234 92.798 26.2063C92.9463 26.2892 93.0661 26.4152 93.1413 26.5676C93.2441 26.418 93.3832 26.2969 93.5455 26.2157C93.7079 26.1344 93.8882 26.0957 94.0695 26.1032C94.2065 26.0922 94.3443 26.1113 94.4731 26.1592C94.6019 26.2071 94.7187 26.2826 94.8153 26.3804C94.9946 26.6134 95.0837 26.9034 95.0661 27.197V29.186H94.3863V27.2174C94.3988 27.0665 94.3538 26.9165 94.2603 26.7974C94.2038 26.7477 94.1377 26.7101 94.0661 26.687C93.9944 26.6638 93.9188 26.6557 93.8439 26.663C93.7066 26.6572 93.5718 26.7015 93.4647 26.7878C93.3651 26.8733 93.2934 26.9868 93.2589 27.1136L93.2619 29.1896H92.5821V27.1976C92.5903 27.1244 92.5818 27.0504 92.5571 26.981C92.5324 26.9117 92.4923 26.8489 92.4397 26.7974C92.3871 26.7458 92.3235 26.707 92.2537 26.6837C92.1839 26.6604 92.1097 26.6533 92.0367 26.663C91.9181 26.6549 91.7997 26.6822 91.6966 26.7415C91.5935 26.8008 91.5104 26.8893 91.4577 26.996V29.189H90.7779V26.1602L91.4181 26.159ZM95.8659 27.6446C95.8616 27.3674 95.9218 27.0929 96.0417 26.843C96.1497 26.6156 96.3221 26.425 96.5373 26.2946C96.7594 26.1644 97.0132 26.0981 97.2705 26.1032C97.4546 26.0959 97.6381 26.1272 97.8093 26.1951C97.9806 26.263 98.1357 26.3659 98.2647 26.4974C98.5283 26.7823 98.6754 27.1557 98.6769 27.5438L98.6799 27.7028C98.685 27.9792 98.6262 28.2531 98.5083 28.5032C98.4014 28.7295 98.23 28.9192 98.0157 29.0486C97.7917 29.18 97.5356 29.2466 97.2759 29.2412C97.0843 29.2494 96.8931 29.2155 96.716 29.1419C96.5388 29.0683 96.38 28.9568 96.2505 28.8152C95.9821 28.4978 95.8446 28.0902 95.8659 27.6752V27.6416V27.6446ZM96.5457 27.7046C96.5307 27.9626 96.5981 28.2188 96.7383 28.436C96.8014 28.5186 96.8827 28.5855 96.9759 28.6315C97.0692 28.6774 97.1718 28.7011 97.2758 28.7007C97.3797 28.7003 97.4822 28.6758 97.575 28.6291C97.6679 28.5825 97.7487 28.5149 97.8111 28.4318C97.9542 28.1956 98.0212 27.9213 98.0031 27.6458C98.0168 27.3885 97.9476 27.1336 97.8057 26.9186C97.7441 26.8356 97.6641 26.7682 97.5719 26.7216C97.4797 26.675 97.3779 26.6505 97.2746 26.6501C97.1713 26.6497 97.0693 26.6733 96.9767 26.7192C96.8842 26.7651 96.8036 26.8319 96.7413 26.9144C96.5947 27.1509 96.5262 27.4276 96.5457 27.7052V27.7046ZM100.115 26.1602L100.134 26.51C100.24 26.3788 100.374 26.2739 100.527 26.2035C100.68 26.1331 100.847 26.0992 101.016 26.1044C101.646 26.1044 101.966 26.4644 101.976 27.1844V29.1848H101.296V27.2258C101.308 27.0731 101.264 26.9212 101.171 26.7992C101.117 26.7485 101.053 26.7099 100.982 26.6861C100.912 26.6622 100.838 26.6535 100.764 26.6606C100.637 26.6565 100.511 26.6894 100.402 26.7555C100.293 26.8215 100.206 26.9178 100.151 27.0326V29.1866H99.4713V26.1602H100.115ZM104.232 29.243C104.039 29.2507 103.847 29.2186 103.666 29.1486C103.486 29.0786 103.323 28.9723 103.185 28.8362C103.049 28.6918 102.943 28.5213 102.874 28.335C102.805 28.1487 102.774 27.9504 102.784 27.752V27.668C102.779 27.3883 102.839 27.1113 102.959 26.8586C103.066 26.6305 103.237 26.4379 103.45 26.303C103.661 26.1706 103.905 26.1016 104.154 26.1044C104.333 26.0939 104.512 26.1238 104.677 26.1921C104.843 26.2604 104.991 26.3651 105.11 26.4986C105.353 26.8182 105.472 27.2146 105.447 27.6152V27.8894H103.467C103.475 28.1109 103.564 28.3217 103.717 28.4822C103.789 28.5542 103.876 28.6107 103.971 28.6482C104.066 28.6858 104.167 28.7036 104.27 28.7006C104.417 28.7034 104.564 28.6705 104.696 28.6047C104.829 28.5389 104.943 28.4421 105.03 28.3226L105.397 28.6724C105.275 28.8531 105.108 28.9981 104.912 29.0924C104.699 29.1942 104.466 29.2453 104.23 29.2418L104.232 29.243ZM104.151 26.6498C104.066 26.6468 103.981 26.6629 103.903 26.6969C103.825 26.7308 103.756 26.7817 103.7 26.846C103.574 27.0021 103.498 27.1919 103.48 27.3914H104.775V27.341C104.776 27.1535 104.712 26.9715 104.595 26.825C104.539 26.7656 104.47 26.7193 104.394 26.689C104.317 26.6588 104.236 26.6454 104.154 26.6498H104.151ZM107.226 28.214L107.841 26.1608H108.563L107.36 29.6462C107.312 29.8606 107.193 30.0525 107.023 30.1911C106.852 30.3297 106.64 30.4068 106.421 30.41C106.31 30.4082 106.199 30.3913 106.093 30.3596V29.8334L106.222 29.8418C106.357 29.8512 106.493 29.8185 106.609 29.7482C106.708 29.6669 106.78 29.5569 106.814 29.4332L106.913 29.1728L105.849 26.1602H106.583L107.226 28.214Z" fill="#F9F9F9" fill-opacity="0.8"/>
    </g>
    <defs>
        <clipPath id="clip0_21123_87187">
            <rect width="144" height="48" fill="white"/>
        </clipPath>
    </defs>
</svg>
