<svg width="144" height="48" viewBox="0 0 144 48" fill="none" xmlns="http://www.w3.org/2000/svg">
    <g clip-path="url(#clip0_18876_40541)">
        <g clip-path="url(#clip1_18876_40541)">
            <path d="M42.1304 19.1166C42.1052 19.0411 42.0717 18.9656 42.0381 18.8984C42.0884 18.974 42.1136 19.0495 42.1304 19.1166Z" fill="#030308" fill-opacity="0.8"/>
            <path d="M64.4941 21.5074C64.2507 20.5508 63.6297 19.8459 62.413 19.8459C60.6255 19.8459 59.8787 21.4235 59.8787 23.0263C59.8787 24.6291 60.6255 26.2067 62.413 26.2067C63.7137 26.2067 64.4269 25.2333 64.5444 24.0165H65.971C65.8535 26.0137 64.4353 27.3984 62.413 27.3984C59.9123 27.3984 58.4102 25.4095 58.4102 23.0263C58.4102 20.6431 59.9039 18.6543 62.413 18.6543C64.2927 18.6627 65.778 19.7032 65.9542 21.5074H64.4941Z" fill="#030308" fill-opacity="0.8"/>
            <path d="M66.835 24.1677C66.835 22.3216 67.9427 20.9873 69.8895 20.9873C71.828 20.9873 72.9441 22.3216 72.9441 24.1677C72.9441 26.0307 71.8364 27.3565 69.8895 27.3565C67.9427 27.3649 66.835 26.0307 66.835 24.1677ZM71.6014 24.1677C71.6014 23.1272 71.0727 22.0363 69.8811 22.0363C68.6895 22.0363 68.1608 23.1272 68.1608 24.1677C68.1608 25.2167 68.6895 26.3076 69.8811 26.3076C71.0811 26.3076 71.6014 25.2251 71.6014 24.1677Z" fill="#030308" fill-opacity="0.8"/>
            <path d="M74.0859 18.8477H75.4202V20.1148H74.0859V18.8477ZM74.0859 21.1553H75.4202V27.2057H74.0859V21.1553Z" fill="#030308" fill-opacity="0.8"/>
            <path d="M76.8721 21.1546H78.1392V22.0441L78.1644 22.0692C78.5588 21.4063 79.2553 20.9951 80.0441 20.9951C81.3532 20.9951 82.184 21.7 82.184 23.0511V27.2049H80.8497V23.4035C80.8245 22.4553 80.4553 22.0441 79.6665 22.0441C78.777 22.0441 78.2063 22.749 78.2063 23.6385V27.2049H76.8721V21.1546Z" fill="#030308" fill-opacity="0.8"/>
            <path d="M91.0537 27.197H90.1222L89.9041 26.2151C89.1236 27.1046 88.4104 27.3984 87.3866 27.3984C84.8859 27.3984 83.3838 25.4095 83.3838 23.0263C83.3838 20.6431 84.8775 18.6543 87.3866 18.6543C89.2076 18.6543 90.7432 19.6277 90.9614 21.5074H89.5348C89.3922 20.4081 88.4355 19.8459 87.3866 19.8459C85.5992 19.8459 84.8523 21.4235 84.8523 23.0263C84.8523 24.6291 85.5992 26.2067 87.3866 26.2067C88.8803 26.2319 89.7027 25.3256 89.7278 23.9158H87.5041V22.8081H91.0621V27.197H91.0537Z" fill="#030308" fill-opacity="0.8"/>
            <path d="M93.4958 24.5202C93.4958 25.4684 94.0077 26.3076 95.1238 26.3076C95.8958 26.3076 96.3657 25.9719 96.6007 25.3006H97.8678C97.5741 26.6181 96.4496 27.3565 95.1322 27.3565C93.2357 27.3565 92.1699 26.0391 92.1699 24.1761C92.1699 22.4558 93.2944 20.9873 95.0902 20.9873C96.9951 20.9873 98.1699 22.7076 97.9434 24.5202H93.4958ZM96.6091 23.6474C96.5587 22.8083 95.9881 22.0446 95.0902 22.0446C94.1671 22.0446 93.5378 22.7495 93.4958 23.6474H96.6091Z" fill="#030308" fill-opacity="0.8"/>
            <path d="M103.045 23.1773C102.936 22.4389 102.399 22.0445 101.669 22.0445C100.981 22.0445 100.008 22.4053 100.008 24.2431C100.008 25.2501 100.452 26.3158 101.61 26.3158C102.383 26.3158 102.92 25.8039 103.045 24.9396H104.371C104.128 26.5088 103.155 27.3731 101.602 27.3731C99.7056 27.3731 98.665 26.0305 98.665 24.2515C98.665 22.4305 99.6552 21.0039 101.644 21.0039C103.045 21.0039 104.237 21.7088 104.371 23.1941H103.045V23.1773Z" fill="#030308" fill-opacity="0.8"/>
            <path d="M105.496 18.8477H106.83V23.5973L109.238 21.1553H110.875L108.559 23.3791L111.093 27.2057H109.465L107.619 24.2686L106.822 25.0407V27.2057H105.487V18.8477H105.496Z" fill="#030308" fill-opacity="0.8"/>
            <path d="M111.462 24.1677C111.462 22.3216 112.57 20.9873 114.516 20.9873C116.455 20.9873 117.571 22.3216 117.571 24.1677C117.571 26.0307 116.463 27.3565 114.516 27.3565C112.57 27.3649 111.462 26.0307 111.462 24.1677ZM116.237 24.1677C116.237 23.1272 115.708 22.0363 114.516 22.0363C113.325 22.0363 112.796 23.1272 112.796 24.1677C112.796 25.2167 113.325 26.3076 114.516 26.3076C115.708 26.3076 116.237 25.2251 116.237 24.1677Z" fill="#030308" fill-opacity="0.8"/>
            <path d="M38.9248 11.9581C32.2786 11.9917 26.908 17.4043 26.9416 24.0504C26.9751 30.6966 32.3877 36.0672 39.0339 36.0336C45.68 36.0001 51.0507 30.5875 51.0171 23.9413C50.9919 17.2952 45.5793 11.9329 38.9248 11.9581ZM37.3975 23.4126C36.2059 23.4126 35.2409 22.4476 35.2409 21.256C35.2409 20.0644 36.2059 19.0994 37.3975 19.0994C38.5891 19.0994 39.5542 20.0644 39.5542 21.256C39.5542 22.4476 38.5891 23.4126 37.3975 23.4126ZM39.1178 25.7371L39.1262 25.7203L39.1346 25.7036C39.7472 26.098 40.4521 26.2406 41.1486 26.2574C41.8535 26.2742 42.5667 26.2238 43.2716 26.0812C43.9765 25.9385 44.6646 25.7203 45.336 25.4434C45.7136 25.2924 46.0828 25.1245 46.4353 24.9231C46.4353 24.9231 46.4437 24.9231 46.4437 24.9147C46.6618 24.7805 46.88 24.6378 47.0898 24.4952C47.1318 24.4616 47.1821 24.428 47.2241 24.3945L47.2325 24.4029L47.2493 24.428C46.7122 24.9231 46.066 25.284 45.4031 25.6112C44.7402 25.9217 44.0521 26.1819 43.3388 26.3665C42.6255 26.5511 41.887 26.6854 41.1318 26.6182C40.3933 26.5595 39.6129 26.2994 39.1178 25.7371ZM44.6395 23.4126C44.6395 23.1525 44.8493 22.9427 45.101 22.9427C45.3611 22.9427 45.5709 23.1525 45.5709 23.4042C45.5709 23.6644 45.3611 23.8742 45.1094 23.8742C44.8576 23.8742 44.6479 23.6644 44.6395 23.4126ZM40.9555 34.9595C40.494 31.7035 43.3388 28.5063 44.9416 26.8784C45.3024 26.5091 45.8646 25.9973 46.3933 25.4518C48.4744 23.5049 48.894 21.1805 44.6311 20.014C43.8255 19.7791 42.9863 19.4518 42.1388 19.1161C42.1136 19.0406 42.08 18.9651 42.0465 18.898C41.9458 18.7301 41.7779 18.5371 41.5178 18.3189C40.9639 17.8406 39.9234 17.849 39.0255 18.0672C38.0353 17.8322 37.0535 17.7483 36.1136 17.9749C31.9933 19.1077 31.3304 21.1217 31.1709 23.5469C30.9528 26.1651 30.8269 28.1119 29.8367 30.3441C28.6031 28.5567 27.873 26.4001 27.8646 24.0588C27.8143 17.8994 32.7821 12.8896 38.9332 12.8644C45.0842 12.8392 50.094 17.7987 50.1192 23.9497C50.136 29.4462 46.1835 34.028 40.9555 34.9595Z" fill="#030308" fill-opacity="0.8"/>
            <path d="M38.9161 21.2732C38.9161 22.1123 38.2364 22.7837 37.4056 22.7837C36.5664 22.7837 35.8867 22.104 35.8867 21.2732C35.8867 20.4424 36.5664 19.7627 37.4056 19.7627C38.2364 19.7627 38.9161 20.4424 38.9161 21.2732Z" fill="#030308" fill-opacity="0.8"/>
        </g>
    </g>
    <defs>
        <clipPath id="clip0_18876_40541">
            <rect width="144" height="48" fill="white"/>
        </clipPath>
        <clipPath id="clip1_18876_40541">
            <rect width="90.6294" height="24" fill="white" transform="translate(27 12)"/>
        </clipPath>
    </defs>
</svg>
