<svg width="144" height="48" viewBox="0 0 144 48" fill="none" xmlns="http://www.w3.org/2000/svg">
    <g clip-path="url(#clip0_18876_40594)">
        <path d="M64.5304 21.4238C64.2835 20.4614 63.6609 19.7571 62.4437 19.7571C60.6475 19.7571 59.8963 21.3412 59.8963 22.9488C59.8963 24.5564 60.6475 26.1414 62.4437 26.1414C63.7479 26.1414 64.4626 25.1676 64.5791 23.9469H66.011C65.8937 25.9536 64.4739 27.3378 62.4463 27.3378C59.9345 27.3378 58.4321 25.3424 58.4321 22.948C58.4321 20.5535 59.9293 18.5547 62.4411 18.5547C64.3304 18.566 65.8206 19.6111 65.9971 21.4186L64.5304 21.4238Z" fill="#4C4C4C"/>
        <path d="M66.8779 24.095C66.8779 22.2405 67.9926 20.9033 69.941 20.9033C71.8894 20.9033 73.004 22.2405 73.004 24.095C73.004 25.9495 71.8894 27.2998 69.941 27.2998C67.9926 27.2998 66.8779 25.9617 66.8779 24.095ZM71.6659 24.095C71.6659 23.0517 71.1382 21.9597 69.941 21.9597C68.7437 21.9597 68.216 23.0508 68.216 24.095C68.216 25.1392 68.7437 26.2434 69.941 26.2434C71.1382 26.2434 71.6659 25.1514 71.6659 24.095Z" fill="#4C4C4C"/>
        <path d="M74.1543 18.7549H75.4924V20.0225H74.1543V18.7549ZM74.1543 21.0676H75.4924V27.1354H74.1543V21.0676Z" fill="#4C4C4C"/>
        <path d="M76.9478 21.0676H78.2154V21.9596L78.2389 21.9831C78.4311 21.6526 78.707 21.3787 79.0389 21.189C79.3707 20.9993 79.7468 20.9004 80.129 20.9024C81.4436 20.9024 82.2766 21.6066 82.2766 22.9673V27.1345H80.9385V23.3203C80.915 22.37 80.5394 21.9596 79.7534 21.9596C78.8614 21.9596 78.2858 22.663 78.2858 23.555V27.1354H76.9478V21.0676Z" fill="#4C4C4C"/>
        <path d="M91.1847 27.1352H90.2457L90.0232 26.1492C89.2407 27.0413 88.5208 27.3343 87.5018 27.3343C84.9917 27.336 83.4858 25.3363 83.4858 22.9445C83.4858 20.5527 84.9917 18.5547 87.5 18.5547C89.3259 18.5547 90.8683 19.5285 91.0908 21.4186H89.6589C89.518 20.3153 88.5564 19.7519 87.5 19.7519C85.7038 19.7519 84.9526 21.336 84.9526 22.9436C84.9526 24.5512 85.7038 26.1362 87.5 26.1362C89.0016 26.1597 89.8232 25.2563 89.8475 23.8357H87.6174V22.7219H91.1821L91.1847 27.1352Z" fill="#4C4C4C"/>
        <path d="M93.6384 24.4472C93.6384 25.3983 94.1548 26.2434 95.2694 26.2434C96.0441 26.2434 96.5136 25.9026 96.7475 25.234H98.016C97.723 26.5599 96.5962 27.2998 95.2694 27.2998C93.3688 27.2998 92.3003 25.973 92.3003 24.1072C92.3003 22.3814 93.4306 20.9033 95.2347 20.9033C97.1474 20.9033 98.3212 22.6283 98.0986 24.4472H93.6384ZM96.7605 23.5673C96.7136 22.7222 96.138 21.9597 95.2347 21.9597C94.307 21.9597 93.674 22.6631 93.6384 23.5673H96.7605Z" fill="#4C4C4C"/>
        <path d="M103.216 23.0978C103.11 22.3579 102.57 21.9597 101.831 21.9597C101.135 21.9597 100.164 22.3231 100.164 24.1655C100.164 25.1749 100.61 26.2434 101.772 26.2434C102.547 26.2434 103.086 25.727 103.216 24.8584H104.554C104.307 26.4312 103.337 27.2998 101.772 27.2998C99.8704 27.2998 98.8262 25.9495 98.8262 24.1655C98.8262 22.3344 99.8243 20.9033 101.819 20.9033C103.227 20.9033 104.427 21.6076 104.554 23.0978H103.216Z" fill="#4C4C4C"/>
        <path d="M105.685 18.7549H107.023V23.5203L109.441 21.0676H111.084L108.76 23.2968L111.306 27.1354H109.672L107.817 24.1889L107.019 24.9635V27.1371H105.685V18.7549Z" fill="#4C4C4C"/>
        <path d="M111.667 24.095C111.667 22.2405 112.782 20.9033 114.73 20.9033C116.678 20.9033 117.794 22.2405 117.794 24.095C117.794 25.9495 116.678 27.2998 114.73 27.2998C112.782 27.2998 111.667 25.9617 111.667 24.095ZM116.456 24.095C116.456 23.0517 115.927 21.9597 114.73 21.9597C113.533 21.9597 113.005 23.0508 113.005 24.095C113.005 25.1392 113.533 26.2434 114.73 26.2434C115.927 26.2434 116.456 25.1514 116.456 24.095Z" fill="#4C4C4C"/>
        <path d="M50.9964 23.9453C51.0069 26.3184 50.3134 28.6412 49.0037 30.6201C47.694 32.5991 45.8269 34.1451 43.6385 35.0629C41.4501 35.9807 39.0387 36.2289 36.7092 35.7761C34.3797 35.3234 32.2368 34.1901 30.5515 32.5194C28.8661 30.8488 27.7141 28.7159 27.2409 26.3905C26.7678 24.0651 26.9948 21.6516 27.8934 19.4552C28.7919 17.2589 30.3216 15.3783 32.2889 14.0513C34.2563 12.7243 36.5729 12.0105 38.946 12.0001C42.128 11.9862 45.1852 13.2369 47.445 15.4771C49.7049 17.7172 50.9824 20.7633 50.9964 23.9453Z" fill="#8DC63F"/>
        <path d="M50.0965 23.9497C50.1065 26.1444 49.4654 28.2927 48.2543 30.1231C47.0433 31.9535 45.3166 33.3836 43.2928 34.2326C41.2689 35.0817 39.0387 35.3115 36.8843 34.8931C34.7298 34.4746 32.7478 33.4267 31.1889 31.8818C29.63 30.3369 28.5642 28.3644 28.1264 26.2138C27.6885 24.0631 27.8983 21.831 28.729 19.7995C29.5598 17.7681 30.9743 16.0287 32.7937 14.8012C34.6131 13.5737 36.7556 12.9133 38.9503 12.9034C41.8931 12.8905 44.7206 14.0469 46.8108 16.1184C48.9011 18.1899 50.0829 21.0069 50.0965 23.9497Z" fill="#F9E988"/>
        <path d="M39.2025 13.6222C39.9079 13.497 40.6299 13.497 41.3353 13.6222C42.0475 13.735 42.736 13.9657 43.3724 14.3047C44.0053 14.6525 44.5522 15.1246 45.0965 15.5672C45.6407 16.0097 46.1824 16.4627 46.698 16.9583C47.2243 17.4461 47.6836 18.0016 48.0639 18.6102C48.4554 19.214 48.7763 19.8607 49.0202 20.5377C49.4836 21.8993 49.6445 23.366 49.4132 24.765H49.3445C49.1124 23.3782 48.7977 22.0567 48.3012 20.7994C48.0682 20.1664 47.794 19.5492 47.4805 18.9519C47.1533 18.3545 46.7928 17.776 46.4006 17.2191C46.0018 16.6561 45.513 16.1626 44.9539 15.7584C44.3905 15.3568 43.7427 15.0968 43.1159 14.8499C42.489 14.603 41.8674 14.3473 41.2135 14.1595C40.5597 13.9717 39.8955 13.8309 39.2017 13.6944L39.2025 13.6222Z" fill="white"/>
        <path d="M44.627 20.0327C43.8219 19.7997 42.9873 19.4693 42.1422 19.1355C42.0935 18.9233 41.9057 18.659 41.5257 18.3364C40.9736 17.8574 39.9364 17.8695 39.04 18.0817C38.0506 17.8487 37.0733 17.7661 36.1352 17.9947C28.4624 20.1084 32.8131 25.265 29.9961 30.4486C30.3969 31.2989 34.7171 36.2599 40.9684 34.9288C40.9684 34.9288 38.8305 29.7913 43.655 27.3256C47.5683 25.318 50.3957 21.6038 44.627 20.0327Z" fill="#8BC53F"/>
        <path d="M45.5748 23.4069C45.5753 23.4989 45.5486 23.589 45.4979 23.6657C45.4472 23.7425 45.3749 23.8025 45.2901 23.8382C45.2053 23.8739 45.1118 23.8836 45.0215 23.8662C44.9312 23.8488 44.848 23.8049 44.7826 23.7402C44.7172 23.6755 44.6724 23.5929 44.654 23.5028C44.6355 23.4127 44.6442 23.3191 44.6789 23.2339C44.7137 23.1487 44.7729 23.0757 44.8491 23.0242C44.9253 22.9726 45.0151 22.9449 45.1071 22.9443C45.2304 22.9439 45.3488 22.9923 45.4365 23.079C45.5242 23.1657 45.5739 23.2836 45.5748 23.4069Z" fill="white"/>
        <path d="M39.04 18.0783C39.5991 18.1183 41.6205 18.7738 42.1422 19.132C41.7075 17.8713 40.2442 17.7035 39.04 18.0783Z" fill="#009345"/>
        <path d="M39.5718 21.267C39.572 21.6914 39.4463 22.1064 39.2106 22.4593C38.9749 22.8123 38.6399 23.0875 38.2478 23.25C37.8557 23.4126 37.4243 23.4552 37.008 23.3725C36.5917 23.2898 36.2092 23.0855 35.9091 22.7854C35.6089 22.4854 35.4044 22.1031 35.3216 21.6868C35.2387 21.2705 35.2811 20.839 35.4435 20.4469C35.6059 20.0548 35.8809 19.7196 36.2338 19.4838C36.5867 19.2479 37.0016 19.1221 37.4261 19.1221C37.7078 19.122 37.9868 19.1774 38.2471 19.2851C38.5075 19.3928 38.744 19.5508 38.9433 19.75C39.1426 19.9492 39.3006 20.1857 39.4085 20.446C39.5163 20.7062 39.5718 20.9852 39.5718 21.267Z" fill="white"/>
        <path d="M38.9357 21.2857C38.9357 21.5842 38.8472 21.8761 38.6813 22.1243C38.5155 22.3725 38.2797 22.5659 38.0039 22.6802C37.7281 22.7944 37.4247 22.8243 37.1319 22.7661C36.8391 22.7078 36.5702 22.5641 36.3591 22.353C36.148 22.1419 36.0042 21.873 35.946 21.5802C35.8878 21.2874 35.9176 20.9839 36.0319 20.7081C36.1461 20.4323 36.3396 20.1966 36.5878 20.0307C36.836 19.8649 37.1278 19.7764 37.4263 19.7764C37.8266 19.7764 38.2106 19.9354 38.4936 20.2184C38.7767 20.5015 38.9357 20.8854 38.9357 21.2857Z" fill="#58595B"/>
        <path d="M47.3126 24.3535C45.5738 25.5785 43.5967 26.508 40.7918 26.508C39.479 26.508 39.2129 25.1169 38.3452 25.7968C37.8975 26.1498 36.3186 26.9392 35.0657 26.8792C33.8129 26.8192 31.7818 26.0846 31.2158 23.4102C30.9915 26.0846 30.8768 28.0547 29.8726 30.3126C31.8723 33.5148 36.6403 35.9849 40.9683 34.9207C40.5032 31.6733 43.341 28.4929 44.9399 26.8653C45.5485 26.2489 46.7049 25.2429 47.3126 24.3518V24.3535Z" fill="#8BC53F"/>
        <path d="M47.2447 24.4332C46.7048 24.9253 46.0623 25.2896 45.4085 25.6113C44.7467 25.9255 44.0568 26.1767 43.3479 26.3616C42.6384 26.5451 41.8985 26.6833 41.1491 26.6155C40.3996 26.5477 39.6337 26.2929 39.1372 25.7313L39.1607 25.7043C39.7693 26.099 40.4718 26.2382 41.1708 26.2582C41.8794 26.2797 42.5881 26.2214 43.2836 26.0843C43.9861 25.9372 44.6734 25.7247 45.3363 25.4496C45.9997 25.1757 46.6561 24.8584 47.2213 24.4062L47.2447 24.4332Z" fill="#58595B"/>
    </g>
    <defs>
        <clipPath id="clip0_18876_40594">
            <rect width="90.7938" height="24" fill="white" transform="translate(27 12)"/>
        </clipPath>
    </defs>
</svg>
