<svg width="144" height="48" viewBox="0 0 144 48" fill="none" xmlns="http://www.w3.org/2000/svg">
    <g clip-path="url(#clip0_21123_87189)">
        <path d="M50.2158 10.8638L48.084 14.7728H43.0554L45.2508 10.8008L50.2158 10.8638ZM50.5044 11.288L48.4098 15.0434L50.6124 18.7808L52.9146 14.6732L50.5044 11.288ZM43.4448 15.5582L43.905 16.4582L47.1552 16.3862L49.0422 19.2932L50.1162 19.1936L47.9766 15.4832L43.4448 15.5582ZM38.5518 22.7804L40.1118 25.3262H41.7276L46.3476 17.3366H41.838L38.5518 22.7804ZM47.0556 17.5352L42.2982 25.7504L44.4738 29.5598L49.3938 21.047L47.0556 17.5352ZM39.9756 26.1116L39.4158 27.1046H41.0226L42.5028 29.813L43.929 29.7044L41.766 26.0408L39.9756 26.1116ZM33.324 10.8008L31.1844 14.6192H40.6644L42.8316 10.8008H33.324ZM43.5972 11.0444L41.2572 15.0794L42.1572 16.4594H43.2498L42.3498 14.9696L44.0472 12.0626L43.5972 11.0444ZM33.0096 19.2506H39.924L41.5128 16.8224L40.6914 15.5222H31.1226L33.0096 19.2506ZM26.058 10.8008L24 14.5922H28.44L30.564 10.8008H26.058ZM30.969 11.3606L28.947 15.116L31.005 18.836L31.8354 17.936L30.0306 14.7008L31.5114 11.9294L31.3668 11.3426L30.969 11.3606ZM25.932 19.2608H30.624L28.524 15.5042H24.0102L25.932 19.2608ZM27.924 19.9544L27.5178 20.8544H31.9776L32.727 19.5818L32.3478 18.5528L31.3818 19.889L27.924 19.9544ZM33.2682 19.8914L32.4558 21.2996L37.3578 29.3612L39.5778 25.3412L36.2736 19.925L33.2682 19.8914ZM31.932 21.4514H27.4182L32.0382 29.8286H36.864L31.932 21.4514ZM39.0366 27.6806L37.5558 30.3074H34.1958L33.4464 31.7156H38.184L40.233 28.1048L40.0434 27.4448L39.0366 27.6806ZM38.6574 31.9238L40.869 35.8238L43.029 31.7978L40.8354 28.0334L38.6574 31.9238ZM35.5698 36.0764H40.4268L38.1702 32.1584H33.5754L35.5698 36.0764Z" fill="#F9F9F9" fill-opacity="0.8"/>
        <path d="M69.89 19.0977H58.2806L57.125 20.9031V27.9537H69.89V25.4889H59.3006V21.5985H69.89V19.0977Z" fill="#F9F9F9" fill-opacity="0.8"/>
        <path d="M71.6719 19.0977V25.4889L72.8635 27.9537H84.5359V19.0977H82.3339V25.4889H74.0641V19.0977H71.6719Z" fill="#F9F9F9" fill-opacity="0.8"/>
        <path d="M98.3468 19.0977L99.2468 21.5985V25.4895L98.3468 27.9543H86.3828V19.0977H98.3468ZM88.4168 21.0657V22.7637H97.3268V21.0747L88.4168 21.0657ZM88.4168 24.2163V25.9317H97.3268V24.2163H88.4168Z" fill="#F9F9F9" fill-opacity="0.8"/>
        <path d="M114.099 19.0977V21.5985H103.599V22.7721H114.099V24.8577H103.599V25.9407H114.099V27.9537H101.172V21.5985L102.381 19.0977H114.099Z" fill="#F9F9F9" fill-opacity="0.8"/>
        <path d="M114.855 16.7051H115.063V17.6711C115.117 17.6037 115.185 17.5483 115.261 17.5085C115.34 17.4713 115.427 17.4529 115.514 17.4545C115.607 17.4547 115.699 17.473 115.785 17.5085C115.862 17.5377 115.933 17.5829 115.992 17.6411C116.05 17.7009 116.096 17.7714 116.128 17.8487C116.193 18.0203 116.193 18.2099 116.128 18.3815C116.096 18.4587 116.05 18.5292 115.992 18.5891C115.936 18.6471 115.868 18.6932 115.794 18.7247C115.714 18.7601 115.628 18.7785 115.541 18.7787C115.436 18.7819 115.333 18.757 115.241 18.7067C115.162 18.6654 115.097 18.6031 115.051 18.5267V18.7523H114.844L114.855 16.7051ZM115.063 18.1223C115.052 18.185 115.052 18.2492 115.063 18.3119C115.082 18.3681 115.113 18.4196 115.153 18.4631C115.194 18.5066 115.243 18.5411 115.297 18.5645C115.416 18.6131 115.549 18.6131 115.668 18.5645C115.723 18.542 115.772 18.5078 115.813 18.4642C115.853 18.4205 115.884 18.3686 115.902 18.3119C115.943 18.1919 115.943 18.0616 115.902 17.9417C115.883 17.8855 115.852 17.834 115.812 17.7905C115.771 17.747 115.722 17.7124 115.668 17.6891C115.549 17.6404 115.416 17.6404 115.297 17.6891C115.243 17.7117 115.194 17.7454 115.153 17.7881C115.113 17.8299 115.083 17.879 115.063 17.9327C115.052 17.995 115.052 18.0588 115.063 18.1211V18.1223Z" fill="#F9F9F9" fill-opacity="0.8"/>
        <path d="M117.653 18.5199C117.587 18.6095 117.5 18.6809 117.4 18.7275C117.299 18.7668 117.192 18.7852 117.084 18.7815C116.991 18.783 116.898 18.7646 116.813 18.7275C116.738 18.6936 116.67 18.6443 116.615 18.5829C116.559 18.5227 116.516 18.4521 116.488 18.3753C116.473 18.2887 116.473 18.2002 116.488 18.1137C116.486 18.0214 116.501 17.9296 116.533 17.8431C116.564 17.7655 116.61 17.6949 116.669 17.6355C116.728 17.5764 116.798 17.5302 116.876 17.4999C116.96 17.468 117.048 17.4527 117.138 17.4549C117.218 17.4395 117.301 17.4395 117.381 17.4549C117.453 17.4826 117.518 17.5259 117.571 17.5815C117.627 17.6411 117.67 17.7118 117.698 17.7891C117.713 17.8816 117.713 17.9761 117.698 18.0687V18.1407H116.678C116.684 18.2488 116.729 18.351 116.804 18.4293C116.84 18.467 116.883 18.4975 116.931 18.5193C116.984 18.5307 117.04 18.5307 117.093 18.5193C117.174 18.5232 117.254 18.5078 117.328 18.4743C117.395 18.439 117.453 18.3897 117.5 18.3297L117.653 18.5199ZM117.473 18.0231C117.473 17.9744 117.464 17.9261 117.445 17.8811C117.426 17.8362 117.399 17.7955 117.364 17.7615C117.326 17.7269 117.282 17.7003 117.234 17.6832C117.186 17.6661 117.135 17.6588 117.084 17.6619C117.033 17.6582 116.982 17.6646 116.934 17.6807C116.885 17.6968 116.841 17.7223 116.802 17.7558C116.764 17.7892 116.732 17.8299 116.709 17.8756C116.686 17.9212 116.673 17.9709 116.669 18.0219L117.473 18.0231Z" fill="#F9F9F9" fill-opacity="0.8"/>
        <path d="M118.718 17.6611H118.375V18.4105C118.369 18.4402 118.369 18.4708 118.375 18.5005C118.386 18.5263 118.405 18.5482 118.429 18.5635C118.464 18.5731 118.502 18.5731 118.537 18.5635H118.717V18.7531H118.474C118.414 18.7649 118.353 18.7649 118.294 18.7531C118.251 18.7369 118.213 18.7088 118.185 18.6721C118.157 18.6319 118.138 18.5854 118.131 18.5365C118.127 18.4766 118.127 18.4164 118.131 18.3565V17.6611H117.852V17.4811H118.131V17.1211H118.375V17.4811H118.745L118.718 17.6611Z" fill="#F9F9F9" fill-opacity="0.8"/>
        <path d="M118.966 17.6547C119.031 17.5888 119.112 17.5393 119.2 17.5101C119.287 17.48 119.379 17.4648 119.471 17.4651C119.544 17.4584 119.618 17.467 119.688 17.4903C119.758 17.5136 119.822 17.5512 119.877 17.6007C119.97 17.7146 120.015 17.8602 120.004 18.0069V18.7653H119.796C119.792 18.7324 119.792 18.6992 119.796 18.6663V18.5763C119.755 18.6425 119.7 18.6982 119.633 18.7389C119.557 18.7828 119.469 18.8046 119.381 18.8019H119.201C119.145 18.7878 119.093 18.7634 119.047 18.7299C119.005 18.6979 118.971 18.6569 118.948 18.6099C118.934 18.5565 118.934 18.5007 118.948 18.4473C118.943 18.3588 118.972 18.2718 119.029 18.2037C119.082 18.1426 119.151 18.096 119.227 18.0681C119.311 18.0382 119.399 18.02 119.489 18.0141H119.823C119.826 17.9757 119.82 17.9371 119.806 17.9013C119.792 17.8654 119.77 17.833 119.742 17.8065C119.675 17.7544 119.592 17.7288 119.507 17.7345C119.442 17.7239 119.375 17.7239 119.309 17.7345C119.244 17.7581 119.186 17.7951 119.137 17.8431L118.966 17.6547ZM119.579 18.1515C119.468 18.1454 119.357 18.1639 119.254 18.2055C119.217 18.2202 119.185 18.2466 119.163 18.2807C119.142 18.3148 119.131 18.3548 119.134 18.3951C119.13 18.4284 119.136 18.4621 119.15 18.4925C119.165 18.5228 119.187 18.5485 119.215 18.5667C119.275 18.6031 119.344 18.6218 119.414 18.6207C119.467 18.6322 119.523 18.6322 119.576 18.6207C119.622 18.6028 119.663 18.5752 119.696 18.5397C119.728 18.5048 119.752 18.464 119.768 18.4197C119.775 18.3718 119.775 18.3231 119.768 18.2751V18.1947L119.579 18.1515Z" fill="#F9F9F9" fill-opacity="0.8"/>
    </g>
    <defs>
        <clipPath id="clip0_21123_87189">
            <rect width="144" height="48" fill="white"/>
        </clipPath>
    </defs>
</svg>
