<svg width="144" height="48" viewBox="0 0 144 48" fill="none" xmlns="http://www.w3.org/2000/svg">
    <path d="M50.2158 10.8628L48.084 14.7718H43.0554L45.2508 10.7998L50.2158 10.8628ZM50.5044 11.287L48.4098 15.0424L50.6124 18.7798L52.9146 14.6722L50.5044 11.287ZM43.4448 15.5572L43.905 16.4572L47.1552 16.3852L49.0422 19.2922L50.1162 19.1926L47.9766 15.4822L43.4448 15.5572ZM38.5518 22.7794L40.1118 25.3252H41.7276L46.3476 17.3356H41.838L38.5518 22.7794ZM47.0556 17.5342L42.2982 25.7494L44.4738 29.5588L49.3938 21.046L47.0556 17.5342ZM39.9756 26.1106L39.4158 27.1036H41.0226L42.5028 29.812L43.929 29.7034L41.766 26.0398L39.9756 26.1106ZM33.324 10.7998L31.1844 14.6182H40.6644L42.8316 10.7998H33.324ZM43.5972 11.0434L41.2572 15.0784L42.1572 16.4584H43.2498L42.3498 14.9686L44.0472 12.0616L43.5972 11.0434ZM33.0096 19.2496H39.924L41.5128 16.8214L40.6914 15.5212H31.1226L33.0096 19.2496ZM26.058 10.7998L24 14.5912H28.44L30.564 10.7998H26.058ZM30.969 11.3596L28.947 15.115L31.005 18.835L31.8354 17.935L30.0306 14.6998L31.5114 11.9284L31.3668 11.3416L30.969 11.3596ZM25.932 19.2598H30.624L28.524 15.5032H24.0102L25.932 19.2598ZM27.924 19.9534L27.5178 20.8534H31.9776L32.727 19.5808L32.3478 18.5518L31.3818 19.888L27.924 19.9534ZM33.2682 19.8904L32.4558 21.2986L37.3578 29.3602L39.5778 25.3402L36.2736 19.924L33.2682 19.8904ZM31.932 21.4504H27.4182L32.0382 29.8276H36.864L31.932 21.4504ZM39.0366 27.6796L37.5558 30.3064H34.1958L33.4464 31.7146H38.184L40.233 28.1038L40.0434 27.4438L39.0366 27.6796ZM38.6574 31.9228L40.869 35.8228L43.029 31.7968L40.8354 28.0324L38.6574 31.9228ZM35.5698 36.0754H40.4268L38.1702 32.1574H33.5754L35.5698 36.0754Z" fill="#030308" fill-opacity="0.8"/>
    <path d="M69.8861 19.0957H58.2767L57.1211 20.9011V27.9517H69.8861V25.4869H59.2967V21.5965H69.8861V19.0957Z" fill="#030308" fill-opacity="0.8"/>
    <path d="M71.6738 19.0957V25.4869L72.8654 27.9517H84.5378V19.0957H82.3358V25.4869H74.066V19.0957H71.6738Z" fill="#030308" fill-opacity="0.8"/>
    <path d="M98.3429 19.0957L99.2429 21.5965V25.4875L98.3429 27.9523H86.3789V19.0957H98.3429ZM88.4129 21.0637V22.7617H97.3229V21.0727L88.4129 21.0637ZM88.4129 24.2143V25.9297H97.3229V24.2143H88.4129Z" fill="#030308" fill-opacity="0.8"/>
    <path d="M114.103 19.0957V21.5965H103.603V22.7701H114.103V24.8557H103.603V25.9387H114.103V27.9517H101.176V21.5965L102.385 19.0957H114.103Z" fill="#030308" fill-opacity="0.8"/>
    <path d="M114.853 16.7041H115.061V17.6701C115.115 17.6027 115.183 17.5473 115.259 17.5075C115.338 17.4704 115.425 17.4519 115.512 17.4535C115.605 17.4537 115.697 17.4721 115.783 17.5075C115.86 17.5368 115.931 17.5819 115.99 17.6401C116.048 17.7 116.094 17.7704 116.126 17.8477C116.191 18.0193 116.191 18.2089 116.126 18.3805C116.094 18.4578 116.048 18.5282 115.99 18.5881C115.934 18.6461 115.866 18.6922 115.792 18.7237C115.712 18.7592 115.626 18.7776 115.539 18.7777C115.434 18.7809 115.331 18.756 115.239 18.7057C115.16 18.6644 115.095 18.6021 115.049 18.5257V18.7513H114.842L114.853 16.7041ZM115.061 18.1213C115.05 18.184 115.05 18.2482 115.061 18.3109C115.08 18.3671 115.111 18.4186 115.151 18.4621C115.192 18.5056 115.241 18.5402 115.295 18.5635C115.414 18.6121 115.547 18.6121 115.666 18.5635C115.721 18.5411 115.77 18.5068 115.811 18.4632C115.851 18.4196 115.882 18.3676 115.9 18.3109C115.941 18.191 115.941 18.0606 115.9 17.9407C115.881 17.8845 115.85 17.833 115.81 17.7895C115.769 17.746 115.72 17.7114 115.666 17.6881C115.547 17.6394 115.414 17.6394 115.295 17.6881C115.241 17.7107 115.192 17.7444 115.151 17.7871C115.112 17.8289 115.081 17.878 115.061 17.9317C115.05 17.994 115.05 18.0578 115.061 18.1201V18.1213Z" fill="#030308" fill-opacity="0.8"/>
    <path d="M117.653 18.5189C117.587 18.6085 117.5 18.68 117.4 18.7265C117.299 18.7658 117.192 18.7842 117.084 18.7805C116.991 18.7821 116.898 18.7636 116.813 18.7265C116.738 18.6926 116.67 18.6434 116.615 18.5819C116.559 18.5217 116.516 18.4511 116.488 18.3743C116.473 18.2878 116.473 18.1992 116.488 18.1127C116.486 18.0205 116.501 17.9286 116.533 17.8421C116.564 17.7645 116.61 17.6939 116.669 17.6345C116.728 17.5754 116.798 17.5293 116.876 17.4989C116.96 17.467 117.048 17.4517 117.138 17.4539C117.218 17.4385 117.301 17.4385 117.381 17.4539C117.453 17.4817 117.518 17.5249 117.571 17.5805C117.627 17.6401 117.67 17.7108 117.698 17.7881C117.713 17.8806 117.713 17.9751 117.698 18.0677V18.1397H116.678C116.684 18.2478 116.729 18.35 116.804 18.4283C116.84 18.466 116.883 18.4965 116.931 18.5183C116.984 18.5298 117.04 18.5298 117.093 18.5183C117.174 18.5223 117.254 18.5068 117.328 18.4733C117.395 18.4381 117.453 18.3887 117.5 18.3287L117.653 18.5189ZM117.473 18.0221C117.473 17.9734 117.464 17.9251 117.445 17.8802C117.426 17.8352 117.399 17.7945 117.364 17.7605C117.326 17.7259 117.282 17.6993 117.234 17.6822C117.186 17.6651 117.135 17.6578 117.084 17.6609C117.033 17.6572 116.982 17.6636 116.934 17.6797C116.885 17.6958 116.841 17.7213 116.802 17.7548C116.764 17.7882 116.732 17.8289 116.709 17.8746C116.686 17.9203 116.673 17.97 116.669 18.0209L117.473 18.0221Z" fill="#030308" fill-opacity="0.8"/>
    <path d="M118.716 17.6591H118.373V18.4085C118.367 18.4383 118.367 18.4688 118.373 18.4985C118.384 18.5244 118.403 18.5463 118.427 18.5615C118.462 18.5712 118.5 18.5712 118.535 18.5615H118.715V18.7511H118.472C118.412 18.763 118.351 18.763 118.292 18.7511C118.249 18.735 118.211 18.7069 118.183 18.6701C118.155 18.6299 118.136 18.5834 118.129 18.5345C118.125 18.4746 118.125 18.4145 118.129 18.3545V17.6591H117.85V17.4791H118.129V17.1191H118.373V17.4791H118.743L118.716 17.6591Z" fill="#030308" fill-opacity="0.8"/>
    <path d="M118.962 17.6537C119.027 17.5879 119.108 17.5383 119.196 17.5091C119.283 17.4791 119.375 17.4639 119.467 17.4641C119.54 17.4574 119.614 17.466 119.684 17.4893C119.754 17.5127 119.818 17.5503 119.873 17.5997C119.966 17.7137 120.012 17.8593 120 18.0059V18.7643H119.792C119.788 18.7314 119.788 18.6982 119.792 18.6653V18.5753C119.751 18.6415 119.696 18.6972 119.629 18.7379C119.553 18.7818 119.465 18.8036 119.377 18.8009H119.197C119.142 18.7868 119.089 18.7624 119.043 18.7289C119.001 18.6969 118.967 18.6559 118.944 18.6089C118.93 18.5556 118.93 18.4997 118.944 18.4463C118.939 18.3578 118.968 18.2709 119.025 18.2027C119.078 18.1417 119.147 18.0951 119.223 18.0671C119.308 18.0372 119.396 18.0191 119.485 18.0131H119.819C119.822 17.9747 119.816 17.9362 119.802 17.9003C119.788 17.8644 119.766 17.832 119.738 17.8055C119.671 17.7534 119.588 17.7278 119.503 17.7335C119.438 17.7229 119.371 17.7229 119.305 17.7335C119.241 17.7571 119.182 17.7941 119.133 17.8421L118.962 17.6537ZM119.575 18.1505C119.464 18.1445 119.353 18.1629 119.25 18.2045C119.213 18.2193 119.181 18.2456 119.159 18.2797C119.138 18.3138 119.127 18.3539 119.13 18.3941C119.126 18.4274 119.132 18.4612 119.146 18.4915C119.161 18.5218 119.183 18.5475 119.211 18.5657C119.271 18.6021 119.34 18.6209 119.41 18.6197C119.463 18.6312 119.519 18.6312 119.572 18.6197C119.618 18.6018 119.659 18.5742 119.692 18.5387C119.724 18.5038 119.749 18.4631 119.764 18.4187C119.771 18.3708 119.771 18.3221 119.764 18.2741V18.1937L119.575 18.1505Z" fill="#030308" fill-opacity="0.8"/>
</svg>
