<svg width="144" height="48" viewBox="0 0 144 48" fill="none" xmlns="http://www.w3.org/2000/svg">
    <g clip-path="url(#clip0_20371_109094)">
        <path fill-rule="evenodd" clip-rule="evenodd" d="M39.0384 15.5996H35.961V32.0125H39.0384V15.5996ZM42.4577 25.9138L53.3996 29.9608V26.5883L45.1932 23.7217L53.3996 20.8551V17.6512L42.4577 21.3609V25.9138ZM32.5415 21.6983L21.5996 17.6512V21.0238L29.8061 23.8904L21.5996 26.757V29.9609L32.5415 26.2512V21.6983Z" fill="#003232"/>
        <path d="M68.4278 23.2697C68.4278 24.8126 67.9847 25.9944 67.0984 26.815C66.2164 27.6356 64.9407 28.0458 63.2714 28.0458H60.5996V18.6731H63.5618C65.1021 18.6731 66.2981 19.077 67.15 19.8848C68.0019 20.6926 68.4278 21.8209 68.4278 23.2697ZM66.3497 23.321C66.3497 21.308 65.4549 20.3015 63.6651 20.3015H62.6002V26.4047H63.4585C65.386 26.4047 66.3497 25.3768 66.3497 23.321Z" fill="#003232"/>
        <path d="M74.2554 20.7439C74.5221 20.7439 74.7437 20.7631 74.9201 20.8016L74.7717 22.6351C74.6125 22.5923 74.4189 22.571 74.1908 22.571C73.5627 22.571 73.0722 22.7312 72.7194 23.0518C72.3709 23.3723 72.1967 23.8211 72.1967 24.3981V28.0458H70.2283V20.8785H71.7191L72.0095 22.0837H72.1063C72.3301 21.682 72.6312 21.3593 73.0098 21.1157C73.3927 20.8678 73.8079 20.7439 74.2554 20.7439Z" fill="#003232"/>
        <path d="M80.8122 28.0458L80.4314 27.0714H80.3798C80.0485 27.486 79.7065 27.7745 79.3537 27.9369C79.0052 28.095 78.5492 28.1741 77.9855 28.1741C77.2929 28.1741 76.7465 27.9775 76.3463 27.5843C75.9505 27.1911 75.7526 26.6312 75.7526 25.9046C75.7526 25.1439 76.0194 24.584 76.5529 24.225C77.0906 23.8617 77.8995 23.6608 78.9794 23.6223L80.2314 23.5839V23.2697C80.2314 22.5432 79.8571 22.1799 79.1085 22.1799C78.5319 22.1799 77.8543 22.353 77.0756 22.6992L76.4238 21.3785C77.2541 20.9469 78.1748 20.731 79.1859 20.731C80.1539 20.731 80.8961 20.9405 81.4124 21.3593C81.9287 21.7781 82.1868 22.415 82.1868 23.2697V28.0458H80.8122ZM80.2314 24.725L79.4699 24.7507C78.8976 24.7678 78.4717 24.8703 78.1921 25.0584C77.9124 25.2464 77.7726 25.5328 77.7726 25.9174C77.7726 26.4688 78.091 26.7444 78.7277 26.7444C79.1838 26.7444 79.5473 26.6141 79.8184 26.3534C80.0937 26.0927 80.2314 25.7465 80.2314 25.3148V24.725Z" fill="#003232"/>
        <path d="M90.499 20.8785V21.8722L89.3697 22.1607C89.5762 22.4812 89.6794 22.8402 89.6794 23.2377C89.6794 24.007 89.4084 24.6075 88.8663 25.0391C88.3285 25.4665 87.5799 25.6802 86.6204 25.6802L86.2655 25.661L85.9751 25.6289C85.7729 25.7828 85.6718 25.9538 85.6718 26.1418C85.6718 26.4239 86.0332 26.5649 86.756 26.5649H87.9821C88.7738 26.5649 89.3761 26.7338 89.7891 27.0714C90.2065 27.409 90.4151 27.9048 90.4151 28.5587C90.4151 29.3964 90.0623 30.046 89.3567 30.5076C88.6555 30.9692 87.6465 31.2 86.33 31.2C85.3233 31.2 84.5531 31.0248 84.0196 30.6743C83.4904 30.3281 83.2258 29.8409 83.2258 29.2126C83.2258 28.781 83.3614 28.4198 83.6324 28.1292C83.9035 27.8386 84.3014 27.6313 84.8263 27.5073C84.6241 27.4219 84.4477 27.283 84.2971 27.0906C84.1466 26.894 84.0713 26.6867 84.0713 26.4688C84.0713 26.1952 84.1509 25.9687 84.31 25.7892C84.4692 25.6054 84.6994 25.4259 85.0006 25.2507C84.622 25.0883 84.3208 24.8276 84.0971 24.4686C83.8777 24.1096 83.7679 23.6865 83.7679 23.1992C83.7679 22.4171 84.0239 21.8123 84.5359 21.3849C85.0479 20.9576 85.7793 20.7439 86.7301 20.7439C86.9324 20.7439 87.1711 20.7631 87.4465 20.8016C87.7261 20.8357 87.9047 20.8614 87.9821 20.8785H90.499ZM84.9296 29.0588C84.9296 29.328 85.0587 29.5396 85.3168 29.6934C85.5793 29.8473 85.945 29.9242 86.4139 29.9242C87.1195 29.9242 87.6724 29.8281 88.0725 29.6357C88.4726 29.4434 88.6727 29.1806 88.6727 28.8472C88.6727 28.578 88.5544 28.392 88.3177 28.2895C88.0811 28.1869 87.7154 28.1356 87.2206 28.1356H86.2009C85.8395 28.1356 85.5362 28.2189 85.291 28.3856C85.0501 28.5566 84.9296 28.781 84.9296 29.0588ZM85.6459 23.2249C85.6459 23.6138 85.7341 23.9215 85.9105 24.148C86.0912 24.3746 86.3644 24.4878 86.7301 24.4878C87.1001 24.4878 87.3712 24.3746 87.5433 24.148C87.7154 23.9215 87.8014 23.6138 87.8014 23.2249C87.8014 22.3615 87.4443 21.9299 86.7301 21.9299C86.0073 21.9299 85.6459 22.3615 85.6459 23.2249Z" fill="#003232"/>
        <path d="M93.2612 24.4493C93.2612 25.1588 93.3773 25.6952 93.6097 26.0585C93.8463 26.4218 94.2292 26.6034 94.7584 26.6034C95.2833 26.6034 95.6597 26.4239 95.8878 26.0649C96.1201 25.7016 96.2363 25.1631 96.2363 24.4493C96.2363 23.7399 96.1201 23.2078 95.8878 22.853C95.6554 22.4983 95.2747 22.3209 94.7455 22.3209C94.2206 22.3209 93.842 22.4983 93.6097 22.853C93.3773 23.2035 93.2612 23.7356 93.2612 24.4493ZM98.2498 24.4493C98.2498 25.6161 97.94 26.5286 97.3205 27.1868C96.7009 27.845 95.8383 28.1741 94.7326 28.1741C94.0399 28.1741 93.429 28.0245 92.8998 27.7253C92.3706 27.4219 91.964 26.9881 91.68 26.4239C91.3961 25.8597 91.2541 25.2016 91.2541 24.4493C91.2541 23.2783 91.5617 22.3679 92.177 21.7183C92.7922 21.0687 93.657 20.7439 94.7713 20.7439C95.464 20.7439 96.0749 20.8934 96.6041 21.1926C97.1333 21.4918 97.5399 21.9213 97.8238 22.4812C98.1078 23.0411 98.2498 23.6971 98.2498 24.4493Z" fill="#003232"/>
        <path d="M106.536 28.0458H104.568V23.8595C104.568 23.3424 104.475 22.9556 104.29 22.6992C104.105 22.4385 103.811 22.3081 103.406 22.3081C102.855 22.3081 102.458 22.4919 102.212 22.8594C101.967 23.2227 101.844 23.8275 101.844 24.6737V28.0458H99.8761V20.8785H101.38L101.644 21.7952H101.754C101.973 21.4491 102.275 21.1883 102.658 21.0131C103.045 20.8336 103.484 20.7439 103.974 20.7439C104.813 20.7439 105.45 20.9704 105.884 21.4234C106.319 21.8722 106.536 22.5218 106.536 23.3723V28.0458Z" fill="#003232"/>
        <path d="M112.551 22.3466H110.847V28.0458H108.879V22.3466H107.795V21.4042L108.879 20.8785V20.3528C108.879 19.5365 109.081 18.9403 109.485 18.5642C109.89 18.1881 110.537 18 111.428 18C112.108 18 112.712 18.1004 113.241 18.3013L112.738 19.7373C112.342 19.6134 111.977 19.5514 111.641 19.5514C111.361 19.5514 111.159 19.6348 111.034 19.8015C110.91 19.9639 110.847 20.1733 110.847 20.4297V20.8785H112.551V22.3466ZM115.649 28.0458H113.68V18.0705H115.649V28.0458Z" fill="#003232"/>
        <path d="M116.681 20.8785H118.837L120.198 24.9109C120.315 25.2614 120.394 25.676 120.437 26.1546H120.476C120.523 25.7144 120.616 25.2999 120.753 24.9109L122.089 20.8785H124.2L121.147 28.9626C120.867 29.7105 120.467 30.2704 119.947 30.6423C119.43 31.0141 118.826 31.2 118.133 31.2C117.793 31.2 117.46 31.1637 117.133 31.091V29.5396C117.37 29.5951 117.628 29.6229 117.907 29.6229C118.256 29.6229 118.559 29.5161 118.817 29.3024C119.08 29.093 119.284 28.7746 119.43 28.3472L119.547 27.9946L116.681 20.8785Z" fill="#003232"/>
    </g>
    <defs>
        <clipPath id="clip0_20371_109094">
            <rect width="144" height="48" fill="white"/>
        </clipPath>
    </defs>
</svg>
