<svg width="144" height="48" viewBox="0 0 144 48" fill="none" xmlns="http://www.w3.org/2000/svg">
    <g clip-path="url(#clip0_21123_87222)">
        <path fill-rule="evenodd" clip-rule="evenodd" d="M39.0403 15.5996H35.9629V32.0125H39.0403V15.5996ZM42.4596 25.9138L53.4016 29.9608V26.5883L45.1951 23.7217L53.4016 20.8551V17.6512L42.4596 21.3609V25.9138ZM32.5435 21.6983L21.6016 17.6512V21.0238L29.808 23.8904L21.6016 26.757V29.9609L32.5435 26.2512V21.6983Z" fill="#F9F9F9" fill-opacity="0.8"/>
        <path d="M68.4298 23.2697C68.4298 24.8126 67.9866 25.9944 67.1003 26.815C66.2183 27.6356 64.9427 28.0458 63.2733 28.0458H60.6016V18.6731H63.5638C65.104 18.6731 66.3001 19.077 67.1519 19.8848C68.0038 20.6926 68.4298 21.8209 68.4298 23.2697ZM66.3517 23.321C66.3517 21.308 65.4568 20.3015 63.667 20.3015H62.6022V26.4047H63.4605C65.388 26.4047 66.3517 25.3768 66.3517 23.321Z" fill="#F9F9F9" fill-opacity="0.8"/>
        <path d="M74.2573 20.7439C74.5241 20.7439 74.7457 20.7631 74.922 20.8016L74.7736 22.6351C74.6144 22.5923 74.4208 22.571 74.1928 22.571C73.5646 22.571 73.0742 22.7312 72.7214 23.0518C72.3729 23.3723 72.1986 23.8211 72.1986 24.3981V28.0458H70.2303V20.8785H71.7211L72.0115 22.0837H72.1083C72.332 21.682 72.6332 21.3593 73.0118 21.1157C73.3947 20.8678 73.8099 20.7439 74.2573 20.7439Z" fill="#F9F9F9" fill-opacity="0.8"/>
        <path d="M80.8142 28.0458L80.4334 27.0714H80.3818C80.0505 27.486 79.7085 27.7745 79.3557 27.9369C79.0072 28.095 78.5511 28.1741 77.9875 28.1741C77.2948 28.1741 76.7484 27.9775 76.3483 27.5843C75.9525 27.1911 75.7546 26.6312 75.7546 25.9046C75.7546 25.1439 76.0213 24.584 76.5548 24.225C77.0926 23.8617 77.9014 23.6608 78.9813 23.6223L80.2333 23.5839V23.2697C80.2333 22.5432 79.859 22.1799 79.1104 22.1799C78.5339 22.1799 77.8563 22.353 77.0775 22.6992L76.4257 21.3785C77.2561 20.9469 78.1768 20.731 79.1879 20.731C80.1559 20.731 80.8981 20.9405 81.4143 21.3593C81.9306 21.7781 82.1888 22.415 82.1888 23.2697V28.0458H80.8142ZM80.2333 24.725L79.4718 24.7507C78.8996 24.7678 78.4737 24.8703 78.194 25.0584C77.9144 25.2464 77.7745 25.5328 77.7745 25.9174C77.7745 26.4688 78.0929 26.7444 78.7297 26.7444C79.1857 26.7444 79.5493 26.6141 79.8203 26.3534C80.0957 26.0927 80.2333 25.7465 80.2333 25.3148V24.725Z" fill="#F9F9F9" fill-opacity="0.8"/>
        <path d="M90.501 20.8785V21.8722L89.3716 22.1607C89.5781 22.4812 89.6814 22.8402 89.6814 23.2377C89.6814 24.007 89.4103 24.6075 88.8682 25.0391C88.3304 25.4665 87.5818 25.6802 86.6224 25.6802L86.2674 25.661L85.977 25.6289C85.7748 25.7828 85.6737 25.9538 85.6737 26.1418C85.6737 26.4239 86.0351 26.5649 86.7579 26.5649H87.9841C88.7757 26.5649 89.3781 26.7338 89.7911 27.0714C90.2084 27.409 90.4171 27.9048 90.4171 28.5587C90.4171 29.3964 90.0643 30.046 89.3587 30.5076C88.6574 30.9692 87.6485 31.2 86.332 31.2C85.3252 31.2 84.5551 31.0248 84.0216 30.6743C83.4924 30.3281 83.2278 29.8409 83.2278 29.2126C83.2278 28.781 83.3633 28.4198 83.6344 28.1292C83.9054 27.8386 84.3034 27.6313 84.8283 27.5073C84.6261 27.4219 84.4497 27.283 84.2991 27.0906C84.1485 26.894 84.0732 26.6867 84.0732 26.4688C84.0732 26.1952 84.1528 25.9687 84.312 25.7892C84.4712 25.6054 84.7014 25.4259 85.0025 25.2507C84.6239 25.0883 84.3228 24.8276 84.099 24.4686C83.8796 24.1096 83.7699 23.6865 83.7699 23.1992C83.7699 22.4171 84.0259 21.8123 84.5379 21.3849C85.0499 20.9576 85.7813 20.7439 86.7321 20.7439C86.9343 20.7439 87.1731 20.7631 87.4484 20.8016C87.7281 20.8357 87.9066 20.8614 87.9841 20.8785H90.501ZM84.9315 29.0588C84.9315 29.328 85.0606 29.5396 85.3188 29.6934C85.5812 29.8473 85.9469 29.9242 86.4159 29.9242C87.1215 29.9242 87.6743 29.8281 88.0744 29.6357C88.4746 29.4434 88.6746 29.1806 88.6746 28.8472C88.6746 28.578 88.5563 28.392 88.3197 28.2895C88.083 28.1869 87.7173 28.1356 87.2226 28.1356H86.2029C85.8415 28.1356 85.5382 28.2189 85.2929 28.3856C85.052 28.5566 84.9315 28.781 84.9315 29.0588ZM85.6479 23.2249C85.6479 23.6138 85.7361 23.9215 85.9125 24.148C86.0932 24.3746 86.3664 24.4878 86.7321 24.4878C87.1021 24.4878 87.3731 24.3746 87.5452 24.148C87.7173 23.9215 87.8034 23.6138 87.8034 23.2249C87.8034 22.3615 87.4463 21.9299 86.7321 21.9299C86.0093 21.9299 85.6479 22.3615 85.6479 23.2249Z" fill="#F9F9F9" fill-opacity="0.8"/>
        <path d="M93.2631 24.4493C93.2631 25.1588 93.3793 25.6952 93.6116 26.0585C93.8482 26.4218 94.2311 26.6034 94.7603 26.6034C95.2852 26.6034 95.6617 26.4239 95.8897 26.0649C96.122 25.7016 96.2382 25.1631 96.2382 24.4493C96.2382 23.7399 96.122 23.2078 95.8897 22.853C95.6574 22.4983 95.2766 22.3209 94.7474 22.3209C94.2225 22.3209 93.8439 22.4983 93.6116 22.853C93.3793 23.2035 93.2631 23.7356 93.2631 24.4493ZM98.2517 24.4493C98.2517 25.6161 97.942 26.5286 97.3224 27.1868C96.7029 27.845 95.8402 28.1741 94.7345 28.1741C94.0418 28.1741 93.4309 28.0245 92.9017 27.7253C92.3725 27.4219 91.9659 26.9881 91.682 26.4239C91.398 25.8597 91.2561 25.2016 91.2561 24.4493C91.2561 23.2783 91.5637 22.3679 92.1789 21.7183C92.7942 21.0687 93.6589 20.7439 94.7733 20.7439C95.4659 20.7439 96.0769 20.8934 96.6061 21.1926C97.1353 21.4918 97.5418 21.9213 97.8258 22.4812C98.1097 23.0411 98.2517 23.6971 98.2517 24.4493Z" fill="#F9F9F9" fill-opacity="0.8"/>
        <path d="M106.538 28.0458H104.57V23.8595C104.57 23.3424 104.477 22.9556 104.292 22.6992C104.107 22.4385 103.813 22.3081 103.408 22.3081C102.857 22.3081 102.459 22.4919 102.214 22.8594C101.969 23.2227 101.846 23.8275 101.846 24.6737V28.0458H99.878V20.8785H101.382L101.646 21.7952H101.756C101.975 21.4491 102.277 21.1883 102.66 21.0131C103.047 20.8336 103.486 20.7439 103.976 20.7439C104.815 20.7439 105.452 20.9704 105.886 21.4234C106.321 21.8722 106.538 22.5218 106.538 23.3723V28.0458Z" fill="#F9F9F9" fill-opacity="0.8"/>
        <path d="M112.553 22.3466H110.849V28.0458H108.881V22.3466H107.797V21.4042L108.881 20.8785V20.3528C108.881 19.5365 109.083 18.9403 109.487 18.5642C109.892 18.1881 110.539 18 111.43 18C112.11 18 112.714 18.1004 113.243 18.3013L112.74 19.7373C112.344 19.6134 111.978 19.5514 111.643 19.5514C111.363 19.5514 111.161 19.6348 111.036 19.8015C110.911 19.9639 110.849 20.1733 110.849 20.4297V20.8785H112.553V22.3466ZM115.651 28.0458H113.682V18.0705H115.651V28.0458Z" fill="#F9F9F9" fill-opacity="0.8"/>
        <path d="M116.683 20.8785H118.839L120.2 24.9109C120.317 25.2614 120.396 25.676 120.439 26.1546H120.478C120.525 25.7144 120.618 25.2999 120.755 24.9109L122.091 20.8785H124.202L121.149 28.9626C120.869 29.7105 120.469 30.2704 119.949 30.6423C119.432 31.0141 118.828 31.2 118.135 31.2C117.795 31.2 117.462 31.1637 117.135 31.091V29.5396C117.372 29.5951 117.63 29.6229 117.909 29.6229C118.258 29.6229 118.561 29.5161 118.819 29.3024C119.082 29.093 119.286 28.7746 119.432 28.3472L119.549 27.9946L116.683 20.8785Z" fill="#F9F9F9" fill-opacity="0.8"/>
    </g>
    <defs>
        <clipPath id="clip0_21123_87222">
            <rect width="144" height="48" fill="white"/>
        </clipPath>
    </defs>
</svg>
