<svg width="144" height="48" viewBox="0 0 144 48" fill="none" xmlns="http://www.w3.org/2000/svg">
    <g clip-path="url(#clip0_18932_19950)">
        <path d="M40.3623 12H24.3623C22.1532 12 20.3623 13.7909 20.3623 16V32C20.3623 34.2091 22.1532 36 24.3623 36H40.3623C42.5714 36 44.3623 34.2091 44.3623 32V16C44.3623 13.7909 42.5714 12 40.3623 12Z" fill="#030308" fill-opacity="0.8"/>
        <path d="M39.9107 21.1387H35.7822V26.8609H39.9107V21.1387Z" stroke="white" stroke-width="1.9612"/>
        <path d="M28.9419 21.1387H24.8135V26.8609H28.9419V21.1387Z" stroke="white" stroke-width="1.9612"/>
        <path d="M33.2061 20.25H31.5186V27.75H33.2061V20.25Z" fill="white"/>
    </g>
    <g clip-path="url(#clip1_18932_19950)">
        <path fill-rule="evenodd" clip-rule="evenodd" d="M73.2042 31.1857V16.5332H75.7937V31.1857H73.2042ZM53.7548 19.7856H59.3738V17.1353H50.9844V31.1857H53.7548V25.7664H59.2146V23.1176H53.7548V19.7856ZM66.0582 31.4665C67.5432 31.4665 68.801 30.9541 69.8316 29.9308C70.8622 28.9075 71.3775 27.6525 71.3775 26.1674C71.3775 24.6824 70.8622 23.4274 69.8316 22.4041C68.801 21.3807 67.5432 20.8683 66.0582 20.8683C64.573 20.8683 63.3181 21.3807 62.2947 22.4041C61.2714 23.4274 60.759 24.6824 60.759 26.1674C60.759 27.6525 61.2714 28.9075 62.2947 29.9308C63.3181 30.9541 64.573 31.4665 66.0582 31.4665ZM66.0582 28.9379C65.2823 28.9379 64.6367 28.6773 64.1214 28.1548C63.6062 27.6323 63.3485 26.9708 63.3485 26.1674C63.3485 25.3641 63.6062 24.7026 64.1214 24.18C64.6367 23.6575 65.2823 23.397 66.0582 23.397C66.8339 23.397 67.4824 23.6575 68.005 24.18C68.5274 24.7026 68.788 25.3641 68.788 26.1674C68.788 26.9708 68.526 27.6323 68.005 28.1548C67.4838 28.6773 66.8339 28.9379 66.0582 28.9379ZM78.1617 16.5332V31.1857H80.7512V16.5332H78.1617ZM91.6708 29.9308C90.6402 30.9541 89.3823 31.4665 87.8973 31.4665C86.4122 31.4665 85.1572 30.9541 84.1339 29.9308C83.1106 28.9075 82.5982 27.6525 82.5982 26.1674C82.5982 24.6824 83.1106 23.4274 84.1339 22.4041C85.1572 21.3807 86.4122 20.8683 87.8973 20.8683C89.3823 20.8683 90.6402 21.3807 91.6708 22.4041C92.7014 23.4274 93.2166 24.6824 93.2166 26.1674C93.2166 27.6525 92.7014 28.9075 91.6708 29.9308ZM85.9606 28.1548C86.4758 28.6773 87.1214 28.9379 87.8973 28.9379C88.6731 28.9379 89.323 28.6773 89.8441 28.1548C90.3652 27.6323 90.6271 26.9708 90.6271 26.1674C90.6271 25.3641 90.3666 24.7026 89.8441 24.18C89.3215 23.6575 88.6731 23.397 87.8973 23.397C87.1214 23.397 86.4758 23.6575 85.9606 24.18C85.4453 24.7026 85.1876 25.3641 85.1876 26.1674C85.1876 26.9708 85.4453 27.6323 85.9606 28.1548ZM108.426 21.1506H105.943L104.24 27.334L102.412 21.1506H99.9618L98.1336 27.3124L96.4155 21.1506H93.677L96.6268 31.1872H99.1642L101.063 25.105L102.962 31.1872H105.5L108.426 21.1506ZM111.381 19.9448C110.952 19.9448 110.58 19.7871 110.266 19.473C109.952 19.1589 109.794 18.7869 109.794 18.3584C109.794 17.93 109.952 17.5551 110.266 17.2338C110.58 16.9124 110.952 16.7518 111.381 16.7518C111.809 16.7518 112.2 16.9124 112.514 17.2338C112.828 17.5551 112.986 17.93 112.986 18.3584C112.986 18.7869 112.828 19.1589 112.514 19.473C112.2 19.7871 111.822 19.9448 111.381 19.9448ZM110.095 31.1857V21.1506H112.685V31.1872H110.095V31.1857ZM123.354 21.9727C122.638 21.236 121.731 20.8683 120.634 20.8683L120.636 20.8698C119.271 20.8698 118.273 21.3387 117.645 22.2752V21.1506H115.056V31.1872H117.645V25.768C117.645 24.9385 117.846 24.3161 118.247 23.9007C118.648 23.4853 119.184 23.2783 119.853 23.2783C120.455 23.2783 120.935 23.4549 121.297 23.8095C121.658 24.1641 121.839 24.6765 121.839 25.3452V31.1857H124.428V25.024C124.428 23.7256 124.069 22.708 123.354 21.9727Z" fill="#030308" fill-opacity="0.8"/>
    </g>
    <defs>
        <clipPath id="clip0_18932_19950">
            <rect width="24" height="24" fill="white" transform="translate(20.3623 12)"/>
        </clipPath>
        <clipPath id="clip1_18932_19950">
            <rect width="74.4" height="16" fill="white" transform="translate(50.3623 16)"/>
        </clipPath>
    </defs>
</svg>
