<svg width="144" height="48" viewBox="0 0 144 48" fill="none" xmlns="http://www.w3.org/2000/svg">
    <g clip-path="url(#clip0_21123_87247)">
        <g clip-path="url(#clip1_21123_87247)">
            <path d="M39.3594 12H23.3594C21.1502 12 19.3594 13.7909 19.3594 16V32C19.3594 34.2091 21.1502 36 23.3594 36H39.3594C41.5685 36 43.3594 34.2091 43.3594 32V16C43.3594 13.7909 41.5685 12 39.3594 12Z" fill="#030308"/>
            <path d="M38.9097 21.1387H34.7812V26.8609H38.9097V21.1387Z" stroke="#F9F9F9" stroke-opacity="0.8" stroke-width="1.9612"/>
            <path d="M27.941 21.1387H23.8125V26.8609H27.941V21.1387Z" stroke="#F9F9F9" stroke-opacity="0.8" stroke-width="1.9612"/>
            <path d="M32.2031 20.25H30.5156V27.75H32.2031V20.25Z" fill="#F9F9F9" fill-opacity="0.8"/>
        </g>
        <g clip-path="url(#clip2_21123_87247)">
            <path fill-rule="evenodd" clip-rule="evenodd" d="M72.2042 31.1857V16.5332H74.7937V31.1857H72.2042ZM52.7548 19.7856H58.3738V17.1353H49.9844V31.1857H52.7548V25.7664H58.2146V23.1176H52.7548V19.7856ZM65.0582 31.4665C66.5432 31.4665 67.801 30.9541 68.8316 29.9308C69.8622 28.9075 70.3775 27.6525 70.3775 26.1674C70.3775 24.6824 69.8622 23.4274 68.8316 22.4041C67.801 21.3807 66.5432 20.8683 65.0582 20.8683C63.573 20.8683 62.3181 21.3807 61.2947 22.4041C60.2714 23.4274 59.759 24.6824 59.759 26.1674C59.759 27.6525 60.2714 28.9075 61.2947 29.9308C62.3181 30.9541 63.573 31.4665 65.0582 31.4665ZM65.0582 28.9379C64.2823 28.9379 63.6367 28.6773 63.1214 28.1548C62.6062 27.6323 62.3485 26.9708 62.3485 26.1674C62.3485 25.3641 62.6062 24.7026 63.1214 24.18C63.6367 23.6575 64.2823 23.397 65.0582 23.397C65.8339 23.397 66.4824 23.6575 67.005 24.18C67.5274 24.7026 67.788 25.3641 67.788 26.1674C67.788 26.9708 67.526 27.6323 67.005 28.1548C66.4838 28.6773 65.8339 28.9379 65.0582 28.9379ZM77.1617 16.5332V31.1857H79.7512V16.5332H77.1617ZM90.6708 29.9308C89.6402 30.9541 88.3823 31.4665 86.8973 31.4665C85.4122 31.4665 84.1572 30.9541 83.1339 29.9308C82.1106 28.9075 81.5982 27.6525 81.5982 26.1674C81.5982 24.6824 82.1106 23.4274 83.1339 22.4041C84.1572 21.3807 85.4122 20.8683 86.8973 20.8683C88.3823 20.8683 89.6402 21.3807 90.6708 22.4041C91.7014 23.4274 92.2166 24.6824 92.2166 26.1674C92.2166 27.6525 91.7014 28.9075 90.6708 29.9308ZM84.9606 28.1548C85.4758 28.6773 86.1214 28.9379 86.8973 28.9379C87.6731 28.9379 88.323 28.6773 88.8441 28.1548C89.3652 27.6323 89.6271 26.9708 89.6271 26.1674C89.6271 25.3641 89.3666 24.7026 88.8441 24.18C88.3215 23.6575 87.6731 23.397 86.8973 23.397C86.1214 23.397 85.4758 23.6575 84.9606 24.18C84.4453 24.7026 84.1876 25.3641 84.1876 26.1674C84.1876 26.9708 84.4453 27.6323 84.9606 28.1548ZM107.426 21.1506H104.943L103.24 27.334L101.412 21.1506H98.9618L97.1336 27.3124L95.4155 21.1506H92.677L95.6268 31.1872H98.1642L100.063 25.105L101.962 31.1872H104.5L107.426 21.1506ZM110.381 19.9448C109.952 19.9448 109.58 19.7871 109.266 19.473C108.952 19.1589 108.794 18.7869 108.794 18.3584C108.794 17.93 108.952 17.5551 109.266 17.2338C109.58 16.9124 109.952 16.7518 110.381 16.7518C110.809 16.7518 111.2 16.9124 111.514 17.2338C111.828 17.5551 111.986 17.93 111.986 18.3584C111.986 18.7869 111.828 19.1589 111.514 19.473C111.2 19.7871 110.822 19.9448 110.381 19.9448ZM109.095 31.1857V21.1506H111.685V31.1872H109.095V31.1857ZM122.354 21.9727C121.638 21.236 120.731 20.8683 119.634 20.8683L119.636 20.8698C118.271 20.8698 117.273 21.3387 116.645 22.2752V21.1506H114.056V31.1872H116.645V25.768C116.645 24.9385 116.846 24.3161 117.247 23.9007C117.648 23.4853 118.184 23.2783 118.853 23.2783C119.455 23.2783 119.935 23.4549 120.297 23.8095C120.658 24.1641 120.839 24.6765 120.839 25.3452V31.1857H123.428V25.024C123.428 23.7256 123.069 22.708 122.354 21.9727Z" fill="#F9F9F9" fill-opacity="0.8"/>
        </g>
    </g>
    <defs>
        <clipPath id="clip0_21123_87247">
            <rect width="144" height="48" fill="white"/>
        </clipPath>
        <clipPath id="clip1_21123_87247">
            <rect width="24" height="24" fill="white" transform="translate(19.3594 12)"/>
        </clipPath>
        <clipPath id="clip2_21123_87247">
            <rect width="74.4" height="16" fill="white" transform="translate(49.3594 16)"/>
        </clipPath>
    </defs>
</svg>
