<svg width="144" height="48" viewBox="0 0 144 48" fill="none" xmlns="http://www.w3.org/2000/svg">
    <g clip-path="url(#clip0_21123_87196)">
        <path d="M47.9699 33.4489C46.7803 33.5243 45.5952 33.2452 44.5642 32.647C43.5333 32.0487 42.7029 31.1582 42.1781 30.0881C41.6533 29.0179 41.4576 27.8161 41.6158 26.6347C41.774 25.4533 42.279 24.3454 43.0669 23.451C43.8548 22.5566 44.8902 21.916 46.0422 21.6101C47.1942 21.3042 48.4111 21.3467 49.5389 21.7324C50.6667 22.1181 51.6548 22.8295 52.3783 23.7768C53.1017 24.7241 53.528 25.8646 53.6033 27.0541V27.8155C53.5036 29.2768 52.878 30.6524 51.8424 31.6881C50.8068 32.7237 49.4311 33.3492 47.9699 33.4489ZM47.9699 24.0847C47.3073 24.0094 46.6373 24.1322 46.0445 24.4376C45.4518 24.7431 44.9629 25.2174 44.6398 25.8007C44.3166 26.384 44.1737 27.05 44.2291 27.7146C44.2844 28.3791 44.5356 29.0123 44.9509 29.534C45.3662 30.0558 45.9268 30.4427 46.562 30.6458C47.1971 30.8489 47.8782 30.8591 48.5191 30.675C49.1601 30.491 49.7321 30.1211 50.1627 29.612C50.5934 29.1029 50.8634 28.4775 50.9387 27.8149V27.0535C50.8358 26.3025 50.4899 25.6057 49.9538 25.0696C49.4178 24.5335 48.721 24.1876 47.9699 24.0847Z" fill="#F9F9F9" fill-opacity="0.8"/>
        <path d="M57.4095 33.5237C57.2293 33.5245 57.0507 33.4896 56.8841 33.421C56.7175 33.3524 56.5661 33.2515 56.4387 33.1241C56.3113 32.9967 56.2104 32.8453 56.1418 32.6787C56.0732 32.512 56.0383 32.3335 56.0391 32.1533V27.3569C56.0353 26.0826 56.4399 24.8407 57.1935 23.8132C57.947 22.7857 59.01 22.0266 60.2265 21.6473C60.5696 21.5547 60.9352 21.598 61.2471 21.7682C61.5591 21.9385 61.7933 22.2225 61.9011 22.5611C61.9011 22.7135 61.9773 22.7897 61.9773 22.9415V23.0147C61.9836 23.3106 61.8891 23.6 61.7093 23.8351C61.5295 24.0703 61.2751 24.2374 60.9879 24.3089C60.3515 24.528 59.7981 24.9378 59.403 25.4827C59.0079 26.0276 58.7903 26.6809 58.7799 27.3539V32.1503C58.787 32.3322 58.7564 32.5135 58.69 32.683C58.6237 32.8525 58.523 33.0064 58.3943 33.1351C58.2656 33.2638 58.1117 33.3645 57.9422 33.4308C57.7727 33.4972 57.5914 33.5278 57.4095 33.5207V33.5237Z" fill="#F9F9F9" fill-opacity="0.8"/>
        <path d="M92.9588 21.344C91.8692 21.4323 90.8206 21.7992 89.9138 22.4096V15.2534C89.944 14.8997 89.8325 14.5484 89.6038 14.2769C89.4905 14.1425 89.3518 14.0317 89.1958 13.9508C89.0397 13.8699 88.8692 13.8206 88.694 13.8056C88.3403 13.7754 87.989 13.8869 87.7175 14.1157C87.446 14.3445 87.2764 14.6717 87.2462 15.0254V26.8256V27.1304C87.1711 28.3348 87.4548 29.5344 88.0614 30.5775C88.6679 31.6207 89.5702 32.4605 90.654 32.991C91.7379 33.5214 92.9547 33.7186 94.1506 33.5576C95.3465 33.3966 96.4678 32.8846 97.3727 32.0864C98.2777 31.2882 98.9257 30.2396 99.2348 29.0732C99.5439 27.9068 99.5002 26.6749 99.1093 25.5333C98.7183 24.3917 97.9977 23.3916 97.0385 22.6595C96.0793 21.9274 94.9245 21.4962 93.7202 21.4202C93.471 21.3608 93.2149 21.3352 92.9588 21.344ZM92.9588 30.86C92.5087 30.8101 92.0729 30.6719 91.6763 30.4535C91.2796 30.2351 90.9298 29.9406 90.6469 29.587C90.364 29.2335 90.1535 28.8276 90.0275 28.3927C89.9015 27.9577 89.8623 27.5022 89.9123 27.0521C89.9623 26.6021 90.1005 26.1663 90.3189 25.7696C90.5373 25.3729 90.8317 25.0232 91.1853 24.7403C91.5389 24.4574 91.9448 24.2469 92.3797 24.1208C92.8146 23.9948 93.2701 23.9557 93.7202 24.0056C94.4958 24.0978 95.2179 24.4483 95.7703 25.0006C96.3226 25.5529 96.673 26.275 96.7652 27.0506C96.8175 27.5009 96.7799 27.957 96.6549 28.3927C96.5298 28.8283 96.3196 29.2349 96.0364 29.5888C95.7533 29.9428 95.4028 30.2371 95.0053 30.4548C94.6077 30.6724 94.1709 30.8092 93.7202 30.857C93.4722 30.9336 93.2068 30.9336 92.9588 30.857V30.86Z" fill="#F9F9F9" fill-opacity="0.8"/>
        <path d="M83.3657 21.42C83.1954 21.4185 83.0264 21.451 82.8688 21.5155C82.7111 21.5801 82.5678 21.6753 82.4474 21.7958C82.3269 21.9163 82.2316 22.0595 82.1671 22.2172C82.1026 22.3749 82.0701 22.5438 82.0715 22.7142V28.1958C82.0272 28.8497 81.7582 29.4682 81.3101 29.9466C80.928 30.2834 80.4809 30.5382 79.9963 30.6954C79.5118 30.8526 79.0002 30.9087 78.4931 30.8604C77.5544 30.9234 76.6275 30.6226 75.9047 30.0204C75.4443 29.465 75.2009 28.7615 75.2195 28.0404V22.7142C75.2203 22.534 75.1854 22.3555 75.1169 22.1889C75.0483 22.0223 74.9475 21.871 74.8201 21.7436C74.6928 21.6162 74.5415 21.5153 74.3749 21.4466C74.2084 21.378 74.0299 21.343 73.8497 21.3438C73.6791 21.3521 73.5119 21.3944 73.3579 21.4681C73.2038 21.5419 73.066 21.6455 72.9524 21.7731C72.8388 21.9007 72.7518 22.0496 72.6965 22.2112C72.6411 22.3728 72.6185 22.5437 72.6299 22.7142V27.891C72.5699 29.3133 73.0608 30.704 74.0003 31.7736C74.5775 32.3689 75.2802 32.8281 76.0571 33.1178C76.8341 33.4074 77.6659 33.5203 78.4919 33.4482C79.3385 33.492 80.1853 33.3665 80.9827 33.0789C81.7801 32.7914 82.5122 32.3476 83.1359 31.7736C84.0524 30.7693 84.5908 29.4774 84.6587 28.1196V22.638C84.6454 22.3061 84.5026 21.9927 84.2609 21.765C84.0191 21.5373 83.6978 21.4134 83.3657 21.42Z" fill="#F9F9F9" fill-opacity="0.8"/>
        <path d="M73.4717 17.0802C73.8751 17.079 74.2617 16.9183 74.547 16.6331C74.8324 16.3479 74.9932 15.9614 74.9945 15.558C74.9934 15.1544 74.8326 14.7677 74.5473 14.4824C74.2619 14.1971 73.8752 14.0363 73.4717 14.0352H62.5853C62.1818 14.0363 61.7951 14.1971 61.5097 14.4824C61.2244 14.7677 61.0636 15.1544 61.0625 15.558C61.0636 15.9615 61.2244 16.3482 61.5097 16.6335C61.7951 16.9189 62.1818 17.0796 62.5853 17.0808H66.6203C66.5582 17.2245 66.5321 17.3812 66.5441 17.5374V32.0016C66.5401 32.204 66.5765 32.4053 66.6512 32.5935C66.7259 32.7818 66.8374 32.9532 66.9792 33.0978C67.121 33.2424 67.2902 33.3573 67.4769 33.4358C67.6636 33.5142 67.8641 33.5546 68.0666 33.5546C68.2691 33.5546 68.4696 33.5142 68.6563 33.4358C68.843 33.3573 69.0122 33.2424 69.154 33.0978C69.2958 32.9532 69.4073 32.7818 69.482 32.5935C69.5567 32.4053 69.5931 32.204 69.5891 32.0016V17.5374C69.6011 17.3812 69.575 17.2245 69.5129 17.0808L73.4717 17.0802Z" fill="#F9F9F9" fill-opacity="0.8"/>
        <path d="M113.972 26.4438C113.916 26.0771 113.813 25.719 113.667 25.3782C113.206 24.2634 112.425 23.31 111.423 22.6382C110.422 21.9665 109.243 21.6065 108.037 21.6035C106.831 21.6006 105.65 21.9549 104.645 22.6218C103.64 23.2887 102.855 24.2383 102.389 25.3509C101.922 26.4634 101.796 27.6891 102.026 28.8733C102.255 30.0576 102.83 31.1474 103.678 32.0053C104.526 32.8632 105.609 33.4509 106.791 33.6941C107.972 33.9373 109.199 33.8252 110.317 33.372C110.916 33.1167 111.479 32.784 111.992 32.3826C112.252 32.1431 112.413 31.8139 112.441 31.4609C112.47 31.1079 112.363 30.7573 112.144 30.4794C111.939 30.2575 111.675 30.0991 111.383 30.0228C111.194 29.9962 111.001 30.0096 110.817 30.0621C110.634 30.1146 110.463 30.2051 110.317 30.3276C110.031 30.5566 109.725 30.7603 109.403 30.9366C108.809 31.1861 108.156 31.2632 107.52 31.1588C106.884 31.0544 106.291 30.7729 105.807 30.3465C105.324 29.9202 104.97 29.3662 104.787 28.7481C104.605 28.1301 104.6 27.473 104.773 26.8522C104.947 26.2314 105.291 25.6721 105.768 25.2384C106.245 24.8047 106.834 24.5142 107.469 24.4002C108.103 24.2861 108.757 24.3532 109.355 24.5937C109.953 24.8341 110.471 25.2383 110.85 25.7598L107.58 27.1284C107.439 27.1871 107.311 27.2734 107.204 27.3821C107.096 27.4909 107.012 27.62 106.955 27.7618C106.899 27.9036 106.871 28.0553 106.873 28.2081C106.876 28.3608 106.909 28.5114 106.971 28.6512C107.03 28.7922 107.116 28.9201 107.225 29.0273C107.333 29.1345 107.462 29.219 107.604 29.2757C107.746 29.3324 107.898 29.3603 108.05 29.3576C108.203 29.3549 108.354 29.3218 108.494 29.2602L113.747 27.0522C113.849 26.9926 113.927 26.8994 113.968 26.7884C114.009 26.6774 114.011 26.5555 113.972 26.4438Z" fill="#F9F9F9" fill-opacity="0.8"/>
        <path d="M31.5228 33.4482C31.1193 33.4471 30.7326 33.2863 30.4472 33.001C30.1619 32.7156 30.0011 32.3289 30 31.9254V21.8028C30.0107 19.7056 30.8486 17.6973 32.3316 16.2144C33.8145 14.7314 35.8228 13.8935 37.92 13.8828H38.9094C39.0994 13.8827 39.2876 13.92 39.4632 13.9926C39.6388 14.0652 39.7983 14.1718 39.9327 14.3062C40.067 14.4405 40.1736 14.6001 40.2462 14.7756C40.3188 14.9512 40.3562 15.1394 40.356 15.3294V15.4056C40.3562 15.5956 40.3188 15.7838 40.2462 15.9594C40.1736 16.135 40.067 16.2945 39.9327 16.4289C39.7983 16.5632 39.6388 16.6698 39.4632 16.7424C39.2876 16.8151 39.0994 16.8524 38.9094 16.8522H37.92C37.26 16.8516 36.6064 16.9811 35.9965 17.2334C35.3866 17.4857 34.8325 17.8557 34.3658 18.3224C33.8991 18.7891 33.529 19.3432 33.2768 19.9531C33.0245 20.563 32.895 21.2166 32.8956 21.8766V32.0028C32.9044 32.1889 32.8755 32.3748 32.8106 32.5493C32.7456 32.7239 32.646 32.8835 32.5178 33.0186C32.3895 33.1536 32.2352 33.2613 32.0642 33.3352C31.8932 33.409 31.7091 33.4474 31.5228 33.4482Z" fill="#F9F9F9" fill-opacity="0.8"/>
        <path d="M38.9844 25.9122H31.5234V22.9434H38.9844C39.1745 22.9432 39.3626 22.9805 39.5382 23.0532C39.7138 23.1258 39.8733 23.2323 40.0077 23.3667C40.142 23.5011 40.2486 23.6606 40.3212 23.8362C40.3939 24.0118 40.4312 24.1999 40.431 24.39C40.439 24.5857 40.4076 24.781 40.3387 24.9643C40.2698 25.1477 40.1647 25.3153 40.0298 25.4573C39.8949 25.5993 39.7329 25.7128 39.5533 25.7911C39.3737 25.8693 39.1803 25.9107 38.9844 25.9128V25.9122Z" fill="#F9F9F9" fill-opacity="0.8"/>
    </g>
    <defs>
        <clipPath id="clip0_21123_87196">
            <rect width="144" height="48" fill="white"/>
        </clipPath>
    </defs>
</svg>
