<svg width="144" height="48" viewBox="0 0 144 48" fill="none" xmlns="http://www.w3.org/2000/svg">
    <g clip-path="url(#clip0_20371_109068)">
        <path d="M47.966 33.448C46.7764 33.5233 45.5913 33.2442 44.5603 32.646C43.5294 32.0478 42.699 31.1573 42.1742 30.0871C41.6494 29.0169 41.4537 27.8151 41.6119 26.6337C41.7701 25.4524 42.2751 24.3444 43.063 23.45C43.8509 22.5557 44.8863 21.915 46.0383 21.6091C47.1903 21.3032 48.4072 21.3458 49.535 21.7314C50.6628 22.1171 51.6509 22.8286 52.3744 23.7758C53.0978 24.7231 53.5241 25.8636 53.5994 27.0532V27.8146C53.4997 29.2758 52.8741 30.6515 51.8385 31.6871C50.8029 32.7227 49.4272 33.3483 47.966 33.448ZM47.966 24.0838C47.3034 24.0084 46.6334 24.1312 46.0406 24.4366C45.4479 24.7421 44.959 25.2164 44.6358 25.7997C44.3127 26.383 44.1698 27.0491 44.2252 27.7136C44.2805 28.3781 44.5317 29.0113 44.947 29.533C45.3622 30.0548 45.9229 30.4417 46.558 30.6448C47.1932 30.8479 47.8743 30.8581 48.5152 30.6741C49.1562 30.4901 49.7281 30.1201 50.1588 29.611C50.5895 29.1019 50.8595 28.4765 50.9348 27.814V27.0526C50.8319 26.3015 50.486 25.6047 49.9499 25.0686C49.4139 24.5326 48.7171 24.1867 47.966 24.0838Z" fill="#030308" fill-opacity="0.8"/>
        <path d="M57.4075 33.5247C57.2273 33.5255 57.0488 33.4906 56.8822 33.422C56.7155 33.3534 56.5642 33.2525 56.4367 33.1251C56.3093 32.9976 56.2084 32.8463 56.1398 32.6796C56.0712 32.513 56.0363 32.3345 56.0371 32.1543V27.3579C56.0334 26.0836 56.4379 24.8417 57.1915 23.8142C57.9451 22.7866 59.0081 22.0276 60.2245 21.6483C60.5676 21.5557 60.9332 21.599 61.2452 21.7692C61.5571 21.9394 61.7914 22.2234 61.8991 22.5621C61.8991 22.7145 61.9753 22.7907 61.9753 22.9425V23.0157C61.9817 23.3116 61.8872 23.6009 61.7074 23.8361C61.5276 24.0713 61.2732 24.2383 60.9859 24.3099C60.3496 24.5289 59.7962 24.9388 59.4011 25.4837C59.006 26.0285 58.7884 26.6819 58.7779 27.3549V32.1513C58.785 32.3331 58.7544 32.5145 58.6881 32.684C58.6217 32.8534 58.521 33.0074 58.3923 33.136C58.2636 33.2647 58.1097 33.3654 57.9402 33.4318C57.7708 33.4982 57.5894 33.5288 57.4075 33.5217V33.5247Z" fill="#030308" fill-opacity="0.8"/>
        <path d="M92.9588 21.344C91.8692 21.4323 90.8206 21.7992 89.9138 22.4096V15.2534C89.944 14.8997 89.8325 14.5484 89.6038 14.2769C89.4905 14.1425 89.3518 14.0317 89.1958 13.9508C89.0397 13.8699 88.8692 13.8206 88.694 13.8056C88.3403 13.7754 87.989 13.8869 87.7175 14.1157C87.446 14.3445 87.2764 14.6717 87.2462 15.0254V26.8256V27.1304C87.1711 28.3348 87.4548 29.5344 88.0614 30.5775C88.6679 31.6207 89.5702 32.4605 90.654 32.991C91.7379 33.5214 92.9547 33.7186 94.1506 33.5576C95.3465 33.3966 96.4678 32.8846 97.3727 32.0864C98.2777 31.2882 98.9257 30.2396 99.2348 29.0732C99.5439 27.9068 99.5002 26.6749 99.1093 25.5333C98.7183 24.3917 97.9977 23.3916 97.0385 22.6595C96.0793 21.9274 94.9245 21.4962 93.7202 21.4202C93.471 21.3608 93.2149 21.3352 92.9588 21.344ZM92.9588 30.86C92.5087 30.8101 92.0729 30.6719 91.6763 30.4535C91.2796 30.2351 90.9298 29.9406 90.6469 29.587C90.364 29.2335 90.1535 28.8276 90.0275 28.3927C89.9015 27.9577 89.8623 27.5022 89.9123 27.0521C89.9623 26.6021 90.1005 26.1663 90.3189 25.7696C90.5373 25.3729 90.8317 25.0232 91.1853 24.7403C91.5389 24.4574 91.9448 24.2469 92.3797 24.1208C92.8146 23.9948 93.2701 23.9557 93.7202 24.0056C94.4958 24.0978 95.2179 24.4483 95.7703 25.0006C96.3226 25.5529 96.673 26.275 96.7652 27.0506C96.8175 27.5009 96.7799 27.957 96.6549 28.3927C96.5298 28.8283 96.3196 29.2349 96.0364 29.5888C95.7533 29.9428 95.4028 30.2371 95.0053 30.4548C94.6077 30.6724 94.1709 30.8092 93.7202 30.857C93.4722 30.9336 93.2068 30.9336 92.9588 30.857V30.86Z" fill="#030308" fill-opacity="0.8"/>
        <path d="M83.3677 21.42C83.1973 21.4185 83.0284 21.451 82.8707 21.5155C82.713 21.5801 82.5698 21.6753 82.4493 21.7958C82.3289 21.9163 82.2336 22.0595 82.1691 22.2172C82.1045 22.3749 82.072 22.5438 82.0735 22.7142V28.1958C82.0291 28.8497 81.7602 29.4682 81.3121 29.9466C80.9299 30.2834 80.4828 30.5382 79.9983 30.6954C79.5138 30.8526 79.0022 30.9087 78.4951 30.8604C77.5564 30.9234 76.6294 30.6226 75.9067 30.0204C75.4462 29.465 75.2028 28.7615 75.2215 28.0404V22.7142C75.2223 22.534 75.1874 22.3555 75.1188 22.1889C75.0503 22.0223 74.9494 21.871 74.8221 21.7436C74.6947 21.6162 74.5434 21.5153 74.3769 21.4466C74.2103 21.378 74.0318 21.343 73.8517 21.3438C73.6811 21.3521 73.5139 21.3944 73.3598 21.4681C73.2057 21.5419 73.0679 21.6455 72.9543 21.7731C72.8408 21.9007 72.7538 22.0496 72.6984 22.2112C72.6431 22.3728 72.6204 22.5437 72.6319 22.7142V27.891C72.5718 29.3133 73.0627 30.704 74.0023 31.7736C74.5795 32.3689 75.2821 32.8281 76.0591 33.1178C76.8361 33.4074 77.6678 33.5203 78.4939 33.4482C79.3404 33.492 80.1872 33.3665 80.9847 33.0789C81.7821 32.7914 82.5141 32.3476 83.1379 31.7736C84.0544 30.7693 84.5928 29.4774 84.6607 28.1196V22.638C84.6474 22.3061 84.5046 21.9927 84.2628 21.765C84.0211 21.5373 83.6997 21.4134 83.3677 21.42Z" fill="#030308" fill-opacity="0.8"/>
        <path d="M73.4697 17.0802C73.8732 17.079 74.2598 16.9183 74.5451 16.6331C74.8304 16.3479 74.9913 15.9614 74.9925 15.558C74.9914 15.1544 74.8306 14.7677 74.5453 14.4824C74.26 14.1971 73.8733 14.0363 73.4697 14.0352H62.5833C62.1798 14.0363 61.7931 14.1971 61.5078 14.4824C61.2224 14.7677 61.0617 15.1544 61.0605 15.558C61.0617 15.9615 61.2224 16.3482 61.5078 16.6335C61.7931 16.9189 62.1798 17.0796 62.5833 17.0808H66.6183C66.5563 17.2245 66.5301 17.3812 66.5421 17.5374V32.0016C66.5381 32.204 66.5745 32.4053 66.6492 32.5935C66.724 32.7818 66.8355 32.9532 66.9772 33.0978C67.119 33.2424 67.2882 33.3573 67.4749 33.4358C67.6616 33.5142 67.8621 33.5546 68.0646 33.5546C68.2672 33.5546 68.4677 33.5142 68.6544 33.4358C68.8411 33.3573 69.0103 33.2424 69.1521 33.0978C69.2938 32.9532 69.4053 32.7818 69.4801 32.5935C69.5548 32.4053 69.5912 32.204 69.5871 32.0016V17.5374C69.5992 17.3812 69.573 17.2245 69.5109 17.0808L73.4697 17.0802Z" fill="#030308" fill-opacity="0.8"/>
        <path d="M113.972 26.4448C113.916 26.078 113.813 25.72 113.667 25.3792C113.206 24.2644 112.425 23.311 111.423 22.6392C110.422 21.9675 109.243 21.6074 108.037 21.6045C106.831 21.6016 105.65 21.9559 104.645 22.6228C103.64 23.2897 102.855 24.2393 102.389 25.3518C101.922 26.4644 101.796 27.6901 102.026 28.8743C102.255 30.0586 102.83 31.1484 103.678 32.0063C104.526 32.8642 105.609 33.4518 106.791 33.6951C107.972 33.9383 109.199 33.8262 110.317 33.373C110.916 33.1177 111.479 32.785 111.992 32.3836C112.252 32.1441 112.413 31.8148 112.441 31.4619C112.47 31.1089 112.363 30.7583 112.144 30.4804C111.939 30.2585 111.675 30.1 111.383 30.0238C111.194 29.9972 111.001 30.0106 110.817 30.0631C110.634 30.1156 110.463 30.206 110.317 30.3286C110.031 30.5576 109.725 30.7613 109.403 30.9376C108.809 31.1871 108.156 31.2641 107.52 31.1598C106.884 31.0554 106.291 30.7739 105.807 30.3475C105.324 29.9211 104.97 29.3672 104.787 28.7491C104.605 28.131 104.6 27.474 104.773 26.8532C104.947 26.2324 105.291 25.6731 105.768 25.2394C106.245 24.8057 106.834 24.5152 107.469 24.4011C108.103 24.2871 108.757 24.3542 109.355 24.5946C109.953 24.8351 110.471 25.2393 110.85 25.7608L107.58 27.1294C107.439 27.1881 107.311 27.2743 107.204 27.3831C107.096 27.4919 107.012 27.6209 106.955 27.7628C106.899 27.9046 106.871 28.0563 106.873 28.209C106.876 28.3618 106.909 28.5124 106.971 28.6522C107.03 28.7932 107.116 28.921 107.225 29.0283C107.333 29.1355 107.462 29.22 107.604 29.2767C107.746 29.3334 107.898 29.3613 108.05 29.3586C108.203 29.3559 108.354 29.3228 108.494 29.2612L113.747 27.0532C113.849 26.9936 113.927 26.9003 113.968 26.7893C114.009 26.6783 114.011 26.5565 113.972 26.4448Z" fill="#030308" fill-opacity="0.8"/>
        <path d="M31.5228 33.4482C31.1193 33.4471 30.7326 33.2863 30.4472 33.001C30.1619 32.7156 30.0011 32.3289 30 31.9254V21.8028C30.0107 19.7056 30.8486 17.6973 32.3316 16.2144C33.8145 14.7314 35.8228 13.8935 37.92 13.8828H38.9094C39.0994 13.8827 39.2876 13.92 39.4632 13.9926C39.6388 14.0652 39.7983 14.1718 39.9327 14.3062C40.067 14.4405 40.1736 14.6001 40.2462 14.7756C40.3188 14.9512 40.3562 15.1394 40.356 15.3294V15.4056C40.3562 15.5956 40.3188 15.7838 40.2462 15.9594C40.1736 16.135 40.067 16.2945 39.9327 16.4289C39.7983 16.5632 39.6388 16.6698 39.4632 16.7424C39.2876 16.8151 39.0994 16.8524 38.9094 16.8522H37.92C37.26 16.8516 36.6064 16.9811 35.9965 17.2334C35.3866 17.4857 34.8325 17.8557 34.3658 18.3224C33.8991 18.7891 33.529 19.3432 33.2768 19.9531C33.0245 20.563 32.895 21.2166 32.8956 21.8766V32.0028C32.9044 32.1889 32.8755 32.3748 32.8106 32.5493C32.7456 32.7239 32.646 32.8835 32.5178 33.0186C32.3895 33.1536 32.2352 33.2613 32.0642 33.3352C31.8932 33.409 31.7091 33.4474 31.5228 33.4482Z" fill="#030308" fill-opacity="0.8"/>
        <path d="M38.9844 25.9112H31.5234V22.9424H38.9844C39.1745 22.9422 39.3626 22.9795 39.5382 23.0522C39.7138 23.1248 39.8733 23.2314 40.0077 23.3657C40.142 23.5001 40.2486 23.6596 40.3212 23.8352C40.3939 24.0108 40.4312 24.199 40.431 24.389C40.439 24.5847 40.4076 24.78 40.3387 24.9634C40.2698 25.1467 40.1647 25.3144 40.0298 25.4564C39.8949 25.5984 39.7329 25.7119 39.5533 25.7901C39.3737 25.8683 39.1803 25.9097 38.9844 25.9118V25.9112Z" fill="#030308" fill-opacity="0.8"/>
    </g>
    <defs>
        <clipPath id="clip0_20371_109068">
            <rect width="144" height="48" fill="white"/>
        </clipPath>
    </defs>
</svg>
