<svg width="192" height="120" viewBox="0 0 192 120" fill="none" xmlns="http://www.w3.org/2000/svg">
    <g opacity="0.4">
        <path d="M189.853 54.7036C192.716 57.6846 192.716 62.3154 189.853 65.2965L137.783 119.525C132.848 124.665 124 121.265 124 114.229L124 5.77105C124 -1.26475 132.849 -4.66492 137.783 0.474582L189.853 54.7036Z" fill="url(#paint0_linear_16119_26324)"/>
        <path opacity="0.56" d="M127.853 54.7036C130.716 57.6846 130.716 62.3154 127.853 65.2965L75.7834 119.525C70.8485 124.665 62 121.265 62 114.229L62 5.77105C62 -1.26475 70.8485 -4.66492 75.7834 0.474582L127.853 54.7036Z" fill="url(#paint1_linear_16119_26324)"/>
        <path opacity="0.3" d="M65.8532 54.7036C68.7156 57.6846 68.7156 62.3154 65.8532 65.2965L13.7834 119.525C8.8485 124.665 -3.15858e-07 121.265 0 114.229L4.869e-06 5.77105C5.18485e-06 -1.26475 8.8485 -4.66492 13.7834 0.474582L65.8532 54.7036Z" fill="url(#paint2_linear_16119_26324)"/>
    </g>
    <path fill-rule="evenodd" clip-rule="evenodd" d="M165.066 59.6465C165.262 59.8418 165.262 60.1584 165.066 60.3536L156.581 68.8389C156.386 69.0342 156.069 69.0342 155.874 68.8389L155.146 68.111C154.951 67.9157 154.951 67.5992 155.146 67.4039L162.55 60.0001L155.146 52.5962C154.951 52.401 154.951 52.0844 155.146 51.8891L155.874 51.1612C156.069 50.966 156.386 50.966 156.581 51.1612L165.066 59.6465Z" fill="white"/>
    <defs>
        <linearGradient id="paint0_linear_16119_26324" x1="192" y1="60" x2="124" y2="60" gradientUnits="userSpaceOnUse">
            <stop stop-color="white" stop-opacity="0.6"/>
            <stop offset="1" stop-color="white" stop-opacity="0"/>
        </linearGradient>
        <linearGradient id="paint1_linear_16119_26324" x1="130" y1="60" x2="62" y2="60" gradientUnits="userSpaceOnUse">
            <stop stop-color="white" stop-opacity="0.6"/>
            <stop offset="1" stop-color="white" stop-opacity="0"/>
        </linearGradient>
        <linearGradient id="paint2_linear_16119_26324" x1="68" y1="60" x2="-5.92169e-07" y2="60" gradientUnits="userSpaceOnUse">
            <stop stop-color="white" stop-opacity="0.6"/>
            <stop offset="1" stop-color="white" stop-opacity="0"/>
        </linearGradient>
    </defs>
</svg>
