<svg width="1176" height="614" viewBox="0 0 1176 614" fill="none" xmlns="http://www.w3.org/2000/svg">
    <path d="M8 12C8 7.58171 11.5817 4 16 4H1160C1164.42 4 1168 7.58172 1168 12V596C1168 600.418 1164.42 604 1160 604H16C11.5817 604 8 600.418 8 596V12Z" fill="#35373D"/>
    <mask id="mask0_21255_141018" style="mask-type:alpha" maskUnits="userSpaceOnUse" x="8" y="4" width="1160" height="600">
        <rect x="8" y="4" width="1160" height="600" rx="8" fill="#1445EA"/>
        <rect x="8.5" y="4.5" width="1159" height="599" rx="7.5" stroke="white" stroke-opacity="0.2" stroke-dasharray="8 8"/>
    </mask>
    <g mask="url(#mask0_21255_141018)">
        <g opacity="0.3">
            <path d="M621.749 -22H615.624V-17.0693L600.369 -5.29156V6.13728C595.881 7.26641 592.605 10.8141 592.605 15.0159C592.605 20.1267 597.452 24.2698 603.431 24.2698C609.411 24.2698 614.258 20.1267 614.258 15.0159C614.258 10.8141 610.981 7.26641 606.494 6.13728V-4.21637L621.749 -15.9942V-22Z" fill="url(#paint0_linear_21255_141018)"/>
            <path d="M1081.86 -21.1587V34.4386L1052.92 59.1825H998.799L825.777 209.542C826.462 210.756 826.845 212.118 826.845 213.556C826.845 218.666 821.998 222.81 816.019 222.81C810.04 222.81 805.193 218.666 805.193 213.556C805.193 208.445 810.04 204.302 816.019 204.302C818.435 204.302 820.666 204.978 822.467 206.121L995.425 55.8175H1049.57L1075.74 33.4503V-21.1587H1081.86Z" fill="url(#paint1_linear_21255_141018)"/>
            <path d="M1143.87 -21.1587V21.2801C1148.36 22.4093 1151.63 25.957 1151.63 30.1587C1151.63 35.2696 1146.78 39.4127 1140.81 39.4127C1134.83 39.4127 1129.98 35.2696 1129.98 30.1587C1129.98 25.957 1133.26 22.4093 1137.74 21.2801V-21.1587H1143.87Z" fill="url(#paint2_linear_21255_141018)"/>
            <path d="M971.523 20.9048C971.523 16.703 974.799 13.1553 979.287 12.0262V-19.8968H985.411V12.0262C989.899 13.1553 993.175 16.703 993.175 20.9048C993.175 26.0156 988.328 30.1587 982.349 30.1587C976.37 30.1587 971.523 26.0156 971.523 20.9048Z" fill="url(#paint3_linear_21255_141018)"/>
            <path d="M948.996 -19.8968V33.1735L825.614 139.439C826.4 140.722 826.845 142.182 826.845 143.73C826.845 148.841 821.998 152.984 816.019 152.984C810.04 152.984 805.193 148.841 805.193 143.73C805.193 138.619 810.04 134.476 816.019 134.476C818.314 134.476 820.442 135.087 822.194 136.128L942.871 32.1915V-19.8968H948.996Z" fill="url(#paint4_linear_21255_141018)"/>
            <path d="M901.754 -19.8968H895.63V17.8689L889.989 22.4894C888.26 21.489 886.174 20.9048 883.929 20.9048C877.95 20.9048 873.103 25.0479 873.103 30.1587C873.103 35.2696 877.95 39.4127 883.929 39.4127C889.908 39.4127 894.755 35.2696 894.755 30.1587C894.755 28.548 894.274 27.0333 893.427 25.7142L901.754 18.893V-19.8968Z" fill="url(#paint5_linear_21255_141018)"/>
            <path d="M871.736 -20.3175V-4.24141L837.289 23.9411V53.3478L809.825 77.9594C810.637 79.258 811.098 80.7418 811.098 82.3175C811.098 87.4283 806.251 91.5714 800.272 91.5714C794.293 91.5714 789.445 87.4283 789.445 82.3175C789.445 77.2066 794.293 73.0635 800.272 73.0635C802.518 73.0635 804.605 73.6483 806.334 74.6494L831.165 52.3983V22.916L865.612 -5.26653V-20.3175H871.736Z" fill="url(#paint6_linear_21255_141018)"/>
            <path d="M789.445 24.2698C789.445 20.0681 792.722 16.5204 797.21 15.3912V-19.8968H803.334V15.3912C807.822 16.5204 811.098 20.0681 811.098 24.2698C811.098 29.3807 806.251 33.5238 800.272 33.5238C794.293 33.5238 789.445 29.3807 789.445 24.2698Z" fill="url(#paint7_linear_21255_141018)"/>
            <path d="M750.952 38.1055C746.464 39.2347 743.188 42.7824 743.188 46.9841C743.188 52.095 748.035 56.2381 754.014 56.2381C759.993 56.2381 764.841 52.095 764.841 46.9841C764.841 42.7824 761.564 39.2347 757.076 38.1055V-20.3175H750.952V38.1055Z" fill="url(#paint8_linear_21255_141018)"/>
            <path d="M700.867 52.873C700.867 48.8264 703.906 45.3865 708.139 44.1293V-20.3175H714.264V43.8814C719.002 44.8675 722.52 48.5191 722.52 52.873C722.52 57.9838 717.673 62.127 711.694 62.127C705.714 62.127 700.867 57.9838 700.867 52.873Z" fill="url(#paint9_linear_21255_141018)"/>
            <path d="M677.137 9.50236C672.649 10.6315 669.373 14.1792 669.373 18.381C669.373 23.4918 674.22 27.6349 680.199 27.6349C686.178 27.6349 691.025 23.4918 691.025 18.381C691.025 14.1792 687.749 10.6315 683.261 9.50236V-19.8968H677.137V9.50236Z" fill="url(#paint10_linear_21255_141018)"/>
            <path d="M650.673 52.873C650.673 48.5191 654.191 44.8675 658.929 43.8814V-19.8968H665.054V44.1293C669.287 45.3865 672.326 48.8264 672.326 52.873C672.326 57.9838 667.478 62.127 661.499 62.127C655.52 62.127 650.673 57.9838 650.673 52.873Z" fill="url(#paint11_linear_21255_141018)"/>
            <path d="M638.972 -20.3175V21.5729L627.37 42.7757C630.154 44.4503 631.973 47.2181 631.973 50.3492C631.973 55.46 627.126 59.6032 621.147 59.6032C615.168 59.6032 610.321 55.46 610.321 50.3492C610.321 45.2384 615.168 41.0952 621.147 41.0952C621.394 41.0952 621.64 41.1023 621.883 41.1163L632.848 21.0779V-20.3175H638.972Z" fill="url(#paint12_linear_21255_141018)"/>
            <path d="M569.859 38.9468C565.371 40.0759 562.095 43.6236 562.095 47.8254C562.095 52.9362 566.942 57.0794 572.921 57.0794C578.9 57.0794 583.747 52.9362 583.747 47.8254C583.747 43.6236 580.471 40.0759 575.983 38.9468V-20.3175H569.859V38.9468Z" fill="url(#paint13_linear_21255_141018)"/>
            <path d="M547.933 -19.4762H541.809V36.348L533.182 42.9597C531.368 41.7893 529.111 41.0952 526.664 41.0952C520.684 41.0952 515.837 45.2384 515.837 50.3492C515.837 55.46 520.684 59.6032 526.664 59.6032C532.643 59.6032 537.49 55.46 537.49 50.3492C537.49 48.8881 537.094 47.5061 536.388 46.2774L547.933 37.4297V-19.4762Z" fill="url(#paint14_linear_21255_141018)"/>
            <path d="M494.567 22.8496C489.829 23.8358 486.311 27.4874 486.311 31.8413C486.311 36.9521 491.158 41.0952 497.138 41.0952C503.117 41.0952 507.964 36.9521 507.964 31.8413C507.964 27.7947 504.925 24.3547 500.692 23.0976V-21.1587H494.567V22.8496Z" fill="url(#paint15_linear_21255_141018)"/>
            <path d="M431.196 46.1429C431.196 41.789 434.714 38.1374 439.452 37.1512V-20.3175H445.576V37.3991C449.81 38.6563 452.848 42.0962 452.848 46.1429C452.848 51.2537 448.001 55.3968 442.022 55.3968C436.043 55.3968 431.196 51.2537 431.196 46.1429Z" fill="url(#paint16_linear_21255_141018)"/>
            <path d="M409.926 41.3576C405.188 42.3437 401.67 45.9953 401.67 50.3492C401.67 55.46 406.517 59.6032 412.496 59.6032C418.475 59.6032 423.322 55.46 423.322 50.3492C423.322 46.3026 420.284 42.8626 416.05 41.6055V-20.3175H409.926V41.3576Z" fill="url(#paint17_linear_21255_141018)"/>
            <path d="M312.217 -21.2322L373.434 30.692C374.569 30.3467 375.791 30.1587 377.065 30.1587C383.044 30.1587 387.891 34.3019 387.891 39.4127C387.891 44.5235 383.044 48.6667 377.065 48.6667C371.086 48.6667 366.239 44.5235 366.239 39.4127C366.239 37.0101 367.31 34.8214 369.066 33.1764L307.077 -19.4027L312.217 -21.2322Z" fill="url(#paint18_linear_21255_141018)"/>
            <path d="M278.251 -20.4002L346.664 36.8062V43.9944C351.152 45.1235 354.428 48.6712 354.428 52.873C354.428 57.9838 349.581 62.127 343.602 62.127C337.623 62.127 332.776 57.9838 332.776 52.873C332.776 48.6713 336.052 45.1236 340.54 43.9944V37.8128L273.133 -18.5522L278.251 -20.4002Z" fill="url(#paint19_linear_21255_141018)"/>
            <path d="M242.848 -21.2174L237.673 -19.4175L301.172 35.6942V43.9944C296.684 45.1236 293.408 48.6713 293.408 52.873C293.408 57.9838 298.255 62.127 304.234 62.127C310.213 62.127 315.06 57.9838 315.06 52.873C315.06 48.6712 311.784 45.1235 307.296 43.9944V34.7185L242.848 -21.2174Z" fill="url(#paint20_linear_21255_141018)"/>
            <path d="M204.447 -21.2326L264.483 29.6611V46.6531C268.717 47.9102 271.755 51.3502 271.755 55.3968C271.755 60.5077 266.908 64.6508 260.929 64.6508C254.95 64.6508 250.103 60.5077 250.103 55.3968C250.103 51.043 253.62 47.3914 258.359 46.4052V30.6563L199.307 -19.4023L204.447 -21.2326Z" fill="url(#paint21_linear_21255_141018)"/>
            <path d="M150.814 -20.8066L145.662 -18.987L201.767 28.9703V118.071H218.889C220.003 122.169 224.302 125.222 229.435 125.222C235.414 125.222 240.261 121.079 240.261 115.968C240.261 110.857 235.414 106.714 229.435 106.714C223.956 106.714 219.428 110.192 218.708 114.706H207.892V27.9821L150.814 -20.8066Z" fill="url(#paint22_linear_21255_141018)"/>
            <path d="M119.326 -20.801L175.413 27.5651V140.257L199.046 158.873H207.961C208.886 154.566 213.301 151.302 218.608 151.302C224.587 151.302 229.435 155.445 229.435 160.556C229.435 165.666 224.587 169.81 218.608 169.81C213.301 169.81 208.886 166.546 207.961 162.238H195.85L169.289 141.315V28.546L114.161 -18.9927L119.326 -20.801Z" fill="url(#paint23_linear_21255_141018)"/>
            <path d="M-8.48018 -5.11761L-26.8348 -20.8066L-31.9866 -18.987L-12.4823 -2.31529C-13.8419 -0.76848 -14.6476 1.15438 -14.6476 3.2381C-14.6476 8.34892 -9.80056 12.4921 -3.82141 12.4921C2.15775 12.4921 7.00482 8.34892 7.00482 3.2381C7.00482 -1.87273 2.15775 -6.01587 -3.82141 -6.01587C-5.48931 -6.01587 -7.06911 -5.69348 -8.48018 -5.11761Z" fill="url(#paint24_linear_21255_141018)"/>
            <path d="M71.1796 36.0476L145.887 100.334V181.934L176.483 208.087H214.771C215.491 203.573 220.019 200.095 225.498 200.095C231.477 200.095 236.324 204.238 236.324 209.349C236.324 214.46 231.477 218.603 225.498 218.603C220.365 218.603 216.066 215.55 214.952 211.452H173.139L139.763 182.923V101.317L67.8237 39.4127H-28.9185V36.0476H71.1796Z" fill="url(#paint25_linear_21255_141018)"/>
            <path d="M45.1282 75.1667H-27.4423V78.5317H41.7124L64.4711 98.7793V193.873L143.151 258.984H214.85C215.776 263.292 220.191 266.556 225.498 266.556C231.477 266.556 236.324 262.412 236.324 257.302C236.324 252.191 231.477 248.048 225.498 248.048C220.191 248.048 215.776 251.312 214.85 255.619H146.436L70.5954 192.857V97.8239L45.1282 75.1667Z" fill="url(#paint26_linear_21255_141018)"/>
            <path d="M-2.83724 139.524C-2.83724 143.57 0.20142 147.01 4.43473 148.268V170.32C0.20142 171.577 -2.83724 175.017 -2.83724 179.063C-2.83724 184.174 2.00983 188.317 7.98899 188.317C13.9681 188.317 18.8152 184.174 18.8152 179.063C18.8152 174.71 15.2976 171.058 10.5591 170.072V148.515C15.2976 147.529 18.8152 143.878 18.8152 139.524C18.8152 134.413 13.9681 130.27 7.98899 130.27C2.00983 130.27 -2.83724 134.413 -2.83724 139.524Z" fill="url(#paint27_linear_21255_141018)"/>
            <path d="M-1.16532 241.317L-26.3426 219.797L-31.4945 221.616L-4.50908 244.683H77.1339L133.726 295.579H214.952C216.066 299.677 220.365 302.73 225.498 302.73C231.477 302.73 236.324 298.587 236.324 293.476C236.324 288.365 231.477 284.222 225.498 284.222C220.019 284.222 215.491 287.7 214.771 292.214H137.161L80.5692 241.317H-1.16532Z" fill="url(#paint28_linear_21255_141018)"/>
            <path d="M-26.8213 278.697L-0.656973 301.468H76.983C77.7031 296.954 82.2311 293.476 87.7094 293.476C93.6886 293.476 98.5357 297.619 98.5357 302.73C98.5357 307.841 93.6886 311.984 87.7094 311.984C82.5767 311.984 78.2781 308.931 77.1641 304.833H-4.03325L-32 280.493L-26.8213 278.697Z" fill="url(#paint29_linear_21255_141018)"/>
            <path d="M8.16754 350.683H-28.4264V354.048H8.16754C9.09319 358.355 13.5083 361.619 18.8153 361.619C24.7944 361.619 29.6415 357.476 29.6415 352.365C29.6415 347.254 24.7944 343.111 18.8153 343.111C13.5083 343.111 9.09319 346.375 8.16754 350.683Z" fill="url(#paint30_linear_21255_141018)"/>
            <path d="M214.771 338.484C215.491 333.97 220.019 330.492 225.498 330.492C231.477 330.492 236.324 334.635 236.324 339.746C236.324 344.857 231.477 349 225.498 349C220.365 349 216.066 345.947 214.952 341.849H113.553L25.9589 421.77H-29.4107V418.405H22.4978L110.092 338.484H214.771Z" fill="url(#paint31_linear_21255_141018)"/>
            <path d="M214.85 374.238H118.555L23.1346 452.385V486.895L-5.00117 510.944H-27.4423V514.31H-1.65741L29.259 487.883V453.409L121.821 377.603H214.85C215.776 381.911 220.191 385.175 225.498 385.175C231.477 385.175 236.324 381.031 236.324 375.921C236.324 370.81 231.477 366.667 225.498 366.667C220.191 366.667 215.776 369.931 214.85 374.238Z" fill="url(#paint32_linear_21255_141018)"/>
            <path d="M202.961 429.341C203.681 424.827 208.209 421.349 213.687 421.349C219.666 421.349 224.513 425.492 224.513 430.603C224.513 435.714 219.666 439.857 213.687 439.857C208.554 439.857 204.256 436.804 203.142 432.706H92.3245L45.9904 471.903V564.056L-12.1424 609.499L-17.1529 607.564L39.866 562.992V470.906L88.9995 429.341H202.961Z" fill="url(#paint33_linear_21255_141018)"/>
            <path d="M202.961 477.294H117.091L88.584 500.331V587.847L62.989 609.725L68.1408 611.545L94.7084 588.835V501.367L120.333 480.659H203.142C204.256 484.756 208.554 487.81 213.687 487.81C219.666 487.81 224.513 483.666 224.513 478.556C224.513 473.445 219.666 469.302 213.687 469.302C208.209 469.302 203.681 472.78 202.961 477.294Z" fill="url(#paint34_linear_21255_141018)"/>
            <path d="M202.961 511.786C203.681 507.272 208.209 503.794 213.687 503.794C219.666 503.794 224.513 507.937 224.513 513.048C224.513 518.158 219.666 522.302 213.687 522.302C208.554 522.302 204.256 519.248 203.142 515.151H176.345L157.205 539.89V603.137L146.385 612.386L141.233 610.566L151.081 602.149V539.205L172.293 511.786H202.961Z" fill="url(#paint35_linear_21255_141018)"/>
            <path d="M222.535 579.77L186.014 610.987L191.166 612.807L226.416 582.676C227.908 583.339 229.604 583.714 231.403 583.714C237.382 583.714 242.229 579.571 242.229 574.46C242.229 569.349 237.382 565.206 231.403 565.206C225.424 565.206 220.577 569.349 220.577 574.46C220.577 576.436 221.301 578.267 222.535 579.77Z" fill="url(#paint36_linear_21255_141018)"/>
            <path d="M264.229 609.751L308.813 570.086C307.782 568.67 307.186 566.997 307.186 565.206C307.186 560.096 312.034 555.952 318.013 555.952C323.992 555.952 328.839 560.096 328.839 565.206C328.839 570.317 323.992 574.46 318.013 574.46C316.011 574.46 314.136 573.996 312.527 573.186L269.44 611.519L264.229 609.751Z" fill="url(#paint37_linear_21255_141018)"/>
            <path d="M567.116 543.754H386.219L307.563 610.987L312.715 612.807L389.563 547.119H567.297C568.411 551.217 572.709 554.27 577.842 554.27C583.821 554.27 588.668 550.127 588.668 545.016C588.668 539.905 583.821 535.762 577.842 535.762C572.364 535.762 567.836 539.24 567.116 543.754Z" fill="url(#paint38_linear_21255_141018)"/>
            <path d="M384.835 605.715C386.554 606.697 388.621 607.27 390.844 607.27C396.823 607.27 401.67 603.127 401.67 598.016C401.67 592.905 396.823 588.762 390.844 588.762C384.865 588.762 380.017 592.905 380.017 598.016C380.017 599.648 380.512 601.181 381.379 602.513L372.558 609.694L377.635 611.576L384.835 605.715Z" fill="url(#paint39_linear_21255_141018)"/>
            <path d="M452.848 604.746C450.886 604.746 449.046 604.3 447.459 603.52L437.68 611.569L432.586 609.701L443.751 600.511C442.657 599.065 442.022 597.342 442.022 595.492C442.022 590.381 446.869 586.238 452.848 586.238C458.828 586.238 463.675 590.381 463.675 595.492C463.675 600.603 458.828 604.746 452.848 604.746Z" fill="url(#paint40_linear_21255_141018)"/>
            <path d="M548.903 600.018C549.783 598.68 550.284 597.136 550.284 595.492C550.284 590.381 545.437 586.238 539.458 586.238C533.479 586.238 528.632 590.381 528.632 595.492C528.632 600.603 533.479 604.746 539.458 604.746C541.696 604.746 543.775 604.166 545.501 603.172L556.664 611.623L561.621 609.647L548.903 600.018Z" fill="url(#paint41_linear_21255_141018)"/>
            <path d="M633.942 587.079C633.942 591.126 630.903 594.566 626.67 595.823V610.635H620.545V596.071C615.807 595.085 612.289 591.433 612.289 587.079C612.289 581.969 617.136 577.825 623.115 577.825C629.095 577.825 633.942 581.969 633.942 587.079Z" fill="url(#paint42_linear_21255_141018)"/>
            <path d="M691.474 598.888C693.037 597.283 693.978 595.22 693.978 592.968C693.978 587.857 689.131 583.714 683.152 583.714C677.173 583.714 672.326 587.857 672.326 592.968C672.326 598.079 677.173 602.222 683.152 602.222C684.628 602.222 686.036 601.97 687.318 601.512L699.814 611.583L704.874 609.687L691.474 598.888Z" fill="url(#paint43_linear_21255_141018)"/>
            <path d="M691.025 556.794C691.025 558.599 690.421 560.283 689.375 561.707L742.92 608.952H826.353V612.317H739.519L685.653 564.789C684.052 565.589 682.188 566.048 680.199 566.048C674.22 566.048 669.373 561.904 669.373 556.794C669.373 551.683 674.22 547.54 680.199 547.54C686.178 547.54 691.025 551.683 691.025 556.794Z" fill="url(#paint44_linear_21255_141018)"/>
            <path d="M843.355 472.246L884.531 510.484V614H878.406V511.405L839.862 475.611H797.038C795.924 479.709 791.626 482.762 786.493 482.762C780.514 482.762 775.667 478.619 775.667 473.508C775.667 468.397 780.514 464.254 786.493 464.254C791.971 464.254 796.499 467.732 797.219 472.246H843.355Z" fill="url(#paint45_linear_21255_141018)"/>
            <path d="M887.099 428.5H715.531C714.811 423.986 710.283 420.508 704.804 420.508C698.825 420.508 693.978 424.651 693.978 429.762C693.978 434.873 698.825 439.016 704.804 439.016C709.937 439.016 714.236 435.963 715.35 431.865H883.712L923.188 466.421V599.846L939.561 611.655L944.433 609.615L929.312 598.71V465.452L887.099 428.5Z" fill="url(#paint46_linear_21255_141018)"/>
            <path d="M967.204 394.429V569.777L1013.5 611.013L1008.28 612.78L961.079 570.731V397.794H833.556C832.63 402.101 828.215 405.365 822.908 405.365C816.929 405.365 812.082 401.222 812.082 396.111C812.082 391 816.929 386.857 822.908 386.857C828.215 386.857 832.63 390.121 833.556 394.429H967.204Z" fill="url(#paint47_linear_21255_141018)"/>
            <path d="M1039.82 538.865V570.271L1057.32 587.5H1190.02V584.135H1060.91L1045.94 569.396V538.617C1050.17 537.36 1053.21 533.92 1053.21 529.873C1053.21 524.762 1048.36 520.619 1042.39 520.619C1036.41 520.619 1031.56 524.762 1031.56 529.873C1031.56 534.227 1035.08 537.878 1039.82 538.865Z" fill="url(#paint48_linear_21255_141018)"/>
            <path d="M1004.88 350.307C1000.39 349.178 997.112 345.63 997.112 341.429C997.112 336.318 1001.96 332.175 1007.94 332.175C1013.92 332.175 1018.76 336.318 1018.76 341.429C1018.76 345.63 1015.49 349.178 1011 350.307V491.175H1097.7L1148.38 534.5H1190.02V537.865H1145.04L1094.35 494.54H1004.88V350.307Z" fill="url(#paint49_linear_21255_141018)"/>
            <path d="M1079.89 243.841H1036.3L903.926 354.889H774.638C774.141 350.172 769.504 346.476 763.856 346.476C757.877 346.476 753.03 350.619 753.03 355.73C753.03 360.841 757.877 364.984 763.856 364.984C768.812 364.984 772.99 362.138 774.275 358.254H907.236L1039.61 247.206H1073.77V347.665L1034.89 380.895V428.592L1070.77 457.944H1190.51V454.579H1074.04L1041.02 427.567V381.883L1079.89 348.653V243.841Z" fill="url(#paint50_linear_21255_141018)"/>
            <path d="M1105.27 413.357C1104.55 408.843 1100.03 405.365 1094.55 405.365C1088.57 405.365 1083.72 409.508 1083.72 414.619C1083.72 419.73 1088.57 423.873 1094.55 423.873C1099.68 423.873 1103.98 420.82 1105.09 416.722H1189.52V413.357H1105.27Z" fill="url(#paint51_linear_21255_141018)"/>
            <path d="M1102.8 241.055V316.669L1143.53 352.786H1190.02V349.421H1146.94L1108.93 315.711V240.807C1113.16 239.55 1116.2 236.11 1116.2 232.063C1116.2 226.953 1111.35 222.81 1105.37 222.81C1099.4 222.81 1094.55 226.953 1094.55 232.063C1094.55 236.417 1098.07 240.069 1102.8 241.055Z" fill="url(#paint52_linear_21255_141018)"/>
            <path d="M1189.03 309.04H1173C1171.89 313.137 1167.59 316.19 1162.46 316.19C1156.48 316.19 1151.63 312.047 1151.63 306.937C1151.63 301.826 1156.48 297.683 1162.46 297.683C1167.94 297.683 1172.46 301.161 1173.18 305.675H1189.03V309.04Z" fill="url(#paint53_linear_21255_141018)"/>
            <path d="M1070.78 174.857H1189.52V171.492H1067.14L1052.09 186.744C1050.65 186.136 1049.02 185.794 1047.31 185.794C1041.33 185.794 1036.48 189.937 1036.48 195.048C1036.48 200.158 1041.33 204.302 1047.31 204.302C1053.29 204.302 1058.13 200.158 1058.13 195.048C1058.13 193.055 1057.4 191.209 1056.14 189.699L1070.78 174.857Z" fill="url(#paint54_linear_21255_141018)"/>
            <path d="M1191 123.54H1078.99L862.468 307.778H833.556C832.63 312.085 828.215 315.349 822.908 315.349C816.929 315.349 812.082 311.206 812.082 306.095C812.082 300.984 816.929 296.841 822.908 296.841C828.215 296.841 832.63 300.105 833.556 304.413H859.132L1075.66 120.175H1191V123.54Z" fill="url(#paint55_linear_21255_141018)"/>
            <path d="M1129.8 98.3016H1189.52V94.9365H1129.8C1128.88 90.629 1124.46 87.3651 1119.15 87.3651C1113.17 87.3651 1108.33 91.5082 1108.33 96.619C1108.33 101.73 1113.17 105.873 1119.15 105.873C1124.46 105.873 1128.88 102.609 1129.8 98.3016Z" fill="url(#paint56_linear_21255_141018)"/>
            <path d="M1190.51 63.8095H1083.94L860.064 258.905C860.848 260.186 861.292 261.644 861.292 263.19C861.292 268.301 856.445 272.444 850.466 272.444C844.487 272.444 839.64 268.301 839.64 263.19C839.64 258.08 844.487 253.937 850.466 253.937C852.758 253.937 854.884 254.545 856.634 255.584L1080.56 60.4444H1190.51V63.8095Z" fill="url(#paint57_linear_21255_141018)"/>
            <path d="M858.34 207.667C860.396 207.667 862.319 208.157 863.956 209.008L981.595 108.453C980.819 107.178 980.381 105.728 980.381 104.19C980.381 99.0797 985.228 94.9365 991.207 94.9365C997.186 94.9365 1002.03 99.0797 1002.03 104.19C1002.03 109.301 997.186 113.444 991.207 113.444C988.896 113.444 986.753 112.825 984.995 111.771L867.597 212.12C868.592 213.519 869.166 215.163 869.166 216.921C869.166 222.031 864.319 226.175 858.34 226.175C852.361 226.175 847.513 222.031 847.513 216.921C847.513 211.81 852.361 207.667 858.34 207.667Z" fill="url(#paint58_linear_21255_141018)"/>
        </g>
    </g>
    <rect x="438" y="65" width="300" height="22" fill="url(#paint59_linear_21255_141018)"/>
    <g filter="url(#filter0_i_21255_141018)">
        <circle cx="588" cy="76" r="40" fill="white"/>
    </g>
    <circle cx="588" cy="76" r="34" fill="url(#paint60_linear_21255_141018)"/>
    <circle cx="588" cy="76" r="34" fill="#171A1F"/>
    <path d="M588.517 57.9375H578.437L566.062 91.9373H572.847L577.487 79.1875H596.251L593.931 72.8125H579.808L582.901 64.3125H590.837L588.517 57.9375Z" fill="white"/>
    <path d="M599.886 64.3123L597.565 57.9375H590.781L593.101 64.3123H599.886Z" fill="#F69C00"/>
    <path d="M593.875 66.4375H600.659L609.94 91.9375H603.156L593.875 66.4375Z" fill="white"/>
    <path d="M502.703 174L501.047 168.562H492.719L491.062 174H485.844L493.906 151.062H499.828L507.922 174H502.703ZM499.891 164.5C498.359 159.573 497.495 156.786 497.297 156.141C497.109 155.495 496.974 154.984 496.891 154.609C496.547 155.943 495.562 159.24 493.938 164.5H499.891ZM520.188 156.203C520.833 156.203 521.37 156.25 521.797 156.344L521.438 160.812C521.052 160.708 520.583 160.656 520.031 160.656C518.51 160.656 517.323 161.047 516.469 161.828C515.625 162.609 515.203 163.703 515.203 165.109V174H510.438V156.531H514.047L514.75 159.469H514.984C515.526 158.49 516.255 157.703 517.172 157.109C518.099 156.505 519.104 156.203 520.188 156.203ZM524.766 152.016C524.766 150.464 525.63 149.688 527.359 149.688C529.089 149.688 529.953 150.464 529.953 152.016C529.953 152.755 529.734 153.333 529.297 153.75C528.87 154.156 528.224 154.359 527.359 154.359C525.63 154.359 524.766 153.578 524.766 152.016ZM529.734 174H524.969V156.531H529.734V174ZM542.109 170.516C542.943 170.516 543.943 170.333 545.109 169.969V173.516C543.922 174.047 542.464 174.312 540.734 174.312C538.828 174.312 537.438 173.833 536.562 172.875C535.698 171.906 535.266 170.458 535.266 168.531V160.109H532.984V158.094L535.609 156.5L536.984 152.812H540.031V156.531H544.922V160.109H540.031V168.531C540.031 169.208 540.219 169.708 540.594 170.031C540.979 170.354 541.484 170.516 542.109 170.516ZM564.781 174H560.016V163.797C560.016 161.276 559.078 160.016 557.203 160.016C555.87 160.016 554.906 160.469 554.312 161.375C553.719 162.281 553.422 163.75 553.422 165.781V174H548.656V149.688H553.422V154.641C553.422 155.026 553.385 155.932 553.312 157.359L553.203 158.766H553.453C554.516 157.057 556.203 156.203 558.516 156.203C560.568 156.203 562.125 156.755 563.188 157.859C564.25 158.964 564.781 160.547 564.781 162.609V174ZM574.828 174H570.062V151.156H583.156V155.125H574.828V161.016H582.578V164.969H574.828V174ZM587.047 152.016C587.047 150.464 587.911 149.688 589.641 149.688C591.37 149.688 592.234 150.464 592.234 152.016C592.234 152.755 592.016 153.333 591.578 153.75C591.151 154.156 590.505 154.359 589.641 154.359C587.911 154.359 587.047 153.578 587.047 152.016ZM592.016 174H587.25V156.531H592.016V174ZM604.156 170.128H630.972V173.584H604.156V170.128ZM615.388 164.528H619.644V171.536H615.388V164.528ZM607.164 149.136H627.964V158.992H611.452V163.984H607.228V155.664H623.74V152.496H607.164V149.136ZM607.228 162.288H628.636V165.712H607.228V162.288ZM636.697 160.88H657.529V164.272H636.697V160.88ZM633.593 169.808H660.409V173.296H633.593V169.808ZM636.697 149.648H657.305V153.104H640.921V162.288H636.697V149.648ZM684.215 147.248H688.247V163.312H684.215V147.248ZM680.759 153.392H685.463V156.816H680.759V153.392ZM677.943 147.792H681.911V163.12H677.943V147.792ZM664.023 149.168H675.767V162.096H664.023V149.168ZM671.799 152.432H667.991V158.8H671.799V152.432ZM668.151 164.56H672.343V167.216H684.087V164.56H688.247V176.528H668.151V164.56ZM672.343 170.512V173.136H684.087V170.512H672.343Z" fill="#F9F9F9"/>
    <path d="M120.401 246.728H129.441V247.8H120.401V246.728ZM118.769 252.936H131.841V254.024H118.769V252.936ZM124.609 253.656H125.937V260.264H124.609V253.656ZM128.817 246.728H130.113V247.976C130.113 249.48 130.113 251.176 129.569 253.624L128.257 253.448C128.817 251.112 128.817 249.432 128.817 247.976V246.728ZM133.488 257.288H146.592V258.392H133.488V257.288ZM139.376 253.784H140.688V257.656H139.376V253.784ZM139.344 247.608H140.464V248.504C140.464 251.464 137.504 253.704 134.656 254.296L134.112 253.24C136.608 252.824 139.344 250.792 139.344 248.504V247.608ZM139.584 247.608H140.704V248.504C140.704 250.792 143.456 252.776 145.984 253.192L145.456 254.248C142.56 253.672 139.584 251.464 139.584 248.504V247.608ZM134.56 247.096H145.488V248.184H134.56V247.096ZM163.355 245.784H164.635V260.248H163.355V245.784ZM158.091 250.968H160.859V252.072H158.091V250.968ZM160.459 246.12H161.707V259.512H160.459V246.12ZM155.307 248.024H156.331V249.864C156.331 253.032 155.115 256.024 152.987 257.368L152.171 256.376C154.187 255.16 155.307 252.52 155.307 249.864V248.024ZM155.579 248.024H156.603V249.864C156.603 252.376 157.691 254.888 159.675 256.04L158.859 257.016C156.747 255.736 155.579 252.888 155.579 249.864V248.024ZM152.571 247.464H159.179V248.568H152.571V247.464ZM172.953 253.464H174.265V255.96H172.953V253.464ZM167.065 252.76H180.137V253.848H167.065V252.76ZM168.281 246.232H178.905V247.32H168.281V246.232ZM168.345 250.344H178.841V251.432H168.345V250.344ZM170.473 246.712H171.801V251.048H170.473V246.712ZM175.401 246.712H176.713V251.048H175.401V246.712ZM168.665 255.528H178.537V260.056H168.665V255.528ZM177.241 256.584H169.977V258.984H177.241V256.584Z" fill="#F9F9F9" fill-opacity="0.8"/>
    <path d="M99.5616 303.768H100.89V318.264H99.5616V303.768ZM93.2576 304.888C95.4016 304.888 96.9376 306.856 96.9376 309.928C96.9376 313.016 95.4016 314.984 93.2576 314.984C91.1296 314.984 89.5936 313.016 89.5936 309.928C89.5936 306.856 91.1296 304.888 93.2576 304.888ZM93.2576 306.088C91.8496 306.088 90.8576 307.592 90.8576 309.928C90.8576 312.28 91.8496 313.816 93.2576 313.816C94.6816 313.816 95.6576 312.28 95.6576 309.928C95.6576 307.592 94.6816 306.088 93.2576 306.088ZM105.448 304.456H114.76V305.544H105.448V304.456ZM103.784 309.64H116.888V310.728H103.784V309.64ZM109.656 310.376H110.968V313.784H109.656V310.376ZM113.896 304.456H115.192V305.528C115.192 306.728 115.192 308.184 114.712 310.168L113.416 310.008C113.896 308.072 113.896 306.696 113.896 305.528V304.456ZM105.144 313.352H115.288V318.248H113.96V314.44H105.144V313.352ZM122.183 305.256H123.271V306.424C123.271 309.064 121.639 311.32 119.223 312.216L118.535 311.16C120.695 310.392 122.183 308.472 122.183 306.424V305.256ZM122.439 305.256H123.511V306.424C123.511 308.28 124.919 310.088 127.015 310.824L126.343 311.88C123.991 311.016 122.439 308.84 122.439 306.424V305.256ZM126.231 307.544H129.447V308.648H126.231V307.544ZM118.951 304.776H126.679V305.848H118.951V304.776ZM120.743 313.224H130.391V318.248H129.063V314.312H120.743V313.224ZM129.063 303.784H130.391V312.44H129.063V303.784ZM143.734 303.8H145.078V314.36H143.734V303.8ZM135.782 316.84H145.51V317.928H135.782V316.84ZM135.782 313.272H137.094V317.208H135.782V313.272ZM137.318 304.792C139.478 304.792 141.078 306.264 141.078 308.36C141.078 310.44 139.478 311.928 137.318 311.928C135.158 311.928 133.542 310.44 133.542 308.36C133.542 306.264 135.158 304.792 137.318 304.792ZM137.318 305.944C135.91 305.944 134.838 306.936 134.838 308.36C134.838 309.768 135.91 310.76 137.318 310.76C138.726 310.76 139.798 309.768 139.798 308.36C139.798 306.936 138.726 305.944 137.318 305.944ZM158.625 303.992C161.761 303.992 163.713 304.968 163.713 306.648C163.713 308.328 161.761 309.304 158.625 309.304C155.473 309.304 153.537 308.328 153.537 306.648C153.537 304.968 155.473 303.992 158.625 303.992ZM158.625 305.016C156.305 305.016 154.897 305.608 154.897 306.648C154.897 307.672 156.305 308.28 158.625 308.28C160.929 308.28 162.353 307.672 162.353 306.648C162.353 305.608 160.929 305.016 158.625 305.016ZM153.745 312.568H155.057V314.152H162.177V312.568H163.489V318.056H153.745V312.568ZM155.057 315.176V316.984H162.177V315.176H155.057ZM152.081 310.616H165.153V311.704H152.081V310.616ZM157.953 308.888H159.265V311.144H157.953V308.888ZM174.48 305.912H177.728V307.016H174.48V305.912ZM174.48 308.888H177.728V309.976H174.48V308.888ZM170.432 304.6H171.504V306.44C171.504 309.272 169.952 311.688 167.536 312.664L166.832 311.608C168.992 310.776 170.432 308.712 170.432 306.44V304.6ZM170.672 304.6H171.76V306.44C171.76 308.552 173.152 310.552 175.248 311.384L174.512 312.424C172.224 311.464 170.672 309.128 170.672 306.44V304.6ZM177.376 303.8H178.704V314.584H177.376V303.8ZM169.408 316.84H179.056V317.928H169.408V316.84ZM169.408 313.496H170.736V317.432H169.408V313.496Z" fill="#F9F9F9" fill-opacity="0.8"/>
    <path d="M113.701 361.784H115.045V376.248H113.701V361.784ZM114.725 367.464H117.413V368.6H114.725V367.464ZM104.485 363H105.797V366.824H109.925V363H111.237V372.776H104.485V363ZM105.797 367.88V371.688H109.925V367.88H105.797ZM119.524 362.488H120.852V367.912H119.524V362.488ZM119.524 367.24H120.692C123.252 367.24 125.332 367.08 127.588 366.6L127.78 367.672C125.428 368.168 123.316 368.328 120.692 368.328H119.524V367.24ZM129.156 361.784H130.5V369.016H129.156V361.784ZM121.14 369.768H130.5V373.32H122.484V375.464H121.172V372.312H129.172V370.808H121.14V369.768ZM121.172 375H130.98V376.056H121.172V375ZM143.155 361.768H144.483V376.264H143.155V361.768ZM144.163 367.528H146.851V368.648H144.163V367.528ZM133.939 371.672H135.091C137.811 371.672 139.699 371.576 141.891 371.16L142.035 372.264C139.779 372.664 137.859 372.776 135.091 372.776H133.939V371.672ZM133.907 363.128H140.451V368.312H135.251V372.12H133.939V367.224H139.139V364.216H133.907V363.128ZM158.766 361.992C161.902 361.992 163.854 362.968 163.854 364.648C163.854 366.328 161.902 367.304 158.766 367.304C155.614 367.304 153.678 366.328 153.678 364.648C153.678 362.968 155.614 361.992 158.766 361.992ZM158.766 363.016C156.446 363.016 155.038 363.608 155.038 364.648C155.038 365.672 156.446 366.28 158.766 366.28C161.07 366.28 162.494 365.672 162.494 364.648C162.494 363.608 161.07 363.016 158.766 363.016ZM153.886 370.568H155.198V372.152H162.318V370.568H163.63V376.056H153.886V370.568ZM155.198 373.176V374.984H162.318V373.176H155.198ZM152.222 368.616H165.294V369.704H152.222V368.616ZM158.094 366.888H159.406V369.144H158.094V366.888ZM174.62 363.912H177.868V365.016H174.62V363.912ZM174.62 366.888H177.868V367.976H174.62V366.888ZM170.572 362.6H171.644V364.44C171.644 367.272 170.092 369.688 167.676 370.664L166.972 369.608C169.132 368.776 170.572 366.712 170.572 364.44V362.6ZM170.812 362.6H171.9V364.44C171.9 366.552 173.292 368.552 175.388 369.384L174.652 370.424C172.364 369.464 170.812 367.128 170.812 364.44V362.6ZM177.516 361.8H178.844V372.584H177.516V361.8ZM169.548 374.84H179.196V375.928H169.548V374.84ZM169.548 371.496H170.876V375.432H169.548V371.496Z" fill="#F9F9F9" fill-opacity="0.8"/>
    <path d="M159.489 423.192H163.137V424.296H159.489V423.192ZM155.697 420.664H156.769V422.44C156.769 425.24 155.201 427.576 152.785 428.552L152.097 427.496C154.241 426.696 155.697 424.648 155.697 422.44V420.664ZM155.953 420.664H157.025V422.488C157.025 424.504 158.433 426.408 160.529 427.176L159.809 428.2C157.505 427.304 155.953 425.064 155.953 422.488V420.664ZM162.641 419.8H163.969V430.616H162.641V419.8ZM154.673 432.84H164.321V433.928H154.673V432.84ZM154.673 429.416H156.001V433.352H154.673V429.416ZM172.656 426.616H173.968V428.84H172.656V426.616ZM166.784 425.88H179.856V426.952H166.784V425.88ZM168.48 420.264H178.16V424.664H168.48V420.264ZM176.864 421.32H169.792V423.608H176.864V421.32ZM168.368 428.36H178.192V431.608H169.712V433.368H168.4V430.648H176.88V429.384H168.368V428.36ZM168.4 433.048H178.624V434.088H168.4V433.048Z" fill="#F9F9F9" fill-opacity="0.8"/>
    <rect x="193" y="224" width="44" height="232" fill="#1F2329"/>
    <rect x="192.5" y="223.5" width="45" height="233" stroke="white" stroke-opacity="0.08"/>
    <path d="M217.004 389.201L217.004 388.235C217.004 385.883 216.948 384.371 216.612 382.607L217.564 382.481C217.9 384.301 217.984 385.827 217.984 388.235L217.984 389.201L217.004 389.201ZM209.64 389.201L209.64 383.447L210.592 383.447L210.592 388.053L217.368 388.053L217.368 389.201L209.64 389.201ZM208.436 380.563L208.436 379.401L221.12 379.401L221.12 380.563L208.436 380.563ZM213.014 384.189L213.014 380.087L213.98 380.087L213.98 384.189L213.014 384.189ZM208.436 364.664L208.436 363.502L214.89 363.502L214.89 364.664L208.436 364.664ZM211.278 364.006L211.278 361.626L212.244 361.626L212.244 364.006L211.278 364.006ZM209.262 372.798L209.262 366.988L214.428 366.988L214.428 372.798L209.262 372.798ZM210.2 368.122L210.2 371.664L213.504 371.664L213.504 368.122L210.2 368.122ZM219.804 372L219.804 371.398C219.804 370.642 219.734 369.424 219.37 368.346L220.308 368.15C220.7 369.368 220.756 370.53 220.756 371.398L220.756 372L219.804 372ZM216.052 372L216.052 370.866L220.056 370.866L220.056 372L216.052 372ZM216.178 368.612L216.178 362.256L217.046 362.256L217.046 368.612L216.178 368.612ZM217.508 365.42C217.508 364.048 218.208 363.082 219.286 363.082C220.392 363.082 221.078 364.048 221.078 365.42C221.078 366.806 220.392 367.772 219.286 367.772C218.208 367.772 217.508 366.806 217.508 365.42ZM218.334 365.42C218.334 366.204 218.712 366.736 219.286 366.736C219.874 366.736 220.252 366.204 220.252 365.42C220.252 364.664 219.874 364.118 219.286 364.118C218.712 364.118 218.334 364.664 218.334 365.42ZM215.072 365.994L215.072 364.86L216.794 364.86L216.794 365.994L215.072 365.994ZM215.086 360.451L215.086 349.013L216.038 349.013L216.038 360.451L215.086 360.451ZM219.86 358.967L219.86 350.273L220.812 350.273L220.812 358.967L219.86 358.967ZM217.144 358.967L217.144 357.805L220.154 357.805L220.154 358.967L217.144 358.967ZM208.856 354.725C208.856 352.023 209.808 350.273 211.39 350.273C212.958 350.273 213.91 352.023 213.91 354.725C213.91 357.441 212.958 359.177 211.39 359.177C209.808 359.177 208.856 357.441 208.856 354.725ZM209.808 354.725C209.808 356.713 210.396 357.987 211.39 357.987C212.384 357.987 212.972 356.713 212.972 354.725C212.972 352.737 212.384 351.463 211.39 351.463C210.396 351.463 209.808 352.737 209.808 354.725ZM208.436 334.303L208.436 333.183L221.092 333.183L221.092 334.303L208.436 334.303ZM212.972 338.909L212.972 336.487L213.938 336.487L213.938 338.909L212.972 338.909ZM208.73 336.837L208.73 335.745L220.448 335.745L220.448 336.837L208.73 336.837ZM210.396 341.345L210.396 340.449L212.006 340.449C214.778 340.449 217.396 341.513 218.572 343.375L217.704 344.089C216.64 342.325 214.33 341.345 212.006 341.345L210.396 341.345ZM210.396 341.107L210.396 340.211L212.006 340.211C214.204 340.211 216.402 339.259 217.41 337.523L218.264 338.237C217.144 340.085 214.652 341.107 212.006 341.107L210.396 341.107ZM209.906 343.739L209.906 337.957L210.872 337.957L210.872 343.739L209.906 343.739ZM215.156 325.904L215.156 324.756L217.34 324.756L217.34 325.904L215.156 325.904ZM214.54 331.056L214.54 319.618L215.492 319.618L215.492 331.056L214.54 331.056ZM208.828 329.992L208.828 320.696L209.78 320.696L209.78 329.992L208.828 329.992ZM212.426 329.936L212.426 320.752L213.378 320.752L213.378 329.936L212.426 329.936ZM209.248 328.074L209.248 326.912L213.042 326.912L213.042 328.074L209.248 328.074ZM209.248 323.762L209.248 322.614L213.042 322.614L213.042 323.762L209.248 323.762ZM216.962 329.656L216.962 321.018L220.924 321.018L220.924 329.656L216.962 329.656ZM217.886 322.152L217.886 328.508L219.986 328.508L219.986 322.152L217.886 322.152ZM214.372 311.223L214.372 310.061L215.996 310.061L215.996 311.223L214.372 311.223ZM208.45 305.889L208.45 304.727L216.934 304.727L216.934 305.889L208.45 305.889ZM212.272 305.217L212.272 302.879L213.238 302.879L213.238 305.217L212.272 305.217ZM216.57 314.457L215.618 314.611C215.618 312.343 215.618 309.263 215.24 306.645L216.066 306.547C216.542 309.249 216.556 312.245 216.57 314.457ZM217.564 313.043L217.564 304.727L221.092 304.727L221.092 305.889L218.488 305.889L218.488 313.043L217.564 313.043ZM209.584 314.289L209.584 307.023L210.452 307.023L210.452 314.289L209.584 314.289ZM210.942 310.649C210.942 308.871 211.656 307.709 212.818 307.709C213.98 307.709 214.694 308.871 214.694 310.649C214.694 312.441 213.98 313.603 212.818 313.603C211.656 313.603 210.942 312.441 210.942 310.649ZM211.74 310.649C211.74 311.783 212.146 312.511 212.818 312.511C213.462 312.511 213.882 311.783 213.882 310.649C213.882 309.529 213.462 308.801 212.818 308.801C212.146 308.801 211.74 309.529 211.74 310.649ZM208.338 311.223L208.338 310.061L210.004 310.061L210.004 311.223L208.338 311.223ZM209.794 298.54L209.794 297.588L210.816 297.588C213.14 297.588 215.086 298.988 215.856 301.116L214.932 301.704C214.26 299.8 212.622 298.54 210.816 298.54L209.794 298.54ZM209.794 298.33L209.794 297.378L210.802 297.378C212.454 297.378 213.938 296.174 214.554 294.312L215.464 294.872C214.764 296.986 212.958 298.33 210.802 298.33L209.794 298.33ZM209.374 301.354L209.374 294.592L210.326 294.592L210.326 301.354L209.374 301.354ZM208.436 292.996L208.436 291.834L216.066 291.834L216.066 292.996L208.436 292.996ZM211.642 292.156L211.642 289.958L212.622 289.958L212.622 292.156L211.642 292.156ZM216.402 295.866C216.402 293.29 217.256 291.708 218.726 291.708C220.21 291.708 221.064 293.29 221.064 295.866C221.064 298.442 220.21 300.024 218.726 300.024C217.256 300.024 216.402 298.442 216.402 295.866ZM217.34 295.866C217.34 297.742 217.844 298.89 218.726 298.89C219.622 298.89 220.154 297.742 220.154 295.866C220.154 293.99 219.622 292.842 218.726 292.842C217.844 292.842 217.34 293.99 217.34 295.866Z" fill="#F9F9F9" fill-opacity="0.8"/>
    <rect x="237" y="456" width="803" height="36" fill="#1F2329"/>
    <rect x="236.5" y="455.5" width="804" height="37" stroke="white" stroke-opacity="0.08"/>
    <path d="M601.442 467.436H602.604V473.988H601.442V467.436ZM594.428 474.632H602.618V477.67H595.59V479.406H594.456V476.802H601.47V475.542H594.428V474.632ZM594.456 479.028H603.038V479.952H594.456V479.028ZM595.534 467.8H596.5V468.766C596.5 471.104 595.044 473.092 592.902 473.876L592.328 472.952C594.232 472.28 595.534 470.6 595.534 468.766V467.8ZM595.744 467.8H596.696V468.766C596.696 470.516 598.026 472.098 599.902 472.714L599.328 473.624C597.2 472.896 595.744 471.034 595.744 468.766V467.8ZM614.741 467.436H615.861V480.092H614.741V467.436ZM610.135 471.972H612.557V472.938H610.135V471.972ZM612.207 467.73H613.299V479.448H612.207V467.73ZM607.699 469.396H608.595V471.006C608.595 473.778 607.531 476.396 605.669 477.572L604.955 476.704C606.719 475.64 607.699 473.33 607.699 471.006V469.396ZM607.937 469.396H608.833V471.006C608.833 473.204 609.785 475.402 611.521 476.41L610.807 477.264C608.959 476.144 607.937 473.652 607.937 471.006V469.396ZM605.305 468.906H611.087V469.872H605.305V468.906ZM624.76 469.242H625.684V471.3C625.684 473.932 624.074 476.648 622.1 477.656L621.428 476.732C623.234 475.85 624.76 473.442 624.76 471.3V469.242ZM624.97 469.242H625.894V471.3C625.894 473.302 627.322 475.556 629.156 476.424L628.498 477.348C626.496 476.354 624.97 473.806 624.97 471.3V469.242ZM621.876 468.724H628.694V469.704H621.876V468.724ZM630.192 467.436H631.368V480.092H630.192V467.436ZM631.088 472.546H633.44V473.526H631.088V472.546ZM637.625 468.206H638.577V469.76C638.577 472.238 637.205 474.212 635.077 475.038L634.461 474.114C636.393 473.428 637.625 471.72 637.625 469.76V468.206ZM637.821 468.206H638.773V469.802C638.773 471.524 640.033 473.148 641.881 473.806L641.307 474.716C639.221 473.96 637.821 472.028 637.821 469.802V468.206ZM643.169 467.422H644.331V476.774H643.169V467.422ZM643.967 471.314H646.207V472.28H643.967V471.314ZM636.477 478.86H644.891V479.812H636.477V478.86ZM636.477 475.892H637.639V479.322H636.477V475.892ZM647.257 475.165C647.257 473.957 647.432 472.827 647.783 471.774C648.139 470.722 648.649 469.799 649.314 469.006H650.422C649.766 469.885 649.271 470.852 648.938 471.904C648.61 472.957 648.446 474.039 648.446 475.151C648.446 476.245 648.615 477.314 648.952 478.357C649.289 479.401 649.775 480.354 650.408 481.215H649.314C648.645 480.44 648.134 479.535 647.783 478.501C647.432 477.466 647.257 476.354 647.257 475.165ZM653.375 474.844V479H652.213V469.006H654.954C656.18 469.006 657.085 469.241 657.668 469.71C658.256 470.179 658.55 470.886 658.55 471.829C658.55 473.151 657.88 474.044 656.54 474.509L659.254 479H657.88L655.46 474.844H653.375ZM653.375 473.846H654.968C655.788 473.846 656.39 473.684 656.772 473.36C657.155 473.032 657.347 472.542 657.347 471.891C657.347 471.23 657.151 470.754 656.759 470.462C656.371 470.17 655.747 470.024 654.886 470.024H653.375V473.846ZM669.59 479H668.441L666.425 472.308C666.329 472.011 666.222 471.638 666.104 471.187C665.985 470.735 665.924 470.464 665.919 470.373C665.819 470.975 665.659 471.633 665.44 472.349L663.485 479H662.337L659.678 469.006H660.908L662.487 475.179C662.706 476.045 662.866 476.828 662.966 477.53C663.089 476.696 663.271 475.881 663.513 475.083L665.304 469.006H666.534L668.414 475.138C668.633 475.844 668.817 476.642 668.968 477.53C669.054 476.883 669.218 476.095 669.46 475.165L671.032 469.006H672.263L669.59 479ZM680.11 479L678.866 475.821H674.86L673.63 479H672.454L676.405 468.965H677.383L681.313 479H680.11ZM678.504 474.775L677.342 471.679C677.191 471.287 677.036 470.806 676.877 470.236C676.777 470.674 676.633 471.155 676.446 471.679L675.271 474.775H678.504ZM684.896 475.165C684.896 476.364 684.718 477.48 684.362 478.515C684.011 479.549 683.503 480.449 682.838 481.215H681.744C682.378 480.358 682.863 479.408 683.2 478.364C683.537 477.316 683.706 476.245 683.706 475.151C683.706 474.039 683.54 472.957 683.207 471.904C682.879 470.852 682.387 469.885 681.73 469.006H682.838C683.508 469.803 684.018 470.731 684.369 471.788C684.72 472.841 684.896 473.966 684.896 475.165Z" fill="#F9F9F9" fill-opacity="0.8"/>
    <path d="M289.113 507.784H290.441V516.136H289.113V507.784ZM290.073 511.32H292.585V512.424H290.073V511.32ZM281.353 516.84H290.441V522.056H281.353V516.84ZM289.145 517.896H282.649V520.984H289.145V517.896ZM283.257 508.632C285.433 508.632 287.033 510.04 287.033 512.056C287.033 514.056 285.433 515.448 283.257 515.448C281.081 515.448 279.481 514.056 279.481 512.056C279.481 510.04 281.081 508.632 283.257 508.632ZM283.257 509.752C281.817 509.752 280.777 510.696 280.777 512.056C280.777 513.416 281.817 514.344 283.257 514.344C284.697 514.344 285.737 513.416 285.737 512.056C285.737 510.696 284.697 509.752 283.257 509.752ZM294.584 509.896H306.328V510.984H294.584V509.896ZM293.944 519.464H307.048V520.568H293.944V519.464ZM299.816 517.176H301.128V519.896H299.816V517.176ZM300.456 511.96C303.384 511.96 305.192 512.968 305.192 514.712C305.192 516.456 303.384 517.464 300.456 517.464C297.544 517.464 295.736 516.456 295.736 514.712C295.736 512.968 297.544 511.96 300.456 511.96ZM300.456 513C298.36 513 297.064 513.64 297.064 514.712C297.064 515.784 298.36 516.408 300.456 516.408C302.568 516.408 303.848 515.784 303.848 514.712C303.848 513.64 302.568 513 300.456 513ZM299.816 508.024H301.128V510.568H299.816V508.024ZM312.407 516.408H313.735V518.76H312.407V516.408ZM318.487 507.784H319.815V522.248H318.487V507.784ZM319.383 513.928H322.055V515.048H319.383V513.928ZM308.679 519.496L308.487 518.392C311.079 518.392 314.615 518.36 317.607 517.928L317.719 518.92C314.599 519.48 311.207 519.496 308.679 519.496ZM308.727 509.528H317.383V510.6H308.727V509.528ZM313.063 511.448C315.079 511.448 316.471 512.504 316.471 514.12C316.471 515.752 315.079 516.792 313.063 516.792C311.047 516.792 309.671 515.752 309.671 514.12C309.671 512.504 311.047 511.448 313.063 511.448ZM313.063 512.472C311.767 512.472 310.919 513.128 310.919 514.12C310.919 515.112 311.767 515.768 313.063 515.768C314.359 515.768 315.223 515.112 315.223 514.12C315.223 513.128 314.359 512.472 313.063 512.472ZM312.407 507.8H313.735V510.248H312.407V507.8ZM327.522 515.448H340.594V516.52H327.522V515.448ZM333.394 513.576H334.706V515.896H333.394V513.576ZM329.25 512.984H339.058V514.024H329.25V512.984ZM329.25 508.2H338.994V509.24H330.562V513.544H329.25V508.2ZM330.178 510.568H338.61V511.592H330.178V510.568ZM334.05 517.592C337.202 517.592 339.01 518.392 339.01 519.912C339.01 521.416 337.202 522.216 334.05 522.216C330.898 522.216 329.09 521.416 329.09 519.912C329.09 518.392 330.898 517.592 334.05 517.592ZM334.05 518.6C331.73 518.6 330.434 519.064 330.434 519.912C330.434 520.776 331.73 521.224 334.05 521.224C336.37 521.224 337.666 520.776 337.666 519.912C337.666 519.064 336.37 518.6 334.05 518.6ZM346 516.408H347.328V518.76H346V516.408ZM352.08 507.784H353.408V522.248H352.08V507.784ZM352.976 513.928H355.648V515.048H352.976V513.928ZM342.272 519.496L342.08 518.392C344.672 518.392 348.208 518.36 351.2 517.928L351.312 518.92C348.192 519.48 344.8 519.496 342.272 519.496ZM342.32 509.528H350.976V510.6H342.32V509.528ZM346.656 511.448C348.672 511.448 350.064 512.504 350.064 514.12C350.064 515.752 348.672 516.792 346.656 516.792C344.64 516.792 343.264 515.752 343.264 514.12C343.264 512.504 344.64 511.448 346.656 511.448ZM346.656 512.472C345.36 512.472 344.512 513.128 344.512 514.12C344.512 515.112 345.36 515.768 346.656 515.768C347.952 515.768 348.816 515.112 348.816 514.12C348.816 513.128 347.952 512.472 346.656 512.472ZM346 507.8H347.328V510.248H346V507.8Z" fill="#F9F9F9" fill-opacity="0.8"/>
    <path d="M467.983 515.016H469.327V518.312H467.983V515.016ZM468.671 508.712C470.927 508.712 472.543 510.104 472.543 512.12C472.543 514.136 470.927 515.528 468.671 515.528C466.415 515.528 464.783 514.136 464.783 512.12C464.783 510.104 466.415 508.712 468.671 508.712ZM468.671 509.864C467.167 509.864 466.079 510.776 466.079 512.12C466.079 513.464 467.167 514.392 468.671 514.392C470.159 514.392 471.247 513.464 471.247 512.12C471.247 510.776 470.159 509.864 468.671 509.864ZM474.431 507.768H475.759V522.264H474.431V507.768ZM464.239 519.128L464.047 518.024C466.687 518.024 470.335 518.008 473.487 517.512L473.599 518.488C470.351 519.112 466.815 519.128 464.239 519.128ZM488.574 507.784H489.902V519.112H488.574V507.784ZM489.342 512.824H492.014V513.928H489.342V512.824ZM480.75 520.84H490.414V521.928H480.75V520.84ZM480.75 518.36H482.078V521.176H480.75V518.36ZM482.478 514.856H483.806V516.824H482.478V514.856ZM478.782 517.448L478.606 516.376C481.166 516.376 484.734 516.328 487.71 515.864L487.822 516.808C484.766 517.368 481.294 517.432 478.782 517.448ZM478.974 509.192H487.278V510.2H478.974V509.192ZM483.134 510.792C485.166 510.792 486.494 511.64 486.494 513.016C486.494 514.408 485.166 515.256 483.134 515.256C481.102 515.256 479.758 514.408 479.758 513.016C479.758 511.64 481.102 510.792 483.134 510.792ZM483.134 511.736C481.838 511.736 481.006 512.232 481.006 513.016C481.006 513.816 481.838 514.296 483.134 514.296C484.414 514.296 485.246 513.816 485.246 513.016C485.246 512.232 484.414 511.736 483.134 511.736ZM482.478 507.72H483.806V509.64H482.478V507.72Z" fill="#F9F9F9" fill-opacity="0.8"/>
    <path d="M621.145 515.384H622.489V521.416H621.145V515.384ZM627.865 507.784H629.177V522.248H627.865V507.784ZM617.305 515.8L617.129 514.68C620.057 514.664 623.641 514.616 626.825 514.28L626.937 515.272C623.689 515.72 620.169 515.784 617.305 515.8ZM618.393 508.888H624.377V509.992H618.393V508.888ZM623.865 508.888H625.177V509.48C625.177 510.488 625.177 512.296 624.697 514.872L623.385 514.76C623.865 512.216 623.865 510.472 623.865 509.48V508.888ZM633.608 508.536H642.92V509.624H633.608V508.536ZM631.944 513.864H645.048V514.952H631.944V513.864ZM642.056 508.536H643.352V509.608C643.352 510.84 643.352 512.248 642.872 514.248L641.576 514.184C642.056 512.2 642.056 510.808 642.056 509.608V508.536ZM633.544 516.92H643.4V522.056H633.544V516.92ZM642.104 517.976H634.84V520.984H642.104V517.976ZM646.647 515.032H659.767V516.12H646.647V515.032ZM652.519 512.84H653.831V515.528H652.519V512.84ZM652.503 508.008H653.655V508.648C653.655 511.256 650.887 513.112 647.943 513.592L647.431 512.536C650.023 512.184 652.503 510.584 652.503 508.648V508.008ZM652.711 508.008H653.847V508.648C653.847 510.584 656.343 512.184 658.919 512.536L658.423 513.592C655.495 513.096 652.711 511.256 652.711 508.648V508.008ZM648.103 517.528H658.103V522.248H656.775V518.6H648.103V517.528Z" fill="#F9F9F9" fill-opacity="0.8"/>
    <path d="M788.682 508.536H789.786V510.008C789.786 512.792 788.218 515.096 785.802 516.04L785.098 514.968C787.274 514.168 788.682 512.216 788.682 510.008V508.536ZM788.922 508.536H790.01V510.104C790.01 512.056 791.45 513.864 793.53 514.584L792.826 515.624C790.506 514.76 788.922 512.616 788.922 510.104V508.536ZM795.066 507.784H796.394V516.552H795.066V507.784ZM796.026 511.512H798.538V512.632H796.026V511.512ZM791.786 516.952C794.746 516.952 796.538 517.928 796.538 519.592C796.538 521.256 794.746 522.216 791.786 522.216C788.826 522.216 787.034 521.256 787.034 519.592C787.034 517.928 788.826 516.952 791.786 516.952ZM791.786 518.008C789.642 518.008 788.33 518.584 788.33 519.592C788.33 520.6 789.642 521.176 791.786 521.176C793.93 521.176 795.242 520.6 795.242 519.592C795.242 518.584 793.93 518.008 791.786 518.008ZM805.769 515.464H807.081V517.96H805.769V515.464ZM799.881 514.76H812.953V515.848H799.881V514.76ZM801.097 508.232H811.721V509.32H801.097V508.232ZM801.161 512.344H811.657V513.432H801.161V512.344ZM803.289 508.712H804.617V513.048H803.289V508.712ZM808.217 508.712H809.529V513.048H808.217V508.712ZM801.481 517.528H811.353V522.056H801.481V517.528ZM810.057 518.584H802.793V520.984H810.057V518.584Z" fill="#F9F9F9" fill-opacity="0.8"/>
    <path d="M956.836 507.784H958.1V522.248H956.836V507.784ZM954.548 513.608H957.332V514.728H954.548V513.608ZM953.684 508.088H954.932V521.528H953.684V508.088ZM948.756 510.024H949.796V511.688C949.796 515.16 948.66 517.944 946.436 519.272L945.62 518.248C947.7 517.096 948.756 514.632 948.756 511.688V510.024ZM948.996 510.024H950.036V511.688C950.036 514.344 951.108 516.696 953.14 517.736L952.356 518.76C950.148 517.544 948.996 514.872 948.996 511.688V510.024ZM945.956 509.48H952.676V510.584H945.956V509.48ZM961.874 509.224H971.186V510.328H961.874V509.224ZM960.498 519.128H973.57V520.232H960.498V519.128ZM965.57 513.96H966.898V519.672H965.57V513.96ZM970.69 509.224H972.002V510.664C972.002 512.456 972.002 514.44 971.474 517.368L970.146 517.192C970.69 514.424 970.69 512.392 970.69 510.664V509.224Z" fill="#F9F9F9" fill-opacity="0.8"/>
    <g opacity="0.3">
        <rect x="237" y="224" width="803" height="232" fill="#1F2329"/>
        <rect x="237.615" y="224.615" width="801.771" height="230.771" stroke="white" stroke-opacity="0.08" stroke-width="1.22944"/>
    </g>
    <line x1="237" y1="223.5" x2="1040" y2="223.5" stroke="white" stroke-opacity="0.08"/>
    <line x1="237" y1="281.5" x2="1040" y2="281.5" stroke="white" stroke-opacity="0.08"/>
    <line x1="237" y1="339.5" x2="1040" y2="339.5" stroke="white" stroke-opacity="0.08"/>
    <line x1="237" y1="397.5" x2="1040" y2="397.5" stroke="white" stroke-opacity="0.08"/>
    <line x1="1039.5" y1="456" x2="1039.5" y2="225" stroke="white" stroke-opacity="0.08"/>
    <line x1="878.5" y1="456" x2="878.5" y2="225" stroke="white" stroke-opacity="0.08"/>
    <line x1="718.5" y1="456" x2="718.5" y2="225" stroke="white" stroke-opacity="0.08"/>
    <line x1="557.5" y1="456" x2="557.5" y2="225" stroke="white" stroke-opacity="0.08"/>
    <line x1="397.5" y1="456" x2="397.5" y2="225" stroke="white" stroke-opacity="0.08"/>
    <rect x="301" y="411" width="32" height="32" rx="16" fill="#2BB55A"/>
    <path fill-rule="evenodd" clip-rule="evenodd" d="M323.806 422.196C324.066 422.457 324.065 422.879 323.804 423.139L315.095 431.806C314.835 432.065 314.415 432.065 314.155 431.806L310.196 427.866C309.935 427.607 309.934 427.185 310.194 426.924C310.454 426.663 310.876 426.662 311.137 426.921L314.625 430.393L322.863 422.194C323.124 421.934 323.546 421.935 323.806 422.196Z" fill="white"/>
    <rect x="462" y="411" width="32" height="32" rx="16" fill="#2BB55A"/>
    <path fill-rule="evenodd" clip-rule="evenodd" d="M484.806 422.196C485.066 422.457 485.065 422.879 484.804 423.139L476.095 431.806C475.835 432.065 475.415 432.065 475.155 431.806L471.196 427.866C470.935 427.607 470.934 427.185 471.194 426.924C471.454 426.663 471.876 426.662 472.137 426.921L475.625 430.393L483.863 422.194C484.124 421.934 484.546 421.935 484.806 422.196Z" fill="white"/>
    <rect x="623" y="411" width="32" height="32" rx="16" fill="#F9F9F9" fill-opacity="0.35"/>
    <rect x="783" y="411" width="32" height="32" rx="16" fill="#F9F9F9" fill-opacity="0.35"/>
    <rect x="944" y="411" width="32" height="32" rx="16" fill="#F9F9F9" fill-opacity="0.35"/>
    <rect x="301" y="353" width="32" height="32" rx="16" fill="#F9F9F9" fill-opacity="0.35"/>
    <rect x="462" y="353" width="32" height="32" rx="16" fill="#F9F9F9" fill-opacity="0.35"/>
    <rect x="623" y="353" width="32" height="32" rx="16" fill="#F9F9F9" fill-opacity="0.35"/>
    <rect x="783" y="353" width="32" height="32" rx="16" fill="#F9F9F9" fill-opacity="0.35"/>
    <rect x="944" y="353" width="32" height="32" rx="16" fill="#F9F9F9" fill-opacity="0.35"/>
    <rect x="301" y="295" width="32" height="32" rx="16" fill="#F9F9F9" fill-opacity="0.35"/>
    <rect x="462" y="295" width="32" height="32" rx="16" fill="#F9F9F9" fill-opacity="0.35"/>
    <rect x="623" y="295" width="32" height="32" rx="16" fill="#F9F9F9" fill-opacity="0.35"/>
    <rect x="783" y="295" width="32" height="32" rx="16" fill="#F9F9F9" fill-opacity="0.35"/>
    <rect x="944" y="295" width="32" height="32" rx="16" fill="#F9F9F9" fill-opacity="0.35"/>
    <rect x="301" y="237" width="32" height="32" rx="16" fill="#F9F9F9" fill-opacity="0.35"/>
    <rect x="462" y="237" width="32" height="32" rx="16" fill="#F9F9F9" fill-opacity="0.35"/>
    <rect x="623" y="237" width="32" height="32" rx="16" fill="#F9F9F9" fill-opacity="0.35"/>
    <rect x="783" y="237" width="32" height="32" rx="16" fill="#F9F9F9" fill-opacity="0.35"/>
    <rect x="944" y="237" width="32" height="32" rx="16" fill="#F9F9F9" fill-opacity="0.35"/>
    <defs>
        <filter id="filter0_i_21255_141018" x="548" y="36" width="80" height="80" filterUnits="userSpaceOnUse" color-interpolation-filters="sRGB">
            <feFlood flood-opacity="0" result="BackgroundImageFix"/>
            <feBlend mode="normal" in="SourceGraphic" in2="BackgroundImageFix" result="shape"/>
            <feColorMatrix in="SourceAlpha" type="matrix" values="0 0 0 0 0 0 0 0 0 0 0 0 0 0 0 0 0 0 127 0" result="hardAlpha"/>
            <feOffset/>
            <feGaussianBlur stdDeviation="5.48498"/>
            <feComposite in2="hardAlpha" operator="arithmetic" k2="-1" k3="1"/>
            <feColorMatrix type="matrix" values="0 0 0 0 0.231373 0 0 0 0 0.388235 0 0 0 0 0.952941 0 0 0 0.3 0"/>
            <feBlend mode="normal" in2="shape" result="effect1_innerShadow_21255_141018"/>
        </filter>
        <linearGradient id="paint0_linear_21255_141018" x1="1101.45" y1="584.268" x2="274.858" y2="-246.988" gradientUnits="userSpaceOnUse">
            <stop stop-color="#9D9D9D" stop-opacity="0.24"/>
            <stop offset="0.442745" stop-color="#A8A8A8" stop-opacity="0"/>
            <stop offset="1" stop-color="#A9A9A9" stop-opacity="0.24"/>
        </linearGradient>
        <linearGradient id="paint1_linear_21255_141018" x1="1101.45" y1="584.268" x2="274.858" y2="-246.988" gradientUnits="userSpaceOnUse">
            <stop stop-color="#9D9D9D" stop-opacity="0.24"/>
            <stop offset="0.442745" stop-color="#A8A8A8" stop-opacity="0"/>
            <stop offset="1" stop-color="#A9A9A9" stop-opacity="0.24"/>
        </linearGradient>
        <linearGradient id="paint2_linear_21255_141018" x1="1101.45" y1="584.268" x2="274.858" y2="-246.988" gradientUnits="userSpaceOnUse">
            <stop stop-color="#9D9D9D" stop-opacity="0.24"/>
            <stop offset="0.442745" stop-color="#A8A8A8" stop-opacity="0"/>
            <stop offset="1" stop-color="#A9A9A9" stop-opacity="0.24"/>
        </linearGradient>
        <linearGradient id="paint3_linear_21255_141018" x1="1101.45" y1="584.268" x2="274.858" y2="-246.988" gradientUnits="userSpaceOnUse">
            <stop stop-color="#9D9D9D" stop-opacity="0.24"/>
            <stop offset="0.442745" stop-color="#A8A8A8" stop-opacity="0"/>
            <stop offset="1" stop-color="#A9A9A9" stop-opacity="0.24"/>
        </linearGradient>
        <linearGradient id="paint4_linear_21255_141018" x1="1101.45" y1="584.268" x2="274.858" y2="-246.988" gradientUnits="userSpaceOnUse">
            <stop stop-color="#9D9D9D" stop-opacity="0.24"/>
            <stop offset="0.442745" stop-color="#A8A8A8" stop-opacity="0"/>
            <stop offset="1" stop-color="#A9A9A9" stop-opacity="0.24"/>
        </linearGradient>
        <linearGradient id="paint5_linear_21255_141018" x1="1101.45" y1="584.268" x2="274.858" y2="-246.988" gradientUnits="userSpaceOnUse">
            <stop stop-color="#9D9D9D" stop-opacity="0.24"/>
            <stop offset="0.442745" stop-color="#A8A8A8" stop-opacity="0"/>
            <stop offset="1" stop-color="#A9A9A9" stop-opacity="0.24"/>
        </linearGradient>
        <linearGradient id="paint6_linear_21255_141018" x1="1101.45" y1="584.268" x2="274.858" y2="-246.988" gradientUnits="userSpaceOnUse">
            <stop stop-color="#9D9D9D" stop-opacity="0.24"/>
            <stop offset="0.442745" stop-color="#A8A8A8" stop-opacity="0"/>
            <stop offset="1" stop-color="#A9A9A9" stop-opacity="0.24"/>
        </linearGradient>
        <linearGradient id="paint7_linear_21255_141018" x1="1101.45" y1="584.268" x2="274.858" y2="-246.988" gradientUnits="userSpaceOnUse">
            <stop stop-color="#9D9D9D" stop-opacity="0.24"/>
            <stop offset="0.442745" stop-color="#A8A8A8" stop-opacity="0"/>
            <stop offset="1" stop-color="#A9A9A9" stop-opacity="0.24"/>
        </linearGradient>
        <linearGradient id="paint8_linear_21255_141018" x1="1101.45" y1="584.268" x2="274.858" y2="-246.988" gradientUnits="userSpaceOnUse">
            <stop stop-color="#9D9D9D" stop-opacity="0.24"/>
            <stop offset="0.442745" stop-color="#A8A8A8" stop-opacity="0"/>
            <stop offset="1" stop-color="#A9A9A9" stop-opacity="0.24"/>
        </linearGradient>
        <linearGradient id="paint9_linear_21255_141018" x1="1101.45" y1="584.268" x2="274.858" y2="-246.988" gradientUnits="userSpaceOnUse">
            <stop stop-color="#9D9D9D" stop-opacity="0.24"/>
            <stop offset="0.442745" stop-color="#A8A8A8" stop-opacity="0"/>
            <stop offset="1" stop-color="#A9A9A9" stop-opacity="0.24"/>
        </linearGradient>
        <linearGradient id="paint10_linear_21255_141018" x1="1101.45" y1="584.268" x2="274.858" y2="-246.988" gradientUnits="userSpaceOnUse">
            <stop stop-color="#9D9D9D" stop-opacity="0.24"/>
            <stop offset="0.442745" stop-color="#A8A8A8" stop-opacity="0"/>
            <stop offset="1" stop-color="#A9A9A9" stop-opacity="0.24"/>
        </linearGradient>
        <linearGradient id="paint11_linear_21255_141018" x1="1101.45" y1="584.268" x2="274.858" y2="-246.988" gradientUnits="userSpaceOnUse">
            <stop stop-color="#9D9D9D" stop-opacity="0.24"/>
            <stop offset="0.442745" stop-color="#A8A8A8" stop-opacity="0"/>
            <stop offset="1" stop-color="#A9A9A9" stop-opacity="0.24"/>
        </linearGradient>
        <linearGradient id="paint12_linear_21255_141018" x1="1101.45" y1="584.268" x2="274.858" y2="-246.988" gradientUnits="userSpaceOnUse">
            <stop stop-color="#9D9D9D" stop-opacity="0.24"/>
            <stop offset="0.442745" stop-color="#A8A8A8" stop-opacity="0"/>
            <stop offset="1" stop-color="#A9A9A9" stop-opacity="0.24"/>
        </linearGradient>
        <linearGradient id="paint13_linear_21255_141018" x1="1101.45" y1="584.268" x2="274.858" y2="-246.988" gradientUnits="userSpaceOnUse">
            <stop stop-color="#9D9D9D" stop-opacity="0.24"/>
            <stop offset="0.442745" stop-color="#A8A8A8" stop-opacity="0"/>
            <stop offset="1" stop-color="#A9A9A9" stop-opacity="0.24"/>
        </linearGradient>
        <linearGradient id="paint14_linear_21255_141018" x1="1101.45" y1="584.268" x2="274.858" y2="-246.988" gradientUnits="userSpaceOnUse">
            <stop stop-color="#9D9D9D" stop-opacity="0.24"/>
            <stop offset="0.442745" stop-color="#A8A8A8" stop-opacity="0"/>
            <stop offset="1" stop-color="#A9A9A9" stop-opacity="0.24"/>
        </linearGradient>
        <linearGradient id="paint15_linear_21255_141018" x1="1101.45" y1="584.268" x2="274.858" y2="-246.988" gradientUnits="userSpaceOnUse">
            <stop stop-color="#9D9D9D" stop-opacity="0.24"/>
            <stop offset="0.442745" stop-color="#A8A8A8" stop-opacity="0"/>
            <stop offset="1" stop-color="#A9A9A9" stop-opacity="0.24"/>
        </linearGradient>
        <linearGradient id="paint16_linear_21255_141018" x1="1101.45" y1="584.268" x2="274.858" y2="-246.988" gradientUnits="userSpaceOnUse">
            <stop stop-color="#9D9D9D" stop-opacity="0.24"/>
            <stop offset="0.442745" stop-color="#A8A8A8" stop-opacity="0"/>
            <stop offset="1" stop-color="#A9A9A9" stop-opacity="0.24"/>
        </linearGradient>
        <linearGradient id="paint17_linear_21255_141018" x1="1101.45" y1="584.268" x2="274.858" y2="-246.988" gradientUnits="userSpaceOnUse">
            <stop stop-color="#9D9D9D" stop-opacity="0.24"/>
            <stop offset="0.442745" stop-color="#A8A8A8" stop-opacity="0"/>
            <stop offset="1" stop-color="#A9A9A9" stop-opacity="0.24"/>
        </linearGradient>
        <linearGradient id="paint18_linear_21255_141018" x1="1101.45" y1="584.268" x2="274.858" y2="-246.988" gradientUnits="userSpaceOnUse">
            <stop stop-color="#9D9D9D" stop-opacity="0.24"/>
            <stop offset="0.442745" stop-color="#A8A8A8" stop-opacity="0"/>
            <stop offset="1" stop-color="#A9A9A9" stop-opacity="0.24"/>
        </linearGradient>
        <linearGradient id="paint19_linear_21255_141018" x1="1101.45" y1="584.268" x2="274.858" y2="-246.988" gradientUnits="userSpaceOnUse">
            <stop stop-color="#9D9D9D" stop-opacity="0.24"/>
            <stop offset="0.442745" stop-color="#A8A8A8" stop-opacity="0"/>
            <stop offset="1" stop-color="#A9A9A9" stop-opacity="0.24"/>
        </linearGradient>
        <linearGradient id="paint20_linear_21255_141018" x1="1101.45" y1="584.268" x2="274.858" y2="-246.988" gradientUnits="userSpaceOnUse">
            <stop stop-color="#9D9D9D" stop-opacity="0.24"/>
            <stop offset="0.442745" stop-color="#A8A8A8" stop-opacity="0"/>
            <stop offset="1" stop-color="#A9A9A9" stop-opacity="0.24"/>
        </linearGradient>
        <linearGradient id="paint21_linear_21255_141018" x1="1101.45" y1="584.268" x2="274.858" y2="-246.988" gradientUnits="userSpaceOnUse">
            <stop stop-color="#9D9D9D" stop-opacity="0.24"/>
            <stop offset="0.442745" stop-color="#A8A8A8" stop-opacity="0"/>
            <stop offset="1" stop-color="#A9A9A9" stop-opacity="0.24"/>
        </linearGradient>
        <linearGradient id="paint22_linear_21255_141018" x1="1101.45" y1="584.268" x2="274.858" y2="-246.988" gradientUnits="userSpaceOnUse">
            <stop stop-color="#9D9D9D" stop-opacity="0.24"/>
            <stop offset="0.442745" stop-color="#A8A8A8" stop-opacity="0"/>
            <stop offset="1" stop-color="#A9A9A9" stop-opacity="0.24"/>
        </linearGradient>
        <linearGradient id="paint23_linear_21255_141018" x1="1101.45" y1="584.268" x2="274.858" y2="-246.988" gradientUnits="userSpaceOnUse">
            <stop stop-color="#9D9D9D" stop-opacity="0.24"/>
            <stop offset="0.442745" stop-color="#A8A8A8" stop-opacity="0"/>
            <stop offset="1" stop-color="#A9A9A9" stop-opacity="0.24"/>
        </linearGradient>
        <linearGradient id="paint24_linear_21255_141018" x1="1101.45" y1="584.268" x2="274.858" y2="-246.988" gradientUnits="userSpaceOnUse">
            <stop stop-color="#9D9D9D" stop-opacity="0.24"/>
            <stop offset="0.442745" stop-color="#A8A8A8" stop-opacity="0"/>
            <stop offset="1" stop-color="#A9A9A9" stop-opacity="0.24"/>
        </linearGradient>
        <linearGradient id="paint25_linear_21255_141018" x1="1101.45" y1="584.268" x2="274.858" y2="-246.988" gradientUnits="userSpaceOnUse">
            <stop stop-color="#9D9D9D" stop-opacity="0.24"/>
            <stop offset="0.442745" stop-color="#A8A8A8" stop-opacity="0"/>
            <stop offset="1" stop-color="#A9A9A9" stop-opacity="0.24"/>
        </linearGradient>
        <linearGradient id="paint26_linear_21255_141018" x1="1101.45" y1="584.268" x2="274.858" y2="-246.988" gradientUnits="userSpaceOnUse">
            <stop stop-color="#9D9D9D" stop-opacity="0.24"/>
            <stop offset="0.442745" stop-color="#A8A8A8" stop-opacity="0"/>
            <stop offset="1" stop-color="#A9A9A9" stop-opacity="0.24"/>
        </linearGradient>
        <linearGradient id="paint27_linear_21255_141018" x1="1101.45" y1="584.268" x2="274.858" y2="-246.988" gradientUnits="userSpaceOnUse">
            <stop stop-color="#9D9D9D" stop-opacity="0.24"/>
            <stop offset="0.442745" stop-color="#A8A8A8" stop-opacity="0"/>
            <stop offset="1" stop-color="#A9A9A9" stop-opacity="0.24"/>
        </linearGradient>
        <linearGradient id="paint28_linear_21255_141018" x1="1101.45" y1="584.268" x2="274.858" y2="-246.988" gradientUnits="userSpaceOnUse">
            <stop stop-color="#9D9D9D" stop-opacity="0.24"/>
            <stop offset="0.442745" stop-color="#A8A8A8" stop-opacity="0"/>
            <stop offset="1" stop-color="#A9A9A9" stop-opacity="0.24"/>
        </linearGradient>
        <linearGradient id="paint29_linear_21255_141018" x1="1101.45" y1="584.268" x2="274.858" y2="-246.988" gradientUnits="userSpaceOnUse">
            <stop stop-color="#9D9D9D" stop-opacity="0.24"/>
            <stop offset="0.442745" stop-color="#A8A8A8" stop-opacity="0"/>
            <stop offset="1" stop-color="#A9A9A9" stop-opacity="0.24"/>
        </linearGradient>
        <linearGradient id="paint30_linear_21255_141018" x1="1101.45" y1="584.268" x2="274.858" y2="-246.988" gradientUnits="userSpaceOnUse">
            <stop stop-color="#9D9D9D" stop-opacity="0.24"/>
            <stop offset="0.442745" stop-color="#A8A8A8" stop-opacity="0"/>
            <stop offset="1" stop-color="#A9A9A9" stop-opacity="0.24"/>
        </linearGradient>
        <linearGradient id="paint31_linear_21255_141018" x1="1101.45" y1="584.268" x2="274.858" y2="-246.988" gradientUnits="userSpaceOnUse">
            <stop stop-color="#9D9D9D" stop-opacity="0.24"/>
            <stop offset="0.442745" stop-color="#A8A8A8" stop-opacity="0"/>
            <stop offset="1" stop-color="#A9A9A9" stop-opacity="0.24"/>
        </linearGradient>
        <linearGradient id="paint32_linear_21255_141018" x1="1101.45" y1="584.268" x2="274.858" y2="-246.988" gradientUnits="userSpaceOnUse">
            <stop stop-color="#9D9D9D" stop-opacity="0.24"/>
            <stop offset="0.442745" stop-color="#A8A8A8" stop-opacity="0"/>
            <stop offset="1" stop-color="#A9A9A9" stop-opacity="0.24"/>
        </linearGradient>
        <linearGradient id="paint33_linear_21255_141018" x1="1101.45" y1="584.268" x2="274.858" y2="-246.988" gradientUnits="userSpaceOnUse">
            <stop stop-color="#9D9D9D" stop-opacity="0.24"/>
            <stop offset="0.442745" stop-color="#A8A8A8" stop-opacity="0"/>
            <stop offset="1" stop-color="#A9A9A9" stop-opacity="0.24"/>
        </linearGradient>
        <linearGradient id="paint34_linear_21255_141018" x1="1101.45" y1="584.268" x2="274.858" y2="-246.988" gradientUnits="userSpaceOnUse">
            <stop stop-color="#9D9D9D" stop-opacity="0.24"/>
            <stop offset="0.442745" stop-color="#A8A8A8" stop-opacity="0"/>
            <stop offset="1" stop-color="#A9A9A9" stop-opacity="0.24"/>
        </linearGradient>
        <linearGradient id="paint35_linear_21255_141018" x1="1101.45" y1="584.268" x2="274.858" y2="-246.988" gradientUnits="userSpaceOnUse">
            <stop stop-color="#9D9D9D" stop-opacity="0.24"/>
            <stop offset="0.442745" stop-color="#A8A8A8" stop-opacity="0"/>
            <stop offset="1" stop-color="#A9A9A9" stop-opacity="0.24"/>
        </linearGradient>
        <linearGradient id="paint36_linear_21255_141018" x1="1101.45" y1="584.268" x2="274.858" y2="-246.988" gradientUnits="userSpaceOnUse">
            <stop stop-color="#9D9D9D" stop-opacity="0.24"/>
            <stop offset="0.442745" stop-color="#A8A8A8" stop-opacity="0"/>
            <stop offset="1" stop-color="#A9A9A9" stop-opacity="0.24"/>
        </linearGradient>
        <linearGradient id="paint37_linear_21255_141018" x1="1101.45" y1="584.268" x2="274.858" y2="-246.988" gradientUnits="userSpaceOnUse">
            <stop stop-color="#9D9D9D" stop-opacity="0.24"/>
            <stop offset="0.442745" stop-color="#A8A8A8" stop-opacity="0"/>
            <stop offset="1" stop-color="#A9A9A9" stop-opacity="0.24"/>
        </linearGradient>
        <linearGradient id="paint38_linear_21255_141018" x1="1101.45" y1="584.268" x2="274.858" y2="-246.988" gradientUnits="userSpaceOnUse">
            <stop stop-color="#9D9D9D" stop-opacity="0.24"/>
            <stop offset="0.442745" stop-color="#A8A8A8" stop-opacity="0"/>
            <stop offset="1" stop-color="#A9A9A9" stop-opacity="0.24"/>
        </linearGradient>
        <linearGradient id="paint39_linear_21255_141018" x1="1101.45" y1="584.268" x2="274.858" y2="-246.988" gradientUnits="userSpaceOnUse">
            <stop stop-color="#9D9D9D" stop-opacity="0.24"/>
            <stop offset="0.442745" stop-color="#A8A8A8" stop-opacity="0"/>
            <stop offset="1" stop-color="#A9A9A9" stop-opacity="0.24"/>
        </linearGradient>
        <linearGradient id="paint40_linear_21255_141018" x1="1101.45" y1="584.268" x2="274.858" y2="-246.988" gradientUnits="userSpaceOnUse">
            <stop stop-color="#9D9D9D" stop-opacity="0.24"/>
            <stop offset="0.442745" stop-color="#A8A8A8" stop-opacity="0"/>
            <stop offset="1" stop-color="#A9A9A9" stop-opacity="0.24"/>
        </linearGradient>
        <linearGradient id="paint41_linear_21255_141018" x1="1101.45" y1="584.268" x2="274.858" y2="-246.988" gradientUnits="userSpaceOnUse">
            <stop stop-color="#9D9D9D" stop-opacity="0.24"/>
            <stop offset="0.442745" stop-color="#A8A8A8" stop-opacity="0"/>
            <stop offset="1" stop-color="#A9A9A9" stop-opacity="0.24"/>
        </linearGradient>
        <linearGradient id="paint42_linear_21255_141018" x1="1101.45" y1="584.268" x2="274.858" y2="-246.988" gradientUnits="userSpaceOnUse">
            <stop stop-color="#9D9D9D" stop-opacity="0.24"/>
            <stop offset="0.442745" stop-color="#A8A8A8" stop-opacity="0"/>
            <stop offset="1" stop-color="#A9A9A9" stop-opacity="0.24"/>
        </linearGradient>
        <linearGradient id="paint43_linear_21255_141018" x1="1101.45" y1="584.268" x2="274.858" y2="-246.988" gradientUnits="userSpaceOnUse">
            <stop stop-color="#9D9D9D" stop-opacity="0.24"/>
            <stop offset="0.442745" stop-color="#A8A8A8" stop-opacity="0"/>
            <stop offset="1" stop-color="#A9A9A9" stop-opacity="0.24"/>
        </linearGradient>
        <linearGradient id="paint44_linear_21255_141018" x1="1101.45" y1="584.268" x2="274.858" y2="-246.988" gradientUnits="userSpaceOnUse">
            <stop stop-color="#9D9D9D" stop-opacity="0.24"/>
            <stop offset="0.442745" stop-color="#A8A8A8" stop-opacity="0"/>
            <stop offset="1" stop-color="#A9A9A9" stop-opacity="0.24"/>
        </linearGradient>
        <linearGradient id="paint45_linear_21255_141018" x1="1101.45" y1="584.268" x2="274.858" y2="-246.988" gradientUnits="userSpaceOnUse">
            <stop stop-color="#9D9D9D" stop-opacity="0.24"/>
            <stop offset="0.442745" stop-color="#A8A8A8" stop-opacity="0"/>
            <stop offset="1" stop-color="#A9A9A9" stop-opacity="0.24"/>
        </linearGradient>
        <linearGradient id="paint46_linear_21255_141018" x1="1101.45" y1="584.268" x2="274.858" y2="-246.988" gradientUnits="userSpaceOnUse">
            <stop stop-color="#9D9D9D" stop-opacity="0.24"/>
            <stop offset="0.442745" stop-color="#A8A8A8" stop-opacity="0"/>
            <stop offset="1" stop-color="#A9A9A9" stop-opacity="0.24"/>
        </linearGradient>
        <linearGradient id="paint47_linear_21255_141018" x1="1101.45" y1="584.268" x2="274.858" y2="-246.988" gradientUnits="userSpaceOnUse">
            <stop stop-color="#9D9D9D" stop-opacity="0.24"/>
            <stop offset="0.442745" stop-color="#A8A8A8" stop-opacity="0"/>
            <stop offset="1" stop-color="#A9A9A9" stop-opacity="0.24"/>
        </linearGradient>
        <linearGradient id="paint48_linear_21255_141018" x1="1101.45" y1="584.268" x2="274.858" y2="-246.988" gradientUnits="userSpaceOnUse">
            <stop stop-color="#9D9D9D" stop-opacity="0.24"/>
            <stop offset="0.442745" stop-color="#A8A8A8" stop-opacity="0"/>
            <stop offset="1" stop-color="#A9A9A9" stop-opacity="0.24"/>
        </linearGradient>
        <linearGradient id="paint49_linear_21255_141018" x1="1101.45" y1="584.268" x2="274.858" y2="-246.988" gradientUnits="userSpaceOnUse">
            <stop stop-color="#9D9D9D" stop-opacity="0.24"/>
            <stop offset="0.442745" stop-color="#A8A8A8" stop-opacity="0"/>
            <stop offset="1" stop-color="#A9A9A9" stop-opacity="0.24"/>
        </linearGradient>
        <linearGradient id="paint50_linear_21255_141018" x1="1101.45" y1="584.268" x2="274.858" y2="-246.988" gradientUnits="userSpaceOnUse">
            <stop stop-color="#9D9D9D" stop-opacity="0.24"/>
            <stop offset="0.442745" stop-color="#A8A8A8" stop-opacity="0"/>
            <stop offset="1" stop-color="#A9A9A9" stop-opacity="0.24"/>
        </linearGradient>
        <linearGradient id="paint51_linear_21255_141018" x1="1101.45" y1="584.268" x2="274.858" y2="-246.988" gradientUnits="userSpaceOnUse">
            <stop stop-color="#9D9D9D" stop-opacity="0.24"/>
            <stop offset="0.442745" stop-color="#A8A8A8" stop-opacity="0"/>
            <stop offset="1" stop-color="#A9A9A9" stop-opacity="0.24"/>
        </linearGradient>
        <linearGradient id="paint52_linear_21255_141018" x1="1101.45" y1="584.268" x2="274.858" y2="-246.988" gradientUnits="userSpaceOnUse">
            <stop stop-color="#9D9D9D" stop-opacity="0.24"/>
            <stop offset="0.442745" stop-color="#A8A8A8" stop-opacity="0"/>
            <stop offset="1" stop-color="#A9A9A9" stop-opacity="0.24"/>
        </linearGradient>
        <linearGradient id="paint53_linear_21255_141018" x1="1101.45" y1="584.268" x2="274.858" y2="-246.988" gradientUnits="userSpaceOnUse">
            <stop stop-color="#9D9D9D" stop-opacity="0.24"/>
            <stop offset="0.442745" stop-color="#A8A8A8" stop-opacity="0"/>
            <stop offset="1" stop-color="#A9A9A9" stop-opacity="0.24"/>
        </linearGradient>
        <linearGradient id="paint54_linear_21255_141018" x1="1101.45" y1="584.268" x2="274.858" y2="-246.988" gradientUnits="userSpaceOnUse">
            <stop stop-color="#9D9D9D" stop-opacity="0.24"/>
            <stop offset="0.442745" stop-color="#A8A8A8" stop-opacity="0"/>
            <stop offset="1" stop-color="#A9A9A9" stop-opacity="0.24"/>
        </linearGradient>
        <linearGradient id="paint55_linear_21255_141018" x1="1101.45" y1="584.268" x2="274.858" y2="-246.988" gradientUnits="userSpaceOnUse">
            <stop stop-color="#9D9D9D" stop-opacity="0.24"/>
            <stop offset="0.442745" stop-color="#A8A8A8" stop-opacity="0"/>
            <stop offset="1" stop-color="#A9A9A9" stop-opacity="0.24"/>
        </linearGradient>
        <linearGradient id="paint56_linear_21255_141018" x1="1101.45" y1="584.268" x2="274.858" y2="-246.988" gradientUnits="userSpaceOnUse">
            <stop stop-color="#9D9D9D" stop-opacity="0.24"/>
            <stop offset="0.442745" stop-color="#A8A8A8" stop-opacity="0"/>
            <stop offset="1" stop-color="#A9A9A9" stop-opacity="0.24"/>
        </linearGradient>
        <linearGradient id="paint57_linear_21255_141018" x1="1101.45" y1="584.268" x2="274.858" y2="-246.988" gradientUnits="userSpaceOnUse">
            <stop stop-color="#9D9D9D" stop-opacity="0.24"/>
            <stop offset="0.442745" stop-color="#A8A8A8" stop-opacity="0"/>
            <stop offset="1" stop-color="#A9A9A9" stop-opacity="0.24"/>
        </linearGradient>
        <linearGradient id="paint58_linear_21255_141018" x1="1101.45" y1="584.268" x2="274.858" y2="-246.988" gradientUnits="userSpaceOnUse">
            <stop stop-color="#9D9D9D" stop-opacity="0.24"/>
            <stop offset="0.442745" stop-color="#A8A8A8" stop-opacity="0"/>
            <stop offset="1" stop-color="#A9A9A9" stop-opacity="0.24"/>
        </linearGradient>
        <linearGradient id="paint59_linear_21255_141018" x1="445.859" y1="73.25" x2="735.267" y2="73.25" gradientUnits="userSpaceOnUse">
            <stop stop-color="#030308" stop-opacity="0"/>
            <stop offset="0.489726" stop-color="#030308" stop-opacity="0.4"/>
            <stop offset="1" stop-color="#030308" stop-opacity="0"/>
        </linearGradient>
        <linearGradient id="paint60_linear_21255_141018" x1="554" y1="42" x2="595.425" y2="107.016" gradientUnits="userSpaceOnUse">
            <stop stop-color="#6E79AA"/>
            <stop offset="1" stop-color="#56607E"/>
        </linearGradient>
    </defs>
</svg>
