<svg width="192" height="124" viewBox="0 0 192 124" fill="none" xmlns="http://www.w3.org/2000/svg">
    <g opacity="0.2">
        <path
                d="M189.853 56.7036C192.716 59.6846 192.716 64.3154 189.853 67.2965L137.783 121.525C132.848 126.665 124 123.265 124 116.229L124 7.77105C124 0.735255 132.849 -2.66492 137.783 2.47458L189.853 56.7036Z"
                fill="url(#paint0_linear_16570_56182)"/>
        <path opacity="0.56"
              d="M127.853 56.7036C130.716 59.6846 130.716 64.3154 127.853 67.2965L75.7834 121.525C70.8485 126.665 62 123.265 62 116.229L62 7.77105C62 0.735255 70.8485 -2.66492 75.7834 2.47458L127.853 56.7036Z"
              fill="url(#paint1_linear_16570_56182)"/>
        <path opacity="0.3"
              d="M65.8532 56.7036C68.7156 59.6846 68.7156 64.3154 65.8532 67.2965L13.7834 121.525C8.8485 126.665 -3.15858e-07 123.265 0 116.229L4.869e-06 7.77105C5.18485e-06 0.735255 8.8485 -2.66492 13.7834 2.47458L65.8532 56.7036Z"
              fill="url(#paint2_linear_16570_56182)"/>
    </g>
    <defs>
        <linearGradient id="paint0_linear_16570_56182" x1="192" y1="62" x2="124" y2="62"
                        gradientUnits="userSpaceOnUse">
            <stop stop-color="white" stop-opacity="0.6"/>
            <stop offset="1" stop-color="white" stop-opacity="0"/>
        </linearGradient>
        <linearGradient id="paint1_linear_16570_56182" x1="130" y1="62" x2="62" y2="62"
                        gradientUnits="userSpaceOnUse">
            <stop stop-color="white" stop-opacity="0.6"/>
            <stop offset="1" stop-color="white" stop-opacity="0"/>
        </linearGradient>
        <linearGradient id="paint2_linear_16570_56182" x1="68" y1="62" x2="-5.92169e-07" y2="62"
                        gradientUnits="userSpaceOnUse">
            <stop stop-color="white" stop-opacity="0.6"/>
            <stop offset="1" stop-color="white" stop-opacity="0"/>
        </linearGradient>
    </defs>
</svg>