<svg width="72" height="72" viewBox="0 0 72 72" fill="none" xmlns="http://www.w3.org/2000/svg">
    <path opacity="0.7" fill-rule="evenodd" clip-rule="evenodd"
          d="M36.12 0.780443L36 0.714844L35.88 0.780443L3.88005 18.2804L3.75 18.3516V18.4998V53.4998V53.648L3.88005 53.7191L35.88 71.2191L36 71.2847L36.12 71.2191L68.12 53.7191L68.25 53.648V53.4998V18.4998V18.3516L68.12 18.2804L36.12 0.780443ZM4.25 18.9281V53.0783L35.4745 36.0008L4.25 18.9281ZM4.52124 53.4999L36 70.7148L67.4788 53.4999L35.9956 36.2857L4.52124 53.4999ZM67.75 53.0783V18.9183L36.5166 36.0007L67.75 53.0783ZM67.4761 18.4982L36 1.28473L4.51499 18.5031L35.9956 35.7158L67.4761 18.4982Z"
          fill="#030308" fill-opacity="0.8"/>
    <circle cx="4" cy="18" r="2" fill="#030308" fill-opacity="0.8"/>
    <circle cx="68" cy="18" r="2" fill="#030308" fill-opacity="0.8"/>
    <circle cx="4" cy="54" r="2" fill="#030308" fill-opacity="0.8"/>
    <circle cx="68" cy="54" r="2" fill="#030308" fill-opacity="0.8"/>
    <circle cx="36" cy="36" r="16" fill="#F69C00"/>
    <path fill-rule="evenodd" clip-rule="evenodd"
          d="M41.5 38.0192V36.5H44.5V42C44.5 42.8284 43.8284 43.5 43 43.5C42.1716 43.5 41.5 42.8284 41.5 42V38.0192ZM40 45.5H43C44.933 45.5 46.5 43.933 46.5 42V35.5C46.5 34.9477 46.0523 34.5 45.5 34.5H41.5V27.5C41.5 26.9477 41.0523 26.5 40.5 26.5H27.5C26.9477 26.5 26.5 26.9477 26.5 27.5V41.5C26.5 43.7091 28.2909 45.5 30.5 45.5H40ZM31.5 32C31.2239 32 31 32.2239 31 32.5V33.5C31 33.7761 31.2239 34 31.5 34H36.5C36.7761 34 37 33.7761 37 33.5V32.5C37 32.2239 36.7761 32 36.5 32H31.5ZM31 36.5C31 36.2239 31.2239 36 31.5 36H36.5C36.7761 36 37 36.2239 37 36.5V37.5C37 37.7761 36.7761 38 36.5 38H31.5C31.2239 38 31 37.7761 31 37.5V36.5Z"
          fill="white"/>
</svg>