<svg width="64" height="64" viewBox="0 0 64 64" fill="none" xmlns="http://www.w3.org/2000/svg">
    <g clip-path="url(#clip0_17159_71138)">
        <path d="M32.0002 58.6666C46.7278 58.6666 58.6668 46.7275 58.6668 31.9999C58.6668 17.2723 46.7278 5.33325 32.0002 5.33325C17.2726 5.33325 5.3335 17.2723 5.3335 31.9999C5.3335 46.7275 17.2726 58.6666 32.0002 58.6666Z" fill="url(#paint0_linear_17159_71138)"/>
        <path fill-rule="evenodd" clip-rule="evenodd" d="M31.9214 49.7081C26.7316 49.7041 22.5511 48.4588 19.6301 46.222C16.6741 43.9583 15.106 40.7459 15.106 37.111C15.106 33.6085 16.6707 31.083 18.4411 29.3759C19.8286 28.038 21.3597 27.1812 22.4258 26.6884C22.1848 25.9485 21.884 24.9798 21.6148 23.9794C21.2548 22.6406 20.9015 21.0699 20.9015 19.9189C20.9015 18.5565 21.1986 17.1883 21.9995 16.1251C22.8456 15.0019 24.1195 14.4001 25.652 14.4001C26.8496 14.4001 27.8665 14.8444 28.6626 15.6108C29.4235 16.3434 29.93 17.3163 30.2796 18.3305C30.8941 20.1125 31.1333 22.3515 31.2005 24.5858H32.6683C32.7355 22.3515 32.9747 20.1125 33.5892 18.3305C33.9388 17.3163 34.4453 16.3434 35.2062 15.6108C36.0023 14.8444 37.0191 14.4001 38.2168 14.4001C39.7493 14.4001 41.0232 15.0019 41.8693 16.1251C42.6702 17.1883 42.9673 18.5565 42.9673 19.9189C42.9673 21.0699 42.614 22.6406 42.2539 23.9794C41.9848 24.9798 41.684 25.9485 41.4429 26.6884C42.5091 27.1812 44.0402 28.038 45.4276 29.3759C47.1981 31.083 48.7628 33.6085 48.7628 37.111C48.7628 40.7459 47.1947 43.9583 44.2387 46.222C41.3177 48.4588 37.1372 49.7041 31.9474 49.7081H31.9214Z" fill="#633001"/>
        <path d="M25.6519 15.6958C23.4073 15.6958 22.3741 17.3874 22.3741 19.7269C22.3741 21.5864 23.5747 25.3106 24.0672 26.7604C24.178 27.0864 24.0039 27.4437 23.6864 27.5701C21.8875 28.2867 16.5786 30.9104 16.5786 36.919C16.5786 43.2485 21.9736 48.0209 31.9225 48.0285C31.9264 48.0285 31.9304 48.0285 31.9344 48.0285C31.9383 48.0285 31.9423 48.0285 31.9463 48.0285C41.8951 48.0209 47.2902 43.2485 47.2902 36.919C47.2902 30.9104 41.9813 28.2867 40.1823 27.5701C39.8648 27.4437 39.6908 27.0864 39.8016 26.7604C40.2941 25.3106 41.4946 21.5864 41.4946 19.7269C41.4946 17.3874 40.4614 15.6958 38.2168 15.6958C34.9858 15.6958 34.1804 20.3193 34.123 25.2815C34.1192 25.6127 33.8541 25.8815 33.5261 25.8815H30.3427C30.0147 25.8815 29.7496 25.6127 29.7458 25.2815C29.6883 20.3193 28.8829 15.6958 25.6519 15.6958Z" fill="#D1884F"/>
        <path d="M31.9463 46.001C24.6363 46.001 16.5912 42.0482 16.5786 36.9312C16.5786 36.9392 16.5786 36.9472 16.5786 36.9551C16.5786 43.2897 21.9822 48.0646 31.9463 48.0646C41.9103 48.0646 47.3139 43.2897 47.3139 36.9551C47.3139 36.9472 47.3139 36.9392 47.3139 36.9312C47.3013 42.0482 39.2562 46.001 31.9463 46.001Z" fill="#FEDC90"/>
        <path d="M27.8847 35.3596C27.8847 37.0872 27.0765 37.987 26.0796 37.987C25.0826 37.987 24.2744 37.0872 24.2744 35.3596C24.2744 33.632 25.0826 32.7322 26.0796 32.7322C27.0765 32.7322 27.8847 33.632 27.8847 35.3596Z" fill="#633001"/>
        <path d="M39.6181 35.3596C39.6181 37.0872 38.81 37.987 37.813 37.987C36.816 37.987 36.0078 37.0872 36.0078 35.3596C36.0078 33.632 36.816 32.7322 37.813 32.7322C38.81 32.7322 39.6181 33.632 39.6181 35.3596Z" fill="#633001"/>
    </g>
    <defs>
        <linearGradient id="paint0_linear_17159_71138" x1="32.0002" y1="5.33325" x2="32.0002" y2="58.6666" gradientUnits="userSpaceOnUse">
            <stop stop-color="#53DEE9"/>
            <stop offset="1" stop-color="#1FC7D4"/>
        </linearGradient>
        <clipPath id="clip0_17159_71138">
            <rect width="53.3333" height="53.3333" fill="white" transform="translate(5.3335 5.33325)"/>
        </clipPath>
    </defs>
</svg>
