<svg width="502" height="502" viewBox="0 0 502 502" fill="none" xmlns="http://www.w3.org/2000/svg">
    <circle opacity="0.5" cx="174.955" cy="47.5771" r="4.75285" fill="#F7DD99"/>
    <circle opacity="0.5" cx="251" cy="251.001" r="159.696" stroke="#171A1F" stroke-width="0.5"/>
    <circle opacity="0.3" cx="251.476" cy="250.525" r="186.787" stroke="#171A1F" stroke-width="0.5"/>
    <circle opacity="0.1" cx="251" cy="251" r="216.73" stroke="#171A1F" stroke-width="0.5"/>
    <circle opacity="0.1" cx="251" cy="251" r="250" stroke="#F7DD99" stroke-width="0.5"/>
    <circle cx="420.202" cy="169.251" r="4.75285" fill="#E4E5EC"/>
    <circle cx="251.951" cy="437.311" r="4.75285" fill="#E4E5EC"/>
    <circle cx="92.2548" cy="264.308" r="4.75285" fill="#E4E5EC"/>
    <circle cx="251" cy="251" r="129.383" fill="#FBFCFF" stroke="#171A1F" stroke-width="0.5"/>
    <ellipse opacity="0.7" cx="59.8808" cy="128.316" rx="59.8808" ry="128.316" transform="matrix(0.707131 -0.707083 0.707131 0.707083 117.92 202.619)" stroke="#171A1F" stroke-width="0.5"/>
    <ellipse opacity="0.7" cx="59.8808" cy="128.316" rx="59.8808" ry="128.316" transform="matrix(-0.707131 -0.707083 0.707131 -0.707083 202.607 384.065)" stroke="#171A1F" stroke-width="0.5"/>
    <circle cx="158.583" cy="158.583" r="7.39333" fill="#EAAA00" fill-opacity="0.4"/>
    <circle cx="343.416" cy="158.583" r="7.39333" fill="#EAAA00" fill-opacity="0.4"/>
    <circle cx="158.583" cy="343.416" r="7.39333" fill="#EAAA00" fill-opacity="0.4"/>
    <circle cx="343.416" cy="343.416" r="7.39333" fill="#EAAA00" fill-opacity="0.4"/>
    <circle cx="251" cy="251" r="64.6" fill="#171A1F"/>
    <path d="M251.982 216.681H232.831L209.319 281.281H222.209L231.026 257.056H266.677L262.269 244.944H235.434L241.312 228.794H256.391L251.982 216.681Z" fill="white"/>
    <path d="M273.577 228.794L269.169 216.681H256.279L260.687 228.794H273.577Z" fill="#F69C00"/>
    <path d="M262.157 232.831H275.047L292.681 281.281H279.791L262.157 232.831Z" fill="white"/>
    <g clip-path="url(#clip0_17159_70945)">
        <path d="M75 214C78.1645 214 81.2579 213.062 83.8891 211.304C86.5203 209.545 88.5711 207.047 89.7821 204.123C90.9931 201.199 91.3099 197.982 90.6926 194.879C90.0752 191.775 88.5513 188.924 86.3137 186.686C84.0761 184.449 81.2251 182.925 78.1214 182.307C75.0177 181.69 71.8007 182.007 68.8771 183.218C65.9534 184.429 63.4546 186.48 61.6965 189.111C59.9384 191.742 59 194.836 59 198C59 202.243 60.6857 206.313 63.6863 209.314C66.6869 212.314 70.7565 214 75 214Z" fill="#C0E79B"/>
        <path d="M76.7708 195.375V193.241H81.6668V190H68.3454V193.244H73.2374V195.377C69.2628 195.559 66.2734 196.343 66.2734 197.28C66.2734 198.217 69.2641 199 73.2374 199.184V206H76.7748V199.183C80.7441 199 83.7268 198.217 83.7268 197.279C83.7268 196.34 80.7414 195.557 76.7708 195.375ZM76.7708 198.607C76.6708 198.607 76.1588 198.643 75.0174 198.643C74.1041 198.643 73.4641 198.62 73.2361 198.607C69.7268 198.451 67.1028 197.843 67.1028 197.116C67.1028 196.389 69.7228 195.783 73.2361 195.625V198C73.4681 198.016 74.1228 198.056 75.0334 198.056C76.1241 198.056 76.6708 198.012 76.7748 198V195.621C80.2814 195.776 82.8961 196.384 82.8961 197.112C82.8961 197.84 80.2774 198.447 76.7761 198.607H76.7708Z" fill="#26A17B"/>
    </g>
    <g clip-path="url(#clip1_17159_70945)">
        <path d="M334 403C337.165 403 340.258 402.062 342.889 400.304C345.52 398.545 347.571 396.047 348.782 393.123C349.993 390.199 350.31 386.982 349.693 383.879C349.075 380.775 347.551 377.924 345.314 375.686C343.076 373.449 340.225 371.925 337.121 371.307C334.018 370.69 330.801 371.007 327.877 372.218C324.953 373.429 322.455 375.48 320.696 378.111C318.938 380.742 318 383.836 318 387C318 391.243 319.686 395.313 322.686 398.314C325.687 401.314 329.757 403 334 403Z" fill="#C0E79B"/>
        <path d="M335.771 384.375V382.241H340.667V379H327.345V382.244H332.237V384.377C328.263 384.559 325.273 385.343 325.273 386.28C325.273 387.217 328.264 388 332.237 388.184V395H335.775V388.183C339.744 388 342.727 387.217 342.727 386.279C342.727 385.34 339.741 384.557 335.771 384.375ZM335.771 387.607C335.671 387.607 335.159 387.643 334.017 387.643C333.104 387.643 332.464 387.62 332.236 387.607C328.727 387.451 326.103 386.843 326.103 386.116C326.103 385.389 328.723 384.783 332.236 384.625V387C332.468 387.016 333.123 387.056 334.033 387.056C335.124 387.056 335.671 387.012 335.775 387V384.621C339.281 384.776 341.896 385.384 341.896 386.112C341.896 386.84 339.277 387.447 335.776 387.607H335.771Z" fill="#26A17B"/>
    </g>
    <g clip-path="url(#clip2_17159_70945)">
        <path d="M456.842 246C456.842 256.442 448.377 264.907 437.935 264.907C427.492 264.907 419.027 256.442 419.027 246C419.027 235.557 427.492 227.092 437.935 227.092C448.377 227.092 456.842 235.557 456.842 246Z" fill="#F7931A"/>
        <path d="M442.525 251.525C442.448 251.787 442.32 252.031 442.148 252.243C441.976 252.455 441.763 252.63 441.523 252.76C441.283 252.89 441.02 252.972 440.748 253C440.477 253.028 440.203 253.002 439.941 252.924L434.617 251.338L435.803 247.355L441.127 248.941H441.127C442.225 249.268 442.852 250.428 442.525 251.525ZM444.321 243.364C444.452 243.604 444.533 243.867 444.561 244.139C444.589 244.41 444.564 244.685 444.485 244.946C444.158 246.044 442.998 246.67 441.901 246.344H441.901L436.576 244.758L437.762 240.776L443.087 242.362C443.349 242.439 443.592 242.567 443.804 242.739C444.016 242.911 444.192 243.124 444.321 243.364ZM446.704 242.075C446.096 240.95 445.086 240.129 443.86 239.764L443.156 239.555L444.142 236.243L441.612 235.49L440.625 238.801L438.465 238.158L439.451 234.846L438.845 234.666L436.39 233.934L435.439 237.126L432.446 236.235L431.602 239.071L434.594 239.963L431.52 250.286L428.527 249.394L427.683 252.231L430.675 253.122L429.873 255.816L430.479 255.996L432.934 256.728L433.772 253.914L435.938 254.559L435.1 257.373L437.62 258.123L438.458 255.31L439.167 255.521C439.613 255.654 440.076 255.722 440.541 255.722C441.325 255.722 442.103 255.527 442.812 255.143C443.937 254.535 444.757 253.525 445.123 252.299C445.506 251.01 445.317 249.685 444.706 248.595C445.815 248.016 446.698 247.009 447.082 245.719C447.447 244.494 447.313 243.199 446.704 242.075Z" fill="white"/>
    </g>
    <g clip-path="url(#clip3_17159_70945)">
        <path d="M275 92C275 104.148 265.149 113.996 252.995 113.998C240.849 113.998 230.998 104.148 231 91.9982C230.996 79.849 240.847 70 252.998 70C265.149 70 275 79.8507 275 92Z" fill="#EAB300"/>
        <path d="M253.004 83.477L258.971 89.3823L262.439 85.9439L253.004 76.6001L243.568 85.9439L247.036 89.3823L253.004 83.477Z" fill="white"/>
        <path d="M241.069 88.3919L237.601 91.8303L241.069 95.2688L244.547 91.8303L241.069 88.3919Z" fill="white"/>
        <path d="M261.46 91.8303L264.938 88.3919L268.406 91.8303L264.938 95.2688L261.46 91.8303Z" fill="white"/>
        <path d="M253.004 100.202L247.036 94.297L243.568 97.7354L253.004 107.079L262.439 97.7354L258.971 94.297L253.004 100.202Z" fill="white"/>
        <path d="M256.472 91.8491L253.004 95.2876L249.535 91.8491L253.004 88.4107L256.472 91.8491Z" fill="white"/>
    </g>
    <circle cx="102" cy="407" r="15" fill="#D8DFFF"/>
    <path d="M101.959 398L101.84 398.405V410.166L101.959 410.285L107.418 407.058L101.959 398Z" fill="#343434"/>
    <path d="M101.959 398L96.5 407.058L101.959 410.285V404.577V398Z" fill="#8C8C8C"/>
    <path d="M101.959 411.318L101.892 411.4V415.59L101.959 415.786L107.421 408.093L101.959 411.318Z" fill="#3C3C3B"/>
    <path d="M101.959 415.786V411.318L96.5 408.093L101.959 415.786Z" fill="#8C8C8C"/>
    <path d="M101.959 410.285L107.418 407.058L101.959 404.577V410.285Z" fill="#141414"/>
    <path d="M96.5 407.058L101.959 410.285V404.577L96.5 407.058Z" fill="#393939"/>
    <defs>
        <clipPath id="clip0_17159_70945">
            <rect width="32" height="32" fill="white" transform="translate(59 182)"/>
        </clipPath>
        <clipPath id="clip1_17159_70945">
            <rect width="32" height="32" fill="white" transform="translate(318 371)"/>
        </clipPath>
        <clipPath id="clip2_17159_70945">
            <rect width="38" height="38" fill="white" transform="translate(419 227)"/>
        </clipPath>
        <clipPath id="clip3_17159_70945">
            <rect width="44" height="44" fill="white" transform="translate(231 70)"/>
        </clipPath>
    </defs>
</svg>
