<svg width="72" height="72" viewBox="0 0 72 72" fill="none" xmlns="http://www.w3.org/2000/svg">
    <path opacity="0.7" fill-rule="evenodd" clip-rule="evenodd"
          d="M36.1502 0.80006L36.0001 0.6875L35.8501 0.80006L18.9249 13.4981L1.61826 25.6709L1.46484 25.7788L1.52553 25.9563L1.9492 27.1952L1.93694 27.2419L1.96796 27.2501L8.3719 45.977L8.37314 45.9806L14.6009 66.1982L14.6561 66.3775L14.8437 66.3746L15.1292 66.3702L14.7943 66.8588L15.2067 67.1415L15.7418 66.3608L35.9963 66.05H36.004L56.2718 66.361L56.7927 67.1392L57.2082 66.8611L56.8798 66.3704L57.1566 66.3746L57.3441 66.3775L57.3993 66.1982L63.6284 45.9769L63.6295 45.9733L70.0322 27.2504L70.0649 27.2417L70.0518 27.1928L70.4747 25.9563L70.5354 25.7788L70.382 25.6709L53.0784 13.5004L53.0753 13.4981L36.1502 0.80006ZM69.6454 26.8361L69.9409 25.972L52.7845 13.9048L52.7782 13.9004L52.7783 13.9003L36.0001 1.31257L19.2219 13.9003L19.2158 13.9049L19.2157 13.9048L2.05932 25.972L2.35431 26.8346L36.0005 35.676V2.00015H36.5005V35.6747L69.6454 26.8361ZM2.54856 27.4027L8.84624 45.8188L8.84872 45.8261L8.84861 45.8261L15.0236 65.8718L15.4756 65.8649L35.8435 36.1517L2.54856 27.4027ZM16.0882 65.8555L35.9963 65.5501L36.004 65.5499L36.004 65.5501L55.9337 65.8558L36.248 36.4459L16.0882 65.8555ZM56.5416 65.8651L56.9767 65.8718L63.1516 45.8261L63.1539 45.8188L63.154 45.8188L69.4507 27.4055L36.6527 36.1516L56.5416 65.8651Z"
          fill="#030308" fill-opacity="0.8"/>
    <circle cx="36" cy="36" r="2" fill="#030308" fill-opacity="0.8"/>
    <circle cx="36" cy="2" r="2" fill="#030308" fill-opacity="0.8"/>
    <circle cx="15" cy="66" r="2" fill="#030308" fill-opacity="0.8"/>
    <circle cx="57" cy="66" r="2" fill="#030308" fill-opacity="0.8"/>
    <circle cx="70" cy="26" r="2" fill="#030308" fill-opacity="0.8"/>
    <circle cx="2" cy="26" r="2" fill="#030308" fill-opacity="0.8"/>
    <circle cx="36" cy="36" r="16" fill="#F69C00"/>
    <path
            d="M46 39.5C46 42.2614 43.7614 44.5 41 44.5C40.1045 44.5 39.2641 44.2646 38.5371 43.8523C37.2572 43.1265 36.329 41.8523 36.0718 40.3491C36.0246 40.0731 36 39.7895 36 39.5C36 38.2162 36.4839 37.0453 37.2793 36.1599C38.1946 35.1409 39.5224 34.5 41 34.5C43.7614 34.5 46 36.7386 46 39.5Z"
            fill="white"/>
    <path fill-rule="evenodd" clip-rule="evenodd"
          d="M41 35.5C39.818 35.5 38.7569 36.0114 38.0232 36.8282C37.3863 37.5372 37 38.4723 37 39.5C37 39.7327 37.0198 39.96 37.0575 40.1805M36.5353 35.4916C37.6323 34.2704 39.2269 33.5 41 33.5C44.3137 33.5 47 36.1863 47 39.5C47 42.8137 44.3137 45.5 41 45.5C39.9271 45.5 38.9172 45.2175 38.0437 44.7222C36.5099 43.8523 35.3952 42.3246 35.0861 40.5178C35.0294 40.1864 35 39.8462 35 39.5C35 37.96 35.5815 36.5534 36.5353 35.4916ZM41 35.5C43.2091 35.5 45 37.2909 45 39.5L41 35.5ZM45 39.5C45 41.7091 43.2091 43.5 41 43.5L45 39.5ZM37.0575 40.1805C37.2627 41.38 38.0045 42.4006 39.0304 42.9824C39.6109 43.3117 40.282 43.5 41 43.5"
          fill="white"/>
    <path
            d="M41 30V34.5C39.5224 34.5 38.1946 35.1409 37.2793 36.1599C36.4839 37.0453 36 38.2162 36 39.5C36 39.7894 36.0246 40.0731 36.0718 40.3491C36.329 41.8523 37.2572 43.1265 38.5371 43.8523C37.2058 44.2548 35.4388 44.5 33.5 44.5C29.3579 44.5 26 43.3807 26 42V30"
            stroke="white" stroke-width="2" stroke-linecap="round" stroke-linejoin="round"/>
    <path
            d="M41 30C41 31.3807 37.6421 32.5 33.5 32.5C29.3579 32.5 26 31.3807 26 30C26 28.6193 29.3579 27.5 33.5 27.5C37.6421 27.5 41 28.6193 41 30Z"
            fill="white"/>
    <path fill-rule="evenodd" clip-rule="evenodd"
          d="M27.0171 30C27.0431 29.9626 27.0978 29.8995 27.2084 29.8123C27.4626 29.6119 27.8925 29.3877 28.5129 29.1809C29.7432 28.7708 31.5065 28.5 33.5 28.5C35.4935 28.5 37.2568 28.7708 38.4871 29.1809C39.1075 29.3877 39.5374 29.6119 39.7916 29.8123C39.9022 29.8995 39.9569 29.9626 39.9829 30C39.9569 30.0374 39.9022 30.1005 39.7916 30.1877C39.5374 30.3881 39.1075 30.6123 38.4871 30.8191C37.2568 31.2292 35.4935 31.5 33.5 31.5C31.5065 31.5 29.7432 31.2292 28.5129 30.8191C27.8925 30.6123 27.4626 30.3881 27.2084 30.1877C27.0978 30.1005 27.0431 30.0374 27.0171 30ZM27.8805 27.2836C29.3646 26.7888 31.3514 26.5 33.5 26.5C35.6486 26.5 37.6354 26.7888 39.1195 27.2836C39.8564 27.5292 40.5248 27.8437 41.0296 28.2415C41.5231 28.6304 42 29.2171 42 30C42 30.7829 41.5231 31.3696 41.0296 31.7585C40.5248 32.1563 39.8564 32.4708 39.1195 32.7164C37.6354 33.2112 35.6486 33.5 33.5 33.5C31.3514 33.5 29.3646 33.2112 27.8805 32.7164C27.1436 32.4708 26.4752 32.1563 25.9704 31.7585C25.4769 31.3696 25 30.7829 25 30C25 29.2171 25.4769 28.6304 25.9704 28.2415C26.4752 27.8437 27.1436 27.5292 27.8805 27.2836Z"
          fill="white"/>
    <path d="M26 38C26 39.3807 29.3579 40.5 33.5 40.5C34.4035 40.5 35.2697 40.4467 36.0718 40.3491"
          stroke="white" stroke-width="2" stroke-linecap="round" stroke-linejoin="round"/>
    <path d="M26 34C26 35.3807 29.3579 36.5 33.5 36.5C34.8781 36.5 36.1695 36.3761 37.2793 36.1599"
          stroke="white" stroke-width="2" stroke-linecap="round" stroke-linejoin="round"/>
    <path d="M41 37V42M41 42L43 40M41 42L39 40" stroke="#F69C00" stroke-width="2" stroke-linecap="round"
          stroke-linejoin="round"/>
</svg>