<svg width="254" height="80" viewBox="0 0 254 80" fill="none" xmlns="http://www.w3.org/2000/svg">
    <path fill-rule="evenodd" clip-rule="evenodd"
          d="M247.066 37.6465C247.262 37.8418 247.262 38.1584 247.066 38.3536L238.581 46.8389C238.386 47.0342 238.069 47.0342 237.874 46.8389L237.146 46.111C236.951 45.9157 236.951 45.5992 237.146 45.4039L244.55 38.0001L237.146 30.5962C236.951 30.401 236.951 30.0844 237.146 29.8891L237.874 29.1612C238.069 28.966 238.386 28.966 238.581 29.1612L247.066 37.6465Z"
          fill="white"/>
    <g opacity="0.4">
        <path
                d="M189.853 34.7036C192.716 37.6846 192.716 42.3154 189.853 45.2965L137.783 99.5254C132.848 104.665 124 101.265 124 94.229L124 -14.229C124 -21.2647 132.849 -24.6649 137.783 -19.5254L189.853 34.7036Z"
                fill="url(#paint0_linear_16119_26324)"/>
        <path opacity="0.56"
              d="M127.853 34.7036C130.716 37.6846 130.716 42.3154 127.853 45.2965L75.7834 99.5254C70.8485 104.665 62 101.265 62 94.229L62 -14.229C62 -21.2647 70.8485 -24.6649 75.7834 -19.5254L127.853 34.7036Z"
              fill="url(#paint1_linear_16119_26324)"/>
        <path opacity="0.3"
              d="M65.8532 34.7036C68.7156 37.6846 68.7156 42.3154 65.8532 45.2965L13.7834 99.5254C8.8485 104.665 -3.15858e-07 101.265 0 94.229L4.869e-06 -14.229C5.18485e-06 -21.2647 8.8485 -24.6649 13.7834 -19.5254L65.8532 34.7036Z"
              fill="url(#paint2_linear_16119_26324)"/>
    </g>
    <defs>
        <linearGradient id="paint0_linear_16119_26324" x1="192" y1="40" x2="124" y2="40"
                        gradientUnits="userSpaceOnUse">
            <stop stop-color="white" stop-opacity="0.6"/>
            <stop offset="1" stop-color="white" stop-opacity="0"/>
        </linearGradient>
        <linearGradient id="paint1_linear_16119_26324" x1="130" y1="40" x2="62" y2="40"
                        gradientUnits="userSpaceOnUse">
            <stop stop-color="white" stop-opacity="0.6"/>
            <stop offset="1" stop-color="white" stop-opacity="0"/>
        </linearGradient>
        <linearGradient id="paint2_linear_16119_26324" x1="68" y1="40" x2="-5.92169e-07" y2="40"
                        gradientUnits="userSpaceOnUse">
            <stop stop-color="white" stop-opacity="0.6"/>
            <stop offset="1" stop-color="white" stop-opacity="0"/>
        </linearGradient>
    </defs>
</svg>