<svg width="72" height="72" viewBox="0 0 72 72" fill="none" xmlns="http://www.w3.org/2000/svg">
    <circle opacity="0.7" cx="36" cy="36" r="35" stroke="#030308" stroke-opacity="0.8" stroke-width="0.5"/>
    <ellipse opacity="0.7" cx="16.1986" cy="34.7113" rx="16.1986" ry="34.7113"
             transform="matrix(0.707131 -0.707083 0.707131 0.707083 0 22.9121)" stroke="#030308"
             stroke-opacity="0.8" stroke-width="0.5"/>
    <ellipse opacity="0.7" cx="16.1986" cy="34.7113" rx="16.1986" ry="34.7113"
             transform="matrix(-0.707131 -0.707083 0.707131 -0.707083 22.9092 71.9961)" stroke="#030308"
             stroke-opacity="0.8" stroke-width="0.5"/>
    <circle cx="11" cy="11" r="2" fill="#030308" fill-opacity="0.8"/>
    <circle cx="61" cy="11" r="2" fill="#030308" fill-opacity="0.8"/>
    <circle cx="11" cy="61" r="2" fill="#030308" fill-opacity="0.8"/>
    <circle cx="61" cy="61" r="2" fill="#030308" fill-opacity="0.8"/>
    <circle cx="36" cy="36" r="16" fill="#F69C00"/>
    <path fill-rule="evenodd" clip-rule="evenodd"
          d="M28.5 26C27.1193 26 26 27.1193 26 28.5V43.5C26 44.8807 27.1193 46 28.5 46H43.5C44.8807 46 46 44.8807 46 43.5V28.5C46 27.1193 44.8807 26 43.5 26H28.5ZM41.7071 34.2071C42.0976 33.8166 42.0976 33.1834 41.7071 32.7929C41.3166 32.4024 40.6834 32.4024 40.2929 32.7929L36 37.0858L31.7071 32.7929C31.3166 32.4024 30.6834 32.4024 30.2929 32.7929C29.9024 33.1834 29.9024 33.8166 30.2929 34.2071L35.2929 39.2071C35.6834 39.5976 36.3166 39.5976 36.7071 39.2071L41.7071 34.2071Z"
          fill="white"/>
</svg>