<svg width="192" height="120" viewBox="0 0 192 120" fill="none" xmlns="http://www.w3.org/2000/svg">
    <g opacity="0.4">
        <path
                d="M189.853 54.7036C192.716 57.6846 192.716 62.3154 189.853 65.2965L137.783 119.525C132.848 124.665 124 121.265 124 114.229L124 5.77105C124 -1.26475 132.849 -4.66492 137.783 0.474582L189.853 54.7036Z"
                fill="url(#paint0_linear_16800_42438)"/>
        <path opacity="0.56"
              d="M127.853 54.7036C130.716 57.6846 130.716 62.3154 127.853 65.2965L75.7834 119.525C70.8485 124.665 62 121.265 62 114.229L62 5.77105C62 -1.26475 70.8485 -4.66492 75.7834 0.474582L127.853 54.7036Z"
              fill="url(#paint1_linear_16800_42438)"/>
        <path opacity="0.3"
              d="M65.8532 54.7036C68.7156 57.6846 68.7156 62.3154 65.8532 65.2965L13.7834 119.525C8.8485 124.665 -3.15858e-07 121.265 0 114.229L4.869e-06 5.77105C5.18485e-06 -1.26475 8.8485 -4.66492 13.7834 0.474582L65.8532 54.7036Z"
              fill="url(#paint2_linear_16800_42438)"/>
    </g>
    <defs>
        <linearGradient id="paint0_linear_16800_42438" x1="192" y1="60" x2="124" y2="60"
                        gradientUnits="userSpaceOnUse">
            <stop stop-color="white" stop-opacity="0.6"/>
            <stop offset="1" stop-color="white" stop-opacity="0"/>
        </linearGradient>
        <linearGradient id="paint1_linear_16800_42438" x1="130" y1="60" x2="62" y2="60"
                        gradientUnits="userSpaceOnUse">
            <stop stop-color="white" stop-opacity="0.6"/>
            <stop offset="1" stop-color="white" stop-opacity="0"/>
        </linearGradient>
        <linearGradient id="paint2_linear_16800_42438" x1="68" y1="60" x2="-5.92169e-07" y2="60"
                        gradientUnits="userSpaceOnUse">
            <stop stop-color="white" stop-opacity="0.6"/>
            <stop offset="1" stop-color="white" stop-opacity="0"/>
        </linearGradient>
    </defs>
</svg>