<svg width="64" height="64" viewBox="0 0 64 64" fill="none" xmlns="http://www.w3.org/2000/svg">
    <path d="M32.0002 58.6666C46.7278 58.6666 58.6668 46.7275 58.6668 31.9999C58.6668 17.2723 46.7278 5.33325 32.0002 5.33325C17.2726 5.33325 5.3335 17.2723 5.3335 31.9999C5.3335 46.7275 17.2726 58.6666 32.0002 58.6666Z" fill="#F69C00"/>
    <path fill-rule="evenodd" clip-rule="evenodd" d="M33.4276 19.2052C33.9483 18.6845 34.7925 18.6845 35.3132 19.2052L43.6095 27.5015C43.9908 27.8828 44.1049 28.4563 43.8985 28.9546C43.6922 29.4528 43.206 29.7777 42.6667 29.7777H21.3334C20.597 29.7777 20 29.1807 20 28.4443C20 27.7079 20.597 27.111 21.3334 27.111H39.4478L33.4276 21.0908C32.9069 20.5701 32.9069 19.7259 33.4276 19.2052ZM20.1015 35.0452C20.3079 34.547 20.7941 34.2221 21.3334 34.2221H42.6667C43.4031 34.2221 44 34.8191 44 35.5554C44 36.2918 43.4031 36.8888 42.6667 36.8888H24.5523L30.5725 42.9089C31.0932 43.4296 31.0932 44.2738 30.5725 44.7945C30.0518 45.3152 29.2076 45.3152 28.6869 44.7945L20.3906 36.4982C20.0092 36.1169 19.8952 35.5434 20.1015 35.0452Z" fill="#030308"/>
</svg>
