<svg width="144" height="48" viewBox="0 0 144 48" fill="none" xmlns="http://www.w3.org/2000/svg">
    <g clip-path="url(#clip0_20371_109051)">
        <path d="M61.181 17.7315V24.8265H54.0956V18.6183C54.0962 18.5017 54.0736 18.3863 54.0294 18.2785C53.9851 18.1707 53.9199 18.0728 53.8375 17.9904C53.7552 17.9079 53.6574 17.8426 53.5497 17.7982C53.442 17.7537 53.3265 17.7311 53.21 17.7315H50.75V34.7793C50.7495 34.8958 50.772 35.0112 50.8163 35.119C50.8606 35.2268 50.9258 35.3247 51.0081 35.4071C51.0904 35.4896 51.1883 35.5549 51.296 35.5993C51.4037 35.6438 51.5191 35.6664 51.6356 35.666H53.9972V27.6849H61.0844V34.6814C61.0839 34.798 61.1064 34.9134 61.1507 35.0212C61.195 35.129 61.2602 35.2269 61.3425 35.3093C61.4248 35.3918 61.5227 35.4571 61.6304 35.5015C61.7381 35.546 61.8535 35.5687 61.97 35.5683H64.3316V18.6183C64.3322 18.5017 64.3096 18.3863 64.2654 18.2785C64.2211 18.1707 64.1559 18.0728 64.0735 17.9904C63.9912 17.9079 63.8934 17.8426 63.7857 17.7982C63.678 17.7537 63.5625 17.7311 63.446 17.7315H61.181Z" fill="#030308" fill-opacity="0.8"/>
        <path d="M75.1535 22.1602V30.7366C75.1588 31.1171 75.0612 31.492 74.8711 31.8217C74.681 32.1513 74.4054 32.4236 74.0735 32.6098C73.6985 32.8487 73.2666 32.9833 72.8222 32.9995C72.3779 33.0158 71.9372 32.9131 71.5458 32.7021C71.1544 32.4911 70.8264 32.1794 70.5957 31.7993C70.365 31.4192 70.24 30.9844 70.2335 30.5398V23.0476C70.2342 22.931 70.2117 22.8155 70.1674 22.7076C70.1232 22.5998 70.058 22.5018 69.9757 22.4193C69.8933 22.3368 69.7955 22.2714 69.6877 22.2269C69.58 22.1825 69.4645 22.1598 69.3479 22.1602H66.9863V30.8356C66.9923 32.1917 67.533 33.4907 68.491 34.4505C69.4491 35.4103 70.747 35.9534 72.1031 35.962H73.3823C74.7384 35.9534 76.0364 35.4103 76.9944 34.4505C77.9524 33.4907 78.4932 32.1917 78.4991 30.8356V23.0476C78.4998 22.931 78.4773 22.8155 78.433 22.7076C78.3888 22.5998 78.3236 22.5018 78.2413 22.4193C78.1589 22.3368 78.0611 22.2714 77.9533 22.2269C77.8456 22.1825 77.7301 22.1598 77.6135 22.1602H75.1535Z" fill="#030308" fill-opacity="0.8"/>
        <path d="M111.343 35.5919H113.704V23.4881C113.705 23.3717 113.682 23.2563 113.638 23.1487C113.593 23.041 113.528 22.9432 113.446 22.8609C113.364 22.7785 113.266 22.7133 113.158 22.669C113.05 22.6246 112.935 22.6021 112.819 22.6025H110.457V34.7063C110.457 34.8228 110.479 34.9382 110.523 35.0458C110.568 35.1535 110.633 35.2513 110.715 35.3336C110.798 35.416 110.895 35.4812 111.003 35.5255C111.111 35.5698 111.226 35.5924 111.343 35.5919Z" fill="#030308" fill-opacity="0.8"/>
        <path d="M112.118 21.3484C112.49 21.3484 112.854 21.238 113.163 21.0312C113.473 20.8244 113.714 20.5304 113.857 20.1865C113.999 19.8425 114.036 19.4641 113.964 19.099C113.891 18.7339 113.712 18.3985 113.449 18.1353C113.185 17.872 112.85 17.6928 112.485 17.6202C112.12 17.5475 111.741 17.5848 111.397 17.7273C111.053 17.8697 110.759 18.111 110.553 18.4205C110.346 18.73 110.235 19.0939 110.235 19.4662C110.227 19.7157 110.27 19.9642 110.361 20.1964C110.453 20.4287 110.591 20.6396 110.768 20.8161C110.944 20.9926 111.155 21.1309 111.387 21.2225C111.62 21.3141 111.868 21.3569 112.118 21.3484Z" fill="#030308" fill-opacity="0.8"/>
        <path d="M90.0815 30.2582C90.0313 31.0086 89.6979 31.7118 89.1486 32.2256C88.5994 32.7393 87.8755 33.0251 87.1235 33.0251C86.3714 33.0251 85.6475 32.7393 85.0983 32.2256C84.5491 31.7118 84.2156 31.0086 84.1655 30.2582V27.8882C84.2156 27.1378 84.5491 26.4346 85.0983 25.9209C85.6475 25.4071 86.3714 25.1213 87.1235 25.1213C87.8755 25.1213 88.5994 25.4071 89.1486 25.9209C89.6979 26.4346 90.0313 27.1378 90.0815 27.8882V30.2582ZM87.0251 22.1582C83.5739 22.1582 80.7148 24.6272 80.7148 28.0838V29.96C80.7148 33.4166 83.5739 35.8856 87.0251 35.8856C90.4763 35.8856 93.3352 33.4166 93.3352 29.96V28.0838C93.3352 24.629 90.5747 22.16 87.0251 22.16V22.1582Z" fill="#030308" fill-opacity="0.8"/>
        <path d="M104.864 30.2649C104.814 31.0152 104.481 31.7185 103.932 32.2322C103.382 32.7459 102.659 33.0317 101.907 33.0317C101.154 33.0317 100.431 32.7459 99.8813 32.2322C99.3321 31.7185 98.9987 31.0152 98.9485 30.2649V27.8949C98.9987 27.1445 99.3321 26.4412 99.8813 25.9275C100.431 25.4138 101.154 25.128 101.907 25.128C102.659 25.128 103.382 25.4138 103.932 25.9275C104.481 26.4412 104.814 27.1445 104.864 27.8949V30.2649ZM101.907 22.1739C100.878 22.1438 99.8587 22.3812 98.9491 22.8627V18.6195C98.9497 18.5027 98.9271 18.3871 98.8827 18.2791C98.8383 18.1712 98.7729 18.0731 98.6904 17.9905C98.6079 17.908 98.5099 17.8426 98.402 17.7981C98.2941 17.7536 98.1784 17.731 98.0617 17.7315H95.6953V29.9649C95.6953 33.4185 98.5549 35.8851 102.005 35.8851C105.456 35.8851 108.316 33.4185 108.316 29.9649V28.0922C108.217 24.6387 105.358 22.1715 101.907 22.1715L101.907 22.1739Z" fill="#030308" fill-opacity="0.8"/>
        <path d="M40.4661 19.5186C40.4661 15.969 38.7933 13.011 37.4157 12.0246C37.4157 12.0246 37.3173 11.9262 37.3173 12.123C37.3173 18.9264 33.8733 20.703 31.9053 23.1666C27.4773 28.8858 31.6101 35.0976 35.7453 36.2808C38.1069 36.9708 35.2533 35.0976 34.8597 31.3506C34.4661 26.8152 40.4685 23.364 40.4685 19.5186" fill="#030308" fill-opacity="0.8"/>
        <path d="M42.7288 21.8398C42.6304 22.627 41.6464 24.4966 40.4656 26.1694C36.4312 31.8766 38.7928 34.534 40.072 36.0094C40.8592 36.895 40.072 36.0094 41.9416 35.1238C42.0424 35.026 45.5824 33.2548 45.976 29.0236C46.0681 27.6514 45.8199 26.2777 45.2534 25.0245C44.687 23.7712 43.8197 22.6773 42.7288 21.8398Z" fill="#030308" fill-opacity="0.8"/>
    </g>
    <defs>
        <clipPath id="clip0_20371_109051">
            <rect width="144" height="48" fill="white"/>
        </clipPath>
    </defs>
</svg>
