<svg width="144" height="48" viewBox="0 0 144 48" fill="none" xmlns="http://www.w3.org/2000/svg">
    <g clip-path="url(#clip0_21123_87172)">
        <path d="M61.181 17.7324V24.8274H54.0956V18.6192C54.0962 18.5027 54.0736 18.3873 54.0294 18.2795C53.9851 18.1717 53.9199 18.0738 53.8375 17.9914C53.7552 17.9089 53.6574 17.8436 53.5497 17.7991C53.442 17.7547 53.3265 17.732 53.21 17.7324H50.75V34.7802C50.7495 34.8967 50.772 35.0122 50.8163 35.12C50.8606 35.2277 50.9258 35.3257 51.0081 35.4081C51.0904 35.4905 51.1883 35.5559 51.296 35.6003C51.4037 35.6448 51.5191 35.6674 51.6356 35.667H53.9972V27.6858H61.0844V34.6824C61.0839 34.7989 61.1064 34.9144 61.1507 35.0222C61.195 35.1299 61.2602 35.2279 61.3425 35.3103C61.4248 35.3927 61.5227 35.4581 61.6304 35.5025C61.7381 35.547 61.8535 35.5696 61.97 35.5692H64.3316V18.6192C64.3322 18.5027 64.3096 18.3873 64.2654 18.2795C64.2211 18.1717 64.1559 18.0738 64.0735 17.9914C63.9912 17.9089 63.8934 17.8436 63.7857 17.7991C63.678 17.7547 63.5625 17.732 63.446 17.7324H61.181Z" fill="#F9F9F9" fill-opacity="0.8"/>
        <path d="M75.1516 22.1602V30.7366C75.1568 31.1171 75.0592 31.492 74.8691 31.8217C74.6791 32.1513 74.4035 32.4236 74.0716 32.6098C73.6966 32.8487 73.2646 32.9833 72.8203 32.9995C72.3759 33.0158 71.9353 32.9131 71.5439 32.7021C71.1525 32.4911 70.8245 32.1794 70.5938 31.7993C70.3631 31.4192 70.2381 30.9844 70.2316 30.5398V23.0476C70.2322 22.931 70.2097 22.8155 70.1655 22.7076C70.1212 22.5998 70.0561 22.5018 69.9737 22.4193C69.8914 22.3368 69.7935 22.2714 69.6858 22.2269C69.578 22.1825 69.4625 22.1598 69.346 22.1602H66.9844V30.8356C66.9904 32.1917 67.5311 33.4907 68.4891 34.4505C69.4471 35.4103 70.7451 35.9534 72.1012 35.962H73.3804C74.7365 35.9534 76.0344 35.4103 76.9925 34.4505C77.9505 33.4907 78.4912 32.1917 78.4972 30.8356V23.0476C78.4978 22.931 78.4753 22.8155 78.4311 22.7076C78.3868 22.5998 78.3216 22.5018 78.2393 22.4193C78.157 22.3368 78.0591 22.2714 77.9514 22.2269C77.8436 22.1825 77.7281 22.1598 77.6116 22.1602H75.1516Z" fill="#F9F9F9" fill-opacity="0.8"/>
        <path d="M111.339 35.5929H113.7V23.4891C113.701 23.3727 113.678 23.2573 113.634 23.1497C113.59 23.042 113.524 22.9442 113.442 22.8618C113.36 22.7795 113.262 22.7143 113.154 22.67C113.046 22.6256 112.931 22.603 112.815 22.6035H110.453V34.7073C110.453 34.8238 110.475 34.9391 110.52 35.0468C110.564 35.1545 110.629 35.2523 110.711 35.3346C110.794 35.4169 110.892 35.4821 110.999 35.5265C111.107 35.5708 111.222 35.5934 111.339 35.5929Z" fill="#F9F9F9" fill-opacity="0.8"/>
        <path d="M112.118 21.3484C112.49 21.3484 112.854 21.238 113.163 21.0312C113.473 20.8244 113.714 20.5304 113.857 20.1865C113.999 19.8425 114.036 19.4641 113.964 19.099C113.891 18.7339 113.712 18.3985 113.449 18.1353C113.185 17.872 112.85 17.6928 112.485 17.6202C112.12 17.5475 111.741 17.5848 111.397 17.7273C111.053 17.8697 110.759 18.111 110.553 18.4205C110.346 18.73 110.235 19.0939 110.235 19.4662C110.227 19.7157 110.27 19.9642 110.361 20.1964C110.453 20.4287 110.591 20.6396 110.768 20.8161C110.944 20.9926 111.155 21.1309 111.387 21.2225C111.62 21.3141 111.868 21.3569 112.118 21.3484Z" fill="#F9F9F9" fill-opacity="0.8"/>
        <path d="M90.0776 30.2582C90.0274 31.0086 89.694 31.7118 89.1447 32.2256C88.5955 32.7393 87.8716 33.0251 87.1196 33.0251C86.3675 33.0251 85.6436 32.7393 85.0944 32.2256C84.5452 31.7118 84.2117 31.0086 84.1616 30.2582V27.8882C84.2117 27.1378 84.5452 26.4346 85.0944 25.9209C85.6436 25.4071 86.3675 25.1213 87.1196 25.1213C87.8716 25.1213 88.5955 25.4071 89.1447 25.9209C89.694 26.4346 90.0274 27.1378 90.0776 27.8882V30.2582ZM87.0212 22.1582C83.57 22.1582 80.7109 24.6272 80.7109 28.0838V29.96C80.7109 33.4166 83.57 35.8856 87.0212 35.8856C90.4724 35.8856 93.3313 33.4166 93.3313 29.96V28.0838C93.3313 24.629 90.5708 22.16 87.0212 22.16V22.1582Z" fill="#F9F9F9" fill-opacity="0.8"/>
        <path d="M104.864 30.2658C104.814 31.0162 104.481 31.7194 103.932 32.2332C103.382 32.7469 102.659 33.0327 101.907 33.0327C101.154 33.0327 100.431 32.7469 99.8813 32.2332C99.3321 31.7194 98.9987 31.0162 98.9485 30.2658V27.8958C98.9987 27.1455 99.3321 26.4422 99.8813 25.9285C100.431 25.4147 101.154 25.1289 101.907 25.1289C102.659 25.1289 103.382 25.4147 103.932 25.9285C104.481 26.4422 104.814 27.1455 104.864 27.8958V30.2658ZM101.907 22.1748C100.878 22.1448 99.8587 22.3821 98.9491 22.8636V18.6204C98.9497 18.5037 98.9271 18.388 98.8827 18.2801C98.8383 18.1721 98.7729 18.0741 98.6904 17.9915C98.6079 17.9089 98.5099 17.8435 98.402 17.7991C98.2941 17.7546 98.1784 17.732 98.0617 17.7324H95.6953V29.9658C95.6953 33.4194 98.5549 35.886 102.005 35.886C105.456 35.886 108.316 33.4194 108.316 29.9658V28.0932C108.217 24.6396 105.358 22.1724 101.907 22.1724L101.907 22.1748Z" fill="#F9F9F9" fill-opacity="0.8"/>
        <path d="M40.4661 19.5186C40.4661 15.969 38.7933 13.011 37.4157 12.0246C37.4157 12.0246 37.3173 11.9262 37.3173 12.123C37.3173 18.9264 33.8733 20.703 31.9053 23.1666C27.4773 28.8858 31.6101 35.0976 35.7453 36.2808C38.1069 36.9708 35.2533 35.0976 34.8597 31.3506C34.4661 26.8152 40.4685 23.364 40.4685 19.5186" fill="#F9F9F9" fill-opacity="0.8"/>
        <path d="M42.7269 21.8398C42.6285 22.627 41.6445 24.4966 40.4637 26.1694C36.4293 31.8766 38.7909 34.534 40.0701 36.0094C40.8573 36.895 40.0701 36.0094 41.9397 35.1238C42.0405 35.026 45.5805 33.2548 45.9741 29.0236C46.0662 27.6514 45.818 26.2777 45.2515 25.0245C44.685 23.7712 43.8178 22.6773 42.7269 21.8398Z" fill="#F9F9F9" fill-opacity="0.8"/>
    </g>
    <defs>
        <clipPath id="clip0_21123_87172">
            <rect width="144" height="48" fill="white"/>
        </clipPath>
    </defs>
</svg>
