<svg width="144" height="48" viewBox="0 0 144 48" fill="none" xmlns="http://www.w3.org/2000/svg">
    <g clip-path="url(#clip0_20371_109060)">
        <path d="M59.6305 22.1492L58.7905 20.7422L54.1915 13.0142H54.1705L54.0235 12.7412H52.3435L45.8125 24.2282L52.4485 35.6522H54.1285L54.1705 35.5892L59.6515 26.2022H56.2705L53.3515 31.3892L49.1935 24.2072L53.2675 17.0252L56.2285 22.1252L59.6305 22.1492Z" fill="#030308" fill-opacity="0.8"/>
        <path d="M34.074 20.2802L37.14 15.0512L36.111 13.3922L35.397 12.2162L30.147 21.4772L30 21.7292L30.84 23.1992H44.049L50.706 11.7992L49.782 10.2002L40.542 10.2212H40.395L38.925 10.2002L39.705 11.6702L40.485 13.1402L46.533 13.1192L42.369 20.2802H34.074Z" fill="#030308" fill-opacity="0.8"/>
        <path d="M40.6051 14.2318C40.3549 14.2345 40.1068 14.277 39.8701 14.3578C39.5913 14.4472 39.3236 14.568 39.0721 14.7178C38.7518 14.8889 38.4707 15.1247 38.2465 15.4104C38.0224 15.696 37.8601 16.0251 37.7701 16.3768C37.7461 16.4943 37.7488 16.6156 37.7779 16.7319C37.8069 16.8482 37.8617 16.9565 37.9381 17.0488C37.9591 17.0908 37.9981 17.1088 38.0221 17.1538C38.0431 17.1748 38.0641 17.1748 38.0821 17.1958L38.1241 17.2378C38.1661 17.2588 38.1841 17.2798 38.2291 17.3008C38.5237 17.4036 38.8366 17.4435 39.1476 17.4182C39.4586 17.3929 39.7609 17.3029 40.0351 17.1538L40.0561 17.1328C40.1161 17.1118 40.1821 17.0698 40.2451 17.0488C40.3056 17.0216 40.3621 16.9862 40.4131 16.9438L40.6021 16.8178C40.6621 16.7758 40.7071 16.7338 40.7701 16.6918L40.8121 16.6708C40.8541 16.6288 40.8961 16.6108 40.9381 16.5658L40.9801 16.5238C41.0221 16.5028 41.0401 16.4608 41.0641 16.4398C41.0889 16.4156 41.1093 16.3872 41.1241 16.3558C41.1451 16.3138 41.1841 16.2958 41.2081 16.2508L41.2501 16.2088C41.2711 16.1668 41.3131 16.1458 41.3341 16.1038L41.3761 16.0618C41.3971 16.0198 41.4181 16.0018 41.4391 15.9568V15.9358L41.4601 15.8938C41.4958 15.8497 41.5242 15.8 41.5441 15.7468C41.5651 15.7048 41.5861 15.6418 41.6041 15.5998L41.6251 15.5788C41.6273 15.5629 41.6347 15.5481 41.6461 15.5368C41.6461 15.5158 41.6461 15.5158 41.6671 15.4948C41.6671 15.4528 41.6881 15.4348 41.6881 15.3898C41.6881 15.3448 41.7091 15.3478 41.7091 15.3298V14.9098C41.7091 14.8678 41.6881 14.8498 41.6671 14.8048C41.6461 14.7598 41.6251 14.7448 41.6071 14.6998C41.5001 14.5364 41.3496 14.406 41.1726 14.3233C40.9956 14.2406 40.7991 14.209 40.6051 14.2318Z" fill="#030308" fill-opacity="0.8"/>
        <path d="M42.1383 15.7652C42.1383 15.8072 42.1173 15.8252 42.0963 15.8702C42.0963 15.8912 42.0963 15.8912 42.0753 15.9122C42.0558 15.9721 42.0275 16.0287 41.9913 16.0802C41.7288 16.5538 41.3627 16.962 40.9203 17.2742L40.7313 17.4002C40.673 17.4431 40.6095 17.4784 40.5423 17.5052H40.5213C40.5003 17.5262 40.4793 17.5262 40.4613 17.5472C40.4193 17.5682 40.3983 17.5892 40.3563 17.6072H40.3323C40.3113 17.6072 40.2903 17.6282 40.2693 17.6282C40.2309 17.6514 40.1879 17.6658 40.1433 17.6702L40.1013 17.6912H40.0803C40.0593 17.6912 40.0383 17.7122 40.0203 17.7122C39.9783 17.7332 39.9363 17.7332 39.8943 17.7542L39.8522 17.7752H39.8283C39.7863 17.7962 39.7442 17.7962 39.7023 17.8172C39.6812 17.8172 39.6603 17.8382 39.6183 17.8382H39.6003C39.5649 17.8431 39.5298 17.8501 39.4953 17.8592C39.4656 17.856 39.4359 17.8635 39.4113 17.8802H39.3903C39.3793 17.8792 39.3683 17.8806 39.358 17.8842C39.3477 17.8879 39.3382 17.8936 39.3303 17.9012H39.2673C39.2073 17.9012 39.1203 17.9222 39.0573 17.9222H38.7783C38.7352 17.9255 38.6919 17.9183 38.6522 17.9012C38.6413 17.9021 38.6303 17.9007 38.62 17.8971C38.6097 17.8935 38.6002 17.8877 38.5923 17.8802C38.5503 17.8802 38.5083 17.8592 38.4663 17.8592C38.4453 17.8592 38.4243 17.8382 38.4062 17.8382L39.5613 19.7072L42.0393 19.6862L43.3203 17.4182L42.1593 15.5342C42.1602 15.5451 42.1588 15.5561 42.1552 15.5664C42.1516 15.5768 42.1458 15.5862 42.1383 15.5942V15.6362C42.1383 15.6572 42.1173 15.6782 42.1173 15.7202C42.1235 15.7259 42.1286 15.7329 42.1322 15.7406C42.1358 15.7483 42.1379 15.7567 42.1383 15.7652Z" fill="#030308" fill-opacity="0.8"/>
        <path d="M55.3059 22.5904C55.4378 22.803 55.5303 23.0378 55.5789 23.2834C55.6461 23.5655 55.6813 23.8543 55.6839 24.1444C55.7071 24.5066 55.6536 24.8696 55.527 25.2098C55.4003 25.5499 55.2033 25.8595 54.9489 26.1184C54.8589 26.2001 54.7521 26.2612 54.636 26.2975C54.52 26.3338 54.3974 26.3443 54.2769 26.3284C54.2349 26.3284 54.1929 26.3074 54.1509 26.3074C54.1299 26.3074 54.1089 26.2864 54.0879 26.2864C54.0669 26.2864 54.0459 26.2654 54.0279 26.2654C53.9902 26.2491 53.9549 26.228 53.9229 26.2024C53.6806 26.0054 53.4824 25.7596 53.3413 25.481C53.2002 25.2024 53.1193 24.8973 53.1039 24.5854V24.5644C53.1039 24.5014 53.0829 24.4384 53.0829 24.3544V23.9344C53.0794 23.8706 53.0865 23.8068 53.1039 23.7454V23.7028C53.1039 23.6608 53.1249 23.5978 53.1249 23.5558V23.4928C53.1249 23.4508 53.1459 23.4088 53.1459 23.3668C53.1459 23.3248 53.1669 23.3038 53.1669 23.2618C53.1879 23.2198 53.1879 23.1778 53.2089 23.1358C53.2089 23.1148 53.2299 23.0938 53.2299 23.0758C53.2509 23.0338 53.2509 22.9918 53.2719 22.9498L53.2929 22.8868C53.3139 22.8448 53.3349 22.8268 53.3349 22.7818V22.7608L53.3559 22.7188C53.3793 22.6673 53.4074 22.6181 53.4399 22.5718C53.4609 22.5298 53.5029 22.4878 53.5239 22.4458L53.5449 22.4248L53.5869 22.3828C53.6079 22.3618 53.6079 22.3618 53.6079 22.3408L53.6709 22.2808L53.7129 22.2388L53.7549 22.1968L53.8179 22.1368L53.8599 22.1158C53.8809 22.0948 53.9229 22.0738 53.9439 22.0528C53.9649 22.0528 53.9649 22.0528 53.9859 22.0318C54.0018 22.0296 54.0166 22.0222 54.0279 22.0108C54.0306 22.0108 54.0334 22.0104 54.036 22.0093C54.0386 22.0083 54.0409 22.0068 54.0429 22.0048C54.0449 22.0028 54.0464 22.0005 54.0474 21.9979C54.0485 21.9953 54.049 21.9925 54.0489 21.9898H54.0699C54.1119 21.9898 54.1299 21.9688 54.1749 21.9688H54.3009C54.5098 21.968 54.7147 22.0258 54.8923 22.1357C55.07 22.2456 55.2133 22.4031 55.3059 22.5904Z" fill="#030308" fill-opacity="0.8"/>
        <path d="M53.1832 22.0865C53.1622 22.1075 53.1412 22.1465 53.1202 22.1705C53.1202 22.1915 53.0992 22.1915 53.0992 22.2125C53.0572 22.2545 53.0362 22.3175 52.9942 22.3595C52.7162 22.8246 52.5575 23.3512 52.5322 23.8925V24.3545V24.4385C52.5289 24.4815 52.5361 24.5248 52.5532 24.5645V24.6485C52.5532 24.6905 52.5742 24.7325 52.5742 24.7745V24.8375C52.5728 24.8489 52.574 24.8604 52.5776 24.8713C52.5813 24.8822 52.5873 24.8922 52.5952 24.9005C52.5952 24.9425 52.6162 24.9845 52.6162 25.0265L52.6372 25.0685V25.0895C52.6416 25.1341 52.656 25.1771 52.6792 25.2155C52.6792 25.2365 52.7002 25.2575 52.7002 25.2755V25.2995C52.7212 25.3415 52.7212 25.3625 52.7422 25.4045C52.7422 25.4255 52.7632 25.4465 52.7842 25.4885V25.5095C52.7842 25.5305 52.8052 25.5515 52.8052 25.5725C52.8172 25.5833 52.8247 25.5983 52.8262 25.6145C52.8531 25.6817 52.8883 25.7452 52.9312 25.8035L52.9522 25.8245C52.9822 25.8769 53.0173 25.9261 53.0572 25.9715C53.0572 25.9925 53.0782 25.9925 53.0782 26.0135L53.0992 26.0345C53.1202 26.0765 53.1622 26.0975 53.1832 26.1395C53.2042 26.1605 53.2042 26.1815 53.2252 26.1815C53.2594 26.211 53.2879 26.2466 53.3092 26.2865C53.3302 26.3075 53.3512 26.3075 53.3512 26.3285H51.1462L49.8652 24.2075L51.1252 21.9395H53.3302L53.2882 21.9815L53.2672 22.0025L53.1832 22.0865Z" fill="#030308" fill-opacity="0.8"/>
        <path d="M40.6051 34.1616C40.3549 34.1589 40.1068 34.1164 39.8701 34.0355C39.5913 33.9461 39.3236 33.8254 39.0721 33.6755C38.7518 33.5045 38.4707 33.2686 38.2465 32.983C38.0224 32.6974 37.8601 32.3683 37.7701 32.0165C37.7461 31.8991 37.7488 31.7778 37.7779 31.6615C37.8069 31.5452 37.8617 31.4369 37.9381 31.3445C37.9591 31.3025 37.9981 31.2845 38.0221 31.2395C38.0431 31.2185 38.0641 31.2185 38.0821 31.1975L38.1241 31.1555C38.1661 31.1345 38.1841 31.1135 38.2291 31.0925C38.5237 30.9898 38.8366 30.9498 39.1476 30.9752C39.4586 31.0005 39.7609 31.0905 40.0351 31.2395L40.0561 31.2605C40.1161 31.2815 40.1821 31.3235 40.2451 31.3445C40.3056 31.3718 40.3621 31.4071 40.4131 31.4495L40.6021 31.5755C40.6621 31.6175 40.7071 31.6595 40.7701 31.7015L40.8121 31.7225C40.8541 31.7645 40.8961 31.7825 40.9381 31.8275L40.9801 31.8695C41.0221 31.8905 41.0401 31.9325 41.0641 31.9535C41.0889 31.9777 41.1093 32.0062 41.1241 32.0375C41.1451 32.0795 41.1841 32.1005 41.2081 32.1425L41.2501 32.1845C41.2711 32.2265 41.3131 32.2445 41.3341 32.2895L41.3761 32.3315C41.3971 32.3735 41.4181 32.3915 41.4391 32.4365V32.4575L41.4601 32.4995C41.4958 32.5437 41.5242 32.5933 41.5441 32.6465C41.5651 32.6885 41.5861 32.7515 41.6041 32.7935L41.6251 32.8145C41.6273 32.8305 41.6347 32.8452 41.6461 32.8565C41.6461 32.8775 41.6461 32.8775 41.6671 32.8985C41.6671 32.9405 41.6881 32.9585 41.6881 33.0035C41.6881 33.0485 41.7091 33.0455 41.7091 33.0635V33.4835C41.7091 33.5255 41.6881 33.5435 41.6671 33.5885C41.6461 33.6335 41.6251 33.6515 41.6071 33.6935C41.5034 33.8603 41.3535 33.9933 41.1756 34.0764C40.9977 34.1595 40.7995 34.1891 40.6051 34.1616Z" fill="#030308" fill-opacity="0.8"/>
        <path d="M42.1383 32.6287C42.1383 32.5867 42.1173 32.5657 42.0963 32.5237C42.0963 32.5027 42.0963 32.5027 42.0753 32.4817C42.0558 32.4218 42.0275 32.3651 41.9913 32.3137C41.7292 31.8389 41.363 31.4297 40.9203 31.1167L40.7313 30.9907C40.673 30.9478 40.6095 30.9125 40.5423 30.8857H40.5213C40.5003 30.8647 40.4793 30.8647 40.4613 30.8437C40.4193 30.8227 40.3983 30.8017 40.3563 30.7837H40.3323C40.3113 30.7837 40.2903 30.7627 40.2693 30.7627C40.2309 30.7394 40.1879 30.7251 40.1433 30.7207L40.1013 30.6997H40.0803C40.0593 30.6997 40.0383 30.6787 40.0203 30.6787C39.9783 30.6577 39.9363 30.6577 39.8943 30.6367L39.8523 30.6157H39.8283C39.7863 30.5947 39.7443 30.5947 39.7023 30.5737C39.6813 30.5737 39.6603 30.5527 39.6183 30.5527H39.6003C39.5649 30.5477 39.5298 30.5407 39.4953 30.5317C39.4657 30.5348 39.4359 30.5274 39.4113 30.5107H39.3903C39.3793 30.5116 39.3683 30.5102 39.358 30.5066C39.3477 30.503 39.3382 30.4972 39.3303 30.4897H39.2673C39.2073 30.4897 39.1203 30.4687 39.0573 30.4687H38.7783C38.7352 30.4653 38.6919 30.4725 38.6522 30.4897C38.6413 30.4887 38.6303 30.4901 38.62 30.4937C38.6097 30.4973 38.6002 30.5031 38.5923 30.5107C38.5503 30.5107 38.5083 30.5317 38.4663 30.5317C38.4453 30.5317 38.4243 30.5527 38.4062 30.5527L39.5553 28.6807L42.0333 28.7017L43.3143 30.9697L42.1593 32.8597C42.1602 32.8487 42.1588 32.8378 42.1552 32.8274C42.1516 32.8171 42.1458 32.8076 42.1383 32.7997V32.7577C42.1383 32.7367 42.1173 32.7157 42.1173 32.6737C42.1235 32.6679 42.1286 32.661 42.1322 32.6533C42.1358 32.6455 42.1379 32.6372 42.1383 32.6287Z" fill="#030308" fill-opacity="0.8"/>
        <path d="M46.527 35.2743L40.479 35.2533L39.555 36.9933L38.925 38.1933L40.542 38.1723V38.1933L49.782 38.2143L50.706 36.6183L44.049 25.2183L30.84 25.1943L30 26.6643L30.168 26.9373H30.147L35.397 36.1743L37.137 33.3393L34.074 28.1343H42.369L46.527 35.2743Z" fill="#030308" fill-opacity="0.8"/>
        <path d="M87.6459 24.2099C87.6459 23.3909 87.6459 22.6979 87.6879 22.1519C87.7 21.7016 87.7421 21.2526 87.8139 20.8079C87.9229 20.256 88.1891 19.7473 88.5805 19.3433C88.9719 18.9392 89.4718 18.6568 90.02 18.5303C90.5681 18.4038 91.1412 18.4385 91.6701 18.6303C92.199 18.822 92.6612 19.1626 93.0009 19.6109C93.2468 19.9826 93.4246 20.395 93.5259 20.8289C93.5341 20.8493 93.5489 20.8664 93.568 20.8772C93.587 20.8881 93.6092 20.8923 93.6309 20.8889H96.8859C96.9279 20.8889 96.9459 20.8469 96.9459 20.8049C96.8187 19.8042 96.4477 18.85 95.8655 18.0261C95.2833 17.2023 94.5078 16.534 93.6069 16.0799C92.6731 15.648 91.6537 15.4326 90.6249 15.4499C89.7631 15.43 88.9064 15.5875 88.108 15.9126C87.3096 16.2377 86.5866 16.7236 85.9839 17.3399C85.2738 18.0446 84.7848 18.9413 84.5769 19.9199C84.3503 21.3362 84.2519 22.77 84.2829 24.2039C84.2519 25.6379 84.3503 27.0717 84.5769 28.4879C84.7707 29.4726 85.2618 30.3741 85.9839 31.0709C86.5878 31.6857 87.311 32.1705 88.1091 32.4955C88.9072 32.8205 89.7634 32.9789 90.6249 32.9609C91.6537 32.9783 92.6731 32.7629 93.6069 32.3309C94.5059 31.8744 95.2799 31.2055 95.8618 30.3821C96.4437 29.5587 96.8158 28.6057 96.9459 27.6059C96.9459 27.5639 96.9459 27.5219 96.8859 27.5219H93.6309C93.6092 27.5186 93.587 27.5227 93.568 27.5336C93.5489 27.5445 93.5341 27.5615 93.5259 27.5819C93.4154 28.0128 93.2383 28.4237 93.0009 28.7999C92.6609 29.2483 92.1985 29.5888 91.6694 29.7804C91.1403 29.9719 90.5671 30.0064 90.0189 29.8795C89.4706 29.7527 88.9708 29.47 88.5796 29.0655C88.1883 28.6611 87.9224 28.1521 87.8139 27.5999C87.741 27.1554 87.6989 26.7063 87.6879 26.2559C87.6459 25.7189 87.6459 25.0259 87.6459 24.2099Z" fill="#030308" fill-opacity="0.8"/>
        <path d="M104.697 24.2099C104.697 23.3909 104.697 22.6979 104.739 22.1519C104.751 21.7016 104.793 21.2526 104.865 20.8079C104.974 20.256 105.24 19.7473 105.631 19.3433C106.023 18.9392 106.523 18.6568 107.071 18.5303C107.619 18.4038 108.192 18.4385 108.721 18.6303C109.25 18.822 109.712 19.1626 110.052 19.6109C110.298 19.9826 110.475 20.395 110.577 20.8289C110.585 20.8493 110.6 20.8664 110.619 20.8772C110.638 20.8881 110.66 20.8923 110.682 20.8889H113.937C113.979 20.8889 113.997 20.8469 113.997 20.8049C113.869 19.8042 113.498 18.85 112.916 18.0261C112.334 17.2023 111.559 16.534 110.658 16.0799C109.724 15.648 108.704 15.4326 107.676 15.4499C106.814 15.43 105.957 15.5875 105.159 15.9126C104.36 16.2377 103.637 16.7236 103.035 17.3399C102.325 18.0446 101.836 18.9413 101.628 19.9199C101.401 21.3362 101.303 22.77 101.334 24.2039C101.303 25.6379 101.401 27.0717 101.628 28.4879C101.821 29.4726 102.313 30.3741 103.035 31.0709C103.639 31.6857 104.362 32.1705 105.16 32.4955C105.958 32.8205 106.814 32.9789 107.676 32.9609C108.704 32.9783 109.724 32.7629 110.658 32.3309C111.557 31.8744 112.331 31.2055 112.913 30.3821C113.494 29.5587 113.867 28.6057 113.997 27.6059C113.997 27.5639 113.997 27.5219 113.937 27.5219H110.682C110.66 27.5186 110.638 27.5227 110.619 27.5336C110.6 27.5445 110.585 27.5615 110.577 27.5819C110.466 28.0128 110.289 28.4237 110.052 28.7999C109.712 29.2483 109.249 29.5888 108.72 29.7804C108.191 29.9719 107.618 30.0064 107.07 29.8795C106.521 29.7527 106.022 29.47 105.63 29.0655C105.239 28.6611 104.973 28.1521 104.865 27.5999C104.792 27.1554 104.75 26.7063 104.739 26.2559C104.718 25.7189 104.697 25.0259 104.697 24.2099Z" fill="#030308" fill-opacity="0.8"/>
        <path d="M70.0046 15.8908C70.0056 15.8519 69.9987 15.8132 69.9843 15.7771C69.9698 15.741 69.9482 15.7082 69.9207 15.6807C69.8932 15.6532 69.8604 15.6316 69.8243 15.6171C69.7882 15.6027 69.7495 15.5958 69.7106 15.5968H66.9386C66.8997 15.5958 66.8611 15.6027 66.825 15.6171C66.7888 15.6316 66.756 15.6532 66.7285 15.6807C66.701 15.7082 66.6794 15.741 66.665 15.7771C66.6506 15.8132 66.6436 15.8519 66.6446 15.8908V32.5228C66.6436 32.5617 66.6506 32.6003 66.665 32.6364C66.6794 32.6726 66.701 32.7054 66.7285 32.7329C66.756 32.7604 66.7888 32.782 66.825 32.7964C66.8611 32.8108 66.8997 32.8178 66.9386 32.8168H69.7106C69.7495 32.8178 69.7882 32.8108 69.8243 32.7964C69.8604 32.782 69.8932 32.7604 69.9207 32.7329C69.9482 32.7054 69.9698 32.6726 69.9843 32.6364C69.9987 32.6003 70.0056 32.5617 70.0046 32.5228V27.6508L72.2306 24.9838L76.8086 32.7328C76.8253 32.7617 76.8501 32.7851 76.88 32.8C76.9099 32.8149 76.9435 32.8208 76.9766 32.8168H80.3366C80.4836 32.8168 80.5256 32.7118 80.4416 32.5858L74.4566 22.4428L79.9376 15.8698C80.0426 15.7438 80.0006 15.6178 79.8326 15.6178H76.1576C76.1359 15.6144 76.1137 15.6186 76.0947 15.6295C76.0756 15.6403 76.0608 15.6574 76.0526 15.6778L70.0256 22.9258V15.8908H70.0046Z" fill="#030308" fill-opacity="0.8"/>
    </g>
    <defs>
        <clipPath id="clip0_20371_109060">
            <rect width="144" height="48" fill="white"/>
        </clipPath>
    </defs>
</svg>
