<svg width="144" height="48" viewBox="0 0 144 48" fill="none" xmlns="http://www.w3.org/2000/svg">
    <g clip-path="url(#clip0_21123_87185)">
        <path d="M59.6305 22.1482L58.7905 20.7412L54.1915 13.0132H54.1705L54.0235 12.7402H52.3435L45.8125 24.2272L52.4485 35.6512H54.1285L54.1705 35.5882L59.6515 26.2012H56.2705L53.3515 31.3882L49.1935 24.2062L53.2675 17.0242L56.2285 22.1242L59.6305 22.1482Z" fill="#F9F9F9" fill-opacity="0.8"/>
        <path d="M34.074 20.2792L37.14 15.0502L36.111 13.3912L35.397 12.2152L30.147 21.4762L30 21.7282L30.84 23.1982H44.049L50.706 11.7982L49.782 10.1992L40.542 10.2202H40.395L38.925 10.1992L39.705 11.6692L40.485 13.1392L46.533 13.1182L42.369 20.2792H34.074Z" fill="#F9F9F9" fill-opacity="0.8"/>
        <path d="M40.6012 14.2318C40.351 14.2345 40.1029 14.277 39.8662 14.3578C39.5874 14.4472 39.3197 14.568 39.0682 14.7178C38.7479 14.8889 38.4668 15.1247 38.2426 15.4104C38.0185 15.696 37.8562 16.0251 37.7662 16.3768C37.7422 16.4943 37.7449 16.6156 37.774 16.7319C37.803 16.8482 37.8578 16.9565 37.9342 17.0488C37.9552 17.0908 37.9942 17.1088 38.0182 17.1538C38.0392 17.1748 38.0602 17.1748 38.0782 17.1958L38.1202 17.2378C38.1622 17.2588 38.1802 17.2798 38.2252 17.3008C38.5198 17.4036 38.8327 17.4435 39.1437 17.4182C39.4547 17.3929 39.757 17.3029 40.0312 17.1538L40.0522 17.1328C40.1122 17.1118 40.1782 17.0698 40.2412 17.0488C40.3016 17.0216 40.3582 16.9862 40.4092 16.9438L40.5982 16.8178C40.6582 16.7758 40.7032 16.7338 40.7662 16.6918L40.8082 16.6708C40.8502 16.6288 40.8922 16.6108 40.9342 16.5658L40.9762 16.5238C41.0182 16.5028 41.0362 16.4608 41.0602 16.4398C41.085 16.4156 41.1054 16.3872 41.1202 16.3558C41.1412 16.3138 41.1802 16.2958 41.2042 16.2508L41.2462 16.2088C41.2672 16.1668 41.3092 16.1458 41.3302 16.1038L41.3722 16.0618C41.3932 16.0198 41.4142 16.0018 41.4352 15.9568V15.9358L41.4562 15.8938C41.4919 15.8497 41.5203 15.8 41.5402 15.7468C41.5612 15.7048 41.5822 15.6418 41.6002 15.5998L41.6212 15.5788C41.6234 15.5629 41.6308 15.5481 41.6422 15.5368C41.6422 15.5158 41.6422 15.5158 41.6632 15.4948C41.6632 15.4528 41.6842 15.4348 41.6842 15.3898C41.6842 15.3448 41.7052 15.3478 41.7052 15.3298V14.9098C41.7052 14.8678 41.6842 14.8498 41.6632 14.8048C41.6422 14.7598 41.6212 14.7448 41.6032 14.6998C41.4962 14.5364 41.3457 14.406 41.1687 14.3233C40.9917 14.2406 40.7952 14.209 40.6012 14.2318Z" fill="#F9F9F9" fill-opacity="0.8"/>
        <path d="M42.1383 15.7642C42.1383 15.8062 42.1173 15.8242 42.0963 15.8692C42.0963 15.8902 42.0963 15.8902 42.0753 15.9112C42.0558 15.9711 42.0275 16.0277 41.9913 16.0792C41.7288 16.5528 41.3627 16.961 40.9203 17.2732L40.7313 17.3992C40.673 17.4421 40.6095 17.4774 40.5423 17.5042H40.5213C40.5003 17.5252 40.4793 17.5252 40.4613 17.5462C40.4193 17.5672 40.3983 17.5882 40.3563 17.6062H40.3323C40.3113 17.6062 40.2903 17.6272 40.2693 17.6272C40.2309 17.6504 40.1879 17.6648 40.1433 17.6692L40.1013 17.6902H40.0803C40.0593 17.6902 40.0383 17.7112 40.0203 17.7112C39.9783 17.7322 39.9363 17.7322 39.8943 17.7532L39.8522 17.7742H39.8283C39.7863 17.7952 39.7442 17.7952 39.7023 17.8162C39.6812 17.8162 39.6603 17.8372 39.6183 17.8372H39.6003C39.5649 17.8421 39.5298 17.8491 39.4953 17.8582C39.4656 17.8551 39.4359 17.8625 39.4113 17.8792H39.3903C39.3793 17.8783 39.3683 17.8796 39.358 17.8833C39.3477 17.8869 39.3382 17.8927 39.3303 17.9002H39.2673C39.2073 17.9002 39.1203 17.9212 39.0573 17.9212H38.7783C38.7352 17.9245 38.6919 17.9173 38.6522 17.9002C38.6413 17.9011 38.6303 17.8998 38.62 17.8961C38.6097 17.8925 38.6002 17.8868 38.5923 17.8792C38.5503 17.8792 38.5083 17.8582 38.4663 17.8582C38.4453 17.8582 38.4243 17.8372 38.4062 17.8372L39.5613 19.7062L42.0393 19.6852L43.3203 17.4172L42.1593 15.5332C42.1602 15.5441 42.1588 15.5551 42.1552 15.5655C42.1516 15.5758 42.1458 15.5853 42.1383 15.5932V15.6352C42.1383 15.6562 42.1173 15.6772 42.1173 15.7192C42.1235 15.725 42.1286 15.7319 42.1322 15.7396C42.1358 15.7473 42.1379 15.7557 42.1383 15.7642Z" fill="#F9F9F9" fill-opacity="0.8"/>
        <path d="M55.302 22.5884C55.4339 22.8011 55.5264 23.0359 55.575 23.2814C55.6422 23.5636 55.6774 23.8524 55.68 24.1424C55.7032 24.5046 55.6497 24.8677 55.5231 25.2078C55.3964 25.548 55.1994 25.8576 54.945 26.1164C54.8549 26.1982 54.7482 26.2593 54.6321 26.2956C54.5161 26.3318 54.3935 26.3424 54.273 26.3264C54.231 26.3264 54.189 26.3054 54.147 26.3054C54.126 26.3054 54.105 26.2844 54.084 26.2844C54.063 26.2844 54.042 26.2634 54.024 26.2634C53.9863 26.2472 53.951 26.226 53.919 26.2004C53.6767 26.0034 53.4785 25.7576 53.3374 25.479C53.1963 25.2005 53.1154 24.8953 53.1 24.5834V24.5624C53.1 24.4994 53.079 24.4364 53.079 24.3524V23.9324C53.0755 23.8687 53.0826 23.8048 53.1 23.7434V23.7008C53.1 23.6588 53.121 23.5958 53.121 23.5538V23.4908C53.121 23.4488 53.142 23.4068 53.142 23.3648C53.142 23.3228 53.163 23.3018 53.163 23.2598C53.184 23.2178 53.184 23.1758 53.205 23.1338C53.205 23.1128 53.226 23.0918 53.226 23.0738C53.247 23.0318 53.247 22.9898 53.268 22.9478L53.289 22.8848C53.31 22.8428 53.331 22.8248 53.331 22.7798V22.7588L53.352 22.7168C53.3753 22.6653 53.4035 22.6161 53.436 22.5698C53.457 22.5278 53.499 22.4858 53.52 22.4438L53.541 22.4228L53.583 22.3808C53.604 22.3598 53.604 22.3598 53.604 22.3388L53.667 22.2788L53.709 22.2368L53.751 22.1948L53.814 22.1348L53.856 22.1138C53.877 22.0928 53.919 22.0718 53.94 22.0508C53.961 22.0508 53.961 22.0508 53.982 22.0298C53.9979 22.0276 54.0126 22.0202 54.024 22.0088C54.0267 22.0089 54.0295 22.0084 54.0321 22.0074C54.0347 22.0064 54.037 22.0048 54.039 22.0028C54.041 22.0009 54.0425 21.9985 54.0435 21.9959C54.0446 21.9934 54.045 21.9906 54.045 21.9878H54.066C54.108 21.9878 54.126 21.9668 54.171 21.9668H54.297C54.5059 21.966 54.7108 22.0239 54.8884 22.1338C55.0661 22.2436 55.2094 22.4012 55.302 22.5884Z" fill="#F9F9F9" fill-opacity="0.8"/>
        <path d="M53.1852 22.0845C53.1642 22.1055 53.1432 22.1445 53.1222 22.1685C53.1222 22.1895 53.1012 22.1895 53.1012 22.2105C53.0592 22.2525 53.0382 22.3155 52.9962 22.3575C52.7182 22.8226 52.5595 23.3492 52.5342 23.8905V24.3525V24.4365C52.5309 24.4796 52.5381 24.5228 52.5552 24.5625V24.6465C52.5552 24.6885 52.5762 24.7305 52.5762 24.7725V24.8355C52.5748 24.8469 52.576 24.8585 52.5796 24.8694C52.5832 24.8803 52.5892 24.8902 52.5972 24.8985C52.5972 24.9405 52.6182 24.9825 52.6182 25.0245L52.6392 25.0665V25.0875C52.6436 25.1321 52.658 25.1752 52.6812 25.2135C52.6812 25.2345 52.7022 25.2555 52.7022 25.2735V25.2975C52.7232 25.3395 52.7232 25.3605 52.7442 25.4025C52.7442 25.4235 52.7652 25.4445 52.7862 25.4865V25.5075C52.7862 25.5285 52.8072 25.5495 52.8072 25.5705C52.8192 25.5814 52.8267 25.5964 52.8282 25.6125C52.855 25.6797 52.8903 25.7432 52.9332 25.8015L52.9542 25.8225C52.9841 25.8749 53.0193 25.9242 53.0592 25.9695C53.0592 25.9905 53.0802 25.9905 53.0802 26.0115L53.1012 26.0325C53.1222 26.0745 53.1642 26.0955 53.1852 26.1375C53.2062 26.1585 53.2062 26.1795 53.2272 26.1795C53.2614 26.2091 53.2899 26.2446 53.3112 26.2845C53.3322 26.3055 53.3532 26.3055 53.3532 26.3265H51.1482L49.8672 24.2055L51.1272 21.9375H53.3322L53.2902 21.9795L53.2692 22.0005L53.1852 22.0845Z" fill="#F9F9F9" fill-opacity="0.8"/>
        <path d="M40.6012 34.1606C40.351 34.1579 40.1029 34.1154 39.8662 34.0346C39.5874 33.9452 39.3197 33.8244 39.0682 33.6746C38.7479 33.5035 38.4668 33.2677 38.2426 32.9821C38.0185 32.6964 37.8562 32.3673 37.7662 32.0156C37.7422 31.8981 37.7449 31.7768 37.774 31.6605C37.803 31.5442 37.8578 31.4359 37.9342 31.3436C37.9552 31.3016 37.9942 31.2836 38.0182 31.2386C38.0392 31.2176 38.0602 31.2176 38.0782 31.1966L38.1202 31.1546C38.1622 31.1336 38.1802 31.1126 38.2252 31.0916C38.5198 30.9888 38.8327 30.9489 39.1437 30.9742C39.4547 30.9995 39.757 31.0896 40.0312 31.2386L40.0522 31.2596C40.1122 31.2806 40.1782 31.3226 40.2412 31.3436C40.3016 31.3709 40.3582 31.4062 40.4092 31.4486L40.5982 31.5746C40.6582 31.6166 40.7032 31.6586 40.7662 31.7006L40.8082 31.7216C40.8502 31.7636 40.8922 31.7816 40.9342 31.8266L40.9762 31.8686C41.0182 31.8896 41.0362 31.9316 41.0602 31.9526C41.085 31.9768 41.1054 32.0052 41.1202 32.0366C41.1412 32.0786 41.1802 32.0996 41.2042 32.1416L41.2462 32.1836C41.2672 32.2256 41.3092 32.2436 41.3302 32.2886L41.3722 32.3306C41.3932 32.3726 41.4142 32.3906 41.4352 32.4356V32.4566L41.4562 32.4986C41.4919 32.5427 41.5203 32.5924 41.5402 32.6456C41.5612 32.6876 41.5822 32.7506 41.6002 32.7926L41.6212 32.8136C41.6234 32.8295 41.6308 32.8443 41.6422 32.8556C41.6422 32.8766 41.6422 32.8766 41.6632 32.8976C41.6632 32.9396 41.6842 32.9576 41.6842 33.0026C41.6842 33.0476 41.7052 33.0446 41.7052 33.0626V33.4826C41.7052 33.5246 41.6842 33.5426 41.6632 33.5876C41.6422 33.6326 41.6212 33.6506 41.6032 33.6926C41.4995 33.8593 41.3496 33.9923 41.1717 34.0754C40.9938 34.1585 40.7956 34.1881 40.6012 34.1606Z" fill="#F9F9F9" fill-opacity="0.8"/>
        <path d="M42.1383 32.6277C42.1383 32.5857 42.1173 32.5647 42.0963 32.5227C42.0963 32.5017 42.0963 32.5017 42.0753 32.4807C42.0558 32.4208 42.0275 32.3642 41.9913 32.3127C41.7292 31.838 41.363 31.4287 40.9203 31.1157L40.7313 30.9897C40.673 30.9468 40.6095 30.9115 40.5423 30.8847H40.5213C40.5003 30.8637 40.4793 30.8637 40.4613 30.8427C40.4193 30.8217 40.3983 30.8007 40.3563 30.7827H40.3323C40.3113 30.7827 40.2903 30.7617 40.2693 30.7617C40.2309 30.7384 40.1879 30.7241 40.1433 30.7197L40.1013 30.6987H40.0803C40.0593 30.6987 40.0383 30.6777 40.0203 30.6777C39.9783 30.6567 39.9363 30.6567 39.8943 30.6357L39.8523 30.6147H39.8283C39.7863 30.5937 39.7443 30.5937 39.7023 30.5727C39.6813 30.5727 39.6603 30.5517 39.6183 30.5517H39.6003C39.5649 30.5468 39.5298 30.5397 39.4953 30.5307C39.4657 30.5338 39.4359 30.5264 39.4113 30.5097H39.3903C39.3793 30.5106 39.3683 30.5092 39.358 30.5056C39.3477 30.502 39.3382 30.4962 39.3303 30.4887H39.2673C39.2073 30.4887 39.1203 30.4677 39.0573 30.4677H38.7783C38.7352 30.4644 38.6919 30.4716 38.6522 30.4887C38.6413 30.4877 38.6303 30.4891 38.62 30.4927C38.6097 30.4964 38.6002 30.5021 38.5923 30.5097C38.5503 30.5097 38.5083 30.5307 38.4663 30.5307C38.4453 30.5307 38.4243 30.5517 38.4062 30.5517L39.5553 28.6797L42.0333 28.7007L43.3143 30.9687L42.1593 32.8587C42.1602 32.8478 42.1588 32.8368 42.1552 32.8264C42.1516 32.8161 42.1458 32.8066 42.1383 32.7987V32.7567C42.1383 32.7357 42.1173 32.7147 42.1173 32.6727C42.1235 32.6669 42.1286 32.66 42.1322 32.6523C42.1358 32.6446 42.1379 32.6362 42.1383 32.6277Z" fill="#F9F9F9" fill-opacity="0.8"/>
        <path d="M46.527 35.2734L40.479 35.2524L39.555 36.9924L38.925 38.1924L40.542 38.1714V38.1924L49.782 38.2134L50.706 36.6174L44.049 25.2174L30.84 25.1934L30 26.6634L30.168 26.9364H30.147L35.397 36.1734L37.137 33.3384L34.074 28.1334H42.369L46.527 35.2734Z" fill="#F9F9F9" fill-opacity="0.8"/>
        <path d="M87.642 24.209C87.642 23.39 87.642 22.697 87.684 22.151C87.6961 21.7006 87.7382 21.2516 87.81 20.807C87.919 20.255 88.1852 19.7464 88.5766 19.3423C88.968 18.9382 89.4679 18.6559 90.0161 18.5294C90.5642 18.4029 91.1373 18.4376 91.6662 18.6293C92.1951 18.821 92.6572 19.1616 92.997 19.61C93.2429 19.9816 93.4207 20.394 93.522 20.828C93.5302 20.8483 93.545 20.8654 93.5641 20.8763C93.5831 20.8872 93.6053 20.8913 93.627 20.888H96.882C96.924 20.888 96.942 20.846 96.942 20.804C96.8148 19.8032 96.4438 18.849 95.8616 18.0252C95.2794 17.2013 94.5039 16.533 93.603 16.079C92.6692 15.647 91.6498 15.4316 90.621 15.449C89.7592 15.429 88.9025 15.5865 88.1041 15.9116C87.3057 16.2367 86.5827 16.7226 85.98 17.339C85.2699 18.0437 84.7809 18.9403 84.573 19.919C84.3464 21.3352 84.248 22.769 84.279 24.203C84.248 25.6369 84.3464 27.0707 84.573 28.487C84.7668 29.4716 85.2579 30.3731 85.98 31.07C86.5839 31.6847 87.3071 32.1695 88.1052 32.4945C88.9033 32.8196 89.7595 32.9779 90.621 32.96C91.6498 32.9773 92.6692 32.7619 93.603 32.33C94.502 31.8735 95.276 31.2045 95.8579 30.3811C96.4397 29.5577 96.8119 28.6048 96.942 27.605C96.942 27.563 96.942 27.521 96.882 27.521H93.627C93.6053 27.5176 93.5831 27.5217 93.5641 27.5326C93.545 27.5435 93.5302 27.5606 93.522 27.581C93.4115 28.0118 93.2344 28.4228 92.997 28.799C92.657 29.2473 92.1946 29.5878 91.6655 29.7794C91.1364 29.9709 90.5632 30.0054 90.015 29.8786C89.4667 29.7517 88.9669 29.469 88.5757 29.0646C88.1844 28.6601 87.9185 28.1511 87.81 27.599C87.7371 27.1544 87.695 26.7053 87.684 26.255C87.642 25.718 87.642 25.025 87.642 24.209Z" fill="#F9F9F9" fill-opacity="0.8"/>
        <path d="M104.697 24.209C104.697 23.39 104.697 22.697 104.739 22.151C104.751 21.7006 104.793 21.2516 104.865 20.807C104.974 20.255 105.24 19.7464 105.631 19.3423C106.023 18.9382 106.523 18.6559 107.071 18.5294C107.619 18.4029 108.192 18.4376 108.721 18.6293C109.25 18.821 109.712 19.1616 110.052 19.61C110.298 19.9816 110.475 20.394 110.577 20.828C110.585 20.8483 110.6 20.8654 110.619 20.8763C110.638 20.8872 110.66 20.8913 110.682 20.888H113.937C113.979 20.888 113.997 20.846 113.997 20.804C113.869 19.8032 113.498 18.849 112.916 18.0252C112.334 17.2013 111.559 16.533 110.658 16.079C109.724 15.647 108.704 15.4316 107.676 15.449C106.814 15.429 105.957 15.5865 105.159 15.9116C104.36 16.2367 103.637 16.7226 103.035 17.339C102.325 18.0437 101.836 18.9403 101.628 19.919C101.401 21.3352 101.303 22.769 101.334 24.203C101.303 25.6369 101.401 27.0707 101.628 28.487C101.821 29.4716 102.313 30.3731 103.035 31.07C103.639 31.6847 104.362 32.1695 105.16 32.4945C105.958 32.8196 106.814 32.9779 107.676 32.96C108.704 32.9773 109.724 32.7619 110.658 32.33C111.557 31.8735 112.331 31.2045 112.913 30.3811C113.494 29.5577 113.867 28.6048 113.997 27.605C113.997 27.563 113.997 27.521 113.937 27.521H110.682C110.66 27.5176 110.638 27.5217 110.619 27.5326C110.6 27.5435 110.585 27.5606 110.577 27.581C110.466 28.0118 110.289 28.4228 110.052 28.799C109.712 29.2473 109.249 29.5878 108.72 29.7794C108.191 29.9709 107.618 30.0054 107.07 29.8786C106.521 29.7517 106.022 29.469 105.63 29.0646C105.239 28.6601 104.973 28.1511 104.865 27.599C104.792 27.1544 104.75 26.7053 104.739 26.255C104.718 25.718 104.697 25.025 104.697 24.209Z" fill="#F9F9F9" fill-opacity="0.8"/>
        <path d="M70.0085 15.8898C70.0095 15.8509 70.0026 15.8122 69.9882 15.7761C69.9737 15.74 69.9521 15.7072 69.9246 15.6797C69.8971 15.6522 69.8643 15.6306 69.8282 15.6162C69.7921 15.6017 69.7534 15.5948 69.7145 15.5958H66.9425C66.9037 15.5948 66.865 15.6017 66.8289 15.6162C66.7927 15.6306 66.7599 15.6522 66.7324 15.6797C66.7049 15.7072 66.6833 15.74 66.6689 15.7761C66.6545 15.8122 66.6475 15.8509 66.6485 15.8898V32.5218C66.6475 32.5607 66.6545 32.5993 66.6689 32.6355C66.6833 32.6716 66.7049 32.7044 66.7324 32.7319C66.7599 32.7594 66.7927 32.781 66.8289 32.7954C66.865 32.8099 66.9037 32.8168 66.9425 32.8158H69.7145C69.7534 32.8168 69.7921 32.8099 69.8282 32.7954C69.8643 32.781 69.8971 32.7594 69.9246 32.7319C69.9521 32.7044 69.9737 32.6716 69.9882 32.6355C70.0026 32.5993 70.0095 32.5607 70.0085 32.5218V27.6498L72.2345 24.9828L76.8125 32.7318C76.8292 32.7607 76.854 32.7841 76.8839 32.799C76.9138 32.814 76.9474 32.8198 76.9805 32.8158H80.3405C80.4875 32.8158 80.5295 32.7108 80.4455 32.5848L74.4605 22.4418L79.9415 15.8688C80.0465 15.7428 80.0045 15.6168 79.8365 15.6168H76.1615C76.1398 15.6135 76.1176 15.6176 76.0986 15.6285C76.0795 15.6394 76.0647 15.6564 76.0565 15.6768L70.0295 22.9248V15.8898H70.0085Z" fill="#F9F9F9" fill-opacity="0.8"/>
    </g>
    <defs>
        <clipPath id="clip0_21123_87185">
            <rect width="144" height="48" fill="white"/>
        </clipPath>
    </defs>
</svg>
