<svg width="144" height="48" viewBox="0 0 144 48" fill="none" xmlns="http://www.w3.org/2000/svg">
    <g clip-path="url(#clip0_19395_55771)">
        <path d="M77.1202 17.8945L74.8274 23.1411C74.6256 23.5906 74.3868 23.9116 74.1117 24.1317C73.8365 24.3427 73.4974 24.4436 73.0936 24.4436C72.8369 24.4436 72.58 24.4161 72.3233 24.3519V23.4897C72.6167 23.5172 72.8002 23.5263 72.8736 23.5263C73.1121 23.5263 73.3138 23.4805 73.4789 23.3796C73.6439 23.2879 73.7816 23.1044 73.9009 22.8476L74.0935 22.4073L72.2041 17.9129H73.2956L74.6529 21.3525L76.0472 17.9129L77.1202 17.8945Z" fill="#030308" fill-opacity="0.8"/>
        <path d="M80.4499 17.8133C81.1103 17.8133 81.6697 18.0426 82.1099 18.5104C82.5504 18.9782 82.7704 19.5744 82.7704 20.2623C82.7704 20.9503 82.5504 21.5464 82.119 22.0142C81.6879 22.482 81.1376 22.7113 80.4772 22.7113C80.138 22.7113 79.817 22.6471 79.5234 22.5096C79.2391 22.372 79.0098 22.1885 78.8353 21.9501V22.6105H77.8906V15.4102H78.8996V18.4737C79.2758 18.0243 79.8076 17.795 80.4866 17.795L80.4499 17.8133ZM80.303 21.8124C80.7159 21.8124 81.0369 21.6565 81.3212 21.3722C81.5963 21.0878 81.734 20.7118 81.734 20.2531C81.734 19.8037 81.5963 19.446 81.3212 19.1433C81.046 18.8589 80.6974 18.7122 80.2848 18.7122C79.8901 18.7122 79.5601 18.8498 79.2758 19.1158C78.9913 19.3818 78.8629 19.767 78.8629 20.2715C78.8629 20.776 79.0098 21.1704 79.2849 21.4272C79.5601 21.684 79.8996 21.8124 80.2939 21.8124H80.303Z" fill="#030308" fill-opacity="0.8"/>
        <path d="M69.8553 27.7373C70.3964 27.7373 70.8369 27.9208 71.1487 28.2601C71.4606 28.5995 71.6165 29.049 71.6165 29.6268V32.5803H70.6075V29.7644C70.6075 29.4434 70.5156 29.1682 70.3231 28.9756C70.1305 28.7738 69.8828 28.6729 69.5802 28.6729C69.2683 28.6729 69.0115 28.7738 68.8097 28.9756C68.6079 29.1774 68.5162 29.4342 68.5162 29.746V32.5803H67.498V27.8474H68.4428V28.3152C68.8005 27.9299 69.2683 27.7465 69.8553 27.7465V27.7373Z" fill="#030308" fill-opacity="0.8"/>
        <path d="M77.2297 30.5257H73.717C73.781 30.9201 73.9555 31.2228 74.2306 31.4521C74.5058 31.6722 74.8544 31.7731 75.2669 31.7731C75.7532 31.7731 76.221 31.5897 76.6427 31.2228L77.1199 31.9107C76.5878 32.4152 75.955 32.6629 75.2396 32.6629C74.5149 32.6629 73.9003 32.4244 73.4234 31.9566C72.9465 31.4888 72.708 30.8926 72.708 30.2047C72.708 29.5167 72.9465 28.9297 73.4143 28.4527C73.8821 27.9758 74.46 27.7373 75.1386 27.7373C75.7623 27.7373 76.2851 27.9391 76.6979 28.3518C77.1105 28.7646 77.3217 29.2874 77.3217 29.9111C77.3217 29.8928 77.3126 30.2872 77.2297 30.5257ZM75.1019 28.5903C74.7718 28.5903 74.4782 28.6912 74.2212 28.9022C73.9737 29.1132 73.8086 29.3883 73.7352 29.7552H76.3036C76.2942 29.3975 76.1749 29.1223 75.9459 28.9022C75.7165 28.6912 75.432 28.5903 75.0837 28.5903H75.1019Z" fill="#030308" fill-opacity="0.8"/>
        <path d="M88.1363 20.5921H84.6233C84.6873 20.9865 84.8617 21.2892 85.1369 21.5185C85.412 21.7386 85.7606 21.8395 86.1732 21.8395C86.6595 21.8395 87.1273 21.6561 87.5493 21.2892L88.0262 21.9771C87.4941 22.4816 86.8612 22.7292 86.1459 22.7292C85.4211 22.7292 84.8065 22.4908 84.3296 22.023C83.8527 21.5552 83.6143 20.959 83.6143 20.2711C83.6143 19.5831 83.8527 18.9961 84.3205 18.5192C84.7883 18.0422 85.3662 17.8037 86.0449 17.8037C86.6686 17.8037 87.1913 18.0055 87.6042 18.4182C88.0168 18.831 88.2279 19.3538 88.2279 19.9775C88.2279 19.9592 88.2279 20.3444 88.1363 20.5921ZM86.0082 18.6567C85.6781 18.6567 85.3844 18.7576 85.1278 18.9686C84.8799 19.1796 84.7149 19.4547 84.6415 19.8216H87.2098C87.2007 19.4639 87.0815 19.1887 86.8521 18.9686C86.6228 18.7576 86.3385 18.6567 85.99 18.6567H86.0082Z" fill="#030308" fill-opacity="0.8"/>
        <path d="M80.8626 31.7463C81.0095 31.7463 81.2021 31.7188 81.4773 31.6912V32.5534C81.1654 32.6177 80.8811 32.6543 80.6333 32.6543C80.0924 32.6543 79.6613 32.5168 79.3585 32.2508C79.0558 31.9848 78.8998 31.572 78.8998 31.0216V28.7194H78.1387V27.8389H78.8998V26.6006H79.9179V27.8389H81.3213V28.7194H79.9179V30.9299C79.9179 31.2234 79.9914 31.4344 80.1473 31.5628C80.3032 31.6912 80.5326 31.7463 80.8353 31.7463H80.8626Z" fill="#030308" fill-opacity="0.8"/>
        <path d="M89.7045 27.8386L87.613 32.6632H87.2736L85.7971 29.5263L84.3203 32.6632H83.9808L81.8896 27.8386H82.9718L84.2101 30.9205L85.6411 27.7285H85.9803L87.4295 30.8746L88.6497 27.8294H89.7227V27.8386H89.7045Z" fill="#030308" fill-opacity="0.8"/>
        <path d="M94.3914 28.4344C93.9051 27.9666 93.3181 27.7373 92.6304 27.7373C91.9332 27.7373 91.3462 27.9758 90.8599 28.4436C90.383 28.9114 90.1445 29.5076 90.1445 30.1863C90.1445 30.8743 90.383 31.4613 90.8599 31.9291C91.3368 32.3968 91.9332 32.6353 92.6304 32.6445C93.3181 32.6445 93.9051 32.406 94.4005 31.9291C94.8865 31.4521 95.125 30.8559 95.125 30.1771C95.1344 29.4984 94.8865 28.9022 94.3914 28.4344ZM93.6576 31.2778C93.3824 31.5622 93.0338 31.7089 92.6209 31.7089C92.1993 31.7089 91.8598 31.5622 91.5755 31.2778C91.3004 30.9935 91.1626 30.6266 91.1626 30.1863C91.1626 29.746 91.3004 29.3883 91.5755 29.0856C91.8507 28.8013 92.1993 28.6545 92.6209 28.6454H92.6304C93.0429 28.6545 93.3824 28.8013 93.6667 29.0856C93.9418 29.37 94.0796 29.7369 94.0796 30.1863C94.0796 30.6174 93.9327 30.9935 93.6576 31.2778Z" fill="#030308" fill-opacity="0.8"/>
        <path d="M98.6024 27.793C98.7492 27.793 98.8685 27.8113 98.9877 27.8388V28.7377H98.6758C98.2814 28.7377 97.9605 28.8478 97.6944 29.0771C97.4374 29.3064 97.3 29.6183 97.3 30.0402V32.5809H96.291V27.848H97.2357V28.4625C97.5661 28.0223 98.0245 27.8021 98.6209 27.8021L98.6024 27.793Z" fill="#030308" fill-opacity="0.8"/>
        <path d="M91.7779 17.8682C91.9244 17.8682 92.0436 17.8865 92.1628 17.914V18.8129H91.8604C91.466 18.8129 91.1447 18.923 90.879 19.1523C90.622 19.3816 90.4843 19.6935 90.4843 20.1154V22.6562H89.4756V17.9232H90.4203V18.5378C90.7503 18.0975 91.209 17.8774 91.8052 17.8774L91.7779 17.8682Z" fill="#030308" fill-opacity="0.8"/>
        <path d="M99.9873 25.3525H100.996V32.5804H99.9873V25.3525ZM104.298 32.5804H103.087L101.033 29.9112L102.877 27.8474H104.124L102.225 29.9204L104.298 32.5804Z" fill="#030308" fill-opacity="0.8"/>
        <path d="M67.498 15.418H68.507V22.6366H67.498V15.418ZM71.8092 22.6458H70.5984L68.5437 19.9766L70.3873 17.9128H71.6347L69.7269 19.9858L71.8092 22.6458Z" fill="#030308" fill-opacity="0.8"/>
        <path d="M48.5947 23.9955L60.5463 30.8473C60.9591 31.0858 61.491 30.7831 61.491 30.3061V17.685C61.491 17.208 60.9682 16.9053 60.5463 17.1438L48.5947 23.9955Z" fill="#030308" fill-opacity="0.8"/>
        <path d="M59.8489 14.1903L51.9149 8.12738C51.548 7.85221 51.0159 8.04483 50.9151 8.49428L48.0166 21.996L59.7847 15.236C60.1792 15.0066 60.2158 14.4655 59.8489 14.1903Z" fill="#030308" fill-opacity="0.8"/>
        <path d="M51.9149 39.8726L59.8673 33.8004C60.225 33.5252 60.1883 32.9841 59.8031 32.7548L48.0166 26.0039L50.9242 39.5055C51.0068 39.9551 51.5388 40.1478 51.9149 39.8726Z" fill="#030308" fill-opacity="0.8"/>
        <path d="M45.5307 23.9951L48.6585 9.44773C48.7777 8.87904 48.1265 8.45712 47.6587 8.82401L39.6512 14.942C39.2385 15.2538 39 15.7491 39 16.2628V31.7549C39 32.2685 39.2385 32.7638 39.6512 33.0757L47.6587 39.1845C48.1173 39.5331 48.7777 39.1203 48.6585 38.5608L45.5307 23.9951Z" fill="#030308" fill-opacity="0.8"/>
    </g>
    <defs>
        <clipPath id="clip0_19395_55771">
            <rect width="144" height="48" fill="white"/>
        </clipPath>
    </defs>
</svg>
