<svg width="144" height="48" viewBox="0 0 144 48" fill="none" xmlns="http://www.w3.org/2000/svg">
    <g clip-path="url(#clip0_19395_55792)">
        <path d="M77.1207 17.8945L74.8278 23.1411C74.6261 23.5906 74.3873 23.9116 74.1122 24.1317C73.837 24.3427 73.4979 24.4436 73.0941 24.4436C72.8374 24.4436 72.5805 24.4161 72.3238 24.3519V23.4897C72.6172 23.5172 72.8007 23.5263 72.8741 23.5263C73.1126 23.5263 73.3143 23.4805 73.4793 23.3796C73.6444 23.2879 73.7821 23.1044 73.9013 22.8476L74.094 22.4073L72.2046 17.9129H73.2961L74.6534 21.3525L76.0477 17.9129L77.1207 17.8945Z" fill="#141927"/>
        <path d="M80.4504 17.8133C81.1108 17.8133 81.6702 18.0426 82.1104 18.5104C82.5509 18.9782 82.7708 19.5744 82.7708 20.2623C82.7708 20.9503 82.5509 21.5464 82.1195 22.0142C81.6884 22.482 81.1381 22.7113 80.4777 22.7113C80.1385 22.7113 79.8175 22.6471 79.5239 22.5096C79.2396 22.372 79.0103 22.1885 78.8358 21.9501V22.6105H77.8911V15.4102H78.9001V18.4737C79.2763 18.0243 79.8081 17.795 80.4871 17.795L80.4504 17.8133ZM80.3035 21.8124C80.7164 21.8124 81.0374 21.6565 81.3216 21.3722C81.5968 21.0878 81.7345 20.7118 81.7345 20.2531C81.7345 19.8037 81.5968 19.446 81.3216 19.1433C81.0465 18.8589 80.6979 18.7122 80.2853 18.7122C79.8906 18.7122 79.5606 18.8498 79.2763 19.1158C78.9917 19.3818 78.8634 19.767 78.8634 20.2715C78.8634 20.776 79.0103 21.1704 79.2854 21.4272C79.5606 21.684 79.9 21.8124 80.2944 21.8124H80.3035Z" fill="#141927"/>
        <path d="M69.8553 27.7363C70.3964 27.7363 70.8369 27.9198 71.1487 28.2592C71.4606 28.5985 71.6165 29.048 71.6165 29.6258V32.5793H70.6075V29.7634C70.6075 29.4424 70.5156 29.1672 70.3231 28.9746C70.1305 28.7728 69.8828 28.6719 69.5802 28.6719C69.2683 28.6719 69.0115 28.7728 68.8097 28.9746C68.6079 29.1764 68.5162 29.4332 68.5162 29.7451V32.5793H67.498V27.8464H68.4428V28.3142C68.8005 27.9289 69.2683 27.7455 69.8553 27.7455V27.7363Z" fill="#141927"/>
        <path d="M77.2302 30.5247H73.7175C73.7815 30.9191 73.956 31.2218 74.2311 31.4511C74.5063 31.6713 74.8548 31.7722 75.2674 31.7722C75.7537 31.7722 76.2215 31.5887 76.6432 31.2218L77.1204 31.9097C76.5883 32.4143 75.9555 32.6619 75.2401 32.6619C74.5154 32.6619 73.9007 32.4234 73.4238 31.9556C72.9469 31.4878 72.7085 30.8916 72.7085 30.2037C72.7085 29.5158 72.9469 28.9287 73.4147 28.4518C73.8825 27.9748 74.4605 27.7363 75.1391 27.7363C75.7628 27.7363 76.2855 27.9381 76.6984 28.3509C77.111 28.7636 77.3222 29.2865 77.3222 29.9102C77.3222 29.8918 77.3131 30.2863 77.2302 30.5247ZM75.1024 28.5893C74.7723 28.5893 74.4787 28.6902 74.2217 28.9012C73.9742 29.1122 73.8091 29.3874 73.7357 29.7542H76.3041C76.2946 29.3965 76.1754 29.1213 75.9464 28.9012C75.717 28.6902 75.4325 28.5893 75.0842 28.5893H75.1024Z" fill="#141927"/>
        <path d="M88.1368 20.5931H84.6238C84.6878 20.9875 84.8622 21.2902 85.1374 21.5195C85.4125 21.7396 85.7611 21.8405 86.1737 21.8405C86.66 21.8405 87.1278 21.6571 87.5498 21.2902L88.0267 21.9781C87.4946 22.4826 86.8617 22.7302 86.1464 22.7302C85.4216 22.7302 84.807 22.4917 84.3301 22.0239C83.8532 21.5562 83.6147 20.96 83.6147 20.272C83.6147 19.5841 83.8532 18.9971 84.321 18.5201C84.7888 18.0432 85.3667 17.8047 86.0454 17.8047C86.6691 17.8047 87.1918 18.0065 87.6047 18.4192C88.0173 18.832 88.2284 19.3548 88.2284 19.9785C88.2284 19.9602 88.2284 20.3454 88.1368 20.5931ZM86.0086 18.6577C85.6786 18.6577 85.3849 18.7586 85.1283 18.9696C84.8804 19.1805 84.7154 19.4557 84.642 19.8226H87.2103C87.2012 19.4649 87.082 19.1897 86.8526 18.9696C86.6233 18.7586 86.339 18.6577 85.9905 18.6577H86.0086Z" fill="#141927"/>
        <path d="M80.8626 31.7473C81.0095 31.7473 81.2021 31.7197 81.4773 31.6922V32.5544C81.1654 32.6186 80.8811 32.6553 80.6333 32.6553C80.0924 32.6553 79.6613 32.5177 79.3585 32.2517C79.0558 31.9857 78.8998 31.573 78.8998 31.0226V28.7204H78.1387V27.8398H78.8998V26.6016H79.9179V27.8398H81.3213V28.7204H79.9179V30.9309C79.9179 31.2244 79.9914 31.4354 80.1473 31.5638C80.3032 31.6922 80.5326 31.7473 80.8353 31.7473H80.8626Z" fill="#141927"/>
        <path d="M89.7045 27.8386L87.613 32.6632H87.2736L85.7971 29.5263L84.3203 32.6632H83.9808L81.8896 27.8386H82.9718L84.2101 30.9205L85.6411 27.7285H85.9803L87.4295 30.8746L88.6497 27.8294H89.7227V27.8386H89.7045Z" fill="#141927"/>
        <path d="M94.3919 28.4334C93.9056 27.9656 93.3186 27.7363 92.6308 27.7363C91.9337 27.7363 91.3467 27.9748 90.8604 28.4426C90.3835 28.9104 90.145 29.5066 90.145 30.1854C90.145 30.8733 90.3835 31.4603 90.8604 31.9281C91.3373 32.3959 91.9337 32.6343 92.6308 32.6435C93.3186 32.6435 93.9056 32.4051 94.401 31.9281C94.887 31.4511 95.1255 30.8549 95.1255 30.1762C95.1349 29.4974 94.887 28.9012 94.3919 28.4334ZM93.6581 31.2769C93.3829 31.5612 93.0343 31.7079 92.6214 31.7079C92.1998 31.7079 91.8603 31.5612 91.576 31.2769C91.3009 30.9925 91.1631 30.6256 91.1631 30.1854C91.1631 29.7451 91.3009 29.3873 91.576 29.0847C91.8512 28.8003 92.1998 28.6536 92.6214 28.6444H92.6308C93.0434 28.6536 93.3829 28.8003 93.6672 29.0847C93.9423 29.369 94.08 29.7359 94.08 30.1854C94.08 30.6164 93.9332 30.9925 93.6581 31.2769Z" fill="#141927"/>
        <path d="M98.6024 27.793C98.7492 27.793 98.8685 27.8113 98.9877 27.8388V28.7377H98.6758C98.2814 28.7377 97.9605 28.8478 97.6944 29.0771C97.4374 29.3064 97.3 29.6183 97.3 30.0402V32.5809H96.291V27.848H97.2357V28.4625C97.5661 28.0223 98.0245 27.8021 98.6209 27.8021L98.6024 27.793Z" fill="#141927"/>
        <path d="M91.7779 17.8672C91.9244 17.8672 92.0436 17.8855 92.1628 17.9131V18.8119H91.8604C91.466 18.8119 91.1447 18.922 90.879 19.1513C90.622 19.3806 90.4843 19.6925 90.4843 20.1144V22.6552H89.4756V17.9223H90.4203V18.5368C90.7503 18.0965 91.209 17.8764 91.8052 17.8764L91.7779 17.8672Z" fill="#141927"/>
        <path d="M99.9868 25.3516H100.996V32.5794H99.9868V25.3516ZM104.298 32.5794H103.087L101.033 29.9102L102.876 27.8465H104.124L102.225 29.9194L104.298 32.5794Z" fill="#141927"/>
        <path d="M67.498 15.418H68.507V22.6366H67.498V15.418ZM71.8092 22.6458H70.5984L68.5437 19.9766L70.3873 17.9128H71.6347L69.7269 19.9858L71.8092 22.6458Z" fill="#141927"/>
        <path d="M48.5947 23.9955L60.5463 30.8473C60.9591 31.0858 61.491 30.7831 61.491 30.3061V17.685C61.491 17.208 60.9682 16.9053 60.5463 17.1438L48.5947 23.9955Z" fill="#31CB9E"/>
        <path d="M59.8489 14.1903L51.9149 8.12738C51.548 7.85221 51.0159 8.04483 50.9151 8.49428L48.0166 21.996L59.7847 15.236C60.1792 15.0066 60.2158 14.4655 59.8489 14.1903Z" fill="#31CB9E"/>
        <path d="M51.9149 39.8726L59.8673 33.8004C60.225 33.5252 60.1883 32.9841 59.8031 32.7548L48.0166 26.0039L50.9242 39.5055C51.0068 39.9551 51.5388 40.1478 51.9149 39.8726Z" fill="#31CB9E"/>
        <path d="M45.5307 23.996L48.6585 9.44871C48.7777 8.88002 48.1265 8.4581 47.6587 8.82499L39.6512 14.9429C39.2385 15.2548 39 15.7501 39 16.2638V31.7559C39 32.2695 39.2385 32.7648 39.6512 33.0767L47.6587 39.1855C48.1173 39.534 48.7777 39.1213 48.6585 38.5618L45.5307 23.996Z" fill="#31CB9E"/>
    </g>
    <defs>
        <clipPath id="clip0_19395_55792">
            <rect width="144" height="48" fill="white"/>
        </clipPath>
    </defs>
</svg>
