<svg width="144" height="48" viewBox="0 0 144 48" fill="none" xmlns="http://www.w3.org/2000/svg">
    <g clip-path="url(#clip0_21123_87271)">
        <path d="M77.1192 17.8945L74.8264 23.1411C74.6246 23.5906 74.3859 23.9116 74.1107 24.1317C73.8356 24.3427 73.4964 24.4436 73.0926 24.4436C72.836 24.4436 72.579 24.4161 72.3223 24.3519V23.4897C72.6157 23.5172 72.7992 23.5263 72.8727 23.5263C73.1111 23.5263 73.3129 23.4805 73.4779 23.3796C73.6429 23.2879 73.7807 23.1044 73.8999 22.8476L74.0925 22.4073L72.2031 17.9129H73.2947L74.6519 21.3525L76.0462 17.9129L77.1192 17.8945Z" fill="#F9F9F9" fill-opacity="0.8"/>
        <path d="M80.4499 17.8133C81.1103 17.8133 81.6697 18.0426 82.1099 18.5104C82.5504 18.9782 82.7704 19.5744 82.7704 20.2623C82.7704 20.9503 82.5504 21.5464 82.119 22.0142C81.6879 22.482 81.1376 22.7113 80.4772 22.7113C80.138 22.7113 79.817 22.6471 79.5234 22.5096C79.2391 22.372 79.0098 22.1885 78.8353 21.9501V22.6105H77.8906V15.4102H78.8996V18.4737C79.2758 18.0243 79.8076 17.795 80.4866 17.795L80.4499 17.8133ZM80.303 21.8124C80.7159 21.8124 81.0369 21.6565 81.3212 21.3722C81.5963 21.0878 81.734 20.7118 81.734 20.2531C81.734 19.8037 81.5963 19.446 81.3212 19.1433C81.046 18.8589 80.6974 18.7122 80.2848 18.7122C79.8901 18.7122 79.5601 18.8498 79.2758 19.1158C78.9913 19.3818 78.8629 19.767 78.8629 20.2715C78.8629 20.776 79.0098 21.1704 79.2849 21.4272C79.5601 21.684 79.8996 21.8124 80.2939 21.8124H80.303Z" fill="#F9F9F9" fill-opacity="0.8"/>
        <path d="M69.8573 27.7363C70.3983 27.7363 70.8388 27.9198 71.1507 28.2592C71.4625 28.5985 71.6185 29.048 71.6185 29.6258V32.5793H70.6095V29.7634C70.6095 29.4424 70.5175 29.1672 70.3251 28.9746C70.1324 28.7728 69.8848 28.6719 69.5821 28.6719C69.2703 28.6719 69.0134 28.7728 68.8116 28.9746C68.6099 29.1764 68.5181 29.4332 68.5181 29.7451V32.5793H67.5V27.8464H68.4447V28.3142C68.8025 27.9289 69.2703 27.7455 69.8573 27.7455V27.7363Z" fill="#F9F9F9" fill-opacity="0.8"/>
        <path d="M77.2327 30.5247H73.72C73.784 30.9191 73.9584 31.2218 74.2336 31.4511C74.5087 31.6713 74.8573 31.7722 75.2699 31.7722C75.7562 31.7722 76.224 31.5887 76.6457 31.2218L77.1229 31.9097C76.5907 32.4143 75.9579 32.6619 75.2426 32.6619C74.5178 32.6619 73.9032 32.4234 73.4263 31.9556C72.9494 31.4878 72.7109 30.8916 72.7109 30.2037C72.7109 29.5158 72.9494 28.9287 73.4172 28.4518C73.885 27.9748 74.4629 27.7363 75.1415 27.7363C75.7653 27.7363 76.288 27.9381 76.7009 28.3509C77.1135 28.7636 77.3246 29.2865 77.3246 29.9102C77.3246 29.8918 77.3155 30.2863 77.2327 30.5247ZM75.1048 28.5893C74.7748 28.5893 74.4811 28.6902 74.2241 28.9012C73.9766 29.1122 73.8116 29.3874 73.7381 29.7542H76.3065C76.2971 29.3965 76.1779 29.1213 75.9488 28.9012C75.7195 28.6902 75.4349 28.5893 75.0866 28.5893H75.1048Z" fill="#F9F9F9" fill-opacity="0.8"/>
        <path d="M88.1392 20.5931H84.6262C84.6902 20.9875 84.8647 21.2902 85.1398 21.5195C85.415 21.7396 85.7635 21.8405 86.1761 21.8405C86.6624 21.8405 87.1302 21.6571 87.5522 21.2902L88.0291 21.9781C87.497 22.4826 86.8642 22.7302 86.1488 22.7302C85.4241 22.7302 84.8094 22.4917 84.3325 22.0239C83.8556 21.5562 83.6172 20.96 83.6172 20.272C83.6172 19.5841 83.8556 18.9971 84.3234 18.5201C84.7912 18.0432 85.3692 17.8047 86.0478 17.8047C86.6715 17.8047 87.1942 18.0065 87.6071 18.4192C88.0197 18.832 88.2309 19.3548 88.2309 19.9785C88.2309 19.9602 88.2309 20.3454 88.1392 20.5931ZM86.0111 18.6577C85.681 18.6577 85.3874 18.7586 85.1307 18.9696C84.8829 19.1805 84.7178 19.4557 84.6444 19.8226H87.2127C87.2036 19.4649 87.0844 19.1897 86.8551 18.9696C86.6257 18.7586 86.3415 18.6577 85.9929 18.6577H86.0111Z" fill="#F9F9F9" fill-opacity="0.8"/>
        <path d="M80.8646 31.7473C81.0114 31.7473 81.2041 31.7197 81.4792 31.6922V32.5544C81.1674 32.6186 80.8831 32.6553 80.6352 32.6553C80.0943 32.6553 79.6632 32.5177 79.3605 32.2517C79.0577 31.9857 78.9018 31.573 78.9018 31.0226V28.7204H78.1406V27.8398H78.9018V26.6016H79.9199V27.8398H81.3233V28.7204H79.9199V30.9309C79.9199 31.2244 79.9933 31.4354 80.1492 31.5638C80.3052 31.6922 80.5345 31.7473 80.8373 31.7473H80.8646Z" fill="#F9F9F9" fill-opacity="0.8"/>
        <path d="M89.7055 27.8386L87.614 32.6632H87.2745L85.7981 29.5263L84.3212 32.6632H83.9818L81.8906 27.8386H82.9727L84.2111 30.9205L85.6421 27.7285H85.9813L87.4305 30.8746L88.6506 27.8294H89.7237V27.8386H89.7055Z" fill="#F9F9F9" fill-opacity="0.8"/>
        <path d="M94.3953 28.4334C93.909 27.9656 93.322 27.7363 92.6343 27.7363C91.9371 27.7363 91.3501 27.9748 90.8638 28.4426C90.3869 28.9104 90.1484 29.5066 90.1484 30.1854C90.1484 30.8733 90.3869 31.4603 90.8638 31.9281C91.3407 32.3959 91.9371 32.6343 92.6343 32.6435C93.322 32.6435 93.909 32.4051 94.4044 31.9281C94.8904 31.4511 95.1289 30.8549 95.1289 30.1762C95.1383 29.4974 94.8904 28.9012 94.3953 28.4334ZM93.6615 31.2769C93.3863 31.5612 93.0377 31.7079 92.6249 31.7079C92.2032 31.7079 91.8637 31.5612 91.5794 31.2769C91.3043 30.9925 91.1665 30.6256 91.1665 30.1854C91.1665 29.7451 91.3043 29.3873 91.5794 29.0847C91.8546 28.8003 92.2032 28.6536 92.6249 28.6444H92.6343C93.0468 28.6536 93.3863 28.8003 93.6706 29.0847C93.9457 29.369 94.0835 29.7359 94.0835 30.1854C94.0835 30.6164 93.9366 30.9925 93.6615 31.2769Z" fill="#F9F9F9" fill-opacity="0.8"/>
        <path d="M98.6004 27.793C98.7473 27.793 98.8665 27.8113 98.9857 27.8388V28.7377H98.6739C98.2795 28.7377 97.9585 28.8478 97.6925 29.0771C97.4355 29.3064 97.2981 29.6183 97.2981 30.0402V32.5809H96.2891V27.848H97.2338V28.4625C97.5641 28.0223 98.0225 27.8021 98.619 27.8021L98.6004 27.793Z" fill="#F9F9F9" fill-opacity="0.8"/>
        <path d="M91.7788 17.8672C91.9254 17.8672 92.0446 17.8855 92.1638 17.9131V18.8119H91.8614C91.467 18.8119 91.1457 18.922 90.88 19.1513C90.623 19.3806 90.4853 19.6925 90.4853 20.1144V22.6552H89.4766V17.9223H90.4213V18.5368C90.7513 18.0965 91.21 17.8764 91.8061 17.8764L91.7788 17.8672Z" fill="#F9F9F9" fill-opacity="0.8"/>
        <path d="M99.9844 25.3516H100.993V32.5794H99.9844V25.3516ZM104.295 32.5794H103.085L101.03 29.9102L102.874 27.8465H104.121L102.222 29.9194L104.295 32.5794Z" fill="#F9F9F9" fill-opacity="0.8"/>
        <path d="M67.5 15.418H68.509V22.6366H67.5V15.418ZM71.8111 22.6458H70.6004L68.5456 19.9766L70.3892 17.9128H71.6367L69.7289 19.9858L71.8111 22.6458Z" fill="#F9F9F9" fill-opacity="0.8"/>
        <path d="M48.5938 23.9955L60.5453 30.8473C60.9581 31.0858 61.4901 30.7831 61.4901 30.3061V17.685C61.4901 17.208 60.9672 16.9053 60.5453 17.1438L48.5938 23.9955Z" fill="#F9F9F9" fill-opacity="0.8"/>
        <path d="M59.848 14.1903L51.9139 8.12738C51.547 7.85221 51.015 8.04483 50.9141 8.49428L48.0156 21.996L59.7838 15.236C60.1782 15.0066 60.2149 14.4655 59.848 14.1903Z" fill="#F9F9F9" fill-opacity="0.8"/>
        <path d="M51.9139 39.8726L59.8663 33.8004C60.224 33.5252 60.1873 32.9841 59.8021 32.7548L48.0156 26.0039L50.9233 39.5055C51.0058 39.9551 51.5378 40.1478 51.9139 39.8726Z" fill="#F9F9F9" fill-opacity="0.8"/>
        <path d="M45.5307 23.996L48.6585 9.44871C48.7777 8.88002 48.1265 8.4581 47.6587 8.82499L39.6512 14.9429C39.2385 15.2548 39 15.7501 39 16.2638V31.7559C39 32.2695 39.2385 32.7648 39.6512 33.0767L47.6587 39.1855C48.1173 39.534 48.7777 39.1213 48.6585 38.5618L45.5307 23.996Z" fill="#F9F9F9" fill-opacity="0.8"/>
    </g>
    <defs>
        <clipPath id="clip0_21123_87271">
            <rect width="144" height="48" fill="white"/>
        </clipPath>
    </defs>
</svg>
