<svg width="144" height="48" viewBox="0 0 144 48" fill="none" xmlns="http://www.w3.org/2000/svg">
    <g clip-path="url(#clip0_21123_87259)">
        <path fill-rule="evenodd" clip-rule="evenodd" d="M30.3125 18.625V29.8037L33.5753 31.6685V23.6723L36.8264 25.5371V33.5255L40.0873 35.3902V24.2134L30.3125 18.625Z" fill="#F9F9F9" fill-opacity="0.8"/>
        <path fill-rule="evenodd" clip-rule="evenodd" d="M37.7149 17.6027L40.9836 15.7031L45.0528 18.0703L41.7861 19.9563L37.7149 17.6027ZM40.9953 11.8867L31.1406 17.6046L41.7666 23.7882V35.8867L44.9905 34.0239V21.7824L48.2455 19.8925V32.1186L51.5161 30.2094V17.9949L40.9953 11.8867Z" fill="#F9F9F9" fill-opacity="0.8"/>
        <path fill-rule="evenodd" clip-rule="evenodd" d="M65.8764 26.292L65.8141 26.3016L59.7462 16.9277H56.8672V30.8408H59.7462V21.4669L59.8086 21.4572L65.8764 30.8408H68.7574V16.9277H65.8764V26.292Z" fill="#F9F9F9" fill-opacity="0.8"/>
        <path fill-rule="evenodd" clip-rule="evenodd" d="M102.905 24.9753C102.905 22.214 100.704 19.9512 98.0136 19.9512H97.735C95.0449 19.9512 92.8438 22.212 92.8438 24.9753V25.8198C92.8438 28.5831 95.0449 30.8439 97.735 30.8439H98.0136C100.704 30.8439 102.905 28.585 102.905 25.8198V24.9753ZM97.9668 27.8217C97.415 27.8326 96.8814 27.6259 96.4829 27.247C96.0845 26.8681 95.8539 26.3478 95.8416 25.8004L95.8163 25.1531C95.8009 24.884 95.8396 24.6146 95.9302 24.3606C96.0208 24.1065 96.1615 23.8728 96.344 23.6732C96.5265 23.4737 96.7473 23.3121 96.9934 23.198C97.2395 23.0839 97.5061 23.0195 97.7775 23.0086C98.0489 22.9977 98.3199 23.0405 98.5745 23.1345C98.8291 23.2285 99.0623 23.3718 99.2605 23.5561C99.4587 23.7405 99.6179 23.9621 99.7289 24.208C99.8399 24.454 99.9004 24.7194 99.907 24.9889L99.9323 25.6362C99.9611 26.1839 99.7708 26.7207 99.4027 27.13C99.0347 27.5392 98.5186 27.7878 97.9668 27.8217Z" fill="#F9F9F9" fill-opacity="0.8"/>
        <path fill-rule="evenodd" clip-rule="evenodd" d="M76.9735 20.328C76.3909 20.0816 75.7642 19.9541 75.1308 19.9531H74.8522C72.1621 19.9531 69.9609 22.214 69.9609 24.9773V25.8198C69.9609 28.5831 72.1621 30.8439 74.8522 30.8439H75.1308C75.7642 30.843 76.3909 30.7155 76.9735 30.4691V30.8439H80.0221V19.9531H76.9735V20.328ZM75.084 27.8179C74.5344 27.8272 74.0035 27.6201 73.6074 27.2421C73.2113 26.864 72.9823 26.3456 72.9705 25.8005L72.9471 25.1531C72.9193 24.6089 73.1085 24.0756 73.4737 23.6685C73.8389 23.2614 74.3508 23.0131 74.899 22.9773C75.385 22.9661 75.8594 23.1253 76.2388 23.4267C76.6182 23.7282 76.8784 24.1527 76.9735 24.6256V26.2778C76.8645 26.7004 76.6225 27.0775 76.2827 27.3544C75.943 27.6314 75.5231 27.7937 75.084 27.8179Z" fill="#F9F9F9" fill-opacity="0.8"/>
        <path fill-rule="evenodd" clip-rule="evenodd" d="M87.1677 19.9519H86.8891C86.2309 19.9526 85.5801 20.0895 84.9782 20.3538V16.9277H81.9297V30.8408H84.9782V30.4369C85.5802 30.7006 86.2311 30.8369 86.8891 30.8369H87.1677C89.8578 30.8369 92.059 28.578 92.059 25.8128V24.9741C92.059 22.2128 89.8578 19.9519 87.1677 19.9519ZM89.0572 25.7992C89.0675 26.3358 88.8626 26.8545 88.4874 27.2412C88.1122 27.6278 87.5976 27.8508 87.0567 27.8611C86.5158 27.8713 85.9929 27.668 85.6031 27.2958C85.2133 26.9236 84.9885 26.4131 84.9782 25.8765V25.4901L84.9977 24.9876C85.0197 24.4495 85.2562 23.9421 85.6553 23.577C86.0544 23.2119 86.5834 23.019 87.1258 23.0408C87.6683 23.0626 88.1798 23.2972 88.5478 23.6931C88.9159 24.089 89.1103 24.6138 89.0884 25.1519L89.0572 25.7992Z" fill="#F9F9F9" fill-opacity="0.8"/>
        <path fill-rule="evenodd" clip-rule="evenodd" d="M112.506 19.9531H109.51L107.475 23.0913L105.439 19.9531H102.445L105.977 25.3985L102.445 30.842H105.439L107.475 27.7058L109.51 30.842H112.506L108.973 25.3985L112.506 19.9531Z" fill="#F9F9F9" fill-opacity="0.8"/>
    </g>
    <defs>
        <clipPath id="clip0_21123_87259">
            <rect width="144" height="48" fill="white"/>
        </clipPath>
    </defs>
</svg>
