<svg width="144" height="48" viewBox="0 0 144 48" fill="none" xmlns="http://www.w3.org/2000/svg">
    <g clip-path="url(#clip0_18932_19983)">
        <path fill-rule="evenodd" clip-rule="evenodd" d="M30.3145 18.625V29.8037L33.5773 31.6685V23.6723L36.8284 25.5371V33.5255L40.0892 35.3902V24.2134L30.3145 18.625Z" fill="#030308" fill-opacity="0.8"/>
        <path fill-rule="evenodd" clip-rule="evenodd" d="M37.7169 17.6027L40.9855 15.7031L45.0548 18.0703L41.7881 19.9563L37.7169 17.6027ZM40.9972 11.8867L31.1426 17.6046L41.7686 23.7882V35.8867L44.9924 34.0239V21.7824L48.2475 19.8925V32.1186L51.518 30.2094V17.9949L40.9972 11.8867Z" fill="#030308" fill-opacity="0.8"/>
        <path fill-rule="evenodd" clip-rule="evenodd" d="M65.8754 26.293L65.8131 26.3026L59.7453 16.9287H56.8662V30.8418H59.7453V21.4678L59.8076 21.4582L65.8754 30.8418H68.7564V16.9287H65.8754V26.293Z" fill="#030308" fill-opacity="0.8"/>
        <path fill-rule="evenodd" clip-rule="evenodd" d="M102.908 24.9753C102.908 22.214 100.707 19.9512 98.0165 19.9512H97.738C95.0479 19.9512 92.8467 22.212 92.8467 24.9753V25.8198C92.8467 28.5831 95.0479 30.8439 97.738 30.8439H98.0165C100.707 30.8439 102.908 28.585 102.908 25.8198V24.9753ZM97.9698 27.8217C97.4179 27.8326 96.8843 27.6259 96.4859 27.247C96.0875 26.868 95.8568 26.3478 95.8446 25.8004L95.8192 25.1531C95.8038 24.884 95.8425 24.6146 95.9331 24.3606C96.0237 24.1065 96.1644 23.8728 96.3469 23.6732C96.5295 23.4737 96.7502 23.3121 96.9963 23.198C97.2424 23.0839 97.509 23.0195 97.7804 23.0086C98.0519 22.9977 98.3228 23.0405 98.5774 23.1345C98.832 23.2285 99.0652 23.3718 99.2634 23.5561C99.4616 23.7405 99.6208 23.9621 99.7318 24.208C99.8428 24.454 99.9034 24.7194 99.9099 24.9889L99.9352 25.6362C99.964 26.1839 99.7737 26.7207 99.4056 27.13C99.0376 27.5392 98.5216 27.7878 97.9698 27.8217Z" fill="#030308" fill-opacity="0.8"/>
        <path fill-rule="evenodd" clip-rule="evenodd" d="M76.9774 20.327C76.3948 20.0806 75.7681 19.9531 75.1347 19.9521H74.8561C72.166 19.9521 69.9648 22.213 69.9648 24.9763V25.8188C69.9648 28.5821 72.166 30.843 74.8561 30.843H75.1347C75.7681 30.842 76.3948 30.7145 76.9774 30.4681V30.843H80.026V19.9521H76.9774V20.327ZM75.0879 27.8169C74.5383 27.8262 74.0074 27.6192 73.6113 27.2411C73.2152 26.863 72.9862 26.3447 72.9744 25.7995L72.951 25.1521C72.9233 24.6079 73.1124 24.0746 73.4776 23.6675C73.8428 23.2604 74.3547 23.0121 74.9029 22.9763C75.3889 22.9652 75.8633 23.1243 76.2427 23.4258C76.6221 23.7272 76.8823 24.1517 76.9774 24.6246V26.2768C76.8684 26.6994 76.6264 27.0765 76.2866 27.3535C75.9469 27.6304 75.527 27.7927 75.0879 27.8169Z" fill="#030308" fill-opacity="0.8"/>
        <path fill-rule="evenodd" clip-rule="evenodd" d="M87.1726 19.9529H86.894C86.2358 19.9536 85.585 20.0905 84.9831 20.3548V16.9287H81.9346V30.8418H84.9831V30.4379C85.5851 30.7016 86.2359 30.8378 86.894 30.8379H87.1726C89.8627 30.8379 92.0639 28.579 92.0639 25.8137V24.9751C92.0639 22.2137 89.8627 19.9529 87.1726 19.9529ZM89.0621 25.8002C89.0724 26.3368 88.8675 26.8555 88.4923 27.2421C88.1171 27.6288 87.6025 27.8518 87.0616 27.862C86.5206 27.8723 85.9978 27.669 85.608 27.2968C85.2182 26.9246 84.9934 26.4141 84.9831 25.8775V25.491L85.0026 24.9886C85.0245 24.4505 85.2611 23.9431 85.6602 23.578C86.0593 23.2129 86.5882 23.02 87.1307 23.0418C87.6732 23.0635 88.1847 23.2982 88.5527 23.6941C88.9208 24.09 89.1152 24.6147 89.0933 25.1529L89.0621 25.8002Z" fill="#030308" fill-opacity="0.8"/>
        <path fill-rule="evenodd" clip-rule="evenodd" d="M112.507 19.9521H109.511L107.476 23.0903L105.44 19.9521H102.446L105.978 25.3976L102.446 30.841H105.44L107.476 27.7048L109.511 30.841H112.507L108.974 25.3976L112.507 19.9521Z" fill="#030308" fill-opacity="0.8"/>
    </g>
    <defs>
        <clipPath id="clip0_18932_19983">
            <rect width="144" height="48" fill="white"/>
        </clipPath>
    </defs>
</svg>
