<svg width="208" height="72" viewBox="0 0 208 72" fill="none" xmlns="http://www.w3.org/2000/svg">
    <rect width="208" height="72" rx="12" fill="#1F2329"/>
    <path d="M85.5837 34.6185C85.5652 35.4178 85.4926 36.215 85.3668 37.0046L83.1975 48.0676C83.1975 48.2845 82.9806 48.393 82.7637 48.393H80.0522C79.819 48.3767 79.6346 48.1923 79.6183 47.9591V47.8507L81.7876 37.0046C81.9134 36.471 81.986 35.9254 82.0045 35.3777C82.0045 32.7746 80.486 31.2562 77.2322 31.2562C73.3276 31.2562 70.6161 33.3169 69.7484 37.7638L67.6877 48.1761C67.6877 48.393 67.4707 48.5014 67.2538 48.5014H64.4338C64.2007 48.4852 64.0163 48.3008 64 48.0676V47.9591L67.9046 28.5447C67.9209 28.3115 68.1052 28.1271 68.3384 28.1108H70.9415C71.1747 28.1271 71.3591 28.3115 71.3753 28.5447V28.6531L71.2669 29.4124C71.2625 29.6401 71.3894 29.8505 71.5922 29.9547C71.7116 29.9688 71.8309 29.9297 71.9176 29.8462C73.7766 28.5078 76.0272 27.8212 78.3168 27.8939C82.7637 27.7854 85.5837 30.28 85.5837 34.6185Z" fill="#F9F9F9" fill-opacity="0.8"/>
    <path d="M108.905 36.7874V37.3297C108.905 37.5466 108.797 37.7635 108.58 37.7635L92.5278 40.692C92.3032 40.7278 92.1492 40.9382 92.185 41.1627C92.1894 41.1866 92.1948 41.2104 92.2024 41.2343C92.8531 43.8373 94.8054 45.2473 98.4931 45.2473C100.619 45.3363 102.704 44.6421 104.35 43.295C104.554 43.1866 104.797 43.1866 105.001 43.295L105.109 43.4035L106.194 45.2473C106.302 45.4643 106.302 45.6812 106.085 45.7896C103.843 47.5901 101.043 48.55 98.1677 48.5012C92.0939 48.5012 88.4062 45.0304 88.4062 39.7158C88.4062 32.8828 93.1785 27.7852 99.7946 27.7852C105.207 27.7852 108.905 30.9305 108.905 36.7874ZM92.6362 38.0889L105.109 35.8112C105.319 35.8015 105.48 35.6236 105.471 35.4143C105.469 35.3633 105.456 35.3145 105.435 35.2689C105.001 32.449 102.832 30.9305 99.6862 30.9305C95.6731 30.9305 92.8531 33.5336 92.2024 37.5466C92.198 37.7744 92.3249 37.9848 92.5278 38.0889H92.6362Z" fill="#F9F9F9" fill-opacity="0.8"/>
    <path d="M109.227 45.9005L110.421 43.7313C110.553 43.5057 110.831 43.4135 111.071 43.5143C113.064 44.7161 115.361 45.3191 117.687 45.2497C121.158 45.2497 123.002 44.1651 123.002 42.2128C123.002 38.3082 111.722 41.1282 111.722 34.1867C111.722 30.1737 115.41 27.5706 120.941 27.5706C123.282 27.5554 125.591 28.114 127.666 29.1975C127.883 29.306 127.991 29.5229 127.774 29.7398L126.798 32.0175C126.666 32.2431 126.388 32.3353 126.147 32.2344C124.45 31.3212 122.542 30.8722 120.616 30.9329C117.254 30.9329 115.41 32.2344 115.41 33.9698C115.41 38.0913 126.69 35.1629 126.69 41.9959C126.69 46.2259 122.894 48.612 117.362 48.612C114.545 48.7042 111.76 47.9883 109.336 46.5512C109.119 46.2259 109.119 46.0089 109.227 45.9005Z" fill="#F9F9F9" fill-opacity="0.8"/>
    <path d="M134.487 41.8845C134.397 42.2392 134.362 42.6047 134.379 42.9692C134.232 44.1948 135.107 45.3065 136.331 45.4529C136.367 45.4572 136.403 45.4605 136.44 45.4638H136.982C137.821 45.467 138.646 45.2414 139.368 44.813C139.609 44.7121 139.887 44.8043 140.019 45.0299V45.1384L140.561 46.9822C140.654 47.1829 140.567 47.4215 140.366 47.5147C140.358 47.518 140.352 47.5212 140.344 47.5245C138.98 48.2631 137.448 48.6362 135.897 48.6091C132.752 48.6091 130.583 46.7653 130.583 43.5115C130.564 42.967 130.601 42.4214 130.691 41.8845L134.27 23.8801C134.27 23.6631 134.487 23.5547 134.704 23.5547H137.633C137.866 23.571 138.05 23.7553 138.067 23.9885V24.097L137.416 27.4593C137.411 27.687 137.538 27.8975 137.741 28.0016H142.513C142.747 28.0178 142.931 28.2022 142.947 28.4354V28.5439L142.513 30.7131C142.513 30.93 142.296 31.0385 142.08 31.0385H137.09C136.873 31.0385 136.657 31.1469 136.657 31.3639L134.487 41.8845Z" fill="#F9F9F9" fill-opacity="0.8"/>
</svg>
