<svg width="80" height="32" viewBox="0 0 80 32" fill="none" xmlns="http://www.w3.org/2000/svg">
    <path d="M21.5837 14.6194C21.5652 15.4188 21.4926 16.216 21.3668 17.0056L19.1975 28.0686C19.1975 28.2855 18.9806 28.394 18.7637 28.394H16.0522C15.819 28.3777 15.6346 28.1933 15.6183 27.9601V27.8517L17.7876 17.0056C17.9134 16.472 17.986 15.9264 18.0045 15.3787C18.0045 12.7756 16.486 11.2572 13.2322 11.2572C9.32762 11.2572 6.6161 13.3179 5.74842 17.7648L3.68766 28.177C3.68766 28.394 3.47074 28.5024 3.25382 28.5024H0.433843C0.200652 28.4861 0.0162691 28.3018 0 28.0686V27.9601L3.90459 8.54564C3.92085 8.31245 4.10524 8.12807 4.33843 8.1118H6.94149C7.17468 8.12807 7.35906 8.31245 7.37533 8.54564V8.6541L7.26687 9.41333C7.26253 9.64109 7.38943 9.85151 7.59225 9.95563C7.71156 9.96973 7.83086 9.93068 7.91763 9.84717C9.77665 8.50876 12.0272 7.82221 14.3168 7.89488C18.7637 7.78642 21.5837 10.281 21.5837 14.6194Z" fill="black"/>
    <path d="M44.9034 16.7893V17.3317C44.9034 17.5486 44.7949 17.7655 44.578 17.7655L28.5258 20.6939C28.3013 20.7297 28.1473 20.9401 28.1831 21.1647C28.1874 21.1885 28.1928 21.2124 28.2004 21.2362C28.8512 23.8393 30.8035 25.2493 34.4911 25.2493C36.617 25.3382 38.7016 24.6441 40.348 23.297C40.5519 23.1885 40.7949 23.1885 40.9988 23.297L41.1072 23.4055L42.1919 25.2493C42.3003 25.4662 42.3003 25.6831 42.0834 25.7916C39.8415 27.592 37.0411 28.5519 34.1658 28.5031C28.092 28.5031 24.4043 25.0324 24.4043 19.7178C24.4043 12.8848 29.1766 7.78711 35.7927 7.78711C41.2049 7.78711 44.9034 10.9325 44.9034 16.7893ZM28.6343 18.0909L41.1072 15.8132C41.3166 15.8034 41.4782 15.6256 41.4695 15.4162C41.4673 15.3653 41.4543 15.3165 41.4326 15.2709C40.9988 12.4509 38.8296 10.9325 35.6842 10.9325C31.6712 10.9325 28.8512 13.5355 28.2004 17.5486C28.1961 17.7763 28.323 17.9868 28.5258 18.0909H28.6343Z" fill="black"/>
    <path d="M45.2275 25.9005L46.4206 23.7313C46.5529 23.5057 46.8305 23.4135 47.0713 23.5143C49.0638 24.7161 51.3609 25.3191 53.6874 25.2497C57.1582 25.2497 59.002 24.1651 59.002 22.2128C59.002 18.3082 47.7221 21.1282 47.7221 14.1867C47.7221 10.1737 51.4098 7.57061 56.9413 7.57061C59.2818 7.55543 61.591 8.114 63.6658 9.19753C63.8827 9.30599 63.9912 9.52291 63.7743 9.73983L62.7981 12.0175C62.6658 12.2431 62.3881 12.3353 62.1474 12.2344C60.45 11.3212 58.5421 10.8722 56.6159 10.9329C53.2536 10.9329 51.4098 12.2344 51.4098 13.9698C51.4098 18.0913 62.6897 15.1629 62.6897 21.9959C62.6897 26.2259 58.8935 28.612 53.362 28.612C50.5453 28.7042 47.76 27.9883 45.336 26.5512C45.119 26.2259 45.119 26.0089 45.2275 25.9005Z" fill="black"/>
    <path d="M70.4893 21.8855C70.3993 22.2402 70.3635 22.6057 70.3808 22.9701C70.2344 24.1957 71.1086 25.3075 72.3331 25.4539C72.3689 25.4582 72.4047 25.4615 72.4416 25.4647H72.9839C73.8234 25.468 74.6477 25.2424 75.37 24.814C75.6108 24.7131 75.8885 24.8053 76.0208 25.0309V25.1393L76.5631 26.9832C76.6564 27.1838 76.5685 27.4224 76.3678 27.5157C76.3603 27.519 76.3538 27.5222 76.3462 27.5255C74.9817 28.2641 73.4503 28.6372 71.8993 28.6101C68.7539 28.6101 66.5847 26.7663 66.5847 23.5124C66.5663 22.968 66.6031 22.4224 66.6932 21.8855L70.2724 3.88105C70.2724 3.66412 70.4893 3.55566 70.7062 3.55566H73.6346C73.8678 3.57193 74.0522 3.75632 74.0685 3.98951V4.09797L73.4177 7.46025C73.4134 7.68802 73.5403 7.89843 73.7431 8.00255H78.5154C78.7486 8.01882 78.9329 8.20321 78.9492 8.4364V8.54486L78.5154 10.7141C78.5154 10.931 78.2985 11.0395 78.0815 11.0395H73.0923C72.8754 11.0395 72.6585 11.1479 72.6585 11.3648L70.4893 21.8855Z" fill="black"/>
</svg>
