<svg width="144" height="48" viewBox="0 0 144 48" fill="none" xmlns="http://www.w3.org/2000/svg">
    <g clip-path="url(#clip0_20371_109089)">
        <path d="M36 21.8534L37.9128 23.5676V34.6076L36 32.8916V21.8534ZM37.9128 22.2416C37.9128 22.2416 37.512 18.1202 41.142 16.0448C42.2431 15.3976 43.5067 15.0799 44.7829 15.1294C46.0591 15.1788 47.2943 15.5934 48.342 16.3238L49.7064 14.9576C48.3926 13.976 46.828 13.3859 45.1931 13.2554C43.5583 13.1249 41.9199 13.4594 40.467 14.2202C39.2867 14.8605 38.2741 15.7701 37.5113 16.8752C36.7485 17.9802 36.257 19.2496 36.0768 20.5802L37.9128 22.2416ZM38.7426 28.0124C40.0588 29.2369 41.7279 30.0148 43.512 30.2354C45.7498 30.4868 47.9972 29.8538 49.7748 28.4714L48.4122 27.1106C48.4122 27.1106 46.7094 28.6634 43.5468 28.2878C40.3842 27.9122 38.7426 24.9806 38.7426 24.9806V28.0124ZM48.9936 16.8524C50.3188 18.1416 51.0899 19.8961 51.1434 21.7442C51.1064 23.5665 50.3568 25.3017 49.0554 26.5778L50.4042 27.9284C51.2526 27.1393 51.9268 26.1816 52.3834 25.1168C52.8401 24.0519 53.0693 22.9034 53.0562 21.7448C53.061 20.5723 52.822 19.4116 52.3544 18.3364C51.8868 17.2611 51.2009 16.2948 50.34 15.4988L48.9936 16.8524ZM62.7228 21.8558L60.81 23.57V34.61L62.7228 32.8958V21.8558ZM62.6466 20.5802C62.4643 19.2137 61.9523 17.912 61.1548 16.7875C60.3573 15.6629 59.2982 14.7493 58.0689 14.1253C56.8396 13.5013 55.4769 13.1858 54.0984 13.2059C52.7199 13.226 51.367 13.5811 50.1564 14.2406L51.6996 15.6092C52.6479 15.2281 53.671 15.0692 54.6902 15.1449C55.7095 15.2205 56.6979 15.5285 57.5796 16.0454C61.2108 18.1202 60.8106 22.2422 60.8106 22.2422L62.6466 20.5802ZM59.9802 24.9806C59.9802 24.9806 58.3392 27.9122 55.176 28.2878C54.0015 28.446 52.8061 28.3116 51.696 27.8966C51.2152 28.3892 50.699 28.846 50.1516 29.2634C51.7071 30.0715 53.4642 30.4093 55.2084 30.2354C56.9925 30.0148 58.6616 29.2369 59.9778 28.0124L59.9802 24.9806ZM47.448 16.5074C46.2931 18.0102 45.6671 19.8525 45.6671 21.7478C45.6671 23.6431 46.2931 25.4854 47.448 26.9882C48.123 26.3972 48.2754 26.2682 48.9282 25.721C48.0695 24.5702 47.5975 23.1769 47.58 21.7412C47.6034 20.3126 48.0748 18.9275 48.9276 17.7812C48.2682 17.2202 47.9796 16.9874 47.448 16.5074ZM76.1508 14.7002H76.6848C76.9202 14.7002 77.1534 14.7466 77.3709 14.8367C77.5884 14.9268 77.786 15.0588 77.9525 15.2253C78.119 15.3918 78.251 15.5894 78.3411 15.8069C78.4312 16.0244 78.4776 16.2576 78.4776 16.493C78.4776 16.7284 78.4312 16.9616 78.3411 17.1791C78.251 17.3966 78.119 17.5942 77.9525 17.7607C77.786 17.9272 77.5884 18.0592 77.3709 18.1493C77.1534 18.2394 76.9202 18.2858 76.6848 18.2858H76.1508V19.7858H77.1108C77.1108 19.7858 80.4234 19.7858 80.4234 16.493C80.4234 13.2002 77.1108 13.2002 77.1108 13.2002H76.1508V14.7002ZM75.321 13.2002L73.4088 14.912V23.312L75.321 21.6002V13.2002ZM93.2874 14.7002H93.8364C93.8364 14.7002 95.7168 14.7002 95.7168 16.493C95.7168 18.2858 93.8364 18.2882 93.8364 18.2882H93.2874V19.7882H94.2756C94.2756 19.7882 97.6848 19.7882 97.6848 16.4954C97.6848 13.2026 94.275 13.2002 94.275 13.2002H93.2874V14.7002ZM92.46 13.2002L90.5448 14.9144V23.3144L92.46 21.6002V13.2002ZM93.2874 19.7882L95.5752 23.3126H97.8648L95.1954 19.5194L93.2874 19.7882ZM80.4234 23.3126H82.3728L84.9306 14.7002L87.48 23.3126H89.5386L86.16 13.2002H83.7978L80.4234 23.3126ZM83.9706 20.7272H85.8798L85.3998 19.1168H84.4458L83.9706 20.7272ZM98.8878 23.3132H100.837L103.395 14.7002L105.941 23.3126H108L104.625 13.2002H102.262L98.8878 23.3132ZM102.435 20.7272H104.344L103.864 19.1168H102.91L102.435 20.7272ZM104.393 26.1002L102.48 27.8132V34.6022L104.392 32.8904L104.393 26.1002ZM98.88 24.4922V26.1002H107.993V24.4922H98.88ZM92.46 24.4922L90.5478 26.204V34.604L92.46 32.8904V24.4922ZM93.2898 24.4922V26.1002H97.8678V24.4922H93.2898ZM93.2898 28.5062V30.104H97.1298V28.5062H93.2898ZM93.2898 33.0062V34.6022H97.8678V33.0074L93.2898 33.0062ZM79.0488 27.2462L80.52 26.5478C80.52 26.5478 80.16 24.4922 77.181 24.4922C73.9092 24.4922 73.7952 27.3278 73.7952 27.3278C73.7853 27.6693 73.8439 28.0094 73.9675 28.3279C74.0912 28.6465 74.2774 28.937 74.5152 29.1824C74.9254 29.5573 75.419 29.829 75.9552 29.975C76.4886 29.441 77.5152 28.58 77.5152 28.58C77.5152 28.58 75.651 28.3358 75.651 27.3278C75.651 27.0398 75.5952 26.0636 77.1846 26.0636C78.774 26.0636 79.0464 27.245 79.0464 27.245L79.0488 27.2462ZM76.7976 30.1616C76.7976 30.1616 78.825 30.3416 78.825 31.688C78.825 31.688 79.0152 33.035 77.091 33.035C75.1668 33.035 74.9202 31.6412 74.9202 31.6412L73.431 32.3402C73.431 32.3402 73.8648 34.6082 77.1 34.6082C78.12 34.6082 80.6862 34.1654 80.6862 31.643C80.7096 30.9626 80.4853 30.2968 80.0549 29.7692C79.6246 29.2417 79.0174 28.8882 78.3462 28.7744L76.7976 30.1616ZM87.5904 27.2462L89.0652 26.549C89.0652 26.549 88.7052 24.4934 85.7262 24.4934C82.4544 24.4934 82.3404 27.329 82.3404 27.329C82.3305 27.6705 82.3891 28.0106 82.5127 28.3291C82.6364 28.6477 82.8226 28.9382 83.0604 29.1836C83.4706 29.5585 83.9642 29.8302 84.5004 29.9762C85.0338 29.4422 86.0604 28.5812 86.0604 28.5812C86.0604 28.5812 84.1962 28.337 84.1962 27.329C84.1962 27.041 84.141 26.0648 85.7298 26.0648C87.3186 26.0648 87.5874 27.245 87.5874 27.245L87.5904 27.2462ZM85.3392 30.1616C85.3392 30.1616 87.3666 30.3416 87.3666 31.688C87.3666 31.688 87.5568 33.035 85.6326 33.035C83.7084 33.035 83.46 31.64 83.46 31.64L81.972 32.3402C81.972 32.3402 82.4058 34.6082 85.641 34.6082C86.661 34.6082 89.2272 34.1654 89.2272 31.643C89.2507 30.9625 89.0265 30.2967 88.5961 29.7691C88.1657 29.2415 87.5585 28.8881 86.8872 28.7744L85.3392 30.1616Z" fill="#030308" fill-opacity="0.8"/>
    </g>
    <defs>
        <clipPath id="clip0_20371_109089">
            <rect width="144" height="48" fill="white"/>
        </clipPath>
    </defs>
</svg>
