<svg width="144" height="48" viewBox="0 0 144 48" fill="none" xmlns="http://www.w3.org/2000/svg">
    <g clip-path="url(#clip0_21123_87217)">
        <path d="M36 21.8524L37.9128 23.5666V34.6066L36 32.8906V21.8524ZM37.9128 22.2406C37.9128 22.2406 37.512 18.1192 41.142 16.0438C42.2431 15.3966 43.5067 15.0789 44.7829 15.1284C46.0591 15.1778 47.2943 15.5924 48.342 16.3228L49.7064 14.9566C48.3926 13.975 46.828 13.3849 45.1931 13.2544C43.5583 13.1239 41.9199 13.4584 40.467 14.2192C39.2867 14.8595 38.2741 15.7691 37.5113 16.8742C36.7485 17.9792 36.257 19.2486 36.0768 20.5792L37.9128 22.2406ZM38.7426 28.0114C40.0588 29.2359 41.7279 30.0139 43.512 30.2344C45.7498 30.4858 47.9972 29.8528 49.7748 28.4704L48.4122 27.1096C48.4122 27.1096 46.7094 28.6624 43.5468 28.2868C40.3842 27.9112 38.7426 24.9796 38.7426 24.9796V28.0114ZM48.9936 16.8514C50.3188 18.1406 51.0899 19.8952 51.1434 21.7432C51.1064 23.5655 50.3568 25.3007 49.0554 26.5768L50.4042 27.9274C51.2526 27.1383 51.9268 26.1806 52.3834 25.1158C52.8401 24.0509 53.0693 22.9024 53.0562 21.7438C53.061 20.5713 52.822 19.4106 52.3544 18.3354C51.8868 17.2602 51.2009 16.2939 50.34 15.4978L48.9936 16.8514ZM62.7228 21.8548L60.81 23.569V34.609L62.7228 32.8948V21.8548ZM62.6466 20.5792C62.4643 19.2127 61.9523 17.911 61.1548 16.7865C60.3573 15.662 59.2982 14.7483 58.0689 14.1243C56.8396 13.5004 55.4769 13.1848 54.0984 13.2049C52.7199 13.225 51.367 13.5801 50.1564 14.2396L51.6996 15.6082C52.6479 15.2271 53.671 15.0683 54.6902 15.1439C55.7095 15.2195 56.6979 15.5275 57.5796 16.0444C61.2108 18.1192 60.8106 22.2412 60.8106 22.2412L62.6466 20.5792ZM59.9802 24.9796C59.9802 24.9796 58.3392 27.9112 55.176 28.2868C54.0015 28.4451 52.8061 28.3107 51.696 27.8956C51.2152 28.3883 50.699 28.8451 50.1516 29.2624C51.7071 30.0705 53.4642 30.4083 55.2084 30.2344C56.9925 30.0139 58.6616 29.2359 59.9778 28.0114L59.9802 24.9796ZM47.448 16.5064C46.2931 18.0093 45.6671 19.8515 45.6671 21.7468C45.6671 23.6421 46.2931 25.4844 47.448 26.9872C48.123 26.3962 48.2754 26.2672 48.9282 25.72C48.0695 24.5692 47.5975 23.176 47.58 21.7402C47.6034 20.3117 48.0748 18.9265 48.9276 17.7802C48.2682 17.2192 47.9796 16.9864 47.448 16.5064ZM76.1508 14.6992H76.6848C76.9202 14.6992 77.1534 14.7456 77.3709 14.8357C77.5884 14.9258 77.786 15.0578 77.9525 15.2243C78.119 15.3908 78.251 15.5884 78.3411 15.8059C78.4312 16.0235 78.4776 16.2566 78.4776 16.492C78.4776 16.7275 78.4312 16.9606 78.3411 17.1781C78.251 17.3956 78.119 17.5932 77.9525 17.7597C77.786 17.9262 77.5884 18.0583 77.3709 18.1483C77.1534 18.2384 76.9202 18.2848 76.6848 18.2848H76.1508V19.7848H77.1108C77.1108 19.7848 80.4234 19.7848 80.4234 16.492C80.4234 13.1992 77.1108 13.1992 77.1108 13.1992H76.1508V14.6992ZM75.321 13.1992L73.4088 14.911V23.311L75.321 21.5992V13.1992ZM93.2874 14.6992H93.8364C93.8364 14.6992 95.7168 14.6992 95.7168 16.492C95.7168 18.2848 93.8364 18.2872 93.8364 18.2872H93.2874V19.7872H94.2756C94.2756 19.7872 97.6848 19.7872 97.6848 16.4944C97.6848 13.2016 94.275 13.1992 94.275 13.1992H93.2874V14.6992ZM92.46 13.1992L90.5448 14.9134V23.3134L92.46 21.5992V13.1992ZM93.2874 19.7872L95.5752 23.3116H97.8648L95.1954 19.5184L93.2874 19.7872ZM80.4234 23.3116H82.3728L84.9306 14.6992L87.48 23.3116H89.5386L86.16 13.1992H83.7978L80.4234 23.3116ZM83.9706 20.7262H85.8798L85.3998 19.1158H84.4458L83.9706 20.7262ZM98.8878 23.3122H100.837L103.395 14.6992L105.941 23.3116H108L104.625 13.1992H102.262L98.8878 23.3122ZM102.435 20.7262H104.344L103.864 19.1158H102.91L102.435 20.7262ZM104.393 26.0992L102.48 27.8122V34.6012L104.392 32.8894L104.393 26.0992ZM98.88 24.4912V26.0992H107.993V24.4912H98.88ZM92.46 24.4912L90.5478 26.203V34.603L92.46 32.8894V24.4912ZM93.2898 24.4912V26.0992H97.8678V24.4912H93.2898ZM93.2898 28.5052V30.103H97.1298V28.5052H93.2898ZM93.2898 33.0052V34.6012H97.8678V33.0064L93.2898 33.0052ZM79.0488 27.2452L80.52 26.5468C80.52 26.5468 80.16 24.4912 77.181 24.4912C73.9092 24.4912 73.7952 27.3268 73.7952 27.3268C73.7853 27.6684 73.8439 28.0084 73.9675 28.327C74.0912 28.6455 74.2774 28.936 74.5152 29.1814C74.9254 29.5563 75.419 29.828 75.9552 29.974C76.4886 29.44 77.5152 28.579 77.5152 28.579C77.5152 28.579 75.651 28.3348 75.651 27.3268C75.651 27.0388 75.5952 26.0626 77.1846 26.0626C78.774 26.0626 79.0464 27.244 79.0464 27.244L79.0488 27.2452ZM76.7976 30.1606C76.7976 30.1606 78.825 30.3406 78.825 31.687C78.825 31.687 79.0152 33.034 77.091 33.034C75.1668 33.034 74.9202 31.6402 74.9202 31.6402L73.431 32.3392C73.431 32.3392 73.8648 34.6072 77.1 34.6072C78.12 34.6072 80.6862 34.1644 80.6862 31.642C80.7096 30.9616 80.4853 30.2958 80.0549 29.7683C79.6246 29.2407 79.0174 28.8872 78.3462 28.7734L76.7976 30.1606ZM87.5904 27.2452L89.0652 26.548C89.0652 26.548 88.7052 24.4924 85.7262 24.4924C82.4544 24.4924 82.3404 27.328 82.3404 27.328C82.3305 27.6696 82.3891 28.0096 82.5127 28.3282C82.6364 28.6467 82.8226 28.9372 83.0604 29.1826C83.4706 29.5575 83.9642 29.8292 84.5004 29.9752C85.0338 29.4412 86.0604 28.5802 86.0604 28.5802C86.0604 28.5802 84.1962 28.336 84.1962 27.328C84.1962 27.04 84.141 26.0638 85.7298 26.0638C87.3186 26.0638 87.5874 27.244 87.5874 27.244L87.5904 27.2452ZM85.3392 30.1606C85.3392 30.1606 87.3666 30.3406 87.3666 31.687C87.3666 31.687 87.5568 33.034 85.6326 33.034C83.7084 33.034 83.46 31.639 83.46 31.639L81.972 32.3392C81.972 32.3392 82.4058 34.6072 85.641 34.6072C86.661 34.6072 89.2272 34.1644 89.2272 31.642C89.2507 30.9616 89.0265 30.2957 88.5961 29.7681C88.1657 29.2405 87.5585 28.8871 86.8872 28.7734L85.3392 30.1606Z" fill="#F9F9F9" fill-opacity="0.8"/>
    </g>
    <defs>
        <clipPath id="clip0_21123_87217">
            <rect width="144" height="48" fill="white"/>
        </clipPath>
    </defs>
</svg>
