<svg width="144" height="48" viewBox="0 0 144 48" fill="none" xmlns="http://www.w3.org/2000/svg">
    <g clip-path="url(#clip0_21123_87213)">
        <path d="M35.9655 31.5062V37.8326L35.4597 37.5398L32.7891 35.9978V29.6738L35.9655 31.5062Z" fill="#F9F9F9" fill-opacity="0.8"/>
        <path d="M29.4768 20.2706V34.0862L24 30.923V17.1074L29.4768 20.2706Z" fill="#F9F9F9" fill-opacity="0.8"/>
        <path d="M47.934 17.1074V30.923L35.9688 37.8326V31.5086L42.4548 27.7634V20.2706L47.934 17.1074Z" fill="#F9F9F9" fill-opacity="0.8"/>
        <path d="M47.9304 17.107L42.4512 20.2702L35.9652 16.5232L29.4792 20.2702L24 17.107L35.9652 10.1992L47.9304 17.107Z" fill="#F9F9F9" fill-opacity="0.8"/>
        <path d="M54.3359 20.2708H57.7721C58.46 20.2283 59.1385 20.4479 59.6711 20.8852C60.1073 21.351 60.3501 21.9652 60.3501 22.6033C60.3501 23.2414 60.1073 23.8557 59.6711 24.3214C59.1392 24.7601 58.4602 24.9798 57.7721 24.9358H55.9973V27.7462H54.3425L54.3359 20.2708ZM57.5591 23.6848C58.3871 23.6848 58.8011 23.3276 58.8011 22.6132C58.8129 22.4628 58.7913 22.3117 58.738 22.1705C58.6847 22.0294 58.601 21.9017 58.4927 21.7966C58.2225 21.6012 57.8917 21.5077 57.5591 21.5326H55.9907V23.6848H57.5591Z" fill="#F9F9F9" fill-opacity="0.8"/>
        <path d="M62.2884 27.5006C61.8806 27.2877 61.5449 26.9589 61.3236 26.5556C61.1005 26.1097 60.9844 25.6179 60.9844 25.1192C60.9844 24.6206 61.1005 24.1288 61.3236 23.6828C61.5451 23.2814 61.881 22.9547 62.2884 22.7444C62.7419 22.527 63.2384 22.4141 63.7413 22.4141C64.2442 22.4141 64.7407 22.527 65.1942 22.7444C65.6021 22.9541 65.9381 23.2809 66.159 23.6828C66.3821 24.1288 66.4983 24.6206 66.4983 25.1192C66.4983 25.6179 66.3821 26.1097 66.159 26.5556C65.9383 26.9594 65.6025 27.2884 65.1942 27.5006C64.7414 27.7205 64.2447 27.8347 63.7413 27.8347C63.238 27.8347 62.7412 27.7205 62.2884 27.5006ZM64.908 25.1204C64.9393 24.7224 64.8334 24.3256 64.608 23.996C64.5026 23.8712 64.3694 23.7728 64.2192 23.7085C64.069 23.6442 63.9059 23.6159 63.7428 23.6258C62.9664 23.6258 62.5782 24.1242 62.5782 25.121C62.5782 26.1178 62.9664 26.6154 63.7428 26.6138C64.522 26.6138 64.911 26.1138 64.9098 25.1138L64.908 25.1204Z" fill="#F9F9F9" fill-opacity="0.8"/>
        <path d="M67.5703 27.7449V20.2695H69.1723V27.7449H67.5703Z" fill="#F9F9F9" fill-opacity="0.8"/>
        <path d="M74.2196 22.5496H75.7904L72.6518 29.6482H71.0282L72.0266 27.4522L69.8828 22.543H71.549L72.8624 25.8502L74.2196 22.5496Z" fill="#F9F9F9" fill-opacity="0.8"/>
        <path d="M88.9475 25.4445H85.5557C85.5693 25.7883 85.7156 26.1134 85.9637 26.3517C86.2372 26.5541 86.5734 26.6532 86.9129 26.6313C87.1851 26.6303 87.4555 26.5861 87.7139 26.5005C87.9739 26.4134 88.2187 26.2861 88.4393 26.1231L88.8629 27.1947C88.5846 27.4048 88.2705 27.5625 87.9359 27.6603C87.577 27.7737 87.2029 27.8314 86.8265 27.8313C86.066 27.8729 85.3201 27.6112 84.7523 27.1035C84.4951 26.8445 84.2949 26.5345 84.1646 26.1936C84.0343 25.8526 83.9768 25.4881 83.9957 25.1235C83.9891 24.6329 84.1058 24.1485 84.3353 23.7147C84.5437 23.3158 84.8596 22.9833 85.2473 22.7547C85.6509 22.5197 86.1112 22.4 86.5781 22.4085C86.9013 22.3939 87.2238 22.45 87.523 22.573C87.8222 22.696 88.0909 22.883 88.3103 23.1207C88.7606 23.6595 88.9897 24.3492 88.9511 25.0503L88.9475 25.4445ZM85.8875 23.8053C85.6906 24.0431 85.574 24.3372 85.5545 24.6453H87.5999C87.6031 24.3407 87.5048 24.0436 87.3203 23.8011C87.2319 23.7029 87.1227 23.6256 87.0006 23.5749C86.8785 23.5243 86.7467 23.5015 86.6147 23.5083C86.4795 23.5035 86.3448 23.5275 86.2196 23.5788C86.0944 23.6301 85.9816 23.7076 85.8887 23.8059L85.8875 23.8053Z" fill="#F9F9F9" fill-opacity="0.8"/>
        <path d="M93.4816 26.6151L93.397 27.7821C93.1935 27.8112 92.9882 27.826 92.7826 27.8265C92.1591 27.8803 91.5386 27.6937 91.048 27.3051C90.8532 27.0942 90.7044 26.845 90.611 26.5734C90.5176 26.3019 90.4817 26.0139 90.5056 25.7277V23.7315H89.5156V22.5315H90.5056V21.0117H92.1028V22.5399H93.4072V23.7309H92.1028V25.7277C92.1028 26.3517 92.3926 26.6629 92.9722 26.6613C93.1428 26.6567 93.313 26.6412 93.4816 26.6151Z" fill="#F9F9F9" fill-opacity="0.8"/>
        <path d="M101.599 22.5391H103.152L101.046 27.7453H99.6885L98.5389 24.8083L97.4295 27.7453H96.0789L93.9609 22.5391H95.5935L96.8247 25.8391L98.0535 22.5391H99.1389L100.379 25.8667L101.599 22.5391Z" fill="#F9F9F9" fill-opacity="0.8"/>
        <path d="M104.726 27.5006C104.318 27.2877 103.983 26.9589 103.761 26.5556C103.538 26.1097 103.422 25.6179 103.422 25.1192C103.422 24.6206 103.538 24.1288 103.761 23.6828C103.983 23.2814 104.319 22.9548 104.726 22.7444C105.179 22.527 105.676 22.4141 106.179 22.4141C106.682 22.4141 107.178 22.527 107.632 22.7444C108.039 22.9547 108.375 23.2814 108.597 23.6828C108.82 24.1288 108.936 24.6206 108.936 25.1192C108.936 25.6179 108.82 26.1097 108.597 26.5556C108.373 26.9599 108.035 27.2888 107.625 27.5006C107.172 27.7204 106.676 27.8346 106.172 27.8346C105.669 27.8346 105.172 27.7204 104.719 27.5006H104.726ZM107.346 25.1204C107.376 24.7219 107.268 24.3251 107.041 23.996C106.937 23.8712 106.804 23.7726 106.654 23.7083C106.504 23.644 106.341 23.6158 106.179 23.6258C105.401 23.6258 105.012 24.1242 105.012 25.121C105.012 26.1178 105.401 26.6154 106.179 26.6138C106.959 26.6138 107.346 26.1122 107.346 25.1138V25.1204Z" fill="#F9F9F9" fill-opacity="0.8"/>
        <path d="M113.724 23.7312L112.824 23.8266C112.474 23.83 112.138 23.9647 111.882 24.204C111.689 24.4369 111.59 24.7335 111.604 25.0356V27.7464H110V22.5402H111.54V23.4276C111.683 23.1221 111.913 22.8655 112.201 22.69C112.489 22.5144 112.822 22.4277 113.16 22.4406L113.619 22.4004L113.724 23.7312Z" fill="#F9F9F9" fill-opacity="0.8"/>
        <path d="M119.997 27.7449H118.036L116.04 25.4223V27.7449H114.438V20.2695H116.039V24.7659L117.959 22.5459H119.869L117.684 25.0257L119.997 27.7449Z" fill="#F9F9F9" fill-opacity="0.8"/>
        <path d="M81.4344 20.2695H82.9872V27.7449H81.7584L78.0342 22.9845V27.7449H76.4922V20.2695H77.712L81.432 25.0095L81.4344 20.2695Z" fill="#F9F9F9" fill-opacity="0.8"/>
    </g>
    <defs>
        <clipPath id="clip0_21123_87213">
            <rect width="144" height="48" fill="white"/>
        </clipPath>
    </defs>
</svg>
