<svg width="144" height="48" viewBox="0 0 144 48" fill="none" xmlns="http://www.w3.org/2000/svg">
    <g clip-path="url(#clip0_21123_87182)">
        <path d="M39.2603 19.6482C39.0322 19.5169 38.7735 19.4478 38.5103 19.4478C38.2471 19.4478 37.9885 19.5169 37.7603 19.6482L34.3151 21.7008L31.9751 23.0394L28.5281 25.0938C28.3 25.2251 28.0413 25.2942 27.7781 25.2942C27.5149 25.2942 27.2563 25.2251 27.0281 25.0938L24.2897 23.4876C24.065 23.3533 23.8782 23.1641 23.7469 22.9377C23.6155 22.7112 23.544 22.4551 23.5391 22.1934V19.0254C23.5348 18.7619 23.6024 18.5022 23.7346 18.2743C23.8669 18.0463 24.0588 17.8588 24.2897 17.7318L26.9837 16.1718C27.2119 16.0405 27.4705 15.9714 27.7337 15.9714C27.9969 15.9714 28.2556 16.0405 28.4837 16.1718L31.1777 17.7318C31.4023 17.866 31.5891 18.0551 31.7204 18.2814C31.8517 18.5078 31.9233 18.7638 31.9283 19.0254V21.0738L34.2683 19.6908V17.64C34.2727 17.3765 34.2051 17.1168 34.0728 16.8889C33.9405 16.6609 33.7486 16.4734 33.5177 16.3464L28.5281 13.4016C28.3 13.2703 28.0413 13.2012 27.7781 13.2012C27.5149 13.2012 27.2563 13.2703 27.0281 13.4016L21.9461 16.3464C21.7152 16.4734 21.5233 16.6609 21.391 16.8889C21.2588 17.1168 21.1912 17.3765 21.1955 17.64V23.574C21.1912 23.8375 21.2588 24.0972 21.391 24.3251C21.5233 24.553 21.7152 24.7406 21.9461 24.8676L27.0281 27.813C27.2563 27.9443 27.5149 28.0134 27.7781 28.0134C28.0413 28.0134 28.3 27.9443 28.5281 27.813L31.9733 25.8054L34.3133 24.4224L37.7585 22.4148C37.9867 22.2835 38.2453 22.2144 38.5085 22.2144C38.7717 22.2144 39.0304 22.2835 39.2585 22.4148L41.9525 23.9748C42.1771 24.109 42.3639 24.2981 42.4952 24.5244C42.6265 24.7508 42.6981 25.0068 42.7031 25.2684V28.4364C42.7075 28.6999 42.6399 28.9596 42.5076 29.1875C42.3753 29.4154 42.1834 29.603 41.9525 29.73L39.2585 31.3362C39.0304 31.4675 38.7717 31.5366 38.5085 31.5366C38.2453 31.5366 37.9867 31.4675 37.7585 31.3362L35.0645 29.7762C34.8397 29.642 34.6528 29.4528 34.5213 29.2264C34.3899 28.9999 34.3183 28.7437 34.3133 28.482V26.43L31.9733 27.813V29.8656C31.969 30.1291 32.0366 30.3888 32.1688 30.6167C32.3011 30.8446 32.493 31.0322 32.7239 31.1592L37.8035 34.104C38.0317 34.2352 38.2903 34.3043 38.5535 34.3043C38.8167 34.3043 39.0753 34.2352 39.3035 34.104L44.3831 31.1592C44.6078 31.0251 44.7947 30.8359 44.9262 30.6096C45.0576 30.3833 45.1292 30.1272 45.1343 29.8656V23.9316C45.1386 23.668 45.0709 23.4083 44.9385 23.1803C44.8062 22.9524 44.6141 22.7649 44.3831 22.638L39.2603 19.6482Z" fill="#F9F9F9" fill-opacity="0.8"/>
        <path d="M54.4607 32.4053V27.4787C54.7984 27.8382 55.2113 28.1186 55.67 28.2999C56.1287 28.4812 56.6217 28.5589 57.1139 28.5275C60.0065 28.5275 61.9619 26.4875 61.9619 23.3837C61.9619 20.2799 60.1667 18.2399 57.3533 18.2399C56.8073 18.2093 56.2617 18.3061 55.7597 18.5229C55.2576 18.7396 54.8129 19.0702 54.4607 19.4885V18.3977H51.6875V32.4053H54.4607ZM56.7773 26.1533C55.2809 26.1533 54.3035 25.0451 54.3035 23.3837C54.3035 21.7037 55.2809 20.5943 56.7773 20.5943C58.2335 20.5943 59.2313 21.7025 59.2313 23.3837C59.2313 25.0457 58.2341 26.1533 56.7773 26.1533Z" fill="#F9F9F9" fill-opacity="0.8"/>
        <path d="M68.2593 28.5255C69.27 28.4944 70.2492 28.1662 71.0745 27.582C71.8999 26.9977 72.5348 26.1833 72.9001 25.2404C73.2654 24.2974 73.3448 23.2678 73.1285 22.28C72.9121 21.2922 72.4095 20.39 71.6835 19.6861C70.9576 18.9822 70.0403 18.5077 69.0463 18.322C68.0523 18.1362 67.0255 18.2474 66.0943 18.6416C65.1631 19.0358 64.3687 19.6957 63.8102 20.5387C63.2517 21.3817 62.9539 22.3705 62.9541 23.3817C62.9408 24.0748 63.0702 24.7631 63.3343 25.404C63.5984 26.0449 63.9915 26.6246 64.4892 27.107C64.9869 27.5895 65.5785 27.9644 66.2273 28.2084C66.8761 28.4525 67.5682 28.5604 68.2605 28.5255H68.2593ZM68.2593 26.1513C66.7629 26.1513 65.7459 25.0233 65.7459 23.3817C65.7459 21.7197 66.7659 20.5923 68.2593 20.5923C69.7527 20.5923 70.7727 21.7203 70.7727 23.3817C70.7727 25.0239 69.7551 26.1513 68.2593 26.1513Z" fill="#F9F9F9" fill-opacity="0.8"/>
        <path d="M78.0154 28.3691V14.0645H75.2422V28.3691H78.0154Z" fill="#F9F9F9" fill-opacity="0.8"/>
        <path d="M86.3535 18.3965L84.2589 24.8267L82.1445 18.3965H79.3125L82.9635 28.2887L81.4875 32.4041H84.1407L85.5573 28.3283L89.2077 18.3965H86.3535Z" fill="#F9F9F9" fill-opacity="0.8"/>
        <path d="M96.9892 19.3864C96.6405 19.0021 96.2109 18.6998 95.7314 18.5014C95.2519 18.3029 94.7343 18.2132 94.216 18.2386C91.2832 18.2386 89.5078 20.2786 89.5078 23.3824C89.5078 26.4862 91.2832 28.5262 94.2562 28.5262C94.7741 28.5573 95.2921 28.4681 95.7697 28.2655C96.2472 28.0629 96.6714 27.7525 97.009 27.3586V28.6684C97.0246 28.8696 96.9986 29.0718 96.9326 29.2625C96.8666 29.4532 96.762 29.6282 96.6254 29.7767C96.4887 29.9252 96.323 30.044 96.1385 30.1256C95.9539 30.2072 95.7546 30.25 95.5528 30.2512H90.9244V32.4076H95.9914C98.266 32.4076 99.7822 31.0426 99.7822 28.9648V18.3976H96.9892V19.3864ZM94.6948 26.1526C93.2188 26.1526 92.2408 25.0642 92.2408 23.383C92.2408 21.7018 93.2188 20.5936 94.6948 20.5936C96.1912 20.5936 97.1686 21.7018 97.1686 23.383C97.1686 25.0642 96.1912 26.1526 94.6948 26.1526Z" fill="#F9F9F9" fill-opacity="0.8"/>
        <path d="M106.776 28.5255C107.787 28.4941 108.766 28.1658 109.591 27.5814C110.416 26.997 111.051 26.1825 111.416 25.2395C111.781 24.2966 111.86 23.267 111.644 22.2792C111.427 21.2915 110.925 20.3895 110.199 19.6857C109.473 18.9819 108.555 18.5075 107.561 18.3219C106.567 18.1362 105.541 18.2475 104.61 18.6417C103.679 19.036 102.884 19.6958 102.326 20.5388C101.767 21.3817 101.47 22.3705 101.47 23.3817C101.456 24.0747 101.586 24.7631 101.85 25.404C102.114 26.0449 102.507 26.6246 103.005 27.107C103.503 27.5895 104.094 27.9644 104.743 28.2084C105.392 28.4524 106.084 28.5604 106.776 28.5255ZM106.776 26.1513C105.28 26.1513 104.263 25.0233 104.263 23.3817C104.263 21.7197 105.28 20.5923 106.776 20.5923C108.272 20.5923 109.29 21.7203 109.29 23.3817C109.29 25.0239 108.272 26.1513 106.776 26.1513Z" fill="#F9F9F9" fill-opacity="0.8"/>
        <path d="M116.394 28.3682V22.9082C116.374 22.6239 116.412 22.3385 116.508 22.0699C116.603 21.8013 116.753 21.5552 116.947 21.3472C117.142 21.1391 117.378 20.9736 117.64 20.8609C117.902 20.7482 118.184 20.6909 118.469 20.6924C118.736 20.6894 119.001 20.7421 119.247 20.8473C119.492 20.9525 119.713 21.1079 119.895 21.3034C120.078 21.4989 120.217 21.7303 120.305 21.9828C120.392 22.2353 120.426 22.5033 120.404 22.7696V28.3682H123.197V22.1564C123.197 19.8614 121.721 18.239 119.447 18.239C118.847 18.2014 118.247 18.3246 117.711 18.5959C117.174 18.8672 116.72 19.2767 116.394 19.7822V18.3974H113.602V28.3682H116.394Z" fill="#F9F9F9" fill-opacity="0.8"/>
    </g>
    <defs>
        <clipPath id="clip0_21123_87182">
            <rect width="144" height="48" fill="white"/>
        </clipPath>
    </defs>
</svg>
