<svg width="144" height="48" viewBox="0 0 144 48" fill="none" xmlns="http://www.w3.org/2000/svg">
    <g clip-path="url(#clip0_20371_109085)">
        <path d="M35.9655 31.5072V37.8336L35.4597 37.5408L32.7891 35.9988V29.6748L35.9655 31.5072Z" fill="#030308" fill-opacity="0.8"/>
        <path d="M29.4768 20.2716V34.0872L24 30.924V17.1084L29.4768 20.2716Z" fill="#030308" fill-opacity="0.8"/>
        <path d="M47.93 17.1084V30.924L35.9648 37.8336V31.5096L42.4508 27.7644V20.2716L47.93 17.1084Z" fill="#030308" fill-opacity="0.8"/>
        <path d="M47.9304 17.108L42.4512 20.2712L35.9652 16.5242L29.4792 20.2712L24 17.108L35.9652 10.2002L47.9304 17.108Z" fill="#030308" fill-opacity="0.8"/>
        <path d="M54.3379 20.2708H57.7741C58.462 20.2283 59.1404 20.4479 59.6731 20.8852C60.1093 21.351 60.352 21.9652 60.352 22.6033C60.352 23.2414 60.1093 23.8557 59.6731 24.3214C59.1412 24.7601 58.4622 24.9798 57.7741 24.9358H55.9993V27.7462H54.3445L54.3379 20.2708ZM57.5611 23.6848C58.3891 23.6848 58.8031 23.3276 58.8031 22.6132C58.8148 22.4628 58.7932 22.3117 58.7399 22.1705C58.6866 22.0294 58.6029 21.9017 58.4947 21.7966C58.2244 21.6012 57.8937 21.5077 57.5611 21.5326H55.9927V23.6848H57.5611Z" fill="#030308" fill-opacity="0.8"/>
        <path d="M62.2923 27.5026C61.8845 27.2897 61.5489 26.9609 61.3275 26.5576C61.1044 26.1116 60.9883 25.6198 60.9883 25.1212C60.9883 24.6225 61.1044 24.1307 61.3275 23.6848C61.5491 23.2833 61.8849 22.9567 62.2923 22.7464C62.7458 22.5289 63.2423 22.416 63.7452 22.416C64.2481 22.416 64.7447 22.5289 65.1981 22.7464C65.606 22.9561 65.942 23.2828 66.1629 23.6848C66.386 24.1307 66.5022 24.6225 66.5022 25.1212C66.5022 25.6198 66.386 26.1116 66.1629 26.5576C65.9422 26.9613 65.6064 27.2903 65.1981 27.5026C64.7453 27.7224 64.2486 27.8367 63.7452 27.8367C63.2419 27.8367 62.7451 27.7224 62.2923 27.5026ZM64.9119 25.1224C64.9432 24.7243 64.8373 24.3276 64.6119 23.998C64.5065 23.8732 64.3734 23.7747 64.2231 23.7105C64.0729 23.6462 63.9098 23.6179 63.7467 23.6278C62.9703 23.6278 62.5821 24.1262 62.5821 25.123C62.5821 26.1198 62.9703 26.6174 63.7467 26.6158C64.5259 26.6158 64.9149 26.1158 64.9137 25.1158L64.9119 25.1224Z" fill="#030308" fill-opacity="0.8"/>
        <path d="M67.5723 27.7469V20.2715H69.1743V27.7469H67.5723Z" fill="#030308" fill-opacity="0.8"/>
        <path d="M74.2196 22.5515H75.7904L72.6518 29.6501H71.0282L72.0266 27.4541L69.8828 22.5449H71.549L72.8624 25.8521L74.2196 22.5515Z" fill="#030308" fill-opacity="0.8"/>
        <path d="M88.9495 25.4455H85.5577C85.5713 25.7893 85.7175 26.1144 85.9657 26.3527C86.2391 26.5551 86.5754 26.6542 86.9149 26.6323C87.1871 26.6312 87.4574 26.5871 87.7159 26.5015C87.9759 26.4144 88.2207 26.287 88.4413 26.1241L88.8649 27.1957C88.5866 27.4057 88.2725 27.5635 87.9379 27.6613C87.579 27.7747 87.2048 27.8324 86.8285 27.8323C86.068 27.8739 85.322 27.6122 84.7543 27.1045C84.497 26.8455 84.2968 26.5355 84.1665 26.1945C84.0362 25.8535 83.9787 25.4891 83.9977 25.1245C83.991 24.6339 84.1078 24.1494 84.3373 23.7157C84.5456 23.3168 84.8616 22.9842 85.2493 22.7557C85.6528 22.5207 86.1131 22.401 86.5801 22.4095C86.9032 22.3948 87.2257 22.451 87.5249 22.574C87.8241 22.697 88.0929 22.884 88.3123 23.1217C88.7626 23.6605 88.9916 24.3502 88.953 25.0513L88.9495 25.4455ZM85.8895 23.8063C85.6925 24.0441 85.576 24.3382 85.5565 24.6463H87.6019C87.6051 24.3417 87.5067 24.0446 87.3223 23.8021C87.2339 23.7038 87.1247 23.6266 87.0026 23.5759C86.8805 23.5252 86.7487 23.5025 86.6167 23.5093C86.4814 23.5045 86.3467 23.5285 86.2216 23.5798C86.0964 23.6311 85.9836 23.7085 85.8907 23.8069L85.8895 23.8063Z" fill="#030308" fill-opacity="0.8"/>
        <path d="M93.4816 26.6151L93.397 27.7821C93.1935 27.8112 92.9882 27.826 92.7826 27.8265C92.1591 27.8803 91.5386 27.6937 91.048 27.3051C90.8532 27.0942 90.7044 26.845 90.611 26.5734C90.5176 26.3019 90.4817 26.0139 90.5056 25.7277V23.7315H89.5156V22.5315H90.5056V21.0117H92.1028V22.5399H93.4072V23.7309H92.1028V25.7277C92.1028 26.3517 92.3926 26.6629 92.9722 26.6613C93.1428 26.6567 93.313 26.6412 93.4816 26.6151Z" fill="#030308" fill-opacity="0.8"/>
        <path d="M101.595 22.54H103.148L101.042 27.7462H99.6846L98.535 24.8092L97.4256 27.7462H96.075L93.957 22.54H95.5896L96.8208 25.84L98.0496 22.54H99.135L100.375 25.8676L101.595 22.54Z" fill="#030308" fill-opacity="0.8"/>
        <path d="M104.73 27.5026C104.322 27.2897 103.986 26.9609 103.765 26.5576C103.542 26.1116 103.426 25.6198 103.426 25.1212C103.426 24.6225 103.542 24.1307 103.765 23.6848C103.987 23.2833 104.322 22.9567 104.73 22.7464C105.183 22.5289 105.68 22.416 106.183 22.416C106.686 22.416 107.182 22.5289 107.636 22.7464C108.043 22.9567 108.379 23.2833 108.6 23.6848C108.824 24.1307 108.94 24.6225 108.94 25.1212C108.94 25.6198 108.824 26.1116 108.6 26.5576C108.377 26.9618 108.039 27.2907 107.629 27.5026C107.176 27.7224 106.68 27.8366 106.176 27.8366C105.673 27.8366 105.176 27.7224 104.723 27.5026H104.73ZM107.349 25.1224C107.379 24.7238 107.272 24.3271 107.045 23.998C106.94 23.8731 106.808 23.7746 106.658 23.7103C106.508 23.646 106.345 23.6177 106.182 23.6278C105.404 23.6278 105.016 24.1262 105.016 25.123C105.016 26.1198 105.404 26.6174 106.182 26.6158C106.962 26.6158 107.349 26.1142 107.349 25.1158V25.1224Z" fill="#030308" fill-opacity="0.8"/>
        <path d="M113.722 23.7312L112.822 23.8266C112.472 23.83 112.136 23.9647 111.88 24.204C111.687 24.4369 111.588 24.7335 111.602 25.0356V27.7464H109.998V22.5402H111.538V23.4276C111.681 23.1221 111.911 22.8655 112.199 22.69C112.487 22.5144 112.821 22.4277 113.158 22.4406L113.617 22.4004L113.722 23.7312Z" fill="#030308" fill-opacity="0.8"/>
        <path d="M120 27.7469H118.04L116.043 25.4243V27.7469H114.441V20.2715H116.043V24.7679L117.963 22.5479H119.873L117.687 25.0277L120 27.7469Z" fill="#030308" fill-opacity="0.8"/>
        <path d="M81.4324 20.2715H82.9852V27.7469H81.7564L78.0322 22.9865V27.7469H76.4902V20.2715H77.71L81.43 25.0115L81.4324 20.2715Z" fill="#030308" fill-opacity="0.8"/>
    </g>
    <defs>
        <clipPath id="clip0_20371_109085">
            <rect width="144" height="48" fill="white"/>
        </clipPath>
    </defs>
</svg>
