<svg width="144" height="48" viewBox="0 0 144 48" fill="none" xmlns="http://www.w3.org/2000/svg">
    <path d="M39.2603 19.6472C39.0322 19.5159 38.7735 19.4468 38.5103 19.4468C38.2471 19.4468 37.9885 19.5159 37.7603 19.6472L34.3151 21.6998L31.9751 23.0384L28.5281 25.0928C28.3 25.2241 28.0413 25.2932 27.7781 25.2932C27.5149 25.2932 27.2563 25.2241 27.0281 25.0928L24.2897 23.4866C24.065 23.3524 23.8782 23.1631 23.7469 22.9367C23.6155 22.7102 23.544 22.4541 23.5391 22.1924V19.0244C23.5348 18.7609 23.6024 18.5012 23.7346 18.2733C23.8669 18.0453 24.0588 17.8578 24.2897 17.7308L26.9837 16.1708C27.2119 16.0395 27.4705 15.9704 27.7337 15.9704C27.9969 15.9704 28.2556 16.0395 28.4837 16.1708L31.1777 17.7308C31.4023 17.865 31.5891 18.0542 31.7204 18.2805C31.8517 18.5068 31.9233 18.7628 31.9283 19.0244V21.0728L34.2683 19.6898V17.639C34.2727 17.3755 34.2051 17.1158 34.0728 16.8879C33.9405 16.6599 33.7486 16.4724 33.5177 16.3454L28.5281 13.4006C28.3 13.2693 28.0413 13.2002 27.7781 13.2002C27.5149 13.2002 27.2563 13.2693 27.0281 13.4006L21.9461 16.3454C21.7152 16.4724 21.5233 16.6599 21.391 16.8879C21.2588 17.1158 21.1912 17.3755 21.1955 17.639V23.573C21.1912 23.8365 21.2588 24.0962 21.391 24.3241C21.5233 24.5521 21.7152 24.7396 21.9461 24.8666L27.0281 27.812C27.2563 27.9433 27.5149 28.0124 27.7781 28.0124C28.0413 28.0124 28.3 27.9433 28.5281 27.812L31.9733 25.8044L34.3133 24.4214L37.7585 22.4138C37.9867 22.2825 38.2453 22.2134 38.5085 22.2134C38.7717 22.2134 39.0304 22.2825 39.2585 22.4138L41.9525 23.9738C42.1771 24.108 42.3639 24.2972 42.4952 24.5235C42.6265 24.7498 42.6981 25.0058 42.7031 25.2674V28.4354C42.7075 28.6989 42.6399 28.9586 42.5076 29.1865C42.3753 29.4145 42.1834 29.602 41.9525 29.729L39.2585 31.3352C39.0304 31.4665 38.7717 31.5356 38.5085 31.5356C38.2453 31.5356 37.9867 31.4665 37.7585 31.3352L35.0645 29.7752C34.8397 29.641 34.6528 29.4518 34.5213 29.2254C34.3899 28.9989 34.3183 28.7428 34.3133 28.481V26.429L31.9733 27.812V29.8646C31.969 30.1281 32.0366 30.3878 32.1688 30.6157C32.3011 30.8437 32.493 31.0312 32.7239 31.1582L37.8035 34.103C38.0317 34.2342 38.2903 34.3033 38.5535 34.3033C38.8167 34.3033 39.0753 34.2342 39.3035 34.103L44.3831 31.1582C44.6078 31.0241 44.7947 30.835 44.9262 30.6086C45.0576 30.3823 45.1292 30.1263 45.1343 29.8646V23.9306C45.1386 23.667 45.0709 23.4073 44.9385 23.1794C44.8062 22.9514 44.6141 22.7639 44.3831 22.637L39.2603 19.6472Z" fill="#030308" fill-opacity="0.8"/>
    <path d="M54.4627 32.4034V27.4768C54.8004 27.8362 55.2133 28.1166 55.6719 28.2979C56.1306 28.4792 56.6237 28.557 57.1159 28.5256C60.0085 28.5256 61.9639 26.4856 61.9639 23.3818C61.9639 20.278 60.1687 18.238 57.3553 18.238C56.8093 18.2073 56.2637 18.3042 55.7616 18.5209C55.2596 18.7376 54.8148 19.0682 54.4627 19.4866V18.3958H51.6895V32.4034H54.4627ZM56.7793 26.1514C55.2829 26.1514 54.3055 25.0432 54.3055 23.3818C54.3055 21.7018 55.2829 20.5924 56.7793 20.5924C58.2355 20.5924 59.2333 21.7006 59.2333 23.3818C59.2333 25.0438 58.2361 26.1514 56.7793 26.1514Z" fill="#030308" fill-opacity="0.8"/>
    <path d="M68.2593 28.5255C69.27 28.4944 70.2492 28.1662 71.0745 27.582C71.8999 26.9977 72.5348 26.1833 72.9001 25.2404C73.2654 24.2974 73.3448 23.2678 73.1285 22.28C72.9121 21.2922 72.4095 20.39 71.6835 19.6861C70.9576 18.9822 70.0403 18.5077 69.0463 18.322C68.0523 18.1362 67.0255 18.2474 66.0943 18.6416C65.1631 19.0358 64.3687 19.6957 63.8102 20.5387C63.2517 21.3817 62.9539 22.3705 62.9541 23.3817C62.9408 24.0748 63.0702 24.7631 63.3343 25.404C63.5984 26.0449 63.9915 26.6246 64.4892 27.107C64.9869 27.5895 65.5785 27.9644 66.2273 28.2084C66.8761 28.4525 67.5682 28.5604 68.2605 28.5255H68.2593ZM68.2593 26.1513C66.7629 26.1513 65.7459 25.0233 65.7459 23.3817C65.7459 21.7197 66.7659 20.5923 68.2593 20.5923C69.7527 20.5923 70.7727 21.7203 70.7727 23.3817C70.7727 25.0239 69.7551 26.1513 68.2593 26.1513Z" fill="#030308" fill-opacity="0.8"/>
    <path d="M78.0154 28.3681V14.0635H75.2422V28.3681H78.0154Z" fill="#030308" fill-opacity="0.8"/>
    <path d="M86.3515 18.3955L84.2569 24.8257L82.1425 18.3955H79.3105L82.9616 28.2877L81.4855 32.4031H84.1388L85.5553 28.3273L89.2057 18.3955H86.3515Z" fill="#030308" fill-opacity="0.8"/>
    <path d="M96.9931 19.3854C96.6444 19.0011 96.2148 18.6989 95.7353 18.5004C95.2558 18.3019 94.7383 18.2122 94.2199 18.2376C91.2871 18.2376 89.5117 20.2776 89.5117 23.3814C89.5117 26.4852 91.2871 28.5252 94.2601 28.5252C94.778 28.5563 95.296 28.4671 95.7736 28.2645C96.2512 28.0619 96.6754 27.7515 97.0129 27.3576V28.6674C97.0285 28.8686 97.0025 29.0708 96.9365 29.2615C96.8705 29.4522 96.7659 29.6272 96.6293 29.7757C96.4927 29.9242 96.3269 30.043 96.1424 30.1246C95.9579 30.2063 95.7585 30.249 95.5567 30.2502H90.9283V32.4066H95.9953C98.2699 32.4066 99.7861 31.0416 99.7861 28.9638V18.3966H96.9931V19.3854ZM94.6987 26.1516C93.2227 26.1516 92.2447 25.0632 92.2447 23.382C92.2447 21.7008 93.2227 20.5926 94.6987 20.5926C96.1951 20.5926 97.1725 21.7008 97.1725 23.382C97.1725 25.0632 96.1951 26.1516 94.6987 26.1516Z" fill="#030308" fill-opacity="0.8"/>
    <path d="M106.776 28.5255C107.787 28.4941 108.766 28.1658 109.591 27.5814C110.416 26.997 111.051 26.1825 111.416 25.2395C111.781 24.2966 111.86 23.267 111.644 22.2792C111.427 21.2915 110.925 20.3895 110.199 19.6857C109.473 18.9819 108.555 18.5075 107.561 18.3219C106.567 18.1362 105.541 18.2475 104.61 18.6417C103.679 19.036 102.884 19.6958 102.326 20.5388C101.767 21.3817 101.47 22.3705 101.47 23.3817C101.456 24.0747 101.586 24.7631 101.85 25.404C102.114 26.0449 102.507 26.6246 103.005 27.107C103.503 27.5895 104.094 27.9644 104.743 28.2084C105.392 28.4524 106.084 28.5604 106.776 28.5255ZM106.776 26.1513C105.28 26.1513 104.263 25.0233 104.263 23.3817C104.263 21.7197 105.28 20.5923 106.776 20.5923C108.272 20.5923 109.29 21.7203 109.29 23.3817C109.29 25.0239 108.272 26.1513 106.776 26.1513Z" fill="#030308" fill-opacity="0.8"/>
    <path d="M116.392 28.3663V22.9063C116.372 22.622 116.41 22.3366 116.506 22.0679C116.601 21.7993 116.751 21.5533 116.945 21.3452C117.14 21.1372 117.376 20.9716 117.638 20.859C117.9 20.7463 118.182 20.6889 118.467 20.6905C118.734 20.6874 118.999 20.7402 119.245 20.8454C119.49 20.9506 119.711 21.1059 119.894 21.3014C120.076 21.497 120.215 21.7284 120.303 21.9808C120.39 22.2333 120.424 22.5013 120.402 22.7677V28.3663H123.195V22.1545C123.195 19.8595 121.719 18.2371 119.445 18.2371C118.845 18.1995 118.245 18.3227 117.709 18.594C117.172 18.8652 116.718 19.2747 116.392 19.7803V18.3955H113.6V28.3663H116.392Z" fill="#030308" fill-opacity="0.8"/>
</svg>
