<svg width="140" height="36" viewBox="0 0 140 36" fill="none" xmlns="http://www.w3.org/2000/svg">
<path d="M18 36C27.9411 36 36 27.9411 36 18C36 8.05887 27.9411 0 18 0C8.05887 0 0 8.05887 0 18C0 27.9411 8.05887 36 18 36Z" fill="#171A1F"/>
<path d="M18.2733 8.4375H12.9372L6.38574 26.4374H9.97731L12.4341 19.6875H22.368L21.1396 16.3125H13.6625L15.3004 11.8125H19.5017L18.2733 8.4375Z" fill="white"/>
<path d="M24.2908 11.8124L23.0624 8.4375H19.4707L20.6991 11.8124H24.2908Z" fill="#F69C00"/>
<path d="M21.1084 12.9375H24.7L29.6136 26.4375H26.022L21.1084 12.9375Z" fill="white"/>
<path fill-rule="evenodd" clip-rule="evenodd" d="M49.6393 9.5625H54.602L60.0851 26.4375H56.5363L55.1656 22.2188H50.2715L51.3681 18.8438H54.069L52.1206 12.8474L47.7049 26.4375H44.1562L49.6393 9.5625ZM62.4634 16.8434V17.1562V26.4375H65.8384V17.1562H72.5884V13.7812H65.8384H65.5256L62.4634 16.8434ZM95.3696 9.5625H98.7446V13.7812H106.338H106.484L109.713 17.0115V17.1562V26.4375H106.338V17.1562H98.7446V26.4375H95.3696V17.1562V13.7812V9.5625ZM112.245 12.7825V12.9375V26.4375H115.62V12.9375H126.588V9.5625H115.62H115.465L112.245 12.7825ZM117.307 17.1562H125.745V20.5312H117.307V17.1562ZM129.12 10.4062L129.963 9.5625H132.495V12.0938L131.651 12.9375H129.12V10.4062ZM129.12 14.625H132.495V26.4375H129.12V14.625ZM85.2446 9.5625H81.8696V13.7812V17.1562V23.0625V23.2072L85.1001 26.4375H85.2446H93.6821V23.0625H85.2446V17.1562H93.6821V13.7812H85.2446V9.5625ZM75.1196 10.4062L75.9634 9.5625H78.4946V12.0938L77.6509 12.9375H75.1196V10.4062ZM75.1196 14.625H78.4946V26.4375H75.1196V14.625Z" fill="#171A1F"/>
</svg>
