<svg width="186" height="48" viewBox="0 0 186 48" fill="none" xmlns="http://www.w3.org/2000/svg">
    <path d="M24 48C37.2548 48 48 37.2548 48 24C48 10.7452 37.2548 0 24 0C10.7452 0 0 10.7452 0 24C0 37.2548 10.7452 48 24 48Z" fill="#171A1F"/>
    <path d="M24.3647 11.2501H17.2498L8.51459 35.25H13.3033L16.579 26.2501H29.8243L28.1864 21.7501H18.217L20.4007 15.7501H26.0026L24.3647 11.2501Z" fill="white"/>
    <path d="M32.3877 15.75L30.7499 11.2501H25.961L27.5988 15.75H32.3877Z" fill="#F69C00"/>
    <path d="M28.1448 17.25H32.9335L39.485 35.25H34.6962L28.1448 17.25Z" fill="white"/>
    <path fill-rule="evenodd" clip-rule="evenodd" d="M66.1857 12.75H72.8026L80.1135 35.25H75.3818L73.5541 29.625H67.0287L68.4908 25.125H72.0919L69.4942 17.1298L63.6066 35.25H58.875L66.1857 12.75ZM83.2845 22.4579V22.875V35.25H87.7845V22.875H96.7845V18.375H87.7845H87.3675L83.2845 22.4579ZM127.16 12.75H131.66V18.375H141.785H141.978L146.285 22.6819V22.875V35.25H141.785V22.875H131.66V35.25H127.16V22.875V18.375V12.75ZM149.66 17.0433V17.25V35.25H154.16V17.25H168.785V12.75H154.16H153.953L149.66 17.0433ZM156.41 22.875H167.66V27.375H156.41V22.875ZM172.16 13.875L173.285 12.75H176.66V16.125L175.535 17.25H172.16V13.875ZM172.16 19.5H176.66V35.25H172.16V19.5ZM113.66 12.75H109.16V18.375V22.875V30.75V30.943L113.467 35.25H113.66H124.91V30.75H113.66V22.875H124.91V18.375H113.66V12.75ZM100.16 13.875L101.285 12.75H104.66V16.125L103.535 17.25H100.16V13.875ZM100.16 19.5H104.66V35.25H100.16V19.5Z" fill="white"/>
</svg>
