<svg width="248" height="64" viewBox="0 0 248 64" fill="none" xmlns="http://www.w3.org/2000/svg">
    <path d="M32 64C49.6731 64 64 49.6731 64 32C64 14.3269 49.6731 0 32 0C14.3269 0 0 14.3269 0 32C0 49.6731 14.3269 64 32 64Z" fill="#171A1F"/>
    <path d="M32.4863 15.0001H22.9998L11.3528 47H17.7378L22.1054 35.0001H39.7657L37.5819 29.0001H24.2893L27.201 21.0001H34.6701L32.4863 15.0001Z" fill="white"/>
    <path d="M43.1837 21L40.9999 15.0001H34.6147L36.7985 21H43.1837Z" fill="#F69C00"/>
    <path d="M37.5264 23H43.9114L52.6467 47H46.2617L37.5264 23Z" fill="white"/>
    <path fill-rule="evenodd" clip-rule="evenodd" d="M88.2476 17H97.0702L106.818 47H100.509L98.0721 39.5H89.3716L91.3211 33.5H96.1226L92.6589 22.8398L84.8088 47H78.5L88.2476 17ZM111.046 29.9439V30.5V47H117.046V30.5H129.046V24.5H117.046H116.49L111.046 29.9439ZM169.546 17H175.546V24.5H189.046H189.304L195.046 30.2426V30.5V47H189.046V30.5H175.546V47H169.546V30.5V24.5V17ZM199.546 22.7244V23V47H205.546V23H225.046V17H205.546H205.271L199.546 22.7244ZM208.546 30.5H223.546V36.5H208.546V30.5ZM229.546 18.5L231.046 17H235.546V21.5L234.046 23H229.546V18.5ZM229.546 26H235.546V47H229.546V26ZM151.546 17H145.546V24.5V30.5V41V41.2573L151.289 47H151.546H166.546V41H151.546V30.5H166.546V24.5H151.546V17ZM133.546 18.5L135.046 17H139.546V21.5L138.046 23H133.546V18.5ZM133.546 26H139.546V47H133.546V26Z" fill="white"/>
</svg>
