<svg width="48" height="48" viewBox="0 0 48 48" fill="none" xmlns="http://www.w3.org/2000/svg">
<path d="M48 24C48 37.2547 37.2547 48 24 48C10.7452 48 0 37.2547 0 24C0 24.0056 24 0.00271875 24 0C37.2547 0 48 10.7452 48 24Z" fill="#0052B4"/>
<path d="M23.9358 24H24V23.9358L23.9358 24Z" fill="#F0F0F0"/>
<path d="M24 12.5218V0.00012207H23.996C10.743 0.00227832 0 10.7465 0 24H12.5217V16.9489L19.5728 24H23.9359L24.0001 23.9358V19.5731L16.9489 12.5218H24Z" fill="#F0F0F0"/>
<path d="M12.142 3.13037C8.38834 5.26778 5.26778 8.38834 3.13037 12.142V24H9.39128V9.39137L24 9.39128V3.13037H12.142ZM24 21.0486L15.4731 12.5219H12.5218L23.9999 24H24V21.0486Z" fill="#D80027"/>
<path d="M14.4746 28.174L15.7918 30.9282L18.7662 30.2407L17.4342 32.9878L19.8261 34.8846L16.848 35.5559L16.8563 38.6087L14.4746 36.6988L12.093 38.6087L12.1013 35.5559L9.12305 34.8846L11.5151 32.9878L10.1829 30.2407L13.1575 30.9282L14.4746 28.174ZM35.9329 33.3914L36.5915 34.7685L38.0788 34.4247L37.4127 35.7982L38.6087 36.7467L37.1196 37.0823L37.1237 38.6087L35.9329 37.6537L34.7421 38.6087L34.7462 37.0823L33.2572 36.7467L34.4532 35.7982L33.7872 34.4247L35.2743 34.7685L35.9329 33.3914ZM29.8063 18.7827L30.4648 20.1599L31.952 19.816L31.286 21.1895L32.482 22.138L30.993 22.4736L30.997 24.0001L29.8063 23.045L28.6155 24.0001L28.6195 22.4736L27.1305 22.138L28.3264 21.1895L27.6604 19.816L29.1477 20.1599L29.8063 18.7827ZM35.9329 10.4348L36.5915 11.812L38.0788 11.4682L37.4128 12.8418L38.6086 13.7901L37.1196 14.1258L37.1237 15.6523L35.9329 14.6973L34.7421 15.6523L34.7462 14.1258L33.2572 13.7901L34.4531 12.8418L33.7872 11.4682L35.2743 11.812L35.9329 10.4348ZM41.2846 16.6957L41.9431 18.0729L43.4303 17.729L42.7643 19.1026L43.9603 20.051L42.4711 20.3868L42.4753 21.9131L41.2846 20.9582L40.0937 21.9131L40.0978 20.3868L38.6087 20.051L39.8047 19.1026L39.1387 17.729L40.6259 18.0729L41.2846 16.6957ZM37.4579 24.0001L37.9758 25.5944H39.6523L38.296 26.5798L38.8141 28.174L37.4579 27.1887L36.1017 28.174L36.6196 26.5798L35.2635 25.5944H36.9398L37.4579 24.0001Z" fill="#F0F0F0"/>
</svg>
