<svg width="48" height="48" viewBox="0 0 48 48" fill="none" xmlns="http://www.w3.org/2000/svg">
<mask id="mask0_19321_44919" style="mask-type:alpha" maskUnits="userSpaceOnUse" x="20" y="0" width="28" height="28">
<path d="M34 28C41.732 28 48 21.732 48 14C48 6.26801 41.732 0 34 0C26.268 0 20 6.26801 20 14C20 21.732 26.268 28 34 28Z" fill="#F0F0F0"/>
</mask>
<g mask="url(#mask0_19321_44919)">
<path d="M34 28C41.732 28 48 21.732 48 14C48 6.26801 41.732 0 34 0C26.268 0 20 6.26801 20 14C20 21.732 26.268 28 34 28Z" fill="white"/>
<path d="M36.6599 16.8H66.5499C66.5499 14.8625 66.2053 12.9855 65.5631 11.2H36.6599V16.8ZM36.6599 5.6H52.7288C51.6319 3.45569 50.2293 1.56037 48.5939 0H36.6599V5.6ZM12.7212 28H55.2787C56.5043 26.2786 57.4548 24.3969 58.0799 22.4H9.91992C10.545 24.3969 11.4956 26.2786 12.7212 28Z" fill="#D80027"/>
<path d="M26.5148 0.851505H28.2372L26.6351 2.01539L27.247 3.89867L25.6451 2.73479L24.0431 3.89867L24.5717 2.27173C23.1611 3.44675 21.9248 4.82331 20.9059 6.35722H21.4578L20.4381 7.09803C20.2792 7.36312 20.1268 7.63234 19.9808 7.90561L20.4677 9.40439L19.5592 8.74429C19.3334 9.22274 19.1268 9.71204 18.9411 10.2115L19.4776 11.8629H21.4578L19.8557 13.0267L20.4677 14.91L18.8657 13.7461L17.9061 14.4433C17.8088 15.2251 17.76 16.0122 17.76 16.8H36.66V-2.09998C32.9263 -2.09998 29.4459 -1.01694 26.5148 0.851505ZM27.247 14.91L25.6451 13.7461L24.0431 14.91L24.655 13.0267L23.0529 11.8629H25.0331L25.645 9.97958L26.2569 11.8629H28.2371L26.635 13.0267L27.247 14.91ZM26.6351 7.52111L27.247 9.40439L25.6451 8.2405L24.0431 9.40439L24.655 7.52111L23.0529 6.35722H25.0331L25.645 4.47393L26.2569 6.35722H28.2371L26.6351 7.52111ZM34.0264 14.91L32.4244 13.7461L30.8224 14.91L31.4344 13.0267L29.8323 11.8629H31.8125L32.4244 9.97958L33.0363 11.8629H35.0166L33.4145 13.0267L34.0264 14.91ZM33.4145 7.52111L34.0264 9.40439L32.4244 8.2405L30.8224 9.40439L31.4344 7.52111L29.8323 6.35722H31.8125L32.4244 4.47393L33.0363 6.35722H35.0166L33.4145 7.52111ZM33.4145 2.01539L34.0264 3.89867L32.4244 2.73479L30.8224 3.89867L31.4344 2.01539L29.8323 0.851505H31.8125L32.4244 -1.03178L33.0363 0.851505H35.0166L33.4145 2.01539Z" fill="#0052B4"/>
</g>
<path d="M40 28C40 39.0456 31.0456 48 20 48C8.95437 48 0 39.0456 0 28C0 28.0047 20 8.00227 20 8C31.0456 8 40 16.9544 40 28Z" fill="#0052B4"/>
<path d="M19.9465 28H20V27.9465L19.9465 28Z" fill="#F0F0F0"/>
<path d="M20 18.4349V8.00012H19.9966C8.9525 8.00192 0 16.9554 0 28H10.4348V22.1241L16.3107 28H19.9466L20.0001 27.9465V24.3109L14.1241 18.4349H20Z" fill="#F0F0F0"/>
<path d="M10.1183 10.6086C6.99028 12.3898 4.38981 14.9903 2.60864 18.1183V28H7.82607V15.8261L20 15.8261V10.6086H10.1183ZM20 25.5405L12.8943 18.4349H10.4348L19.9999 28H20V25.5405Z" fill="#D80027"/>
<path d="M12.0621 31.4783L13.1598 33.7735L15.6385 33.2006L14.5285 35.4898L16.5218 37.0705L14.04 37.6299L14.0469 40.174L12.0621 38.5823L10.0775 40.174L10.0844 37.6299L7.60254 37.0705L9.5959 35.4898L8.48574 33.2006L10.9646 33.7735L12.0621 31.4783ZM29.9441 35.8261L30.4929 36.9737L31.7323 36.6872L31.1772 37.8318L32.1739 38.6222L30.933 38.9019L30.9364 40.174L29.9441 39.3781L28.9518 40.174L28.9552 38.9019L27.7143 38.6222L28.711 37.8318L28.156 36.6872L29.3953 36.9737L29.9441 35.8261ZM24.8386 23.6522L25.3873 24.7999L26.6267 24.5133L26.0717 25.6579L27.0683 26.4483L25.8275 26.728L25.8308 28.0001L24.8386 27.2042L23.8462 28.0001L23.8496 26.728L22.6087 26.4483L23.6054 25.6579L23.0504 24.5133L24.2897 24.7999L24.8386 23.6522ZM29.9441 16.6957L30.4929 17.8433L31.7323 17.5569L31.1773 18.7015L32.1739 19.4918L30.933 19.7715L30.9364 21.0436L29.9441 20.2477L28.9518 21.0436L28.9552 19.7715L27.7143 19.4918L28.7109 18.7015L28.156 17.5569L29.3953 17.8433L29.9441 16.6957ZM34.4038 21.9131L34.9525 23.0608L36.1919 22.7742L35.6369 23.9188L36.6336 24.7092L35.3926 24.989L35.3961 26.2609L34.4038 25.4651L33.4114 26.2609L33.4148 24.989L32.1739 24.7092L33.1706 23.9188L32.6156 22.7742L33.8549 23.0608L34.4038 21.9131ZM31.2149 28.0001L31.6465 29.3286H33.0436L31.9133 30.1498L32.3451 31.4783L31.2149 30.6572L30.0847 31.4783L30.5164 30.1498L29.3862 29.3286H30.7832L31.2149 28.0001Z" fill="#F0F0F0"/>
</svg>
