<svg width="49" height="48" viewBox="0 0 49 48" fill="none" xmlns="http://www.w3.org/2000/svg">
<path d="M37.3628 4H11.9705C7.91912 4 4.66663 7.2525 4.66663 11.3038V36.6962C4.66663 40.7475 7.91912 44 11.9705 44H37.3628C41.3571 44 44.6666 40.7475 44.6666 36.6962V11.3038C44.6666 7.2525 41.4141 4 37.3628 4ZM31.2002 13.9857C34.1673 13.9857 36.5639 16.3823 36.5639 19.3495C36.5639 20.2625 36.3357 21.1184 35.9362 21.9173C35.2515 21.4037 34.5097 20.9472 33.7109 20.6619C33.9391 20.2625 34.0532 19.806 34.0532 19.3495C34.0532 17.8089 32.7979 16.5535 31.2572 16.5535C29.7166 16.5535 28.4612 17.8089 28.4612 19.3495C28.4612 19.806 28.5753 20.2625 28.8036 20.6619C28.0047 20.9472 27.2059 21.3466 26.5782 21.9173C26.1217 21.1184 25.9505 20.2625 25.9505 19.3495C25.8364 16.3823 28.233 13.9857 31.2002 13.9857ZM18.1331 34.0143C15.1659 34.0143 12.7693 31.6177 12.7693 28.6505H15.3371C15.3371 30.1911 16.5925 31.4465 18.1331 31.4465C19.6738 31.4465 20.9291 30.1911 20.9291 28.6505H23.4969C23.4969 31.6177 21.1003 34.0143 18.1331 34.0143ZM18.1331 26.4822C14.7094 26.4822 11.9134 23.6862 11.9134 20.2625C11.9134 16.8388 14.7094 13.9857 18.1331 13.9857C21.5568 13.9857 24.4098 16.7817 24.4098 20.2625C24.3528 23.6862 21.5568 26.4822 18.1331 26.4822ZM31.2002 34.0143C27.7765 34.0143 24.9234 31.2183 24.9234 27.7946C24.9234 24.3138 27.7194 21.5178 31.2002 21.5178C34.6238 21.5178 37.4198 24.3138 37.4198 27.7946C37.4198 31.2183 34.6238 34.0143 31.2002 34.0143ZM34.9091 27.7375C34.9091 29.7917 33.2543 31.3894 31.2002 31.3894C29.1459 31.3894 27.4911 29.7347 27.4911 27.7375C27.4911 25.6833 29.1459 24.0285 31.2002 24.0285C33.2543 24.0856 34.9091 25.7403 34.9091 27.7375ZM21.785 20.2625C21.785 22.3167 20.1302 23.9715 18.0761 23.9715C16.0218 23.9715 14.367 22.3167 14.367 20.2625C14.367 18.2083 16.0218 16.5535 18.0761 16.5535C20.1873 16.5535 21.785 18.2083 21.785 20.2625Z" fill="#D9B432"/>
</svg>
