<svg width="48" height="48" viewBox="0 0 48 48" fill="none" xmlns="http://www.w3.org/2000/svg">
<path d="M0 24C0 37.2548 10.7452 48 24 48C37.2548 48 48 37.2548 48 24C48 10.7452 37.2548 0 24 0C10.7452 0 0 10.7452 0 24Z" fill="#003399"/>
<path d="M8.46002 11.8799L9.14702 13.9943H11.3703L9.57158 15.3011L10.2586 17.4155L8.46002 16.1087L6.66134 17.4155L7.34834 15.3011L5.54966 13.9943H7.7729L8.46002 11.8799ZM6.06002 20.8799L6.74702 22.9943H8.97026L7.17158 24.3011L7.85858 26.4155L6.06002 25.1087L4.26134 26.4155L4.94834 24.3011L3.14966 22.9943H5.3729L6.06002 20.8799ZM8.46002 29.7599L9.14702 31.8743H11.3703L9.57158 33.1811L10.2586 35.2955L8.46002 33.9887L6.66134 35.2955L7.34834 33.1811L5.54966 31.8743H7.7729L8.46002 29.7599ZM14.94 36.3599L15.627 38.4743H17.8503L16.0516 39.7811L16.7387 41.8955L14.94 40.5887L13.1413 41.8955L13.8285 39.7811L12.0298 38.4743H14.253L14.94 36.3599ZM23.94 38.7599L24.627 40.8743H26.8503L25.0516 42.1811L25.7387 44.2955L23.94 42.9887L22.1413 44.2955L22.8285 42.1811L21.0298 40.8743H23.253L23.94 38.7599ZM32.94 36.3599L33.627 38.4743H35.8503L34.0516 39.7811L34.7387 41.8955L32.94 40.5887L31.1413 41.8955L31.8285 39.7811L30.0298 38.4743H32.253L32.94 36.3599ZM39.42 29.7599L40.107 31.8743H42.3303L40.5316 33.1811L41.2187 35.2955L39.42 33.9887L37.6213 35.2955L38.3085 33.1811L36.5098 31.8743H38.733L39.42 29.7599ZM41.82 20.8799L42.507 22.9943H44.7303L42.9316 24.3011L43.6187 26.4155L41.82 25.1087L40.0213 26.4155L40.7085 24.3011L38.9098 22.9943H41.133L41.82 20.8799Z" fill="#FFCC00"/>
<path d="M39.42 11.8799L40.107 13.9943H42.3303L40.5316 15.3011L41.2187 17.4155L39.42 16.1087L37.6213 17.4155L38.3085 15.3011L36.5098 13.9943H38.733L39.42 11.8799ZM32.94 5.27988L33.627 7.39428H35.8503L34.0516 8.70108L34.7387 10.8155L32.94 9.50868L31.1413 10.8155L31.8285 8.70108L30.0298 7.39428H32.253L32.94 5.27988ZM23.94 2.87988L24.627 4.99428H26.8503L25.0516 6.30108L25.7387 8.41548L23.94 7.10868L22.1413 8.41548L22.8285 6.30108L21.0298 4.99428H23.253L23.94 2.87988ZM14.94 5.27988L15.627 7.39428H17.8503L16.0516 8.70108L16.7387 10.8155L14.94 9.50868L13.1413 10.8155L13.8285 8.70108L12.0298 7.39428H14.253L14.94 5.27988Z" fill="#FFCC00"/>
</svg>
