<svg width="48" height="48" viewBox="0 0 48 48" fill="none" xmlns="http://www.w3.org/2000/svg">
<mask id="mask0_19321_44887" style="mask-type:alpha" maskUnits="userSpaceOnUse" x="20" y="0" width="28" height="28">
<path d="M34 28C41.732 28 48 21.732 48 14C48 6.26801 41.732 0 34 0C26.268 0 20 6.26801 20 14C20 21.732 26.268 28 34 28Z" fill="#F0F0F0"/>
</mask>
<g mask="url(#mask0_19321_44887)">
<path d="M34 28C41.732 28 48 21.732 48 14C48 6.26801 41.732 0 34 0C26.268 0 20 6.26801 20 14C20 21.732 26.268 28 34 28Z" fill="white"/>
<path d="M36.6599 16.8H66.5499C66.5499 14.8625 66.2053 12.9855 65.5631 11.2H36.6599V16.8ZM36.6599 5.6H52.7288C51.6319 3.45569 50.2293 1.56037 48.5939 0H36.6599V5.6ZM12.7212 28H55.2787C56.5043 26.2786 57.4548 24.3969 58.0799 22.4H9.91992C10.545 24.3969 11.4956 26.2786 12.7212 28Z" fill="#D80027"/>
<path d="M26.5148 0.851505H28.2372L26.6351 2.01539L27.247 3.89867L25.6451 2.73479L24.0431 3.89867L24.5717 2.27173C23.1611 3.44675 21.9248 4.82331 20.9059 6.35722H21.4578L20.4381 7.09803C20.2792 7.36312 20.1268 7.63234 19.9808 7.90561L20.4677 9.40439L19.5592 8.74429C19.3334 9.22274 19.1268 9.71204 18.9411 10.2115L19.4776 11.8629H21.4578L19.8557 13.0267L20.4677 14.91L18.8657 13.7461L17.9061 14.4433C17.8088 15.2251 17.76 16.0122 17.76 16.8H36.66V-2.09998C32.9263 -2.09998 29.4459 -1.01694 26.5148 0.851505ZM27.247 14.91L25.6451 13.7461L24.0431 14.91L24.655 13.0267L23.0529 11.8629H25.0331L25.645 9.97958L26.2569 11.8629H28.2371L26.635 13.0267L27.247 14.91ZM26.6351 7.52111L27.247 9.40439L25.6451 8.2405L24.0431 9.40439L24.655 7.52111L23.0529 6.35722H25.0331L25.645 4.47393L26.2569 6.35722H28.2371L26.6351 7.52111ZM34.0264 14.91L32.4244 13.7461L30.8224 14.91L31.4344 13.0267L29.8323 11.8629H31.8125L32.4244 9.97958L33.0363 11.8629H35.0166L33.4145 13.0267L34.0264 14.91ZM33.4145 7.52111L34.0264 9.40439L32.4244 8.2405L30.8224 9.40439L31.4344 7.52111L29.8323 6.35722H31.8125L32.4244 4.47393L33.0363 6.35722H35.0166L33.4145 7.52111ZM33.4145 2.01539L34.0264 3.89867L32.4244 2.73479L30.8224 3.89867L31.4344 2.01539L29.8323 0.851505H31.8125L32.4244 -1.03178L33.0363 0.851505H35.0166L33.4145 2.01539Z" fill="#0052B4"/>
</g>
<path d="M0 28C0 39.0457 8.9543 48 20 48C31.0457 48 40 39.0457 40 28C40 16.9543 31.0457 8 20 8C8.9543 8 0 16.9543 0 28Z" fill="#003399"/>
<path d="M7.05006 17.8999L7.62256 19.6619H9.47526L7.97636 20.7509L8.54886 22.5129L7.05006 21.4239L5.55116 22.5129L6.12366 20.7509L4.62476 19.6619H6.47746L7.05006 17.8999ZM5.05006 25.3999L5.62256 27.1619H7.47526L5.97636 28.2509L6.54886 30.0129L5.05006 28.9239L3.55116 30.0129L4.12366 28.2509L2.62476 27.1619H4.47746L5.05006 25.3999ZM7.05006 32.7999L7.62256 34.5619H9.47526L7.97636 35.6509L8.54886 37.4129L7.05006 36.3239L5.55116 37.4129L6.12366 35.6509L4.62476 34.5619H6.47746L7.05006 32.7999ZM12.4501 38.2999L13.0226 40.0619H14.8753L13.3764 41.1509L13.949 42.9129L12.4501 41.8239L10.9512 42.9129L11.5238 41.1509L10.0249 40.0619H11.8776L12.4501 38.2999ZM19.9501 40.2999L20.5226 42.0619H22.3753L20.8764 43.1509L21.449 44.9129L19.9501 43.8239L18.4512 44.9129L19.0238 43.1509L17.5249 42.0619H19.3776L19.9501 40.2999ZM27.4501 38.2999L28.0226 40.0619H29.8753L28.3764 41.1509L28.949 42.9129L27.4501 41.8239L25.9512 42.9129L26.5238 41.1509L25.0249 40.0619H26.8776L27.4501 38.2999ZM32.8501 32.7999L33.4226 34.5619H35.2753L33.7764 35.6509L34.349 37.4129L32.8501 36.3239L31.3512 37.4129L31.9238 35.6509L30.4249 34.5619H32.2776L32.8501 32.7999ZM34.8501 25.3999L35.4226 27.1619H37.2753L35.7764 28.2509L36.349 30.0129L34.8501 28.9239L33.3512 30.0129L33.9238 28.2509L32.4249 27.1619H34.2776L34.8501 25.3999Z" fill="#FFCC00"/>
<path d="M32.8501 17.8999L33.4226 19.6619H35.2753L33.7764 20.7509L34.349 22.5129L32.8501 21.4239L31.3512 22.5129L31.9238 20.7509L30.4249 19.6619H32.2776L32.8501 17.8999ZM27.4501 12.3999L28.0226 14.1619H29.8753L28.3764 15.2509L28.949 17.0129L27.4501 15.9239L25.9512 17.0129L26.5238 15.2509L25.0249 14.1619H26.8776L27.4501 12.3999ZM19.9501 10.3999L20.5226 12.1619H22.3753L20.8764 13.2509L21.449 15.0129L19.9501 13.9239L18.4512 15.0129L19.0238 13.2509L17.5249 12.1619H19.3776L19.9501 10.3999ZM12.4501 12.3999L13.0226 14.1619H14.8753L13.3764 15.2509L13.949 17.0129L12.4501 15.9239L10.9512 17.0129L11.5238 15.2509L10.0249 14.1619H11.8776L12.4501 12.3999Z" fill="#FFCC00"/>
</svg>
