<svg width="48" height="48" viewBox="0 0 48 48" fill="none" xmlns="http://www.w3.org/2000/svg">
<mask id="mask0_19321_44886" style="mask-type:alpha" maskUnits="userSpaceOnUse" x="20" y="0" width="28" height="28">
<path d="M34 28C41.732 28 48 21.732 48 14C48 6.26801 41.732 0 34 0C26.268 0 20 6.26801 20 14C20 21.732 26.268 28 34 28Z" fill="#F0F0F0"/>
</mask>
<g mask="url(#mask0_19321_44886)">
<path d="M34 28C41.732 28 48 21.732 48 14C48 6.26801 41.732 0 34 0C26.268 0 20 6.26801 20 14C20 21.732 26.268 28 34 28Z" fill="white"/>
<path d="M36.6599 16.8H66.5499C66.5499 14.8625 66.2053 12.9855 65.5631 11.2H36.6599V16.8ZM36.6599 5.6H52.7288C51.6319 3.45569 50.2293 1.56037 48.5939 0H36.6599V5.6ZM12.7212 28H55.2787C56.5043 26.2786 57.4548 24.3969 58.0799 22.4H9.91992C10.545 24.3969 11.4956 26.2786 12.7212 28Z" fill="#D80027"/>
<path d="M26.5148 0.851505H28.2372L26.6351 2.01539L27.247 3.89867L25.6451 2.73479L24.0431 3.89867L24.5717 2.27173C23.1611 3.44675 21.9248 4.82331 20.9059 6.35722H21.4578L20.4381 7.09803C20.2792 7.36312 20.1268 7.63234 19.9808 7.90561L20.4677 9.40439L19.5592 8.74429C19.3334 9.22274 19.1268 9.71204 18.9411 10.2115L19.4776 11.8629H21.4578L19.8557 13.0267L20.4677 14.91L18.8657 13.7461L17.9061 14.4433C17.8088 15.2251 17.76 16.0122 17.76 16.8H36.66V-2.09998C32.9263 -2.09998 29.4459 -1.01694 26.5148 0.851505ZM27.247 14.91L25.6451 13.7461L24.0431 14.91L24.655 13.0267L23.0529 11.8629H25.0331L25.645 9.97958L26.2569 11.8629H28.2371L26.635 13.0267L27.247 14.91ZM26.6351 7.52111L27.247 9.40439L25.6451 8.2405L24.0431 9.40439L24.655 7.52111L23.0529 6.35722H25.0331L25.645 4.47393L26.2569 6.35722H28.2371L26.6351 7.52111ZM34.0264 14.91L32.4244 13.7461L30.8224 14.91L31.4344 13.0267L29.8323 11.8629H31.8125L32.4244 9.97958L33.0363 11.8629H35.0166L33.4145 13.0267L34.0264 14.91ZM33.4145 7.52111L34.0264 9.40439L32.4244 8.2405L30.8224 9.40439L31.4344 7.52111L29.8323 6.35722H31.8125L32.4244 4.47393L33.0363 6.35722H35.0166L33.4145 7.52111ZM33.4145 2.01539L34.0264 3.89867L32.4244 2.73479L30.8224 3.89867L31.4344 2.01539L29.8323 0.851505H31.8125L32.4244 -1.03178L33.0363 0.851505H35.0166L33.4145 2.01539Z" fill="#0052B4"/>
</g>
<path d="M20 48C31.0457 48 40 39.0457 40 28C40 16.9543 31.0457 8 20 8C8.9543 8 0 16.9543 0 28C0 39.0457 8.9543 48 20 48Z" fill="#F0F0F0"/>
<path d="M4.13436 15.8236C2.56334 17.8676 1.37873 20.2234 0.688965 22.7827H11.0935L4.13436 15.8236ZM39.311 22.7827C38.6212 20.2235 37.4365 17.8676 35.8656 15.8237L28.9066 22.7827H39.311ZM0.688965 33.2175C1.37881 35.7767 2.56342 38.1326 4.13436 40.1765L11.0933 33.2175H0.688965ZM32.1764 12.1344C30.1324 10.5634 27.7766 9.37881 25.2173 8.68896V19.0934L32.1764 12.1344ZM7.82357 43.8655C9.86756 45.4365 12.2234 46.6212 14.7826 47.311V36.9066L7.82357 43.8655ZM14.7826 8.68896C12.2233 9.37881 9.86748 10.5634 7.82357 12.1344L14.7826 19.0933V8.68896ZM25.2174 47.311C27.7766 46.6212 30.1325 45.4365 32.1764 43.8656L25.2174 36.9066V47.311ZM28.9066 33.2175L35.8656 40.1765C37.4365 38.1326 38.6212 35.7767 39.311 33.2175H28.9066Z" fill="#0052B4"/>
<path d="M39.8307 25.3913H22.6088H22.6087V8.1693C21.7548 8.05813 20.8841 8 20 8C19.1277 8.00004 18.2563 8.05659 17.3913 8.1693V25.3912V25.3913H0.169297C0.058125 26.2452 0 27.1159 0 28C4.11389e-05 28.8723 0.0565919 29.7437 0.169297 30.6087H17.3912H17.3913V47.8307C18.2452 47.9419 19.1157 48 20 48C20.8723 48 21.7437 47.9434 22.6087 47.8307V30.6088V30.6087H39.8307C39.9419 29.7548 40 28.8843 40 28C40 27.1277 39.9434 26.2563 39.8307 25.3913ZM25.2174 33.2175L34.1421 42.1422C34.5526 41.7319 34.9441 41.3029 35.3177 40.8582L27.677 33.2174H25.2174V33.2175ZM14.7826 33.2175H14.7824L5.85781 42.1421C6.26813 42.5526 6.69711 42.9441 7.1418 43.3177L14.7826 35.6768V33.2175ZM14.7826 22.7827V22.7826L5.85789 13.8578C5.44742 14.2681 5.05586 14.6971 4.68227 15.1418L12.3231 22.7827L14.7826 22.7827ZM25.2174 22.7827L34.1422 13.8579C33.7319 13.4474 33.3029 13.0559 32.8582 12.6823L25.2174 20.3232V22.7827Z" fill="#D80027"/>
</svg>
