<svg width="48" height="48" viewBox="0 0 48 48" fill="none" xmlns="http://www.w3.org/2000/svg">
<path d="M24 48C37.2548 48 48 37.2548 48 24C48 10.7452 37.2548 0 24 0C10.7452 0 0 10.7452 0 24C0 37.2548 10.7452 48 24 48Z" fill="#F0F0F0"/>
<path d="M4.96113 9.38831C3.07591 11.8411 1.65438 14.6681 0.82666 17.7393H13.3121L4.96113 9.38831ZM47.1731 17.7393C46.3454 14.6682 44.9237 11.8412 43.0386 9.38841L34.6878 17.7393H47.1731ZM0.82666 30.261C1.65447 33.3321 3.076 36.1591 4.96113 38.6118L13.3118 30.261H0.82666ZM38.6116 4.96134C36.1588 3.07613 33.3318 1.65459 30.2607 0.826782V13.3121L38.6116 4.96134ZM9.38819 43.0387C11.841 44.9239 14.668 46.3454 17.7391 47.1732V34.688L9.38819 43.0387ZM17.739 0.826782C14.6679 1.65459 11.8409 3.07613 9.38819 4.96125L17.739 13.312V0.826782ZM30.2608 47.1732C33.3318 46.3454 36.1589 44.9239 38.6116 43.0387L30.2608 34.688V47.1732ZM34.6878 30.261L43.0386 38.6119C44.9237 36.1592 46.3454 33.3321 47.1731 30.261H34.6878Z" fill="#0052B4"/>
<path d="M47.7968 20.8696H27.1306H27.1305V0.203156C26.1057 0.06975 25.061 0 24 0C22.9532 4.93667e-05 21.9076 0.0679102 20.8696 0.203156V20.8694V20.8695H0.203156C0.06975 21.8943 0 22.939 0 24C4.93667e-05 25.0468 0.0679102 26.0924 0.203156 27.1304H20.8694H20.8695V47.7968C21.8943 47.9303 22.9388 48 24 48C25.0468 48 26.0924 47.9321 27.1304 47.7968V27.1306V27.1305H47.7968C47.9303 26.1057 48 25.0612 48 24C48 22.9532 47.9321 21.9076 47.7968 20.8696ZM30.2609 30.261L40.9705 40.9706C41.4631 40.4782 41.933 39.9635 42.3813 39.4298L33.2123 30.2609H30.2609V30.261ZM17.7391 30.261H17.7389L7.02938 40.9705C7.52175 41.4631 8.03653 41.933 8.57016 42.3813L17.7391 33.2122V30.261ZM17.7391 17.7393V17.7391L7.02947 7.02938C6.53691 7.52175 6.06703 8.03653 5.61872 8.57016L14.7877 17.7392L17.7391 17.7393ZM30.2609 17.7393L40.9706 7.02947C40.4782 6.53691 39.9635 6.06703 39.4298 5.61881L30.2609 14.7878V17.7393Z" fill="#D80027"/>
</svg>
