<svg width="48" height="48" viewBox="0 0 48 48" fill="none" xmlns="http://www.w3.org/2000/svg">
<path d="M24 48C37.2548 48 48 37.2548 48 24C48 10.7452 37.2548 0 24 0C10.7452 0 0 10.7452 0 24C0 37.2548 10.7452 48 24 48Z" fill="#F0F0F0"/>
<path d="M48 24C48 14.485 42.4627 6.26347 34.4347 2.38147V45.6185C42.4627 41.7366 48 33.5151 48 24ZM0 24C0 33.5151 5.53734 41.7366 13.5653 45.6186V2.38147C5.53734 6.26347 0 14.485 0 24ZM28.1739 27.1304L32.3478 25.0435L30.2609 24V21.9131L26.087 24L28.1739 19.8261H26.087L24 16.6957L21.913 19.8261H19.8261L21.913 24L17.7391 21.9131V24L15.6522 25.0435L19.8261 27.1304L18.7826 29.2174H22.9566V32.3478H25.0434V29.2174H29.2174L28.1739 27.1304Z" fill="#D80027"/>
<path d="M24 48C37.2548 48 48 37.2548 48 24C48 10.7452 37.2548 0 24 0C10.7452 0 0 10.7452 0 24C0 37.2548 10.7452 48 24 48Z" fill="#F0F0F0"/>
<path d="M23.9999 34.4348C29.7629 34.4348 34.4347 29.763 34.4347 24.0001C34.4347 18.2371 29.7629 13.5653 23.9999 13.5653C18.237 13.5653 13.5652 18.2371 13.5652 24.0001C13.5652 29.763 18.237 34.4348 23.9999 34.4348Z" fill="#D80027"/>
</svg>
