<svg width="48" height="48" viewBox="0 0 48 48" fill="none" xmlns="http://www.w3.org/2000/svg">
<path d="M34 28C41.732 28 48 21.732 48 14C48 6.26801 41.732 0 34 0C26.268 0 20 6.26801 20 14C20 21.732 26.268 28 34 28Z" fill="#F0F0F0"/>
<path d="M48 14C48 8.44953 44.7699 3.65366 40.0869 1.38916V26.6108C44.7699 24.3463 48 19.5504 48 14ZM20 14C20 19.5504 23.2301 24.3463 27.9131 26.6108V1.38916C23.2301 3.65366 20 8.44953 20 14ZM36.4348 15.8261L38.8695 14.6087L37.6522 14V12.7826L35.2174 14L36.4348 11.5652H35.2174L34 9.73912L32.7826 11.5652H31.5652L32.7826 14L30.3478 12.7826V14L29.1305 14.6087L31.5652 15.8261L30.9565 17.0435H33.3913V18.8695H34.6087V17.0435H37.0435L36.4348 15.8261Z" fill="#D80027"/>
<path d="M34 28C41.732 28 48 21.732 48 14C48 6.26801 41.732 0 34 0C26.268 0 20 6.26801 20 14C20 21.732 26.268 28 34 28Z" fill="#F0F0F0"/>
<path d="M34 20.087C37.3617 20.087 40.087 17.3617 40.087 14C40.087 10.6383 37.3617 7.91309 34 7.91309C30.6383 7.91309 27.9131 10.6383 27.9131 14C27.9131 17.3617 30.6383 20.087 34 20.087Z" fill="#D80027"/>
<mask id="mask0_19321_44957" style="mask-type:alpha" maskUnits="userSpaceOnUse" x="0" y="8" width="40" height="40">
<path d="M20 48C31.0457 48 40 39.0457 40 28C40 16.9543 31.0457 8 20 8C8.9543 8 0 16.9543 0 28C0 39.0457 8.9543 48 20 48Z" fill="#F0F0F0"/>
</mask>
<g mask="url(#mask0_19321_44957)">
<path d="M20 48C31.0457 48 40 39.0457 40 28C40 16.9543 31.0457 8 20 8C8.9543 8 0 16.9543 0 28C0 39.0457 8.9543 48 20 48Z" fill="white"/>
<path d="M23.8001 32H66.5001C66.5001 29.2321 66.0078 26.5507 65.0904 24H23.8001V32ZM23.8001 16H46.7557C45.1886 12.9367 43.1849 10.2291 40.8487 8H23.8001V16ZM-10.3981 48H50.3983C52.1492 45.5408 53.5071 42.8527 54.4001 40H-14.3999C-13.5069 42.8527 -12.149 45.5408 -10.3981 48Z" fill="#D80027"/>
<path d="M9.30695 9.2164H11.7675L9.47875 10.8791L10.3529 13.5695L8.06445 11.9068L5.77585 13.5695L6.53105 11.2453C4.51595 12.9239 2.74975 14.8904 1.29425 17.0817H2.08265L0.625849 18.14C0.398849 18.5187 0.181149 18.9033 -0.0274508 19.2937L0.668249 21.4348L-0.629651 20.4918C-0.952251 21.1753 -1.24735 21.8743 -1.51265 22.5878L-0.746251 24.9469H2.08265L-0.206051 26.6096L0.668249 29.3L-1.62035 27.6373L-2.99125 28.6333C-3.13025 29.7502 -3.19995 30.8745 -3.19995 32H23.8001V5C18.4663 5 13.4942 6.5472 9.30695 9.2164ZM10.3529 29.3L8.06445 27.6373L5.77585 29.3L6.65005 26.6096L4.36135 24.9469H7.19025L8.06435 22.2565L8.93845 24.9469H11.7674L9.47865 26.6096L10.3529 29.3ZM9.47875 18.7444L10.3529 21.4348L8.06445 19.7721L5.77585 21.4348L6.65005 18.7444L4.36135 17.0817H7.19025L8.06435 14.3913L8.93845 17.0817H11.7674L9.47875 18.7444ZM20.0378 29.3L17.7493 27.6373L15.4607 29.3L16.3349 26.6096L14.0462 24.9469H16.8751L17.7493 22.2565L18.6234 24.9469H21.4523L19.1635 26.6096L20.0378 29.3ZM19.1635 18.7444L20.0378 21.4348L17.7493 19.7721L15.4607 21.4348L16.3349 18.7444L14.0462 17.0817H16.8751L17.7493 14.3913L18.6234 17.0817H21.4523L19.1635 18.7444ZM19.1635 10.8791L20.0378 13.5695L17.7493 11.9068L15.4607 13.5695L16.3349 10.8791L14.0462 9.2164H16.8751L17.7493 6.526L18.6234 9.2164H21.4523L19.1635 10.8791Z" fill="#0052B4"/>
</g>
</svg>
