<svg width="48" height="48" viewBox="0 0 48 48" fill="none" xmlns="http://www.w3.org/2000/svg">
<g clip-path="url(#clip0_17721_24795)">
<path d="M48 24C48 37.2592 37.2592 48 24 48C10.7408 48 0 37.2592 0 24C0 10.7408 10.7408 0 24 0C37.2352 0 48 10.7408 48 24Z" fill="white"/>
<path d="M23.9971 0C19.2497 0 14.609 1.40775 10.6618 4.04522C6.7145 6.68269 3.63799 10.4314 1.82126 14.8174C0.00454067 19.2033 -0.470797 24.0295 0.455361 28.6856C1.38152 33.3417 3.66757 37.6187 7.02444 40.9755C10.3813 44.3324 14.6582 46.6184 19.3143 47.5446C23.9704 48.4708 28.7966 47.9954 33.1826 46.1787C37.5685 44.362 41.3173 41.2855 43.9547 37.3382C46.5922 33.3909 48 28.7502 48 24.0029C48 20.8508 47.3791 17.7296 46.1728 14.8174C44.9666 11.9052 43.1986 9.25916 40.9697 7.03029C38.7408 4.80141 36.0947 3.03337 33.1826 1.82711C30.2704 0.620853 27.1492 0 23.9971 0ZM24.3861 24.7926L21.8894 33.2174H35.2437C35.3499 33.2176 35.4546 33.2426 35.5495 33.2902C35.6444 33.3379 35.7269 33.407 35.7906 33.492C35.8542 33.577 35.8972 33.6757 35.9161 33.7802C35.9351 33.8847 35.9295 33.9921 35.8998 34.0941L34.7386 38.0946C34.6831 38.2857 34.5671 38.4536 34.4079 38.573C34.2487 38.6924 34.055 38.7568 33.856 38.7565H13.4588L16.9077 27.1092L13.093 28.2705L13.9349 25.5474L17.7554 24.3861L22.5978 8.02419C22.651 7.83246 22.7655 7.66341 22.9238 7.54285C23.0821 7.42228 23.2755 7.35683 23.4745 7.35648H28.642C28.7481 7.3561 28.8528 7.38034 28.9478 7.42729C29.0429 7.47424 29.1258 7.54262 29.19 7.62704C29.2541 7.71147 29.2978 7.80964 29.3176 7.91382C29.3374 8.01799 29.3327 8.12534 29.3039 8.22741L25.2396 22.0636L29.0543 20.9024L28.2356 23.6719L24.3861 24.7926Z" fill="#345D9D"/>
</g>
<defs>
<clipPath id="clip0_17721_24795">
<rect width="48" height="48" fill="white"/>
</clipPath>
</defs>
</svg>
