<svg width="155" height="40" viewBox="0 0 155 40" fill="none" xmlns="http://www.w3.org/2000/svg">
<path d="M20 40C31.0457 40 40 31.0457 40 20C40 8.9543 31.0457 0 20 0C8.9543 0 0 8.9543 0 20C0 31.0457 8.9543 40 20 40Z" fill="#171A1F"/>
<path d="M20.3041 9.37512H14.3751L7.0957 29.3751H11.0863L13.8161 21.8751H24.8538L23.4889 18.1251H15.181L17.0008 13.1251H21.669L20.3041 9.37512Z" fill="white"/>
<path d="M26.9894 13.1251L25.6245 9.37512H21.6338L22.9987 13.1251H26.9894Z" fill="#F69C00"/>
<path d="M23.4541 14.375H27.4447L32.9043 29.375H28.9137L23.4541 14.375Z" fill="white"/>
<path fill-rule="evenodd" clip-rule="evenodd" d="M55.1547 10.625H60.6689L66.7612 29.375H62.8181L61.2951 24.6875H55.8572L57.0757 20.9375H60.0766L57.9118 14.2749L53.0055 29.375H49.0625L55.1547 10.625ZM69.4037 18.7149V19.0625V29.375H73.1537V19.0625H80.6537V15.3125H73.1537H72.8062L69.4037 18.7149ZM105.966 10.625H109.716V15.3125H118.154H118.315L121.904 18.9016V19.0625V29.375H118.154V19.0625H109.716V29.375H105.966V19.0625V15.3125V10.625ZM124.716 14.2027V14.375V29.375H128.466V14.375H140.654V10.625H128.466H128.294L124.716 14.2027ZM130.341 19.0625H139.716V22.8125H130.341V19.0625ZM143.466 11.5625L144.404 10.625H147.216V13.4375L146.279 14.375H143.466V11.5625ZM143.466 16.25H147.216V29.375H143.466V16.25ZM94.7162 10.625H90.9662V15.3125V19.0625V25.625V25.7858L94.5556 29.375H94.7162H104.091V25.625H94.7162V19.0625H104.091V15.3125H94.7162V10.625ZM83.4663 11.5625L84.4038 10.625H87.2163V13.4375L86.2788 14.375H83.4663V11.5625ZM83.4663 16.25H87.2163V29.375H83.4663V16.25Z" fill="#171A1F"/>
</svg>
