<svg width="48" height="48" viewBox="0 0 48 48" fill="none" xmlns="http://www.w3.org/2000/svg">
<g clip-path="url(#clip0_17721_24764)">
<circle cx="24" cy="24" r="24" fill="black"/>
<path d="M36.8661 30.9223L32.574 35.6731C32.4807 35.7763 32.3678 35.8586 32.2424 35.9149C32.1169 35.9711 31.9816 36.0001 31.8449 36H11.4983C11.4012 36 11.3062 35.9707 11.225 35.9158C11.1439 35.8608 11.08 35.7826 11.0413 35.6907C11.0026 35.5988 10.9908 35.4973 11.0072 35.3985C11.0237 35.2997 11.0677 35.2081 11.134 35.1349L15.4293 30.384C15.5223 30.2811 15.6349 30.199 15.7599 30.1427C15.885 30.0865 16.0198 30.0574 16.1563 30.0571H36.5017C36.5988 30.0571 36.6937 30.0864 36.775 30.1414C36.8561 30.1963 36.9199 30.2746 36.9588 30.3664C36.9974 30.4583 37.0092 30.5599 36.9928 30.6586C36.9763 30.7574 36.9323 30.849 36.8661 30.9223ZM32.574 21.3554C32.4807 21.2522 32.3678 21.1699 32.2424 21.1137C32.1169 21.0575 31.9816 21.0285 31.8449 21.0286H11.4983C11.4012 21.0286 11.3062 21.0578 11.225 21.1128C11.1439 21.1678 11.08 21.246 11.0413 21.3379C11.0026 21.4298 10.9908 21.5313 11.0072 21.6301C11.0237 21.7288 11.0677 21.8204 11.134 21.8937L15.4293 26.6446C15.5223 26.7475 15.6349 26.8296 15.7599 26.8858C15.885 26.942 16.0198 26.9712 16.1563 26.9714H36.5017C36.5988 26.9714 36.6937 26.9422 36.775 26.8872C36.8561 26.8322 36.9199 26.754 36.9588 26.6621C36.9974 26.5702 37.0092 26.4687 36.9928 26.3699C36.9763 26.2712 36.9323 26.1796 36.8661 26.1063L32.574 21.3554ZM11.4983 17.9429H31.8449C31.9816 17.9429 32.1169 17.914 32.2424 17.8577C32.3678 17.8015 32.4807 17.7192 32.574 17.616L36.8661 12.8651C36.9323 12.7919 36.9763 12.7002 36.9928 12.6015C37.0092 12.5028 36.9974 12.4012 36.9588 12.3093C36.9199 12.2174 36.8561 12.1392 36.775 12.0842C36.6937 12.0293 36.5988 12 36.5017 12H16.1563C16.0198 12.0002 15.885 12.0294 15.7599 12.0856C15.6349 12.1418 15.5223 12.2239 15.4293 12.3269L11.1351 17.0777C11.0689 17.1509 11.0249 17.2424 11.0084 17.3411C10.9919 17.4397 11.0036 17.5412 11.0422 17.633C11.0807 17.7249 11.1444 17.8031 11.2255 17.8582C11.3065 17.9132 11.4013 17.9426 11.4983 17.9429Z" fill="url(#paint0_linear_17721_24764)"/>
</g>
<defs>
<linearGradient id="paint0_linear_17721_24764" x1="13.1947" y1="36.572" x2="35.2886" y2="12.4404" gradientUnits="userSpaceOnUse">
<stop offset="0.08" stop-color="#9945FF"/>
<stop offset="0.3" stop-color="#8752F3"/>
<stop offset="0.5" stop-color="#5497D5"/>
<stop offset="0.6" stop-color="#43B4CA"/>
<stop offset="0.72" stop-color="#28E0B9"/>
<stop offset="0.97" stop-color="#19FB9B"/>
</linearGradient>
<clipPath id="clip0_17721_24764">
<rect width="48" height="48" fill="white"/>
</clipPath>
</defs>
</svg>
