<svg width="48" height="48" viewBox="0 0 48 48" fill="none" xmlns="http://www.w3.org/2000/svg">
<mask id="mask0_19321_12330" style="mask-type:alpha" maskUnits="userSpaceOnUse" x="0" y="0" width="48" height="48">
<path d="M24 48C37.2548 48 48 37.2548 48 24C48 10.7452 37.2548 0 24 0C10.7452 0 0 10.7452 0 24C0 37.2548 10.7452 48 24 48Z" fill="#F0F0F0"/>
</mask>
<g mask="url(#mask0_19321_12330)">
<path d="M24 48C37.2548 48 48 37.2548 48 24C48 10.7452 37.2548 0 24 0C10.7452 0 0 10.7452 0 24C0 37.2548 10.7452 48 24 48Z" fill="white"/>
<path d="M28.56 28.8H79.8C79.8 25.4785 79.2092 22.2608 78.1083 19.2H28.56V28.8ZM28.56 9.6H56.1067C54.2262 5.92404 51.8217 2.67492 49.0183 0H28.56V9.6ZM-12.4779 48H60.4778C62.5789 45.049 64.2084 41.8232 65.28 38.4H-17.28C-16.2084 41.8232 -14.5789 45.049 -12.4779 48Z" fill="#D80027"/>
<path d="M11.1682 1.4597H14.1208L11.3744 3.45494L12.4234 6.68342L9.67719 4.68818L6.93087 6.68342L7.83711 3.89438C5.41899 5.9087 3.29955 8.26851 1.55295 10.8981H2.49903L0.750872 12.168C0.478472 12.6225 0.217232 13.084 -0.0330877 13.5525L0.801752 16.1218L-0.755728 14.9902C-1.14285 15.8104 -1.49697 16.6492 -1.81533 17.5054L-0.895648 20.3363H2.49903L-0.247408 22.3315L0.801752 25.56L-1.94457 23.5648L-3.58965 24.76C-3.75644 26.1002 -3.84008 27.4495 -3.84009 28.8H28.5599V-3.59998C22.1594 -3.59998 16.1928 -1.74334 11.1682 1.4597ZM12.4234 25.56L9.67719 23.5648L6.93087 25.56L7.97991 22.3315L5.23347 20.3363H8.62815L9.67707 17.1078L10.726 20.3363H14.1207L11.3742 22.3315L12.4234 25.56ZM11.3744 12.8933L12.4234 16.1218L9.67719 14.1265L6.93087 16.1218L7.97991 12.8933L5.23347 10.8981H8.62815L9.67707 7.66958L10.726 10.8981H14.1207L11.3744 12.8933ZM24.0452 25.56L21.299 23.5648L18.5526 25.56L19.6017 22.3315L16.8552 20.3363H20.2499L21.299 17.1078L22.3479 20.3363H25.7426L22.9961 22.3315L24.0452 25.56ZM22.9961 12.8933L24.0452 16.1218L21.299 14.1265L18.5526 16.1218L19.6017 12.8933L16.8552 10.8981H20.2499L21.299 7.66958L22.3479 10.8981H25.7426L22.9961 12.8933ZM22.9961 3.45494L24.0452 6.68342L21.299 4.68818L18.5526 6.68342L19.6017 3.45494L16.8552 1.4597H20.2499L21.299 -1.76878L22.3479 1.4597H25.7426L22.9961 3.45494Z" fill="#0052B4"/>
</g>
</svg>
